<?xml version="1.0" encoding="UTF-8"?>
<svg width="27px" height="24px" viewBox="0 0 27 24" version="1.1" xmlns="http://www.w3.org/2000/svg" xmlns:xlink="http://www.w3.org/1999/xlink">
    <!-- Generator: Sketch 48.2 (47327) - http://www.bohemiancoding.com/sketch -->
    <title>Combined Shape</title>
    <desc>Created with Sketch.</desc>
    <defs>
        <linearGradient x1="-1.11022302e-14%" y1="50%" x2="100%" y2="50%" id="linearGradient-1">
            <stop stop-color="#F8E64C" offset="0%"></stop>
            <stop stop-color="#EFC925" offset="49.1171078%"></stop>
            <stop stop-color="#E3AF1B" offset="50.5321269%"></stop>
            <stop stop-color="#E3AF1B" offset="100%"></stop>
        </linearGradient>
    </defs>
    <g id="详情页-参与者-已开奖" stroke="none" stroke-width="1" fill="none" fill-rule="evenodd" transform="translate(-74.000000, -556.000000)">
        <path d="M95.2753792,580 C92.7930723,579.347495 90.1871171,579 87.5,579 C84.8128829,579 82.2069277,579.347495 79.7246208,580 L78.8368018,580 C78.0008697,580 77.3244247,579.308827 77.3244247,578.454694 C77.3244247,577.600562 78.0008697,576.909389 78.8368018,576.909389 L96.1631432,576.909389 C96.9990753,576.909389 97.6755203,577.600562 97.6755203,578.454694 C97.6755203,579.306017 96.9990753,580 96.1631432,580 L95.2753792,580 Z M75.7982988,565.946148 C74.8056295,565.946148 74,565.122922 74,564.10864 C74,563.094357 74.8056845,562.271131 75.8011036,562.271131 C76.7937729,562.271131 77.5994574,563.094357 77.5994574,564.10864 C77.5994574,564.305315 77.5664601,564.496371 77.5114645,564.673379 L81.847862,567.263873 L86.5087331,559.368766 C86.0220227,559.040037 85.7030211,558.478108 85.7030211,557.837509 C85.7030211,556.823226 86.5087331,556 87.5013749,556 C88.4940167,556 89.2997287,556.823226 89.2997287,557.837509 C89.2997287,558.475299 88.9780048,559.040037 88.4940167,559.368766 L93.1548878,567.263873 L97.4912852,564.673379 C97.4335674,564.496371 97.4032924,564.305315 97.4032924,564.10864 C97.4032924,563.094357 98.2090044,562.271131 99.2016462,562.271131 C100.194288,562.271131 101,563.094357 101,564.10864 C101,565.122922 100.194315,565.946148 99.2016462,565.946148 C99.1768707,565.946148 99.1548725,565.943339 99.130152,565.943339 L96.7323469,574.810583 L78.2675981,574.810583 L75.869793,565.943339 C75.845045,565.946148 75.8230468,565.946148 75.7982988,565.946148 Z" id="Combined-Shape" fill="url(#linearGradient-1)" fill-rule="nonzero"></path>
    </g>
</svg>