<?xml version="1.0" encoding="UTF-8"?>
<svg width="19px" height="19px" viewBox="0 0 19 19" version="1.1" xmlns="http://www.w3.org/2000/svg" xmlns:xlink="http://www.w3.org/1999/xlink">
    <!-- Generator: Sketch 48.2 (47327) - http://www.bohemiancoding.com/sketch -->
    <title>history</title>
    <desc>Created with Sketch.</desc>
    <defs></defs>
    <g id="我" stroke="none" stroke-width="1" fill="none" fill-rule="evenodd" transform="translate(-34.000000, -312.000000)">
        <path d="M50,321 L49.5,321 L49.5,313 C49.5,312.723858 49.2761424,312.5 49,312.5 L35,312.5 C34.7238576,312.5 34.5,312.723858 34.5,313 L34.5,330 C34.5,330.276142 34.7238576,330.5 35,330.5 L44,330.5 L44,331 L35,331 C34.4477153,331 34,330.552285 34,330 L34,313 C34,312.447715 34.4477153,312 35,312 L49,312 C49.5522847,312 50,312.447715 50,313 L50,321 Z M48.5,331 C46.0147186,331 44,328.985281 44,326.5 C44,324.014719 46.0147186,322 48.5,322 C50.9852814,322 53,324.014719 53,326.5 C53,328.985281 50.9852814,331 48.5,331 Z M48,324 L48,326 L49,326 L49,324 L48,324 Z M51,326 L48,326 L48,327 L51,327 L51,326 Z M37.25,317 L46.75,317 C46.8880712,317 47,317.111929 47,317.25 C47,317.388071 46.8880712,317.5 46.75,317.5 L37.25,317.5 C37.1119288,317.5 37,317.388071 37,317.25 C37,317.111929 37.1119288,317 37.25,317 Z M37.25,320 L46.75,320 C46.8880712,320 47,320.111929 47,320.25 C47,320.388071 46.8880712,320.5 46.75,320.5 L37.25,320.5 C37.1119288,320.5 37,320.388071 37,320.25 C37,320.111929 37.1119288,320 37.25,320 Z M37.25,323 L42.75,323 C42.8880712,323 43,323.111929 43,323.25 C43,323.388071 42.8880712,323.5 42.75,323.5 L37.25,323.5 C37.1119288,323.5 37,323.388071 37,323.25 C37,323.111929 37.1119288,323 37.25,323 Z M37.25,326 L39.75,326 C39.8880712,326 40,326.111929 40,326.25 C40,326.388071 39.8880712,326.5 39.75,326.5 L37.25,326.5 C37.1119288,326.5 37,326.388071 37,326.25 C37,326.111929 37.1119288,326 37.25,326 Z" id="history" fill="#807F80"></path>
    </g>
</svg>