<?xml version="1.0" encoding="UTF-8"?>
<svg width="23px" height="23px" viewBox="0 0 23 23" version="1.1" xmlns="http://www.w3.org/2000/svg" xmlns:xlink="http://www.w3.org/1999/xlink">
    <!-- Generator: Sketch 48.2 (47327) - http://www.bohemiancoding.com/sketch -->
    <title>Artboard</title>
    <desc>Created with Sketch.</desc>
    <defs></defs>
    <g id="详情页" stroke="none" stroke-width="1" fill="none" fill-rule="evenodd">
        <g id="Artboard" fill="#FFFFFF" fill-rule="nonzero">
            <path d="M20,8.66666667 L21.3320503,9.5547002 C21.7493483,9.83289886 22,10.3012459 22,10.8027756 L22,11 L22,21.5 C22,22.3284271 21.3284271,23 20.5,23 L2.5,23 C1.67157288,23 1,22.3284271 1,21.5 L1,11 L1,10.8027756 C1,10.3012459 1.2506517,9.83289886 1.66794971,9.5547002 L3,8.66666667 L3,4 C3,2.8954305 3.8954305,2 5,2 L18,2 C19.1045695,2 20,2.8954305 20,4 L20,8.66666667 Z M20,9.14740684 L20,12.1428571 L21.6,11.2285714 L21.6,10.8027756 C21.6,10.4349871 21.4161888,10.0915327 21.1101702,9.88752031 L20,9.14740684 Z M19.6,12.3714286 L19.6,4 C19.6,3.1163444 18.8836556,2.4 18,2.4 L5,2.4 C4.1163444,2.4 3.4,3.1163444 3.4,4 L3.4,12.3714286 L11.5,17 L19.6,12.3714286 Z M3,12.1428571 L3,9.14740684 L1.88982978,9.88752031 C1.58381125,10.0915327 1.4,10.4349871 1.4,10.8027756 L1.4,11.2285714 L3,12.1428571 Z M1.4,11.6892719 L1.4,21.5 C1.4,22.1075132 1.89248678,22.6 2.5,22.6 L20.5,22.6 C21.1075132,22.6 21.6,22.1075132 21.6,21.5 L21.6,11.6892719 L11.5,17.4607004 L1.4,11.6892719 Z M12.878689,6.5 C13.5860683,6.5 14.2518575,6.7784069 14.7481799,7.28183705 C15.7506015,8.29861929 15.7506015,9.94910295 14.7480743,10.9661735 L14.5793555,11.1371967 C14.55117,11.1650971 14.55117,11.1650971 14.5248318,11.188413 L12.1083505,13.2753736 C11.9382992,13.4222015 11.7217908,13.5 11.5000812,13.5 C11.2783716,13.5 11.0618633,13.4222015 10.891776,13.2753425 L8.47563951,11.1887692 C8.44789265,11.1641479 8.44789265,11.1641479 8.42306792,11.1396555 L8.25198592,10.9661675 C7.24935329,9.94919045 7.24933342,8.29866211 8.2519088,7.28185917 C8.74818456,6.77841124 9.41393353,6.5 10.1213175,6.5 C10.6147126,6.5 11.0890275,6.63548132 11.5000128,6.88983044 C11.9109684,6.63547684 12.3852624,6.5 12.878689,6.5 Z" id="Combined-Shape"></path>
        </g>
    </g>
</svg>