<?xml version="1.0" encoding="UTF-8"?>
<svg width="13px" height="15px" viewBox="0 0 13 15" version="1.1" xmlns="http://www.w3.org/2000/svg" xmlns:xlink="http://www.w3.org/1999/xlink">
    <!-- Generator: Sketch 48.2 (47327) - http://www.bohemiancoding.com/sketch -->
    <title>Shape</title>
    <desc>Created with Sketch.</desc>
    <defs></defs>
    <g id="设置-copy-16" stroke="none" stroke-width="1" fill="none" fill-rule="evenodd" transform="translate(-38.000000, -271.000000)">
        <path d="M45.7198163,279.29558 L43.2801837,279.29558 C40.3628609,279.29558 38,281.59116 38,284.425414 C38,285.29558 38.7250656,286 39.6207349,286 L49.3622047,286 C50.2664042,286 50.9914698,285.29558 51,284.425414 C51,281.59116 48.6371391,279.29558 45.7198163,279.29558 Z M44.4914698,278.89779 C46.7349081,278.89779 48.5518373,277.124309 48.5518373,274.944751 C48.5518373,272.765193 46.7349081,271 44.4914698,271 C42.2480315,271 40.4311024,272.773481 40.4311024,274.953039 C40.4311024,277.132597 42.2480315,278.89779 44.4914698,278.89779 Z" id="Shape" fill="#939393" fill-rule="nonzero"></path>
    </g>
</svg>