<?xml version="1.0" encoding="UTF-8"?>
<svg width="19px" height="19px" viewBox="0 0 19 19" version="1.1" xmlns="http://www.w3.org/2000/svg" xmlns:xlink="http://www.w3.org/1999/xlink">
    <!-- Generator: Sketch 48.2 (47327) - http://www.bohemiancoding.com/sketch -->
    <title>钱 copy</title>
    <desc>Created with Sketch.</desc>
    <defs></defs>
    <g id="iPhone-8-Copy-8" stroke="none" stroke-width="1" fill="none" fill-rule="evenodd" transform="translate(-22.000000, -271.000000)">
        <g id="Group-3" transform="translate(22.000000, 270.000000)" fill="#807F80" fill-rule="nonzero">
            <g id="钱-copy" transform="translate(0.000000, 1.000000)">
                <polygon id="Shape" points="11.7795759 4.94084821 9.5 7.54698661 7.22042411 4.94084821 5.39676339 4.94084821 8.58816964 8.58816964 5.85267857 8.58816964 5.85267857 9.5 8.58816964 9.5 8.58816964 11.3236607 5.85267857 11.3236607 5.85267857 12.2354911 8.58816964 12.2354911 8.58816964 14.9709821 10.4118304 14.9709821 10.4118304 12.2354911 13.1473214 12.2354911 13.1473214 11.3236607 10.4118304 11.3236607 10.4118304 9.5 13.1473214 9.5 13.1473214 8.58816964 10.4118304 8.58816964 13.6032366 4.94084821"></polygon>
                <path d="M9.5,0 C4.25379464,0 0,4.25379464 0,9.5 C0,14.7462054 4.25379464,19 9.5,19 C14.7462054,19 19,14.7462054 19,9.5 C19,4.25379464 14.7462054,0 9.5,0 Z M9.5,18.5 C4.52890625,18.5 0.5,14.4710938 0.5,9.5 C0.5,4.52890625 4.52890625,0.5 9.5,0.5 C14.4710938,0.5 18.5,4.52890625 18.5,9.5 C18.5,14.4710938 14.4710938,18.5 9.5,18.5 Z" id="Shape"></path>
            </g>
        </g>
    </g>
</svg>