<?xml version="1.0" encoding="UTF-8"?>
<svg width="15px" height="17px" viewBox="0 0 15 17" version="1.1" xmlns="http://www.w3.org/2000/svg" xmlns:xlink="http://www.w3.org/1999/xlink">
    <!-- Generator: Sketch 48.2 (47327) - http://www.bohemiancoding.com/sketch -->
    <title>Combined Shape</title>
    <desc>Created with Sketch.</desc>
    <defs></defs>
    <g id="Artboard-3-Copy" stroke="none" stroke-width="1" fill="none" fill-rule="evenodd" opacity="0.600000024">
        <path d="M12.5,0 C13.875,7.47449977e-17 15,1.05760369 15,2.35023042 L15,3.17281106 C15,3.52534563 11,5.05299539 7.5,5.05299539 C4,5.05299539 0,3.52534563 0,3.17281106 L0,2.35023042 C0,1.05760369 1.12500001,0 2.50000001,0 L12.5,0 Z M7.5,6.18894009 C9.70833332,6.18894009 11.875,5.67972351 12.9583333,5.32718894 C13.875,5.05299539 14.5,4.81797234 15,4.58294931 L15,14.6497696 C15,15.9423963 13.875,17 12.5,17 L2.50000001,17 C1.12500001,17 0,15.9423963 0,14.6497696 L0,4.58294931 C0.583333348,4.89631336 1.29166667,5.1313364 2.04166667,5.32718894 C3.12500001,5.640553 5.29166666,6.18894009 7.5,6.18894009 Z M9.66666667,10.7327189 L8.62500001,10.7327189 L10.2083333,7.99078342 L8.91666667,7.99078342 L7.70833334,10.3018433 L6.50000001,7.99078342 L5.20833333,7.99078342 L6.79166667,10.7327189 L5.74999999,10.7327189 L5.74999999,11.359447 L7.12499999,11.359447 L7.12499999,11.9078341 L5.74999999,11.9078341 L5.74999999,12.5345622 L7.12499999,12.5345622 L7.12499999,13.7096774 L8.29166667,13.7096774 L8.29166667,12.5345622 L9.66666667,12.5345622 L9.66666667,11.9078341 L8.29166667,11.9078341 L8.29166667,11.359447 L9.66666667,11.359447 L9.66666667,10.7327189 Z" id="Combined-Shape" fill="#FFFFFF" fill-rule="nonzero"></path>
    </g>
</svg>