<?xml version="1.0" encoding="UTF-8"?>
<svg width="23px" height="23px" viewBox="0 0 23 23" version="1.1" xmlns="http://www.w3.org/2000/svg" xmlns:xlink="http://www.w3.org/1999/xlink">
    <!-- Generator: Sketch 48.2 (47327) - http://www.bohemiancoding.com/sketch -->
    <title>home_sel</title>
    <desc>Created with Sketch.</desc>
    <defs></defs>
    <g id="详情页-参与者-未加入-copy-21" stroke="none" stroke-width="1" fill="none" fill-rule="evenodd" transform="translate(-207.000000, -558.000000)">
        <g id="Group-2" transform="translate(207.000000, 558.000000)" fill="#FFFFFF">
            <path d="M8,12 L7.40000001,12 C7.1790861,12 7,11.8209139 7,11.6 L7,9.40000001 C7,9.1790861 7.1790861,9 7.40000001,9 L10.2562937,9 C10.0504159,8.84299945 9.84536751,8.64925794 9.6412298,8.41910494 C8.7132917,7.37291051 8.83046723,6 9.74778389,6 C10.5772513,6 11.2784402,6.69083492 11.2784402,7.75 C11.2784402,8.21790726 11.3528708,8.59066764 11.5,8.87465485 C11.6471292,8.59066764 11.7215598,8.21790726 11.7215598,7.75 C11.7215598,6.69083492 12.4227487,6 13.2522161,6 C14.1695328,6 14.2867083,7.37291051 13.3587702,8.41910494 C13.1546325,8.64925794 12.9495841,8.84299945 12.7437063,9 L15.6,9 C15.8209139,9 16,9.1790861 16,9.40000001 L16,11.6 C16,11.8209139 15.8209139,12 15.6,12 L15,12 L8,12 Z M8,12.5 L15,12.5 L15,15.6 C15,15.8209139 14.8209139,16 14.6,16 L8.4,16 C8.1790861,16 8,15.8209139 8,15.6 L8,12.5 Z M16.773092,1.27749087 L16.5127042,1.70592396 C15.0094618,0.935003835 13.3055312,0.5 11.5,0.5 C5.42486775,0.5 0.5,5.42486775 0.5,11.5 C0.5,17.5751322 5.42486775,22.5 11.5,22.5 C17.5751322,22.5 22.5,17.5751322 22.5,11.5 C22.5,10.9911923 22.4654546,10.4904531 22.3985813,10 L22.9030603,10 C22.9670122,10.4909461 23,10.9916207 23,11.5 C23,17.8512746 17.8512746,23 11.5,23 C5.14872538,23 0,17.8512746 0,11.5 C0,5.14872538 5.14872538,0 11.5,0 C13.4006397,0 15.1935881,0.461081329 16.773092,1.27749087 Z M11.1821227,9 C11.0311463,8.66175623 10.956285,8.24355152 10.956285,7.75 C10.956285,6.94510417 10.414952,6.41176471 9.74778389,6.41176471 C9.19042969,6.41176471 9.11646402,7.27839827 9.85433799,8.11030683 C10.2603386,8.5680481 10.6620229,8.86347937 11.060231,9 L11.1821196,9 Z M11.939769,9 C12.3379771,8.86347937 12.7396614,8.5680481 13.145662,8.11030683 C13.883536,7.27839827 13.8095703,6.41176471 13.2522161,6.41176471 C12.585048,6.41176471 12.043715,6.94510417 12.043715,7.75 C12.043715,8.24355152 11.9688537,8.66175623 11.8178773,9 L11.939769,9 Z M20,5 L20,3 L21,3 L21,5 L23,5 L23,6 L21,6 L21,8 L20,8 L20,6 L18,6 L18,5 L20,5 Z" id="home_sel"></path>
        </g>
    </g>
</svg>