<?xml version="1.0" encoding="UTF-8"?>
<svg width="15px" height="17px" viewBox="0 0 15 17" version="1.1" xmlns="http://www.w3.org/2000/svg" xmlns:xlink="http://www.w3.org/1999/xlink">
    <!-- Generator: Sketch 48.2 (47327) - http://www.bohemiancoding.com/sketch -->
    <title>Shape Copy 2</title>
    <desc>Created with Sketch.</desc>
    <defs></defs>
    <g id="Artboard-3" stroke="none" stroke-width="1" fill="none" fill-rule="evenodd" opacity="0.600000024">
        <path d="M10.7655608,1.26638983 C10.9020846,1.26638983 11.1751321,1.28992072 11.3424839,1.44608028 C11.3733118,1.48244621 11.4944216,1.58726563 11.4944216,1.85252296 C11.4944216,2.15414622 11.3270699,2.62048572 10.8712566,3.05045929 C10.3119495,3.56386058 9.38270699,3.95318988 8.71550206,3.95318988 C8.51512038,3.95318988 8.42704052,3.92324147 8.41162654,3.92324147 C8.29051674,3.67509752 8.5635643,2.59053731 9.34086905,1.87605386 C9.74603641,1.49100289 10.2789196,1.26638983 10.7655608,1.26638983 Z M10.7655608,0 C9.99045802,0 9.13828538,0.323014974 8.47328244,0.947653202 C7.30182032,2.02365673 6.63681738,3.99597332 7.53302995,4.83452875 C7.82149149,5.10406443 8.24647681,5.21744054 8.71770405,5.21744054 C9.71961245,5.21744054 10.9483265,4.69762174 11.7388432,3.96816409 C12.9059014,2.89857808 13.104081,1.35409589 12.2100705,0.5198188 C11.8269231,0.164716245 11.3094539,1.85543596e-16 10.7655608,1.85543596e-16 Z M4.23664122,1.26638983 C4.72328244,1.26638983 5.2517616,1.49100289 5.66353494,1.87605386 C6.44964768,2.599094 6.70948326,3.69007173 6.60378743,3.90826727 C6.60378743,3.90826727 6.52891955,3.95318988 6.28669994,3.95318988 C5.61729301,3.95318988 4.69245449,3.5617214 4.13094539,3.05045929 C3.67293012,2.62048572 3.50998238,2.15414622 3.50998238,1.85466214 C3.50998238,1.59154398 3.63109219,1.48458538 3.67513212,1.44821945 C3.84028186,1.28778155 4.10011744,1.26638983 4.23664122,1.26638983 Z M4.23664122,0 C3.6883441,0 3.17087493,0.164716245 2.79213153,0.5198188 C1.89812096,1.35623506 2.09409865,2.90071725 3.26556078,3.96816409 C4.05387551,4.69762174 5.28258955,5.21744054 6.28669994,5.21744054 C6.75792719,5.21744054 7.18071051,5.10406443 7.46917205,4.83452875 C8.36758661,3.99597332 7.69597769,2.02365673 6.52891955,0.947653202 C5.85951262,0.325154146 5.00954198,3.56243704e-16 4.23664122,3.56243704e-16 Z M15,10.1803196 L15,5.84207877 C15,5.15540456 14.4384909,4.59921983 13.75367,4.59921983 L8.123165,4.59921983 L8.123165,10.1803196 L15,10.1803196 Z M8.123165,11.4210394 L8.123165,17 L13.75367,17 C14.4384909,17 15,16.4416761 15,15.7571411 L15,11.4210394 L8.123165,11.4210394 Z M6.876835,10.1803196 L6.876835,4.59921983 L1.24412801,4.59921983 C0.561509102,4.59921983 0,5.15754373 0,5.84207877 L0,10.1781804 L6.876835,10.1781804 L6.876835,10.1803196 Z M0,11.4210394 L0,15.7571411 C0,16.4416761 0.561509102,17 1.24412801,17 L6.87903699,17 L6.87903699,11.4210394 L0,11.4210394 Z" id="Shape-Copy-2" fill="#FFFFFF" fill-rule="nonzero"></path>
    </g>
</svg>