<?xml version="1.0" encoding="UTF-8"?>
<svg width="19px" height="19px" viewBox="0 0 19 19" version="1.1" xmlns="http://www.w3.org/2000/svg" xmlns:xlink="http://www.w3.org/1999/xlink">
    <!-- Generator: Sketch 48.2 (47327) - http://www.bohemiancoding.com/sketch -->
    <title>Combined Shape</title>
    <desc>Created with Sketch.</desc>
    <defs></defs>
    <g id="iPhone-8-Copy-8" stroke="none" stroke-width="1" fill="none" fill-rule="evenodd" transform="translate(-22.000000, -332.000000)">
        <path d="M37.6335597,334.24512 L37.2787069,334.599973 C35.7152749,333.289226 33.6998042,332.5 31.5,332.5 C26.5294373,332.5 22.5,336.529437 22.5,341.5 C22.5,346.470563 26.5294373,350.5 31.5,350.5 C36.4705627,350.5 40.5,346.470563 40.5,341.5 C40.5,339.815106 40.037003,338.238352 39.2312968,336.890024 L39.5953396,336.525981 C40.4861502,337.972712 41,339.676348 41,341.5 C41,346.746705 36.7467051,351 31.5,351 C26.2532949,351 22,346.746705 22,341.5 C22,336.253295 26.2532949,332 31.5,332 C33.837906,332 35.9785655,332.844513 37.6335597,334.24512 Z M32.45,347.2 L30.55,347.2 L30.55,345.3 L32.45,345.3 L32.45,347.2 Z M31.49905,337.7 C30.455,337.7 29.59905,338.555 29.59905,339.6 L27.6981,339.6 C27.6978377,337.500793 29.3993683,335.798837 31.498575,335.798575 C33.5977817,335.798313 35.2997377,337.499843 35.3,339.59905 C35.3,341.97405 32.45,342.21155 32.45,344.35 L30.55,344.35 C30.55,341.2625 33.39905,341.5 33.3981,339.6 C33.3981,338.55405 32.54215,337.7 31.49905,337.7 Z" id="Combined-Shape" fill="#979797" fill-rule="nonzero"></path>
    </g>
</svg>