<?xml version="1.0" encoding="UTF-8"?>
<svg width="7px" height="12px" viewBox="0 0 7 12" version="1.1" xmlns="http://www.w3.org/2000/svg" xmlns:xlink="http://www.w3.org/1999/xlink">
    <!-- Generator: Sketch 48.2 (47327) - http://www.bohemiancoding.com/sketch -->
    <title>Shape</title>
    <desc>Created with Sketch.</desc>
    <defs></defs>
    <g id="iPhone-8-Copy-8" stroke="none" stroke-width="1" fill="none" fill-rule="evenodd" transform="translate(-319.000000, -278.000000)">
        <path d="M324.194823,284.000232 C324.127906,283.950336 324.083842,283.925193 324.049353,283.89059 C322.438242,282.28099 320.828339,280.670123 319.216911,279.060869 C319.051338,278.895527 318.963455,278.709045 319.014445,278.472005 C319.108752,278.033609 319.629675,277.851995 319.974961,278.137837 C320.012948,278.169215 320.047048,278.205388 320.081953,278.240308 C321.840882,279.999006 323.599754,281.757791 325.358639,283.516662 C325.678581,283.836604 325.67884,284.16386 325.359114,284.483528 C323.591517,286.251212 321.823199,288.018047 320.057214,289.787315 C319.882023,289.962867 319.681919,290.040598 319.44184,289.979225 C319.024857,289.872736 318.86228,289.367062 319.132785,289.031295 C319.166237,288.989809 319.205448,288.952714 319.243205,288.914899 C320.844698,287.313205 322.446291,285.711468 324.048605,284.110537 C324.083266,284.075919 324.127359,284.050546 324.194737,284.000232 L324.194823,284.000232 Z" id="Shape" fill="#979797" fill-rule="nonzero"></path>
    </g>
</svg>