<?xml version="1.0" encoding="UTF-8"?>
<svg width="13px" height="15px" viewBox="0 0 13 15" version="1.1" xmlns="http://www.w3.org/2000/svg" xmlns:xlink="http://www.w3.org/1999/xlink">
    <!-- Generator: Sketch 48.2 (47327) - http://www.bohemiancoding.com/sketch -->
    <title>Shape</title>
    <desc>Created with Sketch.</desc>
    <defs></defs>
    <g id="设置-copy-16" stroke="none" stroke-width="1" fill="none" fill-rule="evenodd" transform="translate(-236.000000, -271.000000)">
        <path d="M245.330153,272.117403 C245.448473,272.117403 245.685115,272.138165 245.830153,272.275953 C245.85687,272.308041 245.961832,272.400529 245.961832,272.634579 C245.961832,272.900717 245.816794,273.312193 245.421756,273.691582 C244.937023,274.144583 244.131679,274.488109 243.553435,274.488109 C243.379771,274.488109 243.303435,274.461684 243.290076,274.461684 C243.185115,274.242733 243.421756,273.285768 244.09542,272.655342 C244.446565,272.315591 244.908397,272.117403 245.330153,272.117403 Z M245.330153,271 C244.658397,271 243.919847,271.285013 243.343511,271.836165 C242.328244,272.785579 241.751908,274.525859 242.528626,275.265761 C242.778626,275.503586 243.146947,275.603624 243.555344,275.603624 C244.423664,275.603624 245.48855,275.14496 246.173664,274.501321 C247.185115,273.557569 247.35687,272.19479 246.582061,271.458664 C246.25,271.145338 245.801527,271 245.330153,271 Z M239.671756,272.117403 C240.093511,272.117403 240.551527,272.315591 240.908397,272.655342 C241.589695,273.293318 241.814885,274.255946 241.723282,274.448471 C241.723282,274.448471 241.658397,274.488109 241.448473,274.488109 C240.868321,274.488109 240.066794,274.142695 239.580153,273.691582 C239.183206,273.312193 239.041985,272.900717 239.041985,272.636467 C239.041985,272.404304 239.146947,272.309928 239.185115,272.277841 C239.328244,272.136278 239.553435,272.117403 239.671756,272.117403 Z M239.671756,271 C239.196565,271 238.748092,271.145338 238.419847,271.458664 C237.645038,272.196678 237.814885,273.559456 238.830153,274.501321 C239.513359,275.14496 240.578244,275.603624 241.448473,275.603624 C241.85687,275.603624 242.223282,275.503586 242.473282,275.265761 C243.251908,274.525859 242.669847,272.785579 241.658397,271.836165 C241.078244,271.286901 240.341603,271 239.671756,271 Z M249,279.982635 L249,276.154775 C249,275.548886 248.513359,275.058135 247.919847,275.058135 L243.040076,275.058135 L243.040076,279.982635 L249,279.982635 Z M243.040076,281.077388 L243.040076,286 L247.919847,286 C248.513359,286 249,285.507361 249,284.90336 L249,281.077388 L243.040076,281.077388 Z M241.959924,279.982635 L241.959924,275.058135 L237.078244,275.058135 C236.486641,275.058135 236,275.550774 236,276.154775 L236,279.980747 L241.959924,279.980747 L241.959924,279.982635 Z M236,281.077388 L236,284.90336 C236,285.507361 236.486641,286 237.078244,286 L241.961832,286 L241.961832,281.077388 L236,281.077388 Z" id="Shape" fill="#939393" fill-rule="nonzero"></path>
    </g>
</svg>