<?xml version="1.0" encoding="UTF-8"?>
<svg width="13px" height="15px" viewBox="0 0 13 15" version="1.1" xmlns="http://www.w3.org/2000/svg" xmlns:xlink="http://www.w3.org/1999/xlink">
    <!-- Generator: Sketch 48.2 (47327) - http://www.bohemiancoding.com/sketch -->
    <title>Combined Shape Copy</title>
    <desc>Created with Sketch.</desc>
    <defs></defs>
    <g id="抽奖" stroke="none" stroke-width="1" fill="none" fill-rule="evenodd">
        <path d="M10.8333333,0 C12.025,6.59514685e-17 13,0.933179729 13,2.07373272 L13,2.79953917 C13,3.11059909 9.53333333,4.45852535 6.5,4.45852535 C3.46666667,4.45852535 0,3.11059909 0,2.79953917 L0,2.07373272 C0,0.933179729 0.975000005,0 2.16666667,0 L10.8333333,0 Z M6.5,5.46082949 C8.41388888,5.46082949 10.2916667,5.01152074 11.2305556,4.70046083 C12.025,4.45852535 12.5666667,4.25115207 13,4.0437788 L13,12.9262673 C13,14.0668203 12.025,15 10.8333333,15 L2.16666667,15 C0.975000005,15 0,14.0668203 0,12.9262673 L0,4.0437788 C0.505555568,4.3202765 1.11944445,4.52764976 1.76944445,4.70046083 C2.70833334,4.97695853 4.5861111,5.46082949 6.5,5.46082949 Z M8.37777778,9.47004608 L7.47500001,9.47004608 L8.84722222,7.05069125 L7.72777778,7.05069125 L6.68055556,9.08986174 L5.63333334,7.05069125 L4.51388889,7.05069125 L5.88611112,9.47004608 L4.98333333,9.47004608 L4.98333333,10.0230415 L6.17499999,10.0230415 L6.17499999,10.5069124 L4.98333333,10.5069124 L4.98333333,11.0599078 L6.17499999,11.0599078 L6.17499999,12.0967742 L7.18611111,12.0967742 L7.18611111,11.0599078 L8.37777778,11.0599078 L8.37777778,10.5069124 L7.18611111,10.5069124 L7.18611111,10.0230415 L8.37777778,10.0230415 L8.37777778,9.47004608 Z" id="Combined-Shape-Copy" fill="#939393" fill-rule="nonzero"></path>
    </g>
</svg>