<?xml version="1.0" encoding="UTF-8"?>
<svg width="40px" height="40px" viewBox="0 0 40 40" version="1.1" xmlns="http://www.w3.org/2000/svg" xmlns:xlink="http://www.w3.org/1999/xlink">
    <!-- Generator: Sketch 57.1 (83088) - https://sketch.com -->
    <title>com_logo_3</title>
    <desc>Created with Sketch.</desc>
    <g id="com_logo_3" stroke="none" stroke-width="1" fill="none" fill-rule="evenodd">
        <g id="Group-7" transform="translate(10.000000, 8.000000)" fill="#2F2F2F">
            <g id="Group-9">
                <path d="M4.1213846,0 L4.12112082,11.0015944 C5.27003882,10.3634424 6.59257615,10 8,10 L11.334,10 L11.3343076,10 L13.394,9.999 L13.3945,0 L17.5158846,0 L17.5158301,9.92306592 C19.2874342,9.6090437 20.7367235,8.36213119 21.3378975,6.708129 L24.015078,9.30670999 C22.8600426,11.8479257 20.414748,13.6784764 17.5158271,13.9617291 L17.5158846,24 L13.3945,24 L13.394,14 L8.09103845,14 C6.4728616,14 5.03422461,14.7687015 4.1203725,15.9608596 L4.1213846,24 L0,24 L0,0 L4.1213846,0 Z" id="Combined-Shape"></path>
            </g>
        </g>
    </g>
</svg>