<?xml version="1.0" encoding="UTF-8"?>
<svg width="40px" height="40px" viewBox="0 0 40 40" version="1.1" xmlns="http://www.w3.org/2000/svg" xmlns:xlink="http://www.w3.org/1999/xlink">
    <!-- Generator: Sketch 57.1 (83088) - https://sketch.com -->
    <title>com_logo_6</title>
    <desc>Created with Sketch.</desc>
    <g id="com_logo_6" stroke="none" stroke-width="1" fill="none" fill-rule="evenodd">
        <path d="M20.5499486,4 C25.1749371,4 40,7.17499206 40,19.1749621 L40,33.1249272 C40,34.0249249 39.5499011,35.6749208 37.5749061,35.6749208 L17.3749566,35.6749208 C13.9749651,35.6749208 0,33.8249254 0,20.6249584 L0,6.44999388 C0,6.44999388 0.249999375,4 2.64999338,4 L20.5499486,4 Z M7.199982,10.0999848 C5.66248584,10.0999848 5.57498606,11.5074812 5.57498606,11.8249804 L5.57498606,25.999945 C5.57498606,26.6624433 5.93748516,27.9249402 7.13748216,27.9249402 C8.33747916,27.9249402 8.799978,26.9249427 8.799978,25.999945 L8.799978,11.8249804 C8.799978,11.4374814 8.73747816,10.0999848 7.199982,10.0999848 Z M31.3499216,10.0999848 C30.1749246,10.0999848 29.8749253,11.0374824 29.8749253,11.6499809 L29.8749253,24.2749493 C29.8749253,24.2749493 29.8499254,25.2749468 28.6249284,25.2749468 C27.3999315,25.2749468 27.3999315,24.2999493 27.3999315,24.2999493 L27.3999315,12.5249787 L27.3999315,12.5249787 C27.3999315,12.2709793 27.0374324,10.5749836 25.0499374,10.5749836 C23.0624423,10.5749836 22.4749438,12.5249787 22.4749438,12.5249787 L19.3999515,21.8249554 L15.8499604,12.5249787 C15.8499604,12.5249787 15.4666613,10.5749836 13.4249664,10.5749836 C11.3832715,10.5749836 10.9999725,12.2582794 10.9999725,12.5249787 L10.999078,13.3280199 C10.9956138,16.2337131 10.9832725,26.0118204 10.9832725,26.4416439 C10.9832725,27.1666421 11.3499716,27.8833403 12.5249687,27.8833403 C13.6999658,27.8833403 13.9582651,27.2833418 13.9582651,26.4333439 L13.9581032,26.2890472 C13.9556022,24.8529802 13.9249652,16.4499689 13.9249652,16.4499689 L17.9423551,25.9336452 C17.9423551,25.9336452 18.5165537,27.0999423 19.4749513,27.0999423 C20.4333489,27.0999423 20.9746476,25.9335452 20.9746476,25.9335452 L24.4999388,16.5249687 L24.4996007,24.3670785 C24.5021117,24.7698553 24.6510022,27.9249402 28.6999283,27.9249402 C33.0249174,27.9249402 32.8249179,24.2999493 32.8249179,24.2999493 L32.8249179,11.6999808 L32.8249179,11.6999808 C32.8249179,11.0124825 32.5874185,10.0999848 31.3499216,10.0999848 Z" id="Combined-Shape" fill="#000000" fill-rule="nonzero"></path>
    </g>
</svg>