<?xml version="1.0" encoding="UTF-8"?>
<svg width="40px" height="40px" viewBox="0 0 40 40" version="1.1" xmlns="http://www.w3.org/2000/svg" xmlns:xlink="http://www.w3.org/1999/xlink">
    <!-- Generator: Sketch 57.1 (83088) - https://sketch.com -->
    <title>com_logo_1</title>
    <desc>Created with Sketch.</desc>
    <g id="com_logo_1" stroke="none" stroke-width="1" fill="none" fill-rule="evenodd">
        <g transform="translate(4.000000, 2.000000)" fill-rule="nonzero" id="Path">
            <polygon fill="#0A8F72" points="15.982659 30.825 15.982659 36 0.0289017341 27 0.0289017341 9 4.42196532 11.475 4.42196532 24.525"></polygon>
            <polygon fill="#0EBE97" points="15.982659 26.775 15.982659 18 23.8439306 13.5 23.8439306 15.525 27.5433526 13.5 27.5433526 11.475 31.9364162 9 31.9364162 27 15.982659 36 15.982659 30.825 27.5433526 24.525 27.5433526 15.3 20.6069364 19.125 20.6069364 22.95 23.8439306 21.15 23.8439306 22.5"></polygon>
            <polygon fill="#10D8AB" points="27.5433526 11.475 15.982659 5.175 4.42196532 11.475 0.0289017341 9 15.982659 0 31.9364162 9"></polygon>
            <polygon fill="#0A8F72" points="15.982659 18 15.982659 26.775 8.12138728 22.5 8.12138728 13.5"></polygon>
            <polygon fill="#10D8AB" points="23.8439306 13.5 15.982659 18 8.12138728 13.5 15.982659 9.225"></polygon>
        </g>
    </g>
</svg>