<?xml version="1.0" encoding="UTF-8"?>
<svg width="22px" height="22px" viewBox="0 0 22 22" version="1.1" xmlns="http://www.w3.org/2000/svg" xmlns:xlink="http://www.w3.org/1999/xlink">
    <!-- Generator: Sketch 57.1 (83088) - https://sketch.com -->
    <title>home</title>
    <desc>Created with Sketch.</desc>
    <g id="home" stroke="none" stroke-width="1" fill="none" fill-rule="evenodd">
        <path d="M10.8608186,9.69810087 C10.8656358,9.6950066 10.8725028,9.6922991 10.877115,9.68916185 C10.8588712,9.65263217 10.8440096,9.62074391 10.8373476,9.59800956 C10.845547,9.63123008 10.8541565,9.6646225 10.8608186,9.69810087 Z M13.9232685,13.0001974 C13.9238834,13.0001974 13.9238834,12.9993775 13.9238834,12.9989675 C13.9216286,12.9979426 13.9138391,12.9979426 13.9121992,12.9953802 C13.914659,12.9979426 13.9207061,12.9979426 13.9232685,13.0001974 Z M14.0114056,13.0251943 C13.9880673,13.016222 13.9356245,13.03258 13.9148845,12.9962531 C13.9020757,13.1022796 13.92138,13.142272 14.0114056,13.0251943 Z M11,3 C6.58164078,3 3,6.58164078 3,10.9999629 C3,15.4182106 6.58164078,19 11,19 C15.4182106,19 19,15.4182292 19,10.9999629 C19,6.58164078 15.4182106,3 11,3 Z M16.1099199,6.12508851 C15.8342762,6.13344585 15.6423917,6.13396586 15.4209407,6.28679378 C15.3317029,6.34847095 15.2711214,6.43016861 15.1578887,6.46192651 C15.0563563,6.49050861 14.9467637,6.46545516 14.8460299,6.4996274 C14.4825413,6.62298176 14.5401326,7.40151454 14.0612013,7.28391746 C13.8362216,7.22872186 13.6776736,6.96286555 13.5644409,6.78925571 C13.4646914,6.63652065 13.2830585,6.5101948 13.4057443,6.31903454 C13.3497872,6.3333906 13.2901158,6.31702878 13.2350131,6.32750331 C13.3117335,6.15903788 13.5690467,6.17376538 13.6118549,6.08764762 C13.718476,5.87186106 13.3183265,5.84931481 13.2050195,5.81939553 C13.341597,5.67382922 13.4107215,5.86836955 13.5455347,5.8353302 C13.6750921,5.8034423 13.4771717,5.63282253 13.399467,5.61365636 C13.371572,5.60674762 12.9153912,5.73972221 13.1794275,5.50343231 C12.8534726,5.29565024 12.5276849,5.08794245 12.2016557,4.88001179 C12.1467758,5.11117585 12.635476,5.24255326 12.7951012,5.32400948 C12.7703078,5.41946889 12.6218257,5.55847934 12.5081287,5.51778837 C12.4010433,5.47938174 12.44452,5.30192753 12.2828148,5.31975652 C12.1673534,5.58819433 12.5269234,5.50972818 12.5603342,5.6742378 C12.5982951,5.86166511 12.4244067,5.78223322 12.3575294,5.77900172 C12.3415947,5.77816598 12.2169403,5.6491472 12.2102173,5.74681667 C12.2021386,5.86281656 12.4090106,5.81757549 12.4236081,5.93470827 C12.1826567,5.9444585 12.0595809,5.85746786 11.8634248,5.72714906 C11.6344708,5.57519402 11.5169851,5.58890006 11.2364756,5.58890006 C11.3203648,5.55443067 11.4359375,5.52889435 11.5076806,5.4734016 C11.5468487,5.44307374 11.7006238,5.2936259 11.710764,5.26027082 C11.7542222,5.11630169 11.7084054,5.12722195 11.5706578,5.03285828 C11.4482135,4.94908058 11.2997128,4.79870415 11.1513422,4.76908202 C10.6137794,4.66177375 10.9855511,5.25442069 10.57749,5.33613691 C10.584473,5.33650835 10.5920317,5.33682407 10.5980305,5.33682407 L10.5746485,5.33682407 C10.5757071,5.33674978 10.5765428,5.33635977 10.57749,5.33613691 C10.4830892,5.33275683 10.3061735,5.309802 10.2453506,5.35966747 C10.2024125,5.39473116 10.1988095,5.53556165 10.1508013,5.58654143 C10.0653892,5.67759931 9.93804192,5.69578117 9.8361195,5.7614513 C9.73662999,5.82559854 9.51727764,5.99018245 9.45885054,6.10181795 C9.24350971,6.51324058 9.94405921,6.64094076 10.2096555,6.76119361 C10.3296484,6.81555348 10.680341,6.88995239 10.7456582,6.98075026 C10.8332618,7.10267458 10.6701636,7.21700301 10.8530779,7.30271219 C10.911505,7.33001284 11.0319808,7.3355844 11.0823105,7.27903306 C11.1640639,7.18687944 11.0490669,7.16607894 11.0294736,7.05964356 C10.9915498,6.85474012 11.0540627,6.9361592 11.157118,6.86001453 C11.3671473,6.70495799 11.3198447,6.69546777 11.2442758,6.44836904 C11.2091935,6.33335345 11.0768133,6.01230154 11.1932589,5.92739095 C11.3450839,5.81662832 11.668903,5.98743381 11.7853301,6.00171558 C11.9208119,6.01830026 11.9977366,6.20604329 12.0715783,6.28283797 C12.1206266,6.33381775 12.2083416,6.44199889 12.2940136,6.43029861 C12.4300154,6.41167103 12.3731112,6.29277392 12.4519859,6.23793119 C12.6635938,6.09117627 12.719328,6.29054529 12.8036628,6.48993289 C12.8830019,6.67721162 12.9580694,6.74672613 13.0992713,6.86684898 C13.1648671,6.92276888 13.4522482,7.12234219 13.4251333,7.24536226 C13.4067657,7.32822994 13.0784522,7.45390578 12.990663,7.48172644 C12.6697597,7.58337028 12.0677525,7.31532249 12.0031038,7.82422886 C12.1276096,7.77787347 12.4817566,7.48856089 12.5879691,7.625677 C12.6364046,7.68789277 12.5495625,7.77850492 12.5700101,7.84029353 C12.6305916,8.02552936 12.773465,7.96099211 12.9232842,7.93105426 C12.9130697,7.93742441 12.9025952,7.9429774 12.8915449,7.94793608 C13.0962441,7.84274502 13.0749607,7.86465982 13.1688972,7.69404005 C13.1995594,7.6382873 13.2451905,7.50338124 13.2883886,7.46348887 C13.4371865,7.32661419 13.4601041,7.42086642 13.5522763,7.52646607 C13.5764198,7.55428674 13.8043152,7.8824331 13.7231932,7.86607128 C13.4580984,7.81290002 13.2035895,7.82003162 12.9837357,7.96498506 C12.8570755,8.04865133 12.7372684,8.16153116 12.585982,8.21709819 C12.5497297,8.23033993 12.2812176,8.2557834 12.3129569,8.21000374 C12.3592937,8.14323787 12.5187704,8.09905539 12.5816919,8.02697796 C12.4072834,7.95516054 12.2618285,8.11374574 12.1247867,8.20647508 C11.979369,8.27526529 11.9455496,8.40348548 11.8217309,8.515901 C11.7676868,8.56491217 11.6654672,8.57325094 11.6123888,8.63775104 C11.5609076,8.70033824 11.5545003,8.79876915 11.5057306,8.85818056 C11.4715026,8.89978155 11.3837691,8.87465381 11.3480554,8.93735244 C11.3015143,9.01927296 11.3906407,9.09532476 11.3711031,9.15432759 C11.3353151,9.26156157 11.1313588,9.35254516 11.0529298,9.42974842 C11.0634044,9.41968247 11.0738046,9.40931936 11.0840563,9.39880769 C11.0054416,9.48128536 10.9059892,9.54194109 10.8446092,9.63738192 C10.8727827,9.77210227 10.9616305,10.0934513 10.9368556,10.1673859 C10.8551023,10.4106217 10.6963128,10.0350985 10.6319055,9.93807907 C10.4106403,9.60469543 9.96840693,9.82778073 9.66629832,9.85545282 C9.27992915,9.89079508 8.90149016,10.392217 9.13982296,10.7992381 C9.25422568,10.9944284 9.44666739,11.0699974 9.66743121,11.0248306 C9.86390302,10.9846039 9.92288728,10.7097402 10.1079002,10.7047258 C10.4478955,10.6956628 10.1153847,11.0378866 10.0859669,11.1634882 C10.0587591,11.2798224 10.1283664,11.2905755 10.2481179,11.3194176 C10.3365571,11.3405524 10.4617872,11.2815681 10.5384519,11.332065 C10.5867388,11.3639529 10.5844173,11.5385099 10.6508489,11.4834443 C10.5200843,11.5918483 10.550635,11.8488644 10.6847054,11.9417424 C10.8333546,12.044872 11.0083759,11.9493754 11.1640082,11.9889706 C11.4578337,12.0639453 11.317579,11.966573 11.5756165,11.8107921 C11.7497649,11.7058425 11.7783471,11.8305712 11.8973556,11.831054 C11.9783661,11.8313883 12.0298287,11.7145898 12.1652734,11.7485764 C12.2756832,11.776397 12.3193085,11.8616233 12.4511316,11.8812352 C12.5051757,11.8892025 12.5609842,11.860899 12.6125212,11.866582 C12.8563327,11.8936784 13.0429985,12.0494592 13.2351431,12.1903268 C13.3934683,12.3062525 13.4983436,12.282759 13.6832823,12.3356331 C13.8184112,12.3741326 14.06772,12.5696759 14.0549611,12.7413728 C14.0526768,12.7720721 13.9345597,12.92646 13.9143721,12.9959931 C13.9489529,13.0199508 14.1894215,12.9662038 14.2597903,12.9611523 C14.2366683,12.9880629 14.0729201,13.1031157 14.0729201,13.0420328 C14.0729201,13.073345 14.1887714,13.1376408 14.2170007,13.1576241 C14.3024127,12.8803089 14.4427046,13.0587475 14.6115415,13.1274448 C14.755102,13.1859091 14.9317948,13.1890477 15.0849199,13.2255229 C15.2148858,13.2564636 15.5015055,13.3442157 15.5978192,13.4504282 C15.7137448,13.5782769 15.6336072,13.7859847 15.5478237,13.9131835 C15.4356125,14.0799031 15.2664042,14.1440504 15.1964068,14.3402065 C15.1410998,14.4956902 15.1826265,14.6527896 15.1510172,14.8251551 C15.1082833,15.0584735 15.0740368,14.976683 14.9237718,15.119055 C14.7973345,15.238955 14.9216546,15.2181173 14.7495119,15.2945406 C14.5766078,15.3713724 14.4243556,15.3485104 14.3046413,15.5382221 C14.3094329,15.5262989 14.313333,15.5143386 14.3166759,15.5018583 C14.2661604,15.5725429 14.2409027,15.7173106 14.2169635,15.7647989 C14.156605,15.8859989 14.0733658,15.9624407 13.9779064,16.0633788 C13.9413199,16.1020269 13.6050019,16.5614949 13.5855757,16.5245741 C13.5605965,16.4765658 13.2954274,16.5727866 13.2827799,16.5043122 C13.2933288,16.5618664 13.2802727,16.5425702 13.3461286,16.5757396 C13.2851386,16.9533428 13.1254391,17.0096713 12.7546331,17.0134785 C12.786521,17.1949628 12.6202656,17.1587477 12.5429881,17.2563243 C12.4978213,17.3133028 12.4762593,17.4735223 12.4449472,17.5473084 C12.425391,17.5936452 12.2806233,17.7793453 12.2806233,17.8161362 C12.2804747,17.8500298 12.3293187,17.899691 12.3750612,17.9473093 C12.1136436,17.9990134 11.8471001,18.0350614 11.576378,18.0570505 C11.6270606,17.9932004 11.6392438,17.9370948 11.4778356,17.929406 C11.5210338,17.8120318 11.6224548,17.7450802 11.6654301,17.6314018 C11.685822,17.5777662 11.6689587,17.5565571 11.6861934,17.5034045 C11.745252,17.3199515 11.7196414,17.3891503 11.686342,17.2466484 C11.6083402,16.9126519 11.7140884,16.8212968 11.8051463,16.5154924 C11.8985999,16.2012378 11.8899083,15.7938639 11.9498026,15.4553544 C11.9781989,15.293352 12.0247401,14.9562911 11.9684859,14.803166 C11.9051001,14.6307262 11.626262,14.4949101 11.4985618,14.3789474 C11.3177647,14.2142149 11.2216553,14.0362221 11.0873992,13.8326187 C11.019259,13.7292291 10.9415729,13.6277524 10.8884202,13.5153183 C10.7747046,13.274924 10.8884945,13.4180017 10.9076235,13.2761126 C10.925954,13.1390151 10.8912988,13.0164779 10.945733,12.872583 C11.005943,12.7134964 11.1562451,12.6143598 11.2056277,12.453936 C11.2500702,12.3111369 11.2162509,12.1316397 11.0695517,12.0840029 C10.9877983,12.0573151 10.8975947,12.1188066 10.8154513,12.1053048 C10.7009,12.0867515 10.5712312,12.0012281 10.4813434,11.932865 C10.3558533,11.837257 10.3088293,11.6818848 10.1752047,11.5912355 C10.0633092,11.5157037 9.98374729,11.5609076 9.86407016,11.5255653 C9.7392672,11.488793 9.66221251,11.3347951 9.56153441,11.2865825 C9.41045225,11.2143194 9.3253188,11.3180804 9.16582358,11.2970942 C9.03019322,11.2793395 8.82332116,11.1290188 8.69658672,11.072226 C8.43888346,10.9568761 8.28196973,10.829566 8.17891443,10.5680369 C8.0906609,10.3437444 7.96201356,10.2391291 7.81052282,10.0523332 C7.65702632,9.86306728 7.60896232,9.70178917 7.37237527,9.65134797 C7.34459176,9.64531211 7.43026379,9.85002983 7.439104,9.86644736 C7.52364315,10.0229897 7.65060045,10.1659745 7.75270859,10.3117265 C7.90295502,10.5264173 7.83891921,10.5666997 7.68609129,10.3591034 C7.51133,10.1216063 7.30852518,9.88546496 7.15692301,9.63394613 C7.09961022,9.5388953 7.11062334,9.47744098 7.01609253,9.3871817 C6.92475607,9.29998677 6.80522752,9.2575129 6.71325962,9.17457093 C6.38234605,8.87697529 6.32217319,8.47970443 6.35991123,8.05544864 C6.37216866,7.9171625 6.42212699,7.80656701 6.40010075,7.67362957 C6.38191889,7.56325695 6.3167502,7.47199478 6.23533112,7.39068714 C6.20910764,7.34890043 6.1432518,7.2459937 6.13944456,7.2394564 C6.06432135,7.11465344 6.00587568,6.99193052 5.88653284,6.88956238 C5.81805836,6.83057812 5.64090129,6.69271913 5.47408876,6.57723925 C6.22353799,5.64251705 7.20418842,4.90177802 8.32917943,4.44186424 C8.33813107,4.49841559 8.36242307,4.55487407 8.39882394,4.60891821 C8.49133042,4.74609004 8.57947251,4.73524407 8.76002823,4.77320497 C8.74067634,4.98276995 8.49573195,4.98444142 8.3299223,4.96170945 C8.13200189,4.9345388 7.92377408,4.86879438 7.75231858,5.04225565 C7.84701655,5.099197 8.10692986,5.32094512 8.07238618,5.08924248 C8.2619864,5.07975225 8.44525361,5.07408783 8.63074944,5.09676408 C8.70507407,5.10588287 8.9540857,5.18945629 9.02157587,5.15134681 C9.04989797,5.13533786 9.08007726,4.99560311 9.11005226,4.9526278 C9.05717814,4.95292495 9.0004968,4.92623718 8.94782698,4.93128873 C9.07066132,4.77402213 9.19303137,4.89739506 9.3493508,4.9697325 C9.17724528,5.07431069 9.27931628,5.32493807 9.44757742,5.12129752 C9.58578927,4.95383498 9.41375804,4.83243066 9.23827244,4.73485406 C9.41522522,4.51351452 9.52435352,4.49354976 9.69085034,4.74335998 C9.71829956,4.58928775 9.84263823,4.65096492 9.97260417,4.66234948 L9.97260417,4.62381285 C9.91540281,4.62518717 9.85431993,4.59227782 9.7976943,4.59822081 C9.93009316,4.38698437 9.84559115,4.33873465 10.0348571,4.2697773 C10.1855864,4.21489743 10.6155809,4.26598864 10.6685664,4.12428527 C10.3676278,4.18278666 10.0040649,4.19678985 9.73256276,4.33362739 C9.61550426,4.39261165 9.47604809,4.57886893 9.35913817,4.45781748 C9.23931247,4.33362739 9.44484735,4.13392407 9.55000128,4.07304548 L9.52483639,4.07304548 C10.000982,3.97177308 10.4941023,3.91741322 11.0000371,3.91741322 C11.3269392,3.91741322 11.648214,3.94159379 11.9635643,3.98468053 C11.854436,4.04199332 11.9351308,4.08067852 11.8556432,4.1392542 C11.7038553,4.25088971 11.4344146,4.34404621 11.2537846,4.41460074 C11.4833886,4.41398787 12.0392075,4.62990442 12.1461815,4.30783106 C12.0720426,4.2964465 11.998108,4.28502481 11.9240434,4.27364025 C12.0624038,4.18189521 12.216736,4.10764488 12.3787756,4.05321073 C13.8409575,4.34287618 15.1415455,5.08452522 16.1309247,6.12523708 C16.1237745,6.12508851 16.1167544,6.12490279 16.1099199,6.12508851 Z M17.4046764,8.93386093 C17.4178439,8.90574312 17.4485989,8.89647576 17.461302,8.87327949 C17.4880269,8.82450976 17.4820654,8.79143326 17.5149747,8.74957227 C17.5502056,8.70433119 17.597731,8.69324379 17.6370476,8.65790152 C17.652908,8.64367547 17.6617296,8.63048944 17.6690098,8.61706198 C17.7870155,8.94637837 17.881082,9.28687503 17.9494822,9.6364719 C17.9474021,9.6389791 17.9462507,9.64276777 17.9436692,9.64486639 C17.9264716,9.658461 17.8143533,9.67511996 17.7913427,9.67591855 C17.7101465,9.67903863 17.6498251,9.62516163 17.591528,9.57446043 C17.532228,9.52294206 17.4623978,9.45402185 17.4202582,9.38733027 C17.37524,9.31608858 17.4030235,9.24289684 17.406255,9.16151491 C17.4089294,9.09309614 17.37563,8.99551954 17.4046764,8.93386093 Z M17.4962171,12.6018795 C17.3588039,12.4824995 17.19669,12.3224657 17.0989834,12.1678363 C16.9946281,12.0029552 17.0589425,11.8332826 17.0665755,11.6444624 C17.0729085,11.4856544 16.9953338,11.2596719 17.062824,11.1166871 C17.0938019,11.0514069 17.1648207,11.0298079 17.1940528,10.9763209 C17.2561943,10.863051 17.242414,10.7864978 17.3186701,10.6891255 C17.4004606,10.5845473 17.5104432,10.5588067 17.6015754,10.4767933 C17.6970348,10.3908241 17.694379,10.3229811 17.7548119,10.2128313 C17.7990315,10.132248 17.9029597,9.99791763 18.0013534,9.92766025 C18.054729,10.2774057 18.0825496,10.6355828 18.0825496,10.9999443 C18.0825496,11.630385 17.9986605,12.2413995 17.8433068,12.8235719 C17.7108708,12.7894182 17.6019282,12.6939588 17.4962171,12.6018795 Z" id="Shape" fill="#B5B9BF" fill-rule="nonzero"></path>
    </g>
</svg>