<?xml version="1.0" encoding="UTF-8"?>
<svg width="51px" height="52px" viewBox="0 0 51 52" version="1.1" xmlns="http://www.w3.org/2000/svg" xmlns:xlink="http://www.w3.org/1999/xlink">
    <!-- Generator: Sketch 57.1 (83088) - https://sketch.com -->
    <title>Combined Shape</title>
    <desc>Created with Sketch.</desc>
    <g id="company" stroke="none" stroke-width="1" fill="none" fill-rule="evenodd">
        <g id="company_details" transform="translate(-1145.000000, -499.000000)" fill="#00A73C" fill-rule="nonzero">
            <g id="Nipic_10574705_20131203174636643180" transform="translate(1144.000000, 499.000000)">
                <path d="M26.15,0.979939181 C39.1119063,0.951776212 49.9863383,10.7500033 51.3041959,23.6447721 C52.6220535,36.5395409 43.9545143,48.334976 31.2548747,50.9293865 C18.5552351,53.5237971 5.9558769,46.0729784 2.11066519,33.694523 C-1.73454652,21.3160676 4.42559562,8.03784581 16.36,2.98 C19.4559062,1.66263777 22.7854685,0.982441182 26.15,0.979939181 Z M3.50132607,19.1110547 C-0.0739551057,30.7398633 5.74446073,43.1858187 16.96,47.9 C19.8683234,49.126556 22.9936172,49.7556957 26.15,49.7500383 C38.3160089,49.7426592 48.4969517,40.517467 49.6997073,28.4110553 C50.9024629,16.3046435 42.735636,5.2566253 30.8088849,2.85570152 C18.8821338,0.454777752 7.07660725,7.48224605 3.50132607,19.1110547 Z M26.15,3.52999747 C37.8077927,3.52509589 47.5723481,12.3552182 48.7361889,23.9547711 C49.9000297,35.5543241 42.084396,46.1483541 30.6580101,48.4596003 C19.2316242,50.7708466 7.91308425,44.047138 4.47733218,32.9071308 C1.0415801,21.7671235 6.60674557,9.83621678 17.35,5.31 C20.1346922,4.13385645 23.1271169,3.52857054 26.15,3.52999747 Z M30.4972015,4.58386222 C19.4486572,2.35340492 8.50750081,8.85764908 5.18839444,19.6293158 C1.86928806,30.4009825 7.25219542,41.93521 17.64,46.31 C20.3359948,47.4486434 23.2334177,48.0335691 26.16,48.0300162 C37.4314359,48.0277327 46.8674159,39.4851116 47.9870712,28.2694243 C49.1067264,17.0537369 41.5457458,6.81431952 30.4972015,4.58386222 Z M30.44,5.36 C31.44,5.79 30.24,6.53 29.88,6.97 C29.5979598,7.29393872 29.4080207,7.68763081 29.33,8.11 C29.24,8.48 28.93,8.74 29.04,9.24 C29.15,9.74 29.29,9.53 29.68,9.37 C30.07,9.21 30.3,9.22 30.13,9.66 C29.96,10.1 29.21,10.72 29.25,11.1 C29.29,11.48 29.74,11.35 29.64,11.82 C29.59,12.08 29.08,12.38 29.08,12.66 C29.11,13.11 29.72,12.6 29.71,13.03 C29.7,13.46 29.33,13.93 29.42,14.35 C29.54,14.92 30,14.54 30.34,14.83 C30.98,15.36 29.57,16.23 29.68,16.72 C30.08,16.76 30.2,16.38 30.49,16.3 C30.97,16.18 30.88,16.63 30.76,16.93 C30.54,17.5 29.26,18.08 29.38,18.76 C29.5,19.44 31.04,18.74 31.38,19.27 C31.92,20.11 30.01,20.66 29.73,21.01 C29.45,21.36 29.44,21.73 29.91,21.73 C30.12,21.73 30.25,21.53 30.45,21.73 C30.65,21.93 30.42,21.94 30.45,22.23 C30.48,22.52 30.51,22.42 30.62,22.58 C30.73,22.74 30.85,22.59 30.84,22.91 C30.8311111,23.1944444 30.4508642,23.3603704 30.2681481,23.5833608 L30.21,23.67 L30.13,23.67 C30.04,23.82 29.86,23.9 29.75,24.05 C29.19,24.77 30.19,24.14 30.34,24.57 C30.43,24.82 29.67,25.21 29.54,25.41 C29.3671746,25.8020591 29.1417709,26.1687606 28.87,26.5 C28.45,26.88 28.51,26.94 28.87,27.36 C29.04,27.55 29.36,28.26 29.52,28.26 C29.9,28.19 29.85,27.45 29.9,27.19 C29.95,26.93 29.74,25.87 29.95,25.68 C30.35,25.32 30.64,26.01 30.74,26.21 C31.33,26.1 31.11,25.6 31.26,25.21 C31.3474411,25.0513556 31.5050836,24.9437191 31.6846752,24.9200367 C31.8642667,24.8963543 32.0444229,24.9594459 32.17,25.09 C32.43,25.35 32.17,26.04 32.17,26.35 C32.0562217,26.716792 31.9890277,27.096438 31.97,27.48 C32.44,27.54 32.75,26.41 32.82,26.13 C32.89,25.85 32.76,25.59 33.07,25.3 C33.38,25.01 33.54,25.3 33.81,25.3 C34.27,25.32 34.5,24.44 34.75,24.02 C34.85,23.88 35.61,22.13 35.75,23.13 C36.0302978,22.9130886 36.2193462,22.599197 36.28,22.25 C36.32,22.12 36.32,21.79 36.53,21.69 C36.74,21.59 36.75,21.79 36.92,21.79 C37.33,21.83 37.57,21.41 37.76,21.24 C37.9353846,21.0830769 38.2300592,20.7301775 38.4631224,20.8970414 L38.52,20.95 L38.5269215,21.0399756 C38.6132645,21.5679339 39.4740909,20.0259091 39.77,20.78 C39.89,20.61 40.17,20.17 40.46,20.28 C40.75,20.39 40.43,20.75 40.63,20.92 C40.88,20.79 40.84,20.55 40.94,20.33 C41.0575985,20.08534 41.2284363,19.8700844 41.44,19.7 C41.81,19.35 42.28,19.04 42.37,19.77 C42.84,19.8 42.76,19.4 43.19,19.1 C43.62,18.8 43.6,19.01 43.89,19.28 C44.13,18.98 44.34,18.26 44.89,18.46 C45.44,18.66 45.2,19.45 45.14,19.86 C45.3416667,19.8691667 46.1147222,19.9623611 46.3191898,20.1549884 L46.36,20.21 L46.51,20.39 C46.81,20.97 45.33,21.59 46.51,21.79 C46.52,22.1 46,22.45 45.81,22.71 C45.6390063,23.0213802 45.4344558,23.3131162 45.2,23.58 C44.96,23.79 44.32,23.78 44.65,24.2 C44.81,24.41 45.51,24.29 45.24,24.73 C44.8784717,24.8201416 44.5108188,24.8836453 44.14,24.92 C43.96,24.95 43.7,24.87 43.65,25.12 C43.6,25.37 43.82,25.29 43.94,25.37 C44.21,25.59 44.42,25.7 43.94,26 C43.8,26.1 43.11,26.23 43.6,26.52 C43.48,26.89 43.18,26.61 42.87,26.89 C42.56,27.17 42.75,27.33 42.29,27.52 C41.64,27.81 40.04,27.52 40.48,28.52 C40.61,28.77 40.9,29.19 40.61,29.43 C40.32,29.67 39.55,29.38 39.21,29.38 C39.05,29.4 38.91,29.3 38.82,29.54 C38.73,29.78 39.03,29.74 39.03,29.9 C39.03,30.36 38.57,30.11 38.36,30.36 C38.74,30.81 37.94,30.67 37.6,30.7 C37.26,30.73 36.59,30.74 36.38,31.03 C36.59,31.15 37.28,31.13 37.38,31.3 C37.62,31.76 37,31.76 36.83,31.76 C36.37,31.89 35.65,31.85 35.31,32.26 C35.013,32.215 34.6107,31.8703 34.31451,31.90387 L34.22,31.93 L34.2259042,32.0308492 C34.1939931,32.7264063 32.43625,31.6854167 32.35,32.27 C32.26,32.56 33.04,32.62 32.35,32.91 C32,33.05 31.55,32.89 31.35,33.31 C31.52,33.4 31.61,33.56 31.47,33.69 C31.33,33.82 31.18,33.69 31,33.69 C30.6250712,33.7777962 30.2349288,33.7777962 29.86,33.69 C29.5407253,33.5501775 29.2045446,33.4526851 28.86,33.4 C28.29,33.34 28.32,33.48 28.18,33.94 C27.97,34.66 27.09,34.84 26.53,35.34 C25.9470598,35.7866821 25.6007198,36.4756777 25.59,37.21 C25.65,37.53 25.87,37.68 25.72,38.01 C25.639603,38.1609715 25.5195553,38.2860933 25.3738608,38.3725794 L25.26,38.43 L25.26,38.52 C24.64,39.01 25.14,39.46 24.78,40.08 C24.62,40.34 24.27,40.43 24.1,40.67 C23.9618398,40.8878612 23.8921737,41.1421425 23.9,41.4 C23.8841391,41.7243122 23.7988876,42.0414477 23.65,42.33 C23.49,42.65 23.38,42.62 23.14,42.84 C22.7,43.25 23.15,43.75 22.63,44.18 C22.2755952,44.4126861 21.9726861,44.7155952 21.74,45.07 C21.48,45.53 21.77,45.87 21.57,46.3 C21.4058477,46.6484638 21.0727749,46.8869137 20.69,46.93 C20.3057767,46.9090221 19.9351096,46.7808475 19.62,46.56 C19.45,46.31 19.77,45.77 19.84,45.49 C19.99,44.92 20.05,44.99 20.52,44.69 C20.99,44.39 21.12,43.72 21.46,43.22 C21.685523,42.9135525 21.8017221,42.5403069 21.79,42.16 C21.81,41.77 21.78,41.41 21.95,41.16 C22.12,40.91 22.39,40.82 22.56,40.58 C22.9030601,39.9338891 22.7442384,39.1356012 22.18,38.67 C21.6042335,38.2419268 20.9528263,37.9264014 20.26,37.74 C19.7886773,37.5398929 19.3342353,37.3026314 18.9009399,37.0305517 L18.58,36.82 L18.5050437,36.757551 C18.3442857,36.635102 18.13,36.52 18.07,36.28 C18,36 18.2,35.88 18.2,35.64 C18.11,34.94 16.85,34.41 16.29,34.13 C15.8937913,33.9223422 15.524396,33.6671236 15.19,33.37 C14.96,33.18 14.49,32.92 14.4,32.64 C14.22,32.16 14.63,32.27 14.14,31.92 C13.8194391,31.6923254 13.5214127,31.4344823 13.25,31.15 C12.97,30.85 12.96,30.61 12.69,30.37 C12.3386067,30.1376828 12.0044082,29.8803499 11.69,29.6 C11.4,29.27 11.57,28.97 11.34,28.7 C11.11,28.43 10.76,28.3 10.54,27.95 C10.4196196,27.8031524 10.3310799,27.6328838 10.28,27.45 C10.26,27.25 10.45,27.13 10.41,26.9 C10.37,26.67 10,26.37 9.86,26.1 C9.72,25.83 9.37,25.29 9.95,25.29 C10.18,25.29 10.78,25.84 10.57,25.22 C10.36,24.6 9.17,24.26 9.36,23.4 C9.89833333,23.3055556 9.0808642,22.6848457 9.08946331,22.3550189 L9.1,22.3 L9.33,22.3 C9.26,22.02 9,21.81 8.88,21.58 C8.74691199,21.3307194 8.65889364,21.0598937 8.62,20.78 C8.525,20.0295 9.052725,20.56055 9.45725875,20.6841213 L9.52,20.7 L9.56188072,20.6615978 C9.78297578,20.4236332 9.97176471,19.6911765 10.32,20.19 C10.3883014,20.4027057 10.4417631,20.6198938 10.48,20.84 C10.4891791,21.1455031 10.5226176,21.449794 10.58,21.75 C10.87,21.75 11.26,21.58 11.38,21.75 C11.5,21.92 11.44,22.16 11.45,22.21 C11.46,22.26 11.54,22.27 11.63,22.49 C11.72,22.71 11.81,23.14 12.05,22.87 C12.29,22.6 11.96,22.15 12.51,22.15 C12.8161076,22.5378375 13.0129082,23.0004916 13.08,23.49 C13.45,23.49 13.43,22.51 13.97,22.97 C14.33,23.27 14.15,23.83 14.72,23.79 C15.29,23.75 15.19,23.4 15.1,22.93 C15.01,22.46 14.81,22.41 14.47,22.06 C14.13,21.71 13.49,21.09 13.59,20.54 C13.69,19.99 14.04,20.28 14.38,20.28 C14.98,20.22 14.73,19.87 14.38,19.66 C14.22,19.57 14.02,19.56 13.89,19.4 C13.76,19.24 13.79,19.12 13.63,18.96 C13.06,18.39 12.07,17.65 13.29,17.27 C13.13,16.74 11.99,16.04 12.99,15.79 C13,15.53 12.91,15.55 12.71,15.2 C12.51,14.85 11.97,14.32 12.24,13.85 C12.51,13.38 13,13.94 13.24,14.14 C13.64,14.46 13.87,14.41 13.91,13.93 C13.95,13.45 13.98,13.3 14.5,13.54 C14.8494694,13.730657 15.1059311,14.0557493 15.21,14.44 C15.3,14.64 15.35,14.87 15.52,14.74 C15.69,14.61 15.56,14.38 15.69,14.23 C16.46,13.36 16.45,15.8 16.54,15.89 C16.82,15.65 17.14,14.32 17.48,14.52 C17.82,14.72 17.73,16.06 17.73,16.47 C17.794,16.43 17.8068,16.454 17.80936,16.4652 L17.81,16.47 L17.89175,16.46266 C18.1226,16.3948 18.236,15.943 18.56,15.88 C18.92,15.81 19.08,16.16 19.11,16.51 C19.14,16.86 18.96,17.56 19.24,17.73 C19.52,17.9 19.88,17.62 20.12,17.83 C20.36,18.04 20.12,18.41 20.12,18.83 C20.12,19.25 20.35,19.3 20.6,19.71 C20.85,20.12 20.81,20.44 21.27,20.52 C21.4846667,20.5573333 21.9955111,20.3681778 21.9976267,20.7249185 L21.99,20.81 L21.9838477,20.9150977 C21.9571875,21.1760938 21.85875,21.53375 21.99,21.7 C22.14,21.89 22.42,21.77 22.51,21.95 C22.6,22.13 22.39,22.45 22.51,22.67 C22.63,22.89 22.88,22.85 22.98,23.09 C23.25,23.63 22.74,24.4 22.98,24.99 C23.31,24.92 23.74,24.51 23.98,24.82 C24.22,25.13 24,25.7 24.13,26.05 C24.43,26.77 24.6,26.04 24.43,25.59 C24.33,25.45 23.86,24.24 24.43,24.69 C24.47,24.23 23.84,23.49 24.14,23.13 C24.2651896,23.1573565 24.3948104,23.1573565 24.52,23.13 C24.4708841,22.9612306 24.381682,22.8068424 24.26,22.68 C24,22.32 23.62,21.94 23.75,21.48 C23.88,21.02 24.27,21.23 24.13,20.77 C23.99,20.31 23.5,20.06 23.5,19.54 C23.5165819,19.2888243 23.6272813,19.0531417 23.81,18.88 C23.94,18.77 24.21,18.76 24.3,18.65 C24.92,17.92 23.57,16.99 24.07,16.22 C24.18,16.04 24.38,16.35 24.32,15.96 C24.3,15.85 24,15.66 24,15.5 C23.88,15.07 23.99,14.5 24.51,14.5 C24.57,14.14 24.13,13.89 24.13,13.5 C24.1684024,13.2389783 24.2389377,12.9837077 24.34,12.74 C24.39,12.51 24.29,12.03 24.54,11.93 C24.96,11.76 25.06,12.38 25.14,12.6 C25.84,12.52 25.38,11.15 25.31,10.71 C25.27,10.43 25.07,9.98 25.45,9.9 C25.5475735,9.88495436 25.646758,9.9143853 25.7203333,9.98021576 C25.7755147,10.0295886 25.811943,10.095546 25.8249597,10.1670525 L25.83,10.24 L25.94,10.24 C26.0601819,9.81065877 26.1471058,9.37269603 26.2,8.93 C26.33,8.51 26.73,8.2 26.91,8.76 C26.97,8.6 26.94,8.22 27.14,8.09 C27.34,7.96 27.47,8.09 27.76,8.09 C27.68,7.65 27.32,7.52 27.4,7.04 C27.45,6.72 27.54,6.12 27.97,6.11 C28.4,6.1 28.25,6.83 28.65,6.48 C28.88,6.27 28.78,5.94 29.08,5.77 C29.38,5.6 29.28,5.92 29.46,5.6 C29.53,5.47 29.37,5.32 29.53,5.21 C29.69,5.1 30.27,5.29 30.44,5.36 Z M22.91,35.28 C22.5315385,35.6123077 22.7750888,35.8764497 22.8147975,36.2690578 L22.82,36.37 L22.8942245,36.3920486 C23.129375,36.5146528 22.985,37.07 23.37,37.18 C23.6366667,36.8422222 24.0376543,36.9232099 24.3833333,36.7768176 L24.51,36.71 L24.47,36.66 C25,36.36 24.75,35.96 24.29,35.66 C23.83,35.36 23.32,34.92 22.91,35.28 Z M25.88,32.57 L25.7893867,32.5868341 C25.1703719,32.7542149 24.8822727,33.9309091 25.56,34.16 C25.74,33.85 26.63,32.76 25.88,32.57 Z M27.02,29.84 C27.0541699,30.2734707 27.1539984,30.6987165 27.3156332,31.1012913 L27.42,31.34 L27.45,31.34 L27.5303319,31.3468978 C27.8608563,31.3223152 27.9944375,30.623771 28.07176,30.3255842 L28.09,30.26 L28.07,30.26 C28.21,29.84 28.49,29.04 27.95,28.84 C27.41,28.64 27.02,29.38 27.02,29.84 Z M25.37,30.66 C25.4154545,30.9236364 25.7005785,31.2616529 25.9924643,31.3209316 L26.08,31.33 L26.03,31.32 C26.3390909,31.2836364 26.2680165,30.9580165 26.3426972,30.6887453 L26.3633195,30.6258786 C26.3401,30.39919 26.2457,30.10791 25.9785,30.00799 L25.87,29.98 C25.48,29.92 25.32,30.37 25.37,30.66 Z M26.37,30.61 L26.3683195,30.6118786 L26.3683195,30.6138786 L26.3633195,30.6258786 L26.3693195,30.6938786 L26.37,30.61 L26.37,30.61 Z" id="Combined-Shape"></path>
            </g>
        </g>
    </g>
</svg>