<?xml version="1.0" encoding="UTF-8"?>
<svg width="50px" height="50px" viewBox="0 0 50 50" version="1.1" xmlns="http://www.w3.org/2000/svg" xmlns:xlink="http://www.w3.org/1999/xlink">
    <!-- Generator: Sketch 57.1 (83088) - https://sketch.com -->
    <title>idg</title>
    <desc>Created with Sketch.</desc>
    <g id="idg" stroke="none" stroke-width="1" fill="none" fill-rule="evenodd">
        <path d="M5,16 L8.10421286,16 L8.10421286,34 L5,34 L5,16 Z M38.2150776,34 L45,34 L45,23.9524941 L41.8957871,23.9524941 L41.8957871,31.0071259 L38.3924612,31.0071259 C34.9334812,31.0071259 32.0953437,28.3135392 32.0953437,25.0213777 C32.0953437,21.6864608 34.8891353,19.0356295 38.3924612,19.0356295 L45,19.0356295 L45,16.0427553 L38.2150776,16.0427553 C33.0266075,16.0427553 28.8137472,20.0617577 28.8137472,25.0213777 C28.8137472,29.9809976 32.9822616,34 38.2150776,34 L38.2150776,34 Z M17.3281596,16 L10.5432373,16 L10.5432373,34 L17.3281596,34 C22.5166297,34 26.72949,29.9809976 26.72949,25.0213777 C26.72949,20.0617577 22.5166297,16 17.3281596,16 L17.3281596,16 Z M17.1507761,31.0071259 L13.6474501,31.0071259 L13.6474501,18.9928741 L17.1507761,18.9928741 C20.6097561,18.9928741 23.4478936,21.6864608 23.4478936,24.9786223 C23.4478936,28.3135392 20.6097561,31.0071259 17.1507761,31.0071259 L17.1507761,31.0071259 Z" fill="#AE132A" fill-rule="nonzero"></path>
    </g>
</svg>