<?xml version="1.0" encoding="UTF-8"?>
<svg width="22px" height="22px" viewBox="0 0 22 22" version="1.1" xmlns="http://www.w3.org/2000/svg" xmlns:xlink="http://www.w3.org/1999/xlink">
    <!-- Generator: Sketch 57.1 (83088) - https://sketch.com -->
    <title>location</title>
    <desc>Created with Sketch.</desc>
    <g id="location" stroke="none" stroke-width="1" fill="none" fill-rule="evenodd">
        <path d="M11.0000967,11 C9.8961145,11 9.00012894,10.104 9.00012894,9 C9.00012894,7.896 9.8961145,7 11.0000967,7 C12.1040789,7 13.0000645,7.896 13.0000645,9 C13.0000645,10.104 12.1040789,11 11.0000967,11 M10.9984967,3 C7.69055004,3 5.00499333,5.6868 5.00499333,8.9972 L5.00499333,9.0452 C4.98099372,9.4608 5.04499268,9.9084 5.16499075,10.3724 C5.17299062,10.3964 5.18099049,10.4284 5.18899036,10.4524 C5.20499011,10.5164 5.22098985,10.5724 5.24498946,10.6364 C5.34898778,11.012 5.49298546,11.364 5.66058276,11.7076 C7.26655688,15.178 11.294092,19 11.294092,19 C11.294092,19 17.1439977,12.8912 16.9920001,9.1168 C16.9920001,9.0768 17,9.0448 17,9.0048 C16.9920001,5.6868 14.3148433,3 10.9984967,3" id="Shape" fill="#B5B9BF" fill-rule="nonzero"></path>
    </g>
</svg>