<?xml version="1.0" encoding="UTF-8"?>
<svg width="68px" height="21px" viewBox="0 0 68 21" version="1.1" xmlns="http://www.w3.org/2000/svg" xmlns:xlink="http://www.w3.org/1999/xlink">
    <!-- Generator: Sketch 57.1 (83088) - https://sketch.com -->
    <title>logo_dark</title>
    <desc>Created with Sketch.</desc>
    <g id="homepage" stroke="none" stroke-width="1" fill="none" fill-rule="evenodd">
        <path d="M0.48,14.0535252 C0.48,13.7383472 0.599849563,13.4197481 0.839552285,13.0977184 C1.07925501,12.7756887 1.34977259,12.6146763 1.65111316,12.6146763 C1.82917803,12.6146763 2.03121015,12.6968954 2.25721558,12.8613361 C2.483221,13.0257768 2.70237449,13.207344 2.91468261,13.4060432 C3.12699074,13.6047423 3.43175105,13.7863096 3.82897271,13.9507503 C4.22619436,14.115191 4.66450133,14.1974101 5.14390678,14.1974101 C5.8013771,14.1974101 6.34926082,14.046675 6.78757436,13.7452004 C7.22588791,13.4437258 7.4450414,12.9983723 7.4450414,12.4091264 C7.4450414,11.9980247 7.32519184,11.6314644 7.08548911,11.3094347 C6.84578639,10.987405 6.53075326,10.7201929 6.14038025,10.5077903 C5.75000725,10.2953878 5.32197309,10.08984 4.85626495,9.8911408 C4.3905568,9.69244162 3.92143137,9.46976485 3.44887458,9.2231038 C2.97631778,8.97644275 2.54485936,8.69895324 2.15448635,8.39062693 C1.76411335,8.08230062 1.44908021,7.67120504 1.20937749,7.15732785 C0.96967477,6.64345067 0.849825207,6.05763947 0.849825207,5.39987667 C0.849825207,4.67359692 0.997068956,4.03297297 1.29156087,3.47798561 C1.58605279,2.92299825 1.97984421,2.49134789 2.47294695,2.18302158 C2.96604969,1.87469527 3.49338777,1.6485927 4.054977,1.50470709 C4.61656623,1.36082148 5.21238978,1.28887975 5.8424655,1.28887975 C6.19859526,1.28887975 6.57526531,1.31286033 6.97248697,1.3608222 C7.36970862,1.40878407 7.79089423,1.48757739 8.23605642,1.59720452 C8.68121862,1.70683165 9.04419158,1.87812148 9.3249862,2.11107914 C9.60578082,2.34403679 9.74617602,2.61810051 9.74617602,2.93327852 C9.74617602,3.23475313 9.65029637,3.54650062 9.45853419,3.86853032 C9.26677201,4.19056002 9.00652725,4.35157246 8.67779209,4.35157246 C8.5545164,4.35157246 8.21893763,4.22139219 7.67104569,3.96102775 C7.12315376,3.70066331 6.51363312,3.57048304 5.8424655,3.57048304 C5.10281509,3.57048304 4.53095776,3.7109407 4.12688746,3.99186023 C3.72281716,4.27277975 3.52078504,4.65989476 3.52078504,5.15321686 C3.52078504,5.55061521 3.68515015,5.89662066 4.01388531,6.19124358 C4.34262047,6.4858665 4.75010899,6.72567225 5.23636308,6.91066804 C5.72261717,7.09566382 6.24995525,7.32861799 6.81839313,7.60953751 C7.38683101,7.89045704 7.91416909,8.19535293 8.40042318,8.52423433 C8.88667728,8.85311572 9.29416579,9.32930144 9.62290095,9.95280576 C9.95163611,10.5763101 10.1160012,11.3060047 10.1160012,12.1419116 C10.1160012,13.5670643 9.66742143,14.666745 8.77024839,15.4409866 C7.87307535,16.2152283 6.69170108,16.6023433 5.22609016,16.6023433 C3.92484681,16.6023433 2.80853374,16.3351311 1.87711745,15.8006989 C0.945701159,15.2662666 0.48,14.6838812 0.48,14.0535252 Z M11.7596688,20.1172456 L11.7596688,7.47593011 C11.7596688,7.22926906 11.8795184,7.03057287 12.1192211,6.87983556 C12.3589238,6.72909825 12.6568356,6.65373073 13.0129653,6.65373073 C13.3690951,6.65373073 13.6635826,6.72909825 13.8964367,6.87983556 C14.1292907,7.03057287 14.245716,7.22926906 14.245716,7.47593011 L14.245716,8.09257965 C14.5059647,7.65407112 14.8792105,7.2840851 15.3654646,6.98261048 C15.8517187,6.68113587 16.4030267,6.53040082 17.0194051,6.53040082 C18.0467025,6.53040082 18.9164679,6.93807061 19.6287274,7.7534224 C20.3409869,8.5687742 20.6971113,9.5519778 20.6971113,10.7030627 L20.6971113,12.3885714 C20.6971113,13.4985461 20.3341384,14.4783239 19.6081815,15.3279342 C18.8822247,16.1775445 18.0467021,16.6023433 17.1015885,16.6023433 C16.5126046,16.6023433 15.9681452,16.4413308 15.4681938,16.1193011 C14.9682424,15.7972714 14.6155423,15.417008 14.4100828,14.9784995 L14.4100828,20.1172456 C14.4100828,20.3364999 14.2765361,20.5317703 14.0094388,20.7030627 C13.7423415,20.8743551 13.4238841,20.96 13.054057,20.96 C12.68423,20.96 12.3760454,20.8743551 12.129494,20.7030627 C11.8829426,20.5317703 11.7596688,20.3364999 11.7596688,20.1172456 Z M14.4100828,12.7585612 C14.4100828,13.032629 14.5949936,13.3546539 14.9648206,13.7246454 C15.3346477,14.094637 15.752409,14.27963 16.2181171,14.27963 C16.6975226,14.27963 17.1221325,14.0843596 17.4919595,13.6938129 C17.8617866,13.3032663 18.0466973,12.8681901 18.0466973,12.3885714 L18.0466973,10.7030627 C18.0466973,10.223444 17.8617866,9.79521942 17.4919595,9.41837616 C17.1221325,9.04153289 16.6838255,8.85311408 16.1770255,8.85311408 C15.7113173,8.85311408 15.3004045,9.02440391 14.9442748,9.36698869 C14.588145,9.70957348 14.4100828,10.154927 14.4100828,10.7030627 L14.4100828,12.7585612 Z M21.8271328,13.8685303 C21.8271328,12.7585556 22.2380456,11.977474 23.0598835,11.5252621 C23.8817173,11.0730502 25.0665199,10.8469476 26.6143146,10.8469476 L27.4566943,10.8469476 L27.4566943,10.5797328 C27.4566943,10.0727073 27.3094505,9.63077955 27.0149586,9.25393628 C26.7204667,8.87709301 26.2650383,8.6886742 25.6486599,8.6886742 C25.0322815,8.6886742 24.5049434,8.7948739 24.0666299,9.00727646 C23.6283163,9.21967903 23.3749201,9.32587873 23.3064336,9.32587873 C23.0324876,9.32587873 22.8133342,9.18884687 22.6489666,8.91477903 C22.484599,8.6407112 22.4024164,8.33924111 22.4024164,8.01035971 C22.4024164,7.61296136 22.7551166,7.26695591 23.4605274,6.97233299 C24.1659383,6.67771007 24.9090095,6.53040082 25.6897516,6.53040082 C27.1827571,6.53040082 28.2922217,6.91066423 29.0181785,7.67120247 C29.7441353,8.4317407 30.1071082,9.38753792 30.1071082,10.5386228 L30.1071082,15.574594 C30.1071082,15.8075517 29.9838344,16.0062479 29.737283,16.1706886 C29.4907317,16.3351293 29.1825471,16.4173484 28.81272,16.4173484 C28.4702876,16.4173484 28.1860729,16.3351293 27.9600675,16.1706886 C27.734062,16.0062479 27.621061,15.8075517 27.621061,15.574594 L27.621061,14.9784995 C26.6759474,16.0610674 25.6349684,16.6023433 24.4980926,16.6023433 C23.7173466,16.6023433 23.0770075,16.3693891 22.5770561,15.9034738 C22.0771047,15.4375585 21.8271328,14.7592508 21.8271328,13.8685303 Z M24.4775468,13.5190956 C24.4775468,13.8890872 24.5768507,14.1665767 24.7754615,14.3515725 C24.9740723,14.5365682 25.2377414,14.6290647 25.5664765,14.6290647 C26.0047901,14.6290647 26.4294,14.423517 26.8403189,14.0124152 C27.2512379,13.6013135 27.4566943,13.1491083 27.4566943,12.6557862 L27.4566943,12.2241316 L27.1485066,12.2241316 C26.3129714,12.2241316 25.6589352,12.3097765 25.1863784,12.4810689 C24.7138216,12.6523613 24.4775468,12.9983667 24.4775468,13.5190956 Z M32.0795094,15.574594 L32.0795094,7.47593011 C32.0795094,7.22926906 32.1993589,7.03057287 32.4390616,6.87983556 C32.6787644,6.72909825 32.9903732,6.65373073 33.3738976,6.65373073 C33.71633,6.65373073 34.0005447,6.72909825 34.2265501,6.87983556 C34.4525556,7.03057287 34.5655566,7.22926906 34.5655566,7.47593011 L34.5655566,8.31868448 C34.7847134,7.83906578 35.1271407,7.4211186 35.5928488,7.06483042 C36.058557,6.70854224 36.5585009,6.53040082 37.0926955,6.53040082 L37.7296167,6.53040082 C37.9761681,6.53040082 38.1987458,6.6468779 38.3973566,6.87983556 C38.5959675,7.11279322 38.6952714,7.38000534 38.6952714,7.68147996 C38.6952714,7.99665797 38.5959675,8.27072169 38.3973566,8.50367934 C38.1987458,8.736637 37.9761681,8.85311408 37.7296167,8.85311408 L37.0926955,8.85311408 C36.4626198,8.85311408 35.9113118,9.13402939 35.438755,9.69586845 C34.9661982,10.2577075 34.7299233,10.990828 34.7299233,11.8952518 L34.7299233,15.574594 C34.7299233,15.7801439 34.5929524,15.9719895 34.3190064,16.1501336 C34.0450605,16.3282777 33.7300273,16.4173484 33.3738976,16.4173484 C33.0040705,16.4173484 32.6958859,16.3317035 32.4493346,16.1604111 C32.2027832,15.9891187 32.0795094,15.7938483 32.0795094,15.574594 Z M39.8458387,15.574594 L39.8458387,1.78219938 C39.8458387,1.53553834 39.9656883,1.33684214 40.205391,1.18610483 C40.4450937,1.03536752 40.7567026,0.96 41.1402269,0.96 C41.5237513,0.96 41.845633,1.03536752 42.1058816,1.18610483 C42.3661303,1.33684214 42.4962527,1.53553834 42.4962527,1.78219938 L42.4962527,10.3947379 L46.3588715,6.75650565 C46.5232383,6.61947174 46.7013013,6.55095581 46.8930635,6.55095581 C47.1807067,6.55095581 47.4683457,6.68798767 47.755989,6.9620555 C48.0436322,7.23612333 48.1874517,7.52389024 48.1874517,7.82536485 C48.1874517,8.00350894 48.1121177,8.16794717 47.9614474,8.31868448 L45.5370377,10.5180678 L48.5572769,14.8346146 C48.653158,14.9716485 48.7010978,15.115532 48.7010978,15.2662693 C48.7010978,15.5677439 48.5333084,15.8623638 48.1977246,16.1501336 C47.8621408,16.4379048 47.5299863,16.5817883 47.2012511,16.5817883 C46.9273052,16.5817883 46.7081517,16.4653112 46.5437841,16.2323535 L43.7700951,12.1419116 L42.4962527,13.3135457 L42.4962527,15.574594 C42.4962527,15.7801449 42.3592818,15.9719895 42.0853358,16.1501336 C41.8113898,16.3282777 41.4963567,16.4173484 41.1402269,16.4173484 C40.7703999,16.4173484 40.4622153,16.3317035 40.2156639,16.1604111 C39.9691125,15.9891187 39.8458387,15.7938483 39.8458387,15.574594 Z M49.4407482,12.3885714 L49.4407482,10.7441727 C49.4407482,9.48346064 49.8105697,8.46599908 50.5502239,7.69175745 C51.289878,6.91751583 52.3993425,6.53040082 53.8786507,6.53040082 C54.810067,6.53040082 55.5908013,6.69483905 56.220877,7.02372045 C56.8509528,7.35260185 57.1659859,7.72258787 57.1659859,8.13368962 C57.1659859,8.42146084 57.0632577,8.70922775 56.8577982,8.99699897 C56.6523387,9.2847702 56.4057911,9.42865365 56.1181478,9.42865365 C56.035964,9.42865365 55.7928406,9.33273135 55.3887703,9.14088386 C54.9847,8.94903638 54.5498173,8.85311408 54.0841092,8.85311408 C52.7554712,8.85311408 52.0911622,9.48346064 52.0911622,10.7441727 L52.0911622,12.3885714 C52.0911622,13.6492835 52.7623198,14.27963 54.104655,14.27963 C54.5703632,14.27963 55.0018216,14.1768561 55.3990432,13.9713052 C55.7962649,13.7657544 56.0496611,13.6629805 56.1592395,13.6629805 C56.4879747,13.6629805 56.7584922,13.8000123 56.9708004,14.0740802 C57.1831085,14.348148 57.289261,14.6290633 57.289261,14.9168345 C57.289261,15.3416397 56.9571065,15.7287547 56.2927875,16.0781912 C55.6284685,16.4276276 54.8306129,16.6023433 53.8991966,16.6023433 C52.406191,16.6023433 51.289878,16.2186541 50.5502239,15.4512641 C49.8105697,14.6838742 49.4407482,13.6629868 49.4407482,12.3885714 Z M58.7069243,15.574594 L58.7069243,1.78219938 C58.7069243,1.53553834 58.8267738,1.33684214 59.0664765,1.18610483 C59.3061793,1.03536752 59.6246367,0.96 60.0218583,0.96 C60.3916854,0.96 60.7067185,1.03536752 60.9669672,1.18610483 C61.2272159,1.33684214 61.3573382,1.53553834 61.3573382,1.78219938 L61.3573382,8.09257965 C61.5627977,7.65407112 61.8915279,7.2840851 62.3435388,6.98261048 C62.7955496,6.68113587 63.3297393,6.53040082 63.9461147,6.53040082 C64.8912283,6.53040082 65.7164781,6.9414964 66.421889,7.7636999 C67.1272999,8.58590339 67.48,9.56568119 67.48,10.7030627 L67.48,15.574594 C67.48,15.8349585 67.3464533,16.0405063 67.079356,16.1912436 C66.8122587,16.3419809 66.5006498,16.4173484 66.1445201,16.4173484 C65.8020876,16.4173484 65.4973273,16.3419809 65.23023,16.1912436 C64.9631327,16.0405063 64.829586,15.8349585 64.829586,15.574594 L64.829586,10.7030627 C64.829586,10.2371474 64.6515238,9.81234861 64.2953941,9.42865365 C63.9392643,9.04495868 63.521503,8.85311408 63.0420975,8.85311408 C62.5900867,8.85311408 62.1962952,9.02440391 61.8607114,9.36698869 C61.5251276,9.70957348 61.3573382,10.154927 61.3573382,10.7030627 L61.3573382,15.574594 C61.3573382,15.7801449 61.2237916,15.9719895 60.9566943,16.1501336 C60.6895969,16.3282777 60.3779881,16.4173484 60.0218583,16.4173484 C59.6520313,16.4173484 59.3404224,16.3317035 59.0870224,16.1604111 C58.8336224,15.9891187 58.7069243,15.7938483 58.7069243,15.574594 Z" id="logo_dark" fill="#191A1E" fill-rule="nonzero"></path>
    </g>
</svg>