<?xml version="1.0" encoding="UTF-8"?>
<svg width="67px" height="20px" viewBox="0 0 67 20" version="1.1" xmlns="http://www.w3.org/2000/svg" xmlns:xlink="http://www.w3.org/1999/xlink">
    <!-- Generator: Sketch 57.1 (83088) - https://sketch.com -->
    <title>Sparkch</title>
    <desc>Created with Sketch.</desc>
    <g id="homepage" stroke="none" stroke-width="1" fill="none" fill-rule="evenodd">
        <path d="M0,13.0935252 C0,12.7783472 0.119849563,12.4597481 0.359552285,12.1377184 C0.599255006,11.8156887 0.869772591,11.6546763 1.17111316,11.6546763 C1.34917803,11.6546763 1.55121015,11.7368954 1.77721558,11.9013361 C2.003221,12.0657768 2.22237449,12.247344 2.43468261,12.4460432 C2.64699074,12.6447423 2.95175105,12.8263096 3.34897271,12.9907503 C3.74619436,13.155191 4.18450133,13.2374101 4.66390678,13.2374101 C5.3213771,13.2374101 5.86926082,13.086675 6.30757436,12.7852004 C6.74588791,12.4837258 6.9650414,12.0383723 6.9650414,11.4491264 C6.9650414,11.0380247 6.84519184,10.6714644 6.60548911,10.3494347 C6.36578639,10.027405 6.05075326,9.76019291 5.66038025,9.54779034 C5.27000725,9.33538777 4.84197309,9.12983998 4.37626495,8.9311408 C3.9105568,8.73244162 3.44143137,8.50976485 2.96887458,8.2631038 C2.49631778,8.01644275 2.06485936,7.73895324 1.67448635,7.43062693 C1.28411335,7.12230062 0.969080213,6.71120504 0.729377492,6.19732785 C0.48967477,5.68345067 0.369825207,5.09763947 0.369825207,4.43987667 C0.369825207,3.71359692 0.517068956,3.07297297 0.811560871,2.51798561 C1.10605279,1.96299825 1.49984421,1.53134789 1.99294695,1.22302158 C2.48604969,0.914695272 3.01338777,0.688592703 3.574977,0.544707091 C4.13656623,0.40082148 4.73238978,0.328879753 5.3624655,0.328879753 C5.71859526,0.328879753 6.09526531,0.352860329 6.49248697,0.400822199 C6.88970862,0.44878407 7.31089423,0.52757739 7.75605642,0.637204522 C8.20121862,0.746831655 8.56419158,0.91812148 8.8449862,1.15107914 C9.12578082,1.38403679 9.26617602,1.65810051 9.26617602,1.97327852 C9.26617602,2.27475313 9.17029637,2.58650062 8.97853419,2.90853032 C8.78677201,3.23056002 8.52652725,3.39157246 8.19779209,3.39157246 C8.0745164,3.39157246 7.73893763,3.26139219 7.19104569,3.00102775 C6.64315376,2.74066331 6.03363312,2.61048304 5.3624655,2.61048304 C4.62281509,2.61048304 4.05095776,2.7509407 3.64688746,3.03186023 C3.24281716,3.31277975 3.04078504,3.69989476 3.04078504,4.19321686 C3.04078504,4.59061521 3.20515015,4.93662066 3.53388531,5.23124358 C3.86262047,5.5258665 4.27010899,5.76567225 4.75636308,5.95066804 C5.24261717,6.13566382 5.76995525,6.36861799 6.33839313,6.64953751 C6.90683101,6.93045704 7.43416909,7.23535293 7.92042318,7.56423433 C8.40667728,7.89311572 8.81416579,8.36930144 9.14290095,8.99280576 C9.47163611,9.61631007 9.63600123,10.3460047 9.63600123,11.1819116 C9.63600123,12.6070643 9.18742143,13.706745 8.29024839,14.4809866 C7.39307535,15.2552283 6.21170108,15.6423433 4.74609016,15.6423433 C3.44484681,15.6423433 2.32853374,15.3751311 1.39711745,14.8406989 C0.465701159,14.3062666 0,13.7238812 0,13.0935252 Z M11.2796688,19.1572456 L11.2796688,6.51593011 C11.2796688,6.26926906 11.3995184,6.07057287 11.6392211,5.91983556 C11.8789238,5.76909825 12.1768356,5.69373073 12.5329653,5.69373073 C12.8890951,5.69373073 13.1835826,5.76909825 13.4164367,5.91983556 C13.6492907,6.07057287 13.765716,6.26926906 13.765716,6.51593011 L13.765716,7.13257965 C14.0259647,6.69407112 14.3992105,6.3240851 14.8854646,6.02261048 C15.3717187,5.72113587 15.9230267,5.57040082 16.5394051,5.57040082 C17.5667025,5.57040082 18.4364679,5.97807061 19.1487274,6.7934224 C19.8609869,7.6087742 20.2171113,8.5919778 20.2171113,9.74306269 L20.2171113,11.4285714 C20.2171113,12.5385461 19.8541384,13.5183239 19.1281815,14.3679342 C18.4022247,15.2175445 17.5667021,15.6423433 16.6215885,15.6423433 C16.0326046,15.6423433 15.4881452,15.4813308 14.9881938,15.1593011 C14.4882424,14.8372714 14.1355423,14.457008 13.9300828,14.0184995 L13.9300828,19.1572456 C13.9300828,19.3764999 13.7965361,19.5717703 13.5294388,19.7430627 C13.2623415,19.9143551 12.9438841,20 12.574057,20 C12.20423,20 11.8960454,19.9143551 11.649494,19.7430627 C11.4029426,19.5717703 11.2796688,19.3764999 11.2796688,19.1572456 Z M13.9300828,11.7985612 C13.9300828,12.072629 14.1149936,12.3946539 14.4848206,12.7646454 C14.8546477,13.134637 15.272409,13.31963 15.7381171,13.31963 C16.2175226,13.31963 16.6421325,13.1243596 17.0119595,12.7338129 C17.3817866,12.3432663 17.5666973,11.9081901 17.5666973,11.4285714 L17.5666973,9.74306269 C17.5666973,9.26344399 17.3817866,8.83521942 17.0119595,8.45837616 C16.6421325,8.08153289 16.2038255,7.89311408 15.6970255,7.89311408 C15.2313173,7.89311408 14.8204045,8.06440391 14.4642748,8.40698869 C14.108145,8.74957348 13.9300828,9.19492703 13.9300828,9.74306269 L13.9300828,11.7985612 Z M21.3471328,12.9085303 C21.3471328,11.7985556 21.7580456,11.017474 22.5798835,10.5652621 C23.4017173,10.1130502 24.5865199,9.88694758 26.1343146,9.88694758 L26.9766943,9.88694758 L26.9766943,9.61973279 C26.9766943,9.1127073 26.8294505,8.67077955 26.5349586,8.29393628 C26.2404667,7.91709301 25.7850383,7.7286742 25.1686599,7.7286742 C24.5522815,7.7286742 24.0249434,7.8348739 23.5866299,8.04727646 C23.1483163,8.25967903 22.8949201,8.36587873 22.8264336,8.36587873 C22.5524876,8.36587873 22.3333342,8.22884687 22.1689666,7.95477903 C22.004599,7.6807112 21.9224164,7.37924111 21.9224164,7.05035971 C21.9224164,6.65296136 22.2751166,6.30695591 22.9805274,6.01233299 C23.6859383,5.71771007 24.4290095,5.57040082 25.2097516,5.57040082 C26.7027571,5.57040082 27.8122217,5.95066423 28.5381785,6.71120247 C29.2641353,7.4717407 29.6271082,8.42753792 29.6271082,9.57862282 L29.6271082,14.614594 C29.6271082,14.8475517 29.5038344,15.0462479 29.257283,15.2106886 C29.0107317,15.3751293 28.7025471,15.4573484 28.33272,15.4573484 C27.9902876,15.4573484 27.7060729,15.3751293 27.4800675,15.2106886 C27.254062,15.0462479 27.141061,14.8475517 27.141061,14.614594 L27.141061,14.0184995 C26.1959474,15.1010674 25.1549684,15.6423433 24.0180926,15.6423433 C23.2373466,15.6423433 22.5970075,15.4093891 22.0970561,14.9434738 C21.5971047,14.4775585 21.3471328,13.7992508 21.3471328,12.9085303 Z M23.9975468,12.5590956 C23.9975468,12.9290872 24.0968507,13.2065767 24.2954615,13.3915725 C24.4940723,13.5765682 24.7577414,13.6690647 25.0864765,13.6690647 C25.5247901,13.6690647 25.9494,13.463517 26.3603189,13.0524152 C26.7712379,12.6413135 26.9766943,12.1891083 26.9766943,11.6957862 L26.9766943,11.2641316 L26.6685066,11.2641316 C25.8329714,11.2641316 25.1789352,11.3497765 24.7063784,11.5210689 C24.2338216,11.6923613 23.9975468,12.0383667 23.9975468,12.5590956 Z M31.5995094,14.614594 L31.5995094,6.51593011 C31.5995094,6.26926906 31.7193589,6.07057287 31.9590616,5.91983556 C32.1987644,5.76909825 32.5103732,5.69373073 32.8938976,5.69373073 C33.23633,5.69373073 33.5205447,5.76909825 33.7465501,5.91983556 C33.9725556,6.07057287 34.0855566,6.26926906 34.0855566,6.51593011 L34.0855566,7.35868448 C34.3047134,6.87906578 34.6471407,6.4611186 35.1128488,6.10483042 C35.578557,5.74854224 36.0785009,5.57040082 36.6126955,5.57040082 L37.2496167,5.57040082 C37.4961681,5.57040082 37.7187458,5.6868779 37.9173566,5.91983556 C38.1159675,6.15279322 38.2152714,6.42000534 38.2152714,6.72147996 C38.2152714,7.03665797 38.1159675,7.31072169 37.9173566,7.54367934 C37.7187458,7.776637 37.4961681,7.89311408 37.2496167,7.89311408 L36.6126955,7.89311408 C35.9826198,7.89311408 35.4313118,8.17402939 34.958755,8.73586845 C34.4861982,9.2977075 34.2499233,10.030828 34.2499233,10.9352518 L34.2499233,14.614594 C34.2499233,14.8201439 34.1129524,15.0119895 33.8390064,15.1901336 C33.5650605,15.3682777 33.2500273,15.4573484 32.8938976,15.4573484 C32.5240705,15.4573484 32.2158859,15.3717035 31.9693346,15.2004111 C31.7227832,15.0291187 31.5995094,14.8338483 31.5995094,14.614594 Z M39.3658387,14.614594 L39.3658387,0.822199383 C39.3658387,0.575538335 39.4856883,0.376842138 39.725391,0.22610483 C39.9650937,0.0753675231 40.2767026,0 40.6602269,0 C41.0437513,0 41.365633,0.0753675231 41.6258816,0.22610483 C41.8861303,0.376842138 42.0162527,0.575538335 42.0162527,0.822199383 L42.0162527,9.43473792 L45.8788715,5.79650565 C46.0432383,5.65947174 46.2213013,5.59095581 46.4130635,5.59095581 C46.7007067,5.59095581 46.9883457,5.72798767 47.275989,6.0020555 C47.5636322,6.27612333 47.7074517,6.56389024 47.7074517,6.86536485 C47.7074517,7.04350894 47.6321177,7.20794717 47.4814474,7.35868448 L45.0570377,9.55806783 L48.0772769,13.8746146 C48.173158,14.0116485 48.2210978,14.155532 48.2210978,14.3062693 C48.2210978,14.6077439 48.0533084,14.9023638 47.7177246,15.1901336 C47.3821408,15.4779048 47.0499863,15.6217883 46.7212511,15.6217883 C46.4473052,15.6217883 46.2281517,15.5053112 46.0637841,15.2723535 L43.2900951,11.1819116 L42.0162527,12.3535457 L42.0162527,14.614594 C42.0162527,14.8201449 41.8792818,15.0119895 41.6053358,15.1901336 C41.3313898,15.3682777 41.0163567,15.4573484 40.6602269,15.4573484 C40.2903999,15.4573484 39.9822153,15.3717035 39.7356639,15.2004111 C39.4891125,15.0291187 39.3658387,14.8338483 39.3658387,14.614594 Z M48.9607482,11.4285714 L48.9607482,9.78417266 C48.9607482,8.52346064 49.3305697,7.50599908 50.0702239,6.73175745 C50.809878,5.95751583 51.9193425,5.57040082 53.3986507,5.57040082 C54.330067,5.57040082 55.1108013,5.73483905 55.740877,6.06372045 C56.3709528,6.39260185 56.6859859,6.76258787 56.6859859,7.17368962 C56.6859859,7.46146084 56.5832577,7.74922775 56.3777982,8.03699897 C56.1723387,8.3247702 55.9257911,8.46865365 55.6381478,8.46865365 C55.555964,8.46865365 55.3128406,8.37273135 54.9087703,8.18088386 C54.5047,7.98903638 54.0698173,7.89311408 53.6041092,7.89311408 C52.2754712,7.89311408 51.6111622,8.52346064 51.6111622,9.78417266 L51.6111622,11.4285714 C51.6111622,12.6892835 52.2823198,13.31963 53.624655,13.31963 C54.0903632,13.31963 54.5218216,13.2168561 54.9190432,13.0113052 C55.3162649,12.8057544 55.5696611,12.7029805 55.6792395,12.7029805 C56.0079747,12.7029805 56.2784922,12.8400123 56.4908004,13.1140802 C56.7031085,13.388148 56.809261,13.6690633 56.809261,13.9568345 C56.809261,14.3816397 56.4771065,14.7687547 55.8127875,15.1181912 C55.1484685,15.4676276 54.3506129,15.6423433 53.4191966,15.6423433 C51.926191,15.6423433 50.809878,15.2586541 50.0702239,14.4912641 C49.3305697,13.7238742 48.9607482,12.7029868 48.9607482,11.4285714 Z M58.2269243,14.614594 L58.2269243,0.822199383 C58.2269243,0.575538335 58.3467738,0.376842138 58.5864765,0.22610483 C58.8261793,0.0753675231 59.1446367,0 59.5418583,0 C59.9116854,0 60.2267185,0.0753675231 60.4869672,0.22610483 C60.7472159,0.376842138 60.8773382,0.575538335 60.8773382,0.822199383 L60.8773382,7.13257965 C61.0827977,6.69407112 61.4115279,6.3240851 61.8635388,6.02261048 C62.3155496,5.72113587 62.8497393,5.57040082 63.4661147,5.57040082 C64.4112283,5.57040082 65.2364781,5.9814964 65.941889,6.8036999 C66.6472999,7.62590339 67,8.60568119 67,9.74306269 L67,14.614594 C67,14.8749585 66.8664533,15.0805063 66.599356,15.2312436 C66.3322587,15.3819809 66.0206498,15.4573484 65.6645201,15.4573484 C65.3220876,15.4573484 65.0173273,15.3819809 64.75023,15.2312436 C64.4831327,15.0805063 64.349586,14.8749585 64.349586,14.614594 L64.349586,9.74306269 C64.349586,9.27714738 64.1715238,8.85234861 63.8153941,8.46865365 C63.4592643,8.08495868 63.041503,7.89311408 62.5620975,7.89311408 C62.1100867,7.89311408 61.7162952,8.06440391 61.3807114,8.40698869 C61.0451276,8.74957348 60.8773382,9.19492703 60.8773382,9.74306269 L60.8773382,14.614594 C60.8773382,14.8201449 60.7437916,15.0119895 60.4766943,15.1901336 C60.2095969,15.3682777 59.8979881,15.4573484 59.5418583,15.4573484 C59.1720313,15.4573484 58.8604224,15.3717035 58.6070224,15.2004111 C58.3536224,15.0291187 58.2269243,14.8338483 58.2269243,14.614594 Z" id="Sparkch" fill="#FFFFFF" fill-rule="nonzero"></path>
    </g>
</svg>