<?xml version="1.0" encoding="UTF-8"?>
<svg width="22px" height="22px" viewBox="0 0 22 22" version="1.1" xmlns="http://www.w3.org/2000/svg" xmlns:xlink="http://www.w3.org/1999/xlink">
    <!-- Generator: Sketch 57.1 (83088) - https://sketch.com -->
    <title>money</title>
    <desc>Created with Sketch.</desc>
    <g id="money" stroke="none" stroke-width="1" fill="none" fill-rule="evenodd">
        <path d="M21.2739933,8.92176133 C21.9520471,8.4824851 22,8.09725278 22,7.51684133 L22,4.03420016 C22,2.91147663 21.0653478,2 19.9176334,2 L2.0822151,2 C0.934626909,2 0,2.91147665 0,4.03420019 L0,7.5168167 C0,8.09725278 0.0565339271,8.56945318 0.76727136,8.94297968 C1.25192357,9.16580918 2.37778153,9.80677051 2.37778153,11.0016019 C2.37778153,12.3588361 1.55188146,12.80346 0.834632535,13.0411251 L0.769492337,13.0707716 C0.0739736435,13.4952862 0,14.1998286 0,14.4831833 L0,17.9647895 C0,19.0863547 0.934652165,20 2.08224036,20 L19.9176587,20 C21.0653731,20 22,19.0863547 22,17.9647895 L22,14.483208 C22,13.7308319 21.7869377,13.4528002 21.2435306,13.060224 C20.0176783,12.4446951 19.6221175,11.9417146 19.6221175,11.0016019 C19.6220922,10.0582115 19.9895123,9.5945132 21.2739933,8.92176133 Z M14.8665545,10.7087346 C14.8665545,11.030238 14.5991793,11.2923497 14.2709544,11.2923497 L11.8953939,11.2923497 L11.8953939,11.8674628 L14.2709544,11.8674628 C14.5991793,11.8674628 14.8665545,12.1295745 14.8665545,12.4510779 L14.8665545,13.0305036 C14.8665545,13.352007 14.5991793,13.6162874 14.2709544,13.6162874 L11.8953939,13.6162874 L11.8953939,15.3533815 C11.8953939,15.67592 11.6280187,15.9358877 11.2976991,15.9358877 L10.7022,15.9358877 C10.3717794,15.9358877 10.104379,15.67592 10.104379,15.3533815 L10.104379,13.6162874 L7.72881841,13.6162874 C7.40071973,13.6162874 7.13331932,13.3520069 7.13331932,13.0305036 L7.13331932,12.4510779 C7.13331932,12.1295745 7.40071973,11.8674628 7.72881841,11.8674628 L10.104379,11.8674628 L10.104379,11.2923497 L7.72881841,11.2923497 C7.40071973,11.2923497 7.13331932,11.030238 7.13331932,10.7087346 L7.13331932,10.1293336 C7.13331932,9.80783017 7.40071973,9.54569377 7.72881841,9.54569377 L9.29160284,9.54569377 L7.31579266,7.47548898 C7.10714715,7.24938187 7.10714715,6.89709835 7.31579266,6.67325843 L7.69401472,6.27099723 C7.90266022,6.05033638 8.3069535,6.0461223 8.51559903,6.27099723 L10.9976907,8.87190686 L13.4797823,6.26897644 C13.6863583,6.04819239 14.0949169,6.04819239 14.3013666,6.27102186 L14.6839044,6.67646214 C14.89255,6.90247068 14.89255,7.25689823 14.6839044,7.48073811 L12.7147824,9.54569377 L14.2709544,9.54569377 C14.5991793,9.54569377 14.8665545,9.80780553 14.8665545,10.1293336 L14.8665545,10.7087346 Z" id="Shape" fill="#B5B9BF" fill-rule="nonzero"></path>
    </g>
</svg>