<?xml version="1.0" encoding="UTF-8"?>
<svg width="22px" height="22px" viewBox="0 0 22 22" version="1.1" xmlns="http://www.w3.org/2000/svg" xmlns:xlink="http://www.w3.org/1999/xlink">
    <!-- Generator: Sketch 57.1 (83088) - https://sketch.com -->
    <title>step</title>
    <desc>Created with Sketch.</desc>
    <g id="step" stroke="none" stroke-width="1" fill="none" fill-rule="evenodd">
        <path d="M15,19 L15,17.6666667 L17.6666667,17.6666667 L17.6666667,15 L19,15 L19,19 L15,19 Z M17.6666667,4.33333333 L15,4.33333333 L15,3 L19,3 L19,7 L17.6666667,7 L17.6666667,4.33333333 Z M16.3333333,5.66666667 L16.3333333,16.3333333 L5.66666667,16.3333333 L5.66666667,11 L8.33333333,11 L8.33333333,8.33333333 L12.3333333,8.33333333 L12.3333333,5.66666667 L16.3333333,5.66666667 L16.3333333,5.66666667 Z M4.33333333,7 L3,7 L3,3 L7,3 L7,4.33333333 L4.33333333,4.33333333 L4.33333333,7 Z M4.33333333,17.6666667 L7,17.6666667 L7,19 L3,19 L3,15 L4.33333333,15 L4.33333333,17.6666667 Z" id="Shape" fill="#B4B9BF" fill-rule="nonzero"></path>
    </g>
</svg>