<?xml version="1.0" encoding="UTF-8"?>
<svg width="22px" height="22px" viewBox="0 0 22 22" version="1.1" xmlns="http://www.w3.org/2000/svg" xmlns:xlink="http://www.w3.org/1999/xlink">
    <!-- Generator: Sketch 57.1 (83088) - https://sketch.com -->
    <title>team</title>
    <desc>Created with Sketch.</desc>
    <g id="team" stroke="none" stroke-width="1" fill="none" fill-rule="evenodd">
        <path d="M10.988999,3 C13.5162288,3 14.9833621,5.14755733 14.9833621,7.79561316 C14.9833621,9.68594217 14.2332939,12.2781655 12.8851714,13.6131605 L12.8851714,13.6131605 L12.8851714,13.7308076 C15.2133831,14.4107677 16.5815074,15.7597208 18.0266388,16.7996012 L18.0266388,16.7996012 L18.0266388,19 L3.97136104,19 L3.97136104,16.7716849 C5.41049187,15.7128614 6.70160925,14.3479561 9.08782617,13.6879362 L9.08782617,13.6879362 L9.08782617,13.6321037 C7.72670243,12.3260219 6.95363215,9.77268195 6.95363215,7.88135594 C6.95363215,5.23330009 8.46076915,3 10.988999,3 Z M17.0655514,6.00797606 C18.6826984,6.00797606 19.9948177,7.4775673 19.9948177,9.29012961 C19.9948177,10.3481555 19.5478971,11.730134 18.8540811,12.6984144 L18.7017002,12.8993021 L18.7017002,14.5224327 C20.0872547,15.0510611 20.8967773,15.9682585 21.7916698,16.7312072 L22,16.9042871 L22,17.9810568 L18.9887263,17.9810568 L18.9887263,16.4307079 C17.9939691,15.7004542 17.0363512,14.8347057 15.8482597,14.089047 L15.3913992,13.8155533 L15.3913992,12.8494516 C15.2233839,12.6360917 15.0763706,12.3918245 14.9373579,12.1385842 C15.5614147,10.6400798 15.895445,8.93120637 15.8964451,7.53539381 C15.8964451,7.12462611 15.8674425,6.7238285 15.8094372,6.33599202 C16.1924721,6.13160517 16.6145104,6.00797606 17.0655514,6.00797606 Z M4.94644967,6.04087738 C5.37548868,6.04087738 5.78152559,6.14755733 6.15055914,6.33100698 C6.08155287,6.7547358 6.04254933,7.19242273 6.04254933,7.64207378 C6.04254933,9.07477567 6.40358214,10.8195414 7.07164288,12.3220339 C6.97230051,12.4981721 6.86762433,12.6698792 6.75583639,12.8297699 L6.58259842,13.0598205 L6.5825984,13.7417747 C5.32559524,14.45519 4.36491532,15.3332472 3.37956374,16.1126593 L3.00827347,16.3998006 L3.00827347,17.9810568 L2.5313085e-14,17.9810568 L2.5313085e-14,16.8823529 C0.889652304,16.1491241 1.67151421,15.2276283 2.96534975,14.6511043 L3.27329756,14.5244267 L3.27329756,13.0159522 C2.48922629,12.0309073 1.97417946,10.5144566 1.97417946,9.37088734 C1.97417946,7.5314058 3.30530048,6.04087738 4.94644967,6.04087738 Z" id="Combined-Shape" fill="#B5B9BF" fill-rule="nonzero"></path>
    </g>
</svg>