<?xml version="1.0" encoding="UTF-8"?>
<svg width="22px" height="22px" viewBox="0 0 22 22" version="1.1" xmlns="http://www.w3.org/2000/svg" xmlns:xlink="http://www.w3.org/1999/xlink">
    <!-- Generator: Sketch 57.1 (83088) - https://sketch.com -->
    <title>up</title>
    <desc>Created with Sketch.</desc>
    <g id="up" stroke="none" stroke-width="1" fill="none" fill-rule="evenodd">
        <path d="M18.3154286,2 L3.68685714,2 C2.75428571,2 2,2.75657143 2,3.68685714 L2,14.9394286 C2,15.872 2.75657143,16.6262857 3.68685714,16.6262857 L10.1577143,16.6262857 L10.1577143,18.3131429 L8.18742857,18.3131429 C7.72114286,18.3131429 7.344,18.6902857 7.344,19.1565714 C7.344,19.6228571 7.72114286,20 8.18742857,20 L13.8148571,20 C14.2811429,20 14.6582857,19.6228571 14.6582857,19.1565714 C14.6582857,18.6902857 14.2811429,18.3131429 13.8148571,18.3131429 L11.8445714,18.3131429 L11.8445714,16.6262857 L18.3154286,16.6262857 C19.248,16.6262857 20.0022909,15.8697143 20.0022909,14.9394286 L20.0022909,3.68685714 C20.0045714,2.75428571 19.248,2 18.3154286,2 Z M16.9531429,9.536 C16.9531429,10.0022857 16.576,10.3794286 16.1097143,10.3794286 C15.6434286,10.3794286 15.2662857,10.0022857 15.2662857,9.536 L15.2662857,8.42285714 L12.336,11.4468571 C12.0182857,11.776 11.4948571,11.792 11.1588571,11.4811429 L9.64342857,10.0891429 L6.53485714,13.0125714 C6.37257143,13.1657143 6.16457143,13.2411429 5.95657143,13.2411429 C5.73257143,13.2411429 5.50628571,13.152 5.34171429,12.976 C5.02171429,12.6354286 5.04,12.1028571 5.37828571,11.7828571 L9.05828571,8.32228571 C9.38057143,8.02057143 9.88114286,8.016 10.208,8.31542857 L11.696,9.68228571 L14.1165714,7.18171429 L12.7657143,7.18171429 C12.2994286,7.18171429 11.9222857,6.80457143 11.9222857,6.33828571 C11.9222857,5.872 12.2994286,5.49485714 12.7657143,5.49485714 L16.1074286,5.49485714 C16.16,5.49485714 16.2102857,5.50171429 16.2582857,5.51085714 C16.2742857,5.51314286 16.288,5.51771429 16.304,5.52228571 C16.3382857,5.53142857 16.3725714,5.54057143 16.4068571,5.55428571 C16.4205714,5.55885714 16.4365714,5.56342857 16.4502857,5.57028571 C16.4937143,5.59085714 16.5371429,5.61142857 16.576,5.63885714 C16.5828571,5.64342857 16.5874286,5.648 16.5942857,5.65257143 C16.6285714,5.67771429 16.6605714,5.70285714 16.6902857,5.73257143 L16.7222857,5.76457143 C16.7474286,5.78971429 16.768,5.81714286 16.7908571,5.84685714 C16.8,5.85828571 16.8091429,5.86971429 16.816,5.88342857 C16.8411429,5.92457143 16.8662857,5.96571429 16.8845714,6.01142857 C16.8868571,6.01371429 16.8868571,6.016 16.8868571,6.02057143 C16.9051429,6.064 16.9188571,6.10971429 16.928,6.15542857 C16.9302857,6.16914286 16.9325714,6.18285714 16.9348571,6.19885714 C16.9417143,6.23771429 16.9462857,6.27885714 16.9462857,6.31771429 C16.9462857,6.32685714 16.9485714,6.33371429 16.9485714,6.34285714 L16.9485714,9.536 L16.9531429,9.536 Z" id="Shape" fill="#B5B9BF" fill-rule="nonzero"></path>
    </g>
</svg>