<?xml version="1.0" encoding="UTF-8"?>
<svg width="22px" height="22px" viewBox="0 0 22 22" version="1.1" xmlns="http://www.w3.org/2000/svg" xmlns:xlink="http://www.w3.org/1999/xlink">
    <!-- Generator: Sketch 57.1 (83088) - https://sketch.com -->
    <title>work</title>
    <desc>Created with Sketch.</desc>
    <g id="work" stroke="none" stroke-width="1" fill="none" fill-rule="evenodd">
        <path d="M19.5712742,20 L2.42841388,20 C1.63956902,20 1,19.3802337 1,18.6155026 L1,13.0768433 L8.14269323,13.0768433 C8.14269323,13.8415745 8.7824182,14.4616215 9.57141902,14.4616215 L12.4284027,14.4616215 C13.2174036,14.4616215 13.8569949,13.8415745 13.8569949,13.0768433 L21,13.0768433 L21,18.6155026 C21,19.3802337 20.360275,20 19.5712742,20 Z M12.4284027,10.3076109 L9.57141902,10.3076109 C8.7824182,10.3076109 8.14269323,10.9276579 8.14269323,11.6921084 L1,11.6921084 L1,6.15357871 C1,5.38897713 1.63956902,4.76908127 2.42841388,4.76908127 L6.71425707,4.76908127 L6.71425707,3.38434628 C6.71425707,2.61961514 7.35382608,2 8.14267095,2 L13.8569726,2 C14.6459511,2 15.2856761,2.61961514 15.2856761,3.38434628 L15.2856761,4.76910286 L19.5712519,4.76910286 C20.3602527,4.76910286 20.9999777,5.38899873 20.9999777,6.15360031 L20.9999777,11.6921084 L13.8569726,11.6921084 C13.8569726,10.9276579 13.2174258,10.3076325 12.4284027,10.3076325 L12.4284027,10.3076109 Z M12.4284027,3.38432469 L9.57141902,3.38432469 C8.7824182,3.38432469 8.14269323,4.00437172 8.14269323,4.76908127 L13.8569949,4.76908127 C13.8569949,4.00435012 13.2174258,3.38432469 12.4284027,3.38432469 Z" id="Shape" fill="#B5B9BF" fill-rule="nonzero"></path>
    </g>
</svg>