<?xml version="1.0" encoding="UTF-8"?>
<svg width="30px" height="30px" viewBox="0 0 30 30" version="1.1" xmlns="http://www.w3.org/2000/svg" xmlns:xlink="http://www.w3.org/1999/xlink">
    <!-- Generator: Sketch 60.1 (88133) - https://sketch.com -->
    <title>Group</title>
    <desc>Created with Sketch.</desc>
    <g id="Page-1" stroke="none" stroke-width="1" fill="none" fill-rule="evenodd">
        <g id="Group">
            <path d="M15,0 C23.2842712,0 30,6.71572875 30,15 C30,23.2842712 23.2842712,30 15,30 C6.71572875,30 0,23.2842712 0,15 C0,6.71572875 6.71572875,0 15,0 Z" id="Path" fill="#F1F3F4" fill-rule="nonzero"></path>
            <path d="M15.3394361,8 C15.8764974,8 16.3172188,8.42559624 16.3172188,8.94685336 L16.3172188,10.4701664 C16.3172188,10.9914246 15.8764974,11.4170198 15.3394361,11.4170198 L11.94239,11.4170198 L15.0085272,18.7243878 L19.2446254,8.58450967 C19.3871018,8.2336629 19.7531907,8 20.1645795,8 L22.0153195,8 C22.3498758,8 22.6573452,8.15887433 22.8276898,8.42296139 C23.0135238,8.67823551 23.0492019,8.99169301 22.9339546,9.29149599 L16.8954036,23.4223241 C16.7336274,23.7798372 16.3771926,24 15.978382,24 L14.0395116,24 C13.6164073,24 13.2559462,23.7773508 13.1208765,23.4186566 L7.08736536,9.29905365 C6.94647043,9.00547888 6.97685062,8.68177773 7.17228573,8.41735179 C7.36358786,8.1585174 7.66789638,8 7.98054158,8 L15.3394361,8 Z" id="Vation-path" fill="#000000"></path>
        </g>
    </g>
</svg>