<?xml version="1.0" encoding="UTF-8"?>
<svg width="233px" height="15px" viewBox="0 0 233 15" version="1.1" xmlns="http://www.w3.org/2000/svg" xmlns:xlink="http://www.w3.org/1999/xlink">
    <!-- Generator: Sketch 51.2 (57519) - http://www.bohemiancoding.com/sketch -->
    <title>slogan_home</title>
    <desc>Created with Sketch.</desc>
    <defs></defs>
    <g id="slogan_home" stroke="none" stroke-width="1" fill="none" fill-rule="evenodd" opacity="0.699999988">
        <path d="M7.46072136,0 C7.71854327,0.546038544 7.97636517,1.17237687 8.21807321,1.86295503 L13.8740412,1.86295503 L13.8740412,2.97109208 L11.070228,2.97109208 C10.8768616,3.82226981 10.6190397,4.64132762 10.2806484,5.41220557 L14.2124325,5.41220557 L14.2124325,6.52034261 L2.64267452,6.52034261 L2.64267452,8.89721627 C2.57821905,11.4025696 1.99811976,13.4100642 0.886262797,14.9197002 L0,14.1327623 C0.934604404,12.8800857 1.43413434,11.1295503 1.46636208,8.89721627 L1.46636208,5.41220557 L4.76970523,5.41220557 L4.09292274,2.97109208 L1.1440847,2.97109208 L1.1440847,1.86295503 L7.04176077,1.86295503 C6.8161666,1.25267666 6.54223083,0.706638116 6.25218119,0.208779443 L7.46072136,0 Z M5.91378994,5.41220557 L9.16879148,5.41220557 C9.5232966,4.64132762 9.79723237,3.82226981 9.95837106,2.97109208 L5.23700744,2.97109208 L5.91378994,5.41220557 Z M25.0530379,1.5357334 L26.2332529,1.5357334 L26.2332529,13.6355937 L25.0530379,13.6355937 L25.0530379,1.5357334 Z M39.3946331,0.883297645 L48.2733749,0.883297645 L48.2733749,6.13490364 L39.3946331,6.13490364 L39.3946331,0.883297645 Z M47.1131764,5.04282655 L47.1131764,1.97537473 L40.5548317,1.97537473 L40.5548317,5.04282655 L47.1131764,5.04282655 Z M42.9235704,7.7248394 L42.9235704,14.6948608 L41.7955996,14.6948608 L41.7955996,13.875803 L38.3955732,13.875803 L38.3955732,14.6948608 L37.2514885,14.6948608 L37.2514885,7.7248394 L42.9235704,7.7248394 Z M38.3955732,12.7837259 L41.7955996,12.7837259 L41.7955996,8.83297645 L38.3955732,8.83297645 L38.3955732,12.7837259 Z M50.4165195,7.7248394 L50.4165195,14.6948608 L49.256321,14.6948608 L49.256321,13.875803 L45.7273836,13.875803 L45.7273836,14.6948608 L44.5832989,14.6948608 L44.5832989,7.7248394 L50.4165195,7.7248394 Z M45.7273836,12.7837259 L49.256321,12.7837259 L49.256321,8.83297645 L45.7273836,8.83297645 L45.7273836,12.7837259 Z M61.4666052,1.5357334 L62.6468202,1.5357334 L62.6468202,13.6355937 L61.4666052,13.6355937 L61.4666052,1.5357334 Z M73.0849566,1.17237687 L87.4585278,1.17237687 L87.4585278,2.29657388 L85.331497,2.29657388 L85.331497,13.2173448 C85.331497,14.2773019 84.8158532,14.8233405 83.7845656,14.8233405 L81.0935495,14.8233405 L80.8357276,13.6991435 C81.7219904,13.7312634 82.5760254,13.7633833 83.3817189,13.7633833 C83.8973627,13.7633833 84.1712985,13.4743041 84.1712985,12.9282655 L84.1712985,2.29657388 L73.0849566,2.29657388 L73.0849566,1.17237687 Z M81.2224604,4.75374732 L81.2224604,10.6477516 L76.0821362,10.6477516 L76.0821362,12.0610278 L74.9541654,12.0610278 L74.9541654,4.75374732 L81.2224604,4.75374732 Z M76.0821362,9.58779443 L80.1106035,9.58779443 L80.1106035,5.79764454 L76.0821362,5.79764454 L76.0821362,9.58779443 Z M97.8801725,1.5357334 L99.0603876,1.5357334 L99.0603876,13.6355937 L97.8801725,13.6355937 L97.8801725,1.5357334 Z M114.68719,1.95931478 C116.153552,3.64561028 117.281523,5.12312634 118.054988,6.375803 L117.072042,7.0503212 C116.250235,5.7012848 115.138378,4.20770878 113.720358,2.55353319 L114.68719,1.95931478 Z M120.230361,9.82869379 C119.166845,11.7719486 117.458775,13.4261242 115.10615,14.7751606 L114.332685,13.8276231 C117.072042,12.2537473 118.89291,10.2944325 119.779172,7.91755889 C120.455955,5.91006424 120.794346,3.35653105 120.81046,0.256959315 L122.019,0.256959315 C122.019,3.30835118 121.680609,5.87794433 121.003826,7.99785867 C120.923257,8.23875803 120.842688,8.47965739 120.746004,8.72055675 C122.067342,10.3907923 123.179199,12.0610278 124.081575,13.7312634 L123.195313,14.614561 C122.437961,13.1049251 121.455015,11.5149893 120.230361,9.82869379 Z M110.69095,13.1049251 L110.304217,12.012848 C110.594267,11.7880086 110.739292,11.4989293 110.739292,11.1295503 L110.739292,0.674518201 L111.931718,0.674518201 L111.931718,11.4025696 C113.1886,10.888651 114.429368,10.2623126 115.670136,9.5235546 L115.992413,10.6477516 C114.348798,11.5952891 112.576273,12.4143469 110.69095,13.1049251 Z M134.29374,1.5357334 L135.473955,1.5357334 L135.473955,13.6355937 L134.29374,13.6355937 L134.29374,1.5357334 Z M146.186027,0.85117773 L159.995613,0.85117773 L159.995613,1.92719486 L153.662862,1.92719486 L153.662862,3.32441113 L158.658162,3.32441113 L158.658162,9.68415418 L153.469496,9.68415418 C153.276129,10.7441113 152.969966,11.5952891 152.518778,12.2376874 C154.774719,13.1852248 157.449621,13.7152034 160.543484,13.8115632 L160.253435,14.9197002 C157.014547,14.7912206 154.19462,14.1648822 151.793653,13.0728051 C150.665683,14.0364026 148.812588,14.6466809 146.250482,14.9357602 L145.750953,13.875803 C147.99078,13.6991435 149.634395,13.2494647 150.665683,12.5107066 C149.731078,11.996788 148.860929,11.4025696 148.07135,10.7280514 L148.957612,10.117773 C149.714964,10.7441113 150.552886,11.2901499 151.455262,11.7558887 C151.841995,11.2098501 152.132045,10.5192719 152.293183,9.68415418 L147.57182,9.68415418 L147.57182,3.32441113 L152.502664,3.32441113 L152.502664,1.92719486 L146.186027,1.92719486 L146.186027,0.85117773 Z M157.514077,8.67237687 L157.514077,6.97002141 L153.662862,6.97002141 L153.662862,7.53211991 L153.614521,8.67237687 L157.514077,8.67237687 Z M152.454322,8.67237687 C152.48655,8.30299786 152.502664,7.91755889 152.502664,7.53211991 L152.502664,6.97002141 L148.715904,6.97002141 L148.715904,8.67237687 L152.454322,8.67237687 Z M148.715904,6.00642398 L152.502664,6.00642398 L152.502664,4.32012848 L148.715904,4.32012848 L148.715904,6.00642398 Z M153.662862,4.32012848 L153.662862,6.00642398 L157.514077,6.00642398 L157.514077,4.32012848 L153.662862,4.32012848 Z M170.707307,1.5357334 L171.887522,1.5357334 L171.887522,13.6355937 L170.707307,13.6355937 L170.707307,1.5357334 Z M184.87165,0.0321199143 L186.015735,0.128479657 C185.822368,1.25267666 185.629002,2.31263383 185.435635,3.27623126 L188.223335,3.27623126 L188.223335,3.93468951 C188.07831,6.47216274 187.546552,8.68843683 186.644175,10.5674518 C187.57878,11.2901499 188.336132,11.9486081 188.932345,12.5267666 L188.142765,13.4421842 C187.594894,12.8640257 186.901997,12.2537473 186.096304,11.5792291 C185.29061,12.9122056 184.259323,14.0524625 183.018555,15 L182.228975,14.0364026 C183.453629,13.1531049 184.436575,12.0931478 185.193927,10.8404711 C184.452689,10.2462527 183.614768,9.61991435 182.712391,8.9614561 C183.211921,7.54817987 183.646996,6.02248394 184.033729,4.38436831 L182.325659,4.38436831 L182.325659,3.27623126 L184.275437,3.27623126 C184.501031,2.21627409 184.694397,1.14025696 184.87165,0.0321199143 Z M185.709571,9.8608137 C186.483037,8.27087794 186.934225,6.44004283 187.07925,4.38436831 L185.193927,4.38436831 C184.807194,6.08672377 184.404348,7.5 183.985387,8.624197 C184.597714,9.05781585 185.177813,9.47537473 185.709571,9.8608137 Z M188.771206,6.95396146 L192.412941,6.95396146 L192.412941,4.93040685 C193.28309,4.17558887 194.104897,3.26017131 194.894476,2.16809422 L189.238508,2.16809422 L189.238508,1.04389722 L196.215814,1.04389722 L196.215814,2.16809422 C195.442348,3.27623126 194.556085,4.32012848 193.589253,5.28372591 L193.589253,6.95396146 L196.876482,6.95396146 L196.876482,8.07815846 L193.589253,8.07815846 L193.589253,13.2173448 C193.589253,14.245182 193.154179,14.7591006 192.316257,14.7591006 L189.99586,14.7591006 L189.689697,13.6670236 C190.350365,13.6670236 191.075489,13.6830835 191.848955,13.6830835 C192.219574,13.6830835 192.412941,13.4100642 192.412941,12.8640257 L192.412941,8.07815846 L188.771206,8.07815846 L188.771206,6.95396146 Z M207.120875,1.5357334 L208.30109,1.5357334 L208.30109,13.6355937 L207.120875,13.6355937 L207.120875,1.5357334 Z M219.818855,3.16381156 L224.926952,3.16381156 C225.104204,2.77837259 225.265343,2.37687366 225.426482,1.99143469 C223.847322,2.08779443 222.139252,2.1359743 220.302271,2.1359743 L219.96388,1.17237687 C224.540219,1.17237687 228.326978,0.867237687 231.340271,0.256959315 L231.872029,1.17237687 C230.341212,1.50963597 228.568686,1.75053533 226.538339,1.9111349 C226.393314,2.34475375 226.232175,2.76231263 226.071036,3.16381156 L232.065396,3.16381156 L232.065396,4.15952891 L225.603734,4.15952891 C225.410368,4.54496788 225.200887,4.89828694 224.991407,5.251606 L233,5.251606 L233,6.27944325 L224.282397,6.27944325 C223.992347,6.66488223 223.702298,7.03426124 223.396134,7.3875803 L231.388613,7.3875803 L231.388613,14.9518201 L230.276756,14.9518201 L230.276756,14.261242 L222.993287,14.261242 L222.993287,14.9518201 L221.88143,14.9518201 L221.88143,8.92933619 C221.059623,9.66809422 220.157246,10.3907923 219.158186,11.0653105 L218.529746,10.0695931 C220.286157,8.88115632 221.736406,7.62847966 222.88049,6.27944325 L218.948706,6.27944325 L218.948706,5.251606 L223.686184,5.251606 C223.944006,4.88222698 224.185714,4.51284797 224.395194,4.15952891 L219.818855,4.15952891 L219.818855,3.16381156 Z M222.993287,10.3104925 L222.993287,11.3222698 L230.276756,11.3222698 L230.276756,10.3104925 L222.993287,10.3104925 Z M230.276756,9.4111349 L230.276756,8.33511777 L222.993287,8.33511777 L222.993287,9.4111349 L230.276756,9.4111349 Z M222.993287,12.2216274 L222.993287,13.3137045 L230.276756,13.3137045 L230.276756,12.2216274 L222.993287,12.2216274 Z" id="产|品|可|以|更|好|看-copy-3" fill="#C89769"></path>
    </g>
</svg>