<svg xmlns="http://www.w3.org/2000/svg" width="100" height="100" viewBox="0 0 100 100"><g fill="none" transform="translate(9 9)"><path fill="#333" d="M0,41 C0,18.3557 18.3557,0 41,0 C63.6443,0 82,18.3557 82,41 C82,63.6443 63.6443,82 41,82 C18.3557,82 0,63.6443 0,41 Z"/><path fill="#0ACF83" d="M33,65 C37.418278,65 41,61.418278 41,57 L41,49 L33,49 C28.581722,49 25,52.581722 25,57 C25,61.418278 28.581722,65 33,65 L33,65 Z"/><path fill="#A259FF" d="M25,41 C25,36.581722 28.581722,33 33,33 L41,33 L41,49 L33,49 C28.581722,49 25,45.418278 25,41 L25,41 Z"/><path fill="#F24E1E" d="M25,25 C25,20.581722 28.581722,17 33,17 L41,17 L41,33 L33,33 C28.581722,33 25,29.418278 25,25 L25,25 Z"/><path fill="#FF7262" d="M41,17 L49,17 C53.418278,17 57,20.581722 57,25 C57,29.418278 53.418278,33 49,33 L41,33 L41,17 L41,17 Z"/><path fill="#1ABCFE" d="M57,41 C57,45.418278 53.418278,49 49,49 C44.581722,49 41,45.418278 41,41 C41,36.581722 44.581722,33 49,33 C53.418278,33 57,36.581722 57,41 L57,41 Z"/></g></svg>