<?xml version="1.0" encoding="UTF-8"?>
<svg width="16px" height="16px" viewBox="0 0 16 16" version="1.1" xmlns="http://www.w3.org/2000/svg" xmlns:xlink="http://www.w3.org/1999/xlink">
    <!-- Generator: Sketch 57.1 (83088) - https://sketch.com -->
    <title>google</title>
    <desc>Created with Sketch.</desc>
    <g id="google" stroke="none" stroke-width="1" fill="none" fill-rule="evenodd">
        <path d="M4.99998082,7.25534119 L4.99998082,8.95746232 L8.08507537,8.95746232 C7.65954509,10.2340532 6.48933681,11.1914963 4.99998082,11.1914963 C3.19147712,11.1914963 1.8085037,9.80852288 1.8085037,8.00001918 C1.8085037,6.19151548 3.19147712,4.80854206 4.99998082,4.80854206 C5.85104138,4.80854206 6.70210195,5.12768977 7.2340148,5.7659852 L8.51060565,4.48939436 C7.55316251,3.63829543 6.38295424,3 4.99998082,3 C2.23403398,3 0,5.23403398 0,7.99998082 C0,10.7659277 2.23399561,13 4.99998082,13 C7.76596603,13 10,10.765966 10,8.00001918 C10,7.78725404 10,7.46810633 9.89361743,7.25534119 L4.99998082,7.25534119 Z M16,7.45454546 L14.4545253,7.45454546 L14.4545253,6 L13.4545335,6 L13.4545335,7.45454546 L12,7.45454546 L12,8.54545454 L13.4545335,8.54545454 L13.4545335,10 L14.4545253,10 L14.4545253,8.54545454 L16,8.54545454 L16,7.45454546 L16,7.45454546 Z" id="Shape" fill="#B4B9BF" fill-rule="nonzero"></path>
    </g>
</svg>