<?xml version="1.0" encoding="UTF-8"?>
<svg width="118px" height="77px" viewBox="0 0 118 77" version="1.1" xmlns="http://www.w3.org/2000/svg" xmlns:xlink="http://www.w3.org/1999/xlink">
    <!-- Generator: Sketch 57.1 (83088) - https://sketch.com -->
    <title>Combined Shape</title>
    <desc>Created with Sketch.</desc>
    <g id="Page-1" stroke="none" stroke-width="1" fill="none" fill-rule="evenodd">
        <g id="Desktop-HD-Copy-4" transform="translate(-910.000000, -2036.000000)" fill="#00E9F0" fill-rule="nonzero">
            <path d="M963.883433,2036.09289 L963.883433,2092.40176 C960.914236,2104.04188 950.17011,2112.69287 937.406068,2112.69287 C922.505633,2112.69287 910.355398,2100.90943 910.113883,2086.33901 L910.110219,2085.89664 L910.110219,2080.53793 L927.553241,2080.53793 L927.553241,2086.90405 C927.553241,2092.24476 931.963349,2096.57436 937.403371,2096.57436 C942.75119,2096.57436 947.10371,2092.39028 947.249717,2087.17472 L947.253501,2086.90405 L947.253501,2036.09289 L963.883433,2036.09289 Z M965.519053,2040.1159 L995.018203,2109.79111 L978.972132,2109.79111 L965.519053,2078.52841 L965.519053,2040.1159 Z M1027.62274,2036.09289 L1027.62274,2109.79111 L1010.67728,2109.79111 L1010.67728,2036.09289 L1027.62274,2036.09289 Z M1009.04166,2038.77754 L1009.04166,2079.26576 L996.35178,2108.75193 L987.882421,2088.75074 L1009.04166,2038.77754 Z" id="Combined-Shape"></path>
        </g>
    </g>
</svg>