<?xml version="1.0" encoding="UTF-8"?>
<svg width="16px" height="16px" viewBox="0 0 16 16" version="1.1" xmlns="http://www.w3.org/2000/svg" xmlns:xlink="http://www.w3.org/1999/xlink">
    <!-- Generator: Sketch 57.1 (83088) - https://sketch.com -->
    <title>linkin</title>
    <desc>Created with Sketch.</desc>
    <g id="linkin" stroke="none" stroke-width="1" fill="none" fill-rule="evenodd">
        <path d="M4.61192881,14 L2.03772418,14 L2.03772418,5.41769019 L4.61183261,5.41769019 L4.61183261,14 L4.61192881,14 Z M14,14 L11.4257816,14 L11.4257816,9.44290971 C11.4257816,8.26573549 11.0094826,7.65817859 10.1765547,7.65817859 C9.49525184,7.65817859 9.07884285,7.99991039 8.88950732,8.64540685 L8.88950732,13.9998897 L6.31539889,13.9998897 C6.31539889,13.9998897 6.35332921,6.2909619 6.31539889,5.41767641 L8.47660276,5.41767641 L8.47309833,7.12651461 L8.51091871,7.12651461 C9.04091253,6.25311884 9.87384045,5.68351529 11.0472068,5.68351529 C11.9178451,5.68351529 12.6371882,5.91140083 13.1670721,6.55700757 C13.6970659,7.16456447 13.9998901,8.00000689 13.9998901,9.13911748 L13.9998901,14 L14,14 L14,14 Z M4.64976294,3.29111699 C4.64976294,4.01261665 4.04400467,4.5822202 3.32488147,4.5822202 C2.60553838,4.5822202 2,4.01261665 2,3.29111699 C2,2.56961733 2.60555212,2 3.32488147,2 C4.04401842,2 4.64976294,2.56961733 4.64976294,3.29111699 Z" id="Shape" fill="#B4B9BF" fill-rule="nonzero"></path>
    </g>
</svg>