<?xml version="1.0" encoding="UTF-8"?>
<svg width="160px" height="46px" viewBox="0 0 160 46" version="1.1" xmlns="http://www.w3.org/2000/svg" xmlns:xlink="http://www.w3.org/1999/xlink">
    <!-- Generator: Sketch 57.1 (83088) - https://sketch.com -->
    <title>懒租</title>
    <desc>Created with Sketch.</desc>
    <g id="Page-1" stroke="none" stroke-width="1" fill="none" fill-rule="evenodd">
        <path d="M26.5182166,13.2175325 L26.5182166,14.487013 C26.9211545,14.238094 27.4248193,14.0638533 28.0292261,13.9642857 L28.0292261,9.85714286 L19.0387196,9.85714286 L19.0387196,5.60064935 L28.0292261,5.60064935 L28.0292261,0.597402597 L36.5664297,0.597402597 L36.5664297,5.60064935 L45.5569362,5.60064935 L45.5569362,9.85714286 L36.5664297,9.85714286 L36.5664297,13.8149351 L45.1791839,13.8149351 L45.1791839,30.8409091 L36.5664297,30.8409091 L36.5664297,45.8506494 L28.0292261,45.8506494 L28.0292261,30.8409091 L19.3409215,30.8409091 L19.3409215,13.2175325 L26.5182166,13.2175325 Z M53.5652865,2.09090909 L52.356479,4.25649351 L69.2797853,4.25649351 L69.2797853,8.58766234 L68.1465282,11.5 L71.0174462,11.5 L71.0174462,38.1590909 L64.2934539,38.1590909 L64.2934539,15.7564935 L60.2892788,15.7564935 C58.8789962,15.7564935 57.6198342,15.7938308 56.5117551,15.8685065 C55.4036759,15.9431822 54.4467128,16.4534585 53.640837,17.3993506 L53.640837,38.1590909 L46.8412943,38.1590909 L46.8412943,10.6785714 L53.640837,10.6785714 L53.640837,12.3961039 C54.3963418,11.9978335 55.2148008,11.761364 56.0962274,11.6866883 C56.9776541,11.6120126 57.9220255,11.5497838 58.9293702,11.5 L60.1381778,8.51298701 L46.9923952,8.51298701 L46.9923952,5.07792208 L49.7877628,0 L53.5652865,2.09090909 Z M16.7722054,6.87012987 L18.6609672,14.711039 L15.2611959,15.6071429 L13.8257369,9.63311688 L13.8257369,46 L5.74183608,46 L5.74183608,17.8474026 L3.47532184,27.0324675 L0,26.0616883 L2.64426661,15.6818182 L5.74183608,16.6525974 L5.74183608,0.298701299 L13.8257369,0.298701299 L13.8257369,7.76623377 L16.7722054,6.87012987 Z M62.8579949,18.2954545 L62.8579949,36.4415584 C62.8579949,39.9762081 61.9513983,42.4280235 60.1381778,43.7970779 C58.3249574,45.1661324 55.3533351,45.8506494 51.2232218,45.8506494 L47.3701476,45.8506494 L47.3701476,41.5941558 L49.1078085,41.5941558 C51.3239669,41.5941558 52.8727361,41.2581202 53.7541627,40.586039 C54.6355893,39.9139577 55.076296,38.532478 55.076296,36.4415584 L55.076296,18.2954545 L62.8579949,18.2954545 Z M17.9054625,44.3571429 L22.8917938,32.7077922 L26.8204185,34.275974 L21.9096377,45.9253247 L17.9054625,44.3571429 Z M42.6860182,45.9253247 L37.6996869,34.275974 L41.703862,32.7077922 L46.6146429,44.3571429 L42.6860182,45.9253247 Z M64.2179035,38.9058442 L71.6974005,42.0422078 L70.03529,45.9253247 L62.555793,42.788961 L64.2179035,38.9058442 Z M36.1131269,18.0714286 L36.1131269,26.5844156 L38.0018888,26.5844156 L38.0018888,18.0714286 L36.1131269,18.0714286 Z M28.482529,18.2954545 C27.7773877,18.5941573 27.1226234,19.191554 26.5182166,20.0876623 L26.5182166,26.5844156 L28.482529,26.5844156 L28.482529,18.2954545 Z M128.873204,1.49350649 L128.873204,3.50974026 C129.729447,3.11146987 130.636044,2.82521732 131.593022,2.65097403 C132.549999,2.47673073 133.532145,2.38961039 134.53949,2.38961039 L156.373577,2.38961039 L156.373577,40.9967532 L160,40.9967532 L160,45.1785714 L115.878523,45.1785714 L115.878523,40.9967532 L119.504946,40.9967532 L119.504946,1.49350649 L128.873204,1.49350649 Z M134.53949,6.6461039 C133.582513,6.6461039 132.562591,6.80789881 131.479696,7.13149351 C130.3968,7.4550882 129.527978,7.96536448 128.873204,8.66233766 L128.873204,40.9967532 L147.005318,40.9967532 L147.005318,6.6461039 L134.53949,6.6461039 Z M89.6625081,6.3474026 L89.6625081,2.09090909 L107.945723,2.09090909 C108.9027,2.09090909 109.670789,1.92911417 110.250012,1.60551948 C110.829236,1.28192479 111.421042,0.771648506 112.025449,0.0746753247 L115.274119,2.98701299 C114.266774,4.18182416 113.209078,5.0405818 112.100999,5.56331169 C110.99292,6.08604157 109.607842,6.3474026 107.945723,6.3474026 L106.434713,6.3474026 L106.434713,15.3084416 L114.971917,15.3084416 L114.971917,19.5649351 L106.434713,19.5649351 L106.434713,46 L97.2175555,46 L97.2175555,19.5649351 L88.6803519,19.5649351 L88.6803519,15.3084416 L97.2175555,15.3084416 L97.2175555,6.3474026 L89.6625081,6.3474026 Z M110.741091,44.8051948 L107.643521,24.4935065 L111.798797,23.8214286 L114.971917,44.0584416 L110.741091,44.8051948 Z M88.7559024,44.0584416 L91.9290223,23.8214286 L96.0842984,24.4935065 L92.9111785,44.8051948 L88.7559024,44.0584416 Z M130.686416,16.8766234 L144.436602,14.487013 L145.192107,18.7435065 L131.36637,21.1331169 L130.686416,16.8766234 Z M130.686416,29.1233766 L144.436602,26.6590909 L145.192107,30.8409091 L131.36637,33.3798701 L130.686416,29.1233766 Z" id="懒租" fill="#191A1E" fill-rule="nonzero"></path>
    </g>
</svg>