<?xml version="1.0" encoding="UTF-8"?>
<svg width="14px" height="16px" viewBox="0 0 14 16" version="1.1" xmlns="http://www.w3.org/2000/svg" xmlns:xlink="http://www.w3.org/1999/xlink">
    <!-- Generator: Sketch 57.1 (83088) - https://sketch.com -->
    <title>Path</title>
    <desc>Created with Sketch.</desc>
    <g id="Page-2" stroke="none" stroke-width="1" fill="none" fill-rule="evenodd">
        <g id="qq" transform="translate(-2.000000, -1.000000)" fill="#575F64" fill-rule="nonzero">
            <path d="M15.9952575,11.6862758 C15.671305,9.73718723 14.3105049,8.46036361 14.3105049,8.46036361 C14.5049763,6.69093664 13.792081,6.37692867 13.792081,6.37692867 C13.642103,0.902314157 9.09577057,0.997742723 8.99978467,1.00040833 C8.90429868,0.997742723 4.35696642,0.902314157 4.20798829,6.37692867 C4.20798829,6.37692867 3.49509297,6.69093664 3.68956442,8.46036361 C3.68956442,8.46036361 2.32876423,9.73718723 2.0048118,11.6862758 C2.0048118,11.6862758 1.83183719,14.9793612 3.56008343,12.0893149 C3.56008343,12.0893149 3.94852639,13.18701 4.66142171,14.1727499 C4.66142171,14.1727499 3.38710882,14.6211042 3.49509297,15.7859725 C3.49509297,15.7859725 3.45159936,17.0846541 6.21619341,16.995623 C6.21619341,16.995623 8.15990799,16.8388855 8.74332232,15.9874921 L8.99778496,15.9874921 L9.0022843,15.9874921 L9.25674693,15.9874921 C9.84016126,16.8388855 11.7838758,16.995623 11.7838758,16.995623 C14.54747,17.0846541 14.5049763,15.7859725 14.5049763,15.7859725 C14.6124605,14.6211042 13.3386476,14.1727499 13.3386476,14.1727499 C14.0515429,13.18701 14.4399858,12.0893149 14.4399858,12.0893149 C16.1672322,14.9793612 15.9952575,11.6862758 15.9952575,11.6862758 Z" id="Path"></path>
        </g>
    </g>
</svg>