<?xml version="1.0" encoding="UTF-8"?>
<svg width="144px" height="33px" viewBox="0 0 144 33" version="1.1" xmlns="http://www.w3.org/2000/svg" xmlns:xlink="http://www.w3.org/1999/xlink">
    <!-- Generator: Sketch 57.1 (83088) - https://sketch.com -->
    <title>创作星球</title>
    <desc>Created with Sketch.</desc>
    <g id="Page-1" stroke="none" stroke-width="1" fill="none" fill-rule="evenodd">
        <path d="M23.2067017,32.8315305 L21.6908006,29.2920271 L26.5633397,29.2920271 L26.5633397,1.04823476 L32.9517799,1.04823476 L32.9517799,32.8315305 L23.2067017,32.8315305 Z M21.2215931,26.2942844 L21.2215931,14.4839007 L19.741785,14.4839007 L19.741785,26.8360451 L11.151679,26.8360451 L9.34703483,23.3326591 L13.6420878,23.3326591 L13.6420878,16.5787088 L8.44471277,16.5787088 L8.44471277,29.3281445 L21.0050358,29.3281445 L19.416949,32.8315305 L2.09236547,32.8315305 L2.09236547,14.4839007 L0.396,14.4839007 L4.61886724,1.40940858 L17.2152832,1.40940858 L21.2215931,13.1475576 L21.2215931,3.75703837 L25.263996,3.75703837 L25.263996,26.2942844 L21.2215931,26.2942844 Z M11.7291651,4.98502935 L10.1771711,4.98502935 L7.68676224,12.8586185 L14.2917597,12.8586185 L11.7291651,4.98502935 Z M60.5989278,9.21076298 L60.5989278,13.9782573 L69.0446623,13.9782573 L69.0446623,17.5538781 L60.5989278,17.5538781 L60.5989278,22.2852551 L69.0085694,22.2852551 L69.0085694,25.8608758 L60.5989278,25.8608758 L60.5989278,32.976 L53.777373,32.976 L53.777373,10.9443973 L52.4419364,14.5561354 L46.4866108,14.5561354 L46.4866108,32.976 L39.7372418,32.976 L39.7372418,15.3507178 L37.4633902,15.3507178 L42.5163937,1.15658691 L49.807156,1.15658691 L45.2955457,13.6170835 L46.739261,13.6170835 L51.2508713,1.15658691 L57.3505684,1.15658691 L55.6902958,5.63514221 L69.8026128,5.63514221 L69.8026128,9.21076298 L60.5989278,9.21076298 Z M76.0466815,14.7728397 L76.0466815,1.40940858 L104.668337,1.40940858 L104.668337,14.7728397 L76.0466815,14.7728397 Z M74.6751519,32.7954131 L74.6751519,29.6170835 L86.8745462,29.6170835 L86.8745462,27.1249842 L76.3354245,27.1249842 L76.3354245,23.9466546 L86.8745462,23.9466546 L86.8745462,21.1294989 L81.5688925,21.1294989 L81.0274992,22.8992506 L74.350316,22.8992506 L76.4437032,15.9285959 L83.1569793,15.9285959 L82.5434003,17.9511693 L86.8745462,17.9511693 L86.8745462,15.7118916 L93.8765654,15.7118916 L93.8765654,17.9511693 L105.498473,17.9511693 L105.498473,21.1294989 L93.8765654,21.1294989 L93.8765654,23.9466546 L104.415687,23.9466546 L104.415687,27.1249842 L93.8765654,27.1249842 L93.8765654,29.6170835 L106.184238,29.6170835 L106.184238,32.7954131 L74.6751519,32.7954131 Z M97.6302251,4.65997291 L83.0126078,4.65997291 L83.0126078,6.46584199 L97.6302251,6.46584199 L97.6302251,4.65997291 Z M97.6302251,9.64417156 L83.0126078,9.64417156 L83.0126078,11.486158 L97.6302251,11.486158 L97.6302251,9.64417156 Z M141.880099,18.0234041 L136.321795,18.0234041 L137.440674,10.6193409 L142.998978,10.6193409 L141.880099,18.0234041 Z M135.852588,9.35523251 L135.88868,32.9037652 L127.334667,32.9037652 L126.757181,31.3146005 L121.812456,31.3146005 L123.36445,19.5042167 L128.886661,19.5042167 L127.62341,29.5087314 L129.391962,29.5087314 L129.391962,9.35523251 L121.704178,9.35523251 L121.704178,5.88796388 L129.391962,5.88796388 L129.391962,0.976 L135.816495,0.976 L135.816495,5.88796388 L137.151931,5.88796388 L136.682724,1.87893454 L141.555263,1.87893454 L142.060563,5.88796388 L143.396,5.88796388 L143.396,9.35523251 L135.852588,9.35523251 Z M137.801603,31.3146005 L136.321795,19.5042167 L141.844006,19.5042167 L143.287721,31.3146005 L137.801603,31.3146005 Z M123.328357,18.0234041 L122.137292,10.6193409 L127.659503,10.6193409 L128.778383,18.0234041 L123.328357,18.0234041 Z M119.646883,5.23785102 L119.646883,14.7367223 L121.523713,14.7367223 L121.523713,18.0595214 L119.646883,18.0595214 L119.646883,27.8112144 L121.48762,27.5222754 L121.48762,30.989544 L110.84022,32.8315305 L110.84022,29.3642619 L113.186257,28.9308533 L113.186257,18.0595214 L111.201149,18.0595214 L111.201149,14.7367223 L113.186257,14.7367223 L113.186257,5.23785102 L110.731941,5.23785102 L110.731941,1.77058239 L121.848549,1.77058239 L121.848549,5.23785102 L119.646883,5.23785102 Z" id="创作星球" fill="#191A1E" fill-rule="nonzero"></path>
    </g>
</svg>