<?xml version="1.0" encoding="UTF-8"?>
<svg width="16px" height="16px" viewBox="0 0 16 16" version="1.1" xmlns="http://www.w3.org/2000/svg" xmlns:xlink="http://www.w3.org/1999/xlink">
    <!-- Generator: Sketch 57.1 (83088) - https://sketch.com -->
    <title>qq</title>
    <desc>Created with Sketch.</desc>
    <g id="qq" stroke="none" stroke-width="1" fill="none" fill-rule="evenodd">
        <path d="M13.995935,10.3504913 C13.7182615,8.64503883 12.5518613,7.52781816 12.5518613,7.52781816 C12.7185511,5.97956956 12.107498,5.70481258 12.107498,5.70481258 C11.9789454,0.914524887 8.08208906,0.998024882 7.99981543,1.00035729 C7.9179703,0.998024882 4.02025693,0.914524887 3.89256139,5.70481258 C3.89256139,5.70481258 3.28150826,5.97956956 3.44819807,7.52781816 C3.44819807,7.52781816 2.28179791,8.64503883 2.0041244,10.3504913 C2.0041244,10.3504913 1.85586045,13.231941 3.33721436,10.7031506 C3.33721436,10.7031506 3.67016548,11.6636338 4.28121861,12.5261561 C4.28121861,12.5261561 3.18895042,12.9184662 3.28150826,13.937726 C3.28150826,13.937726 3.24422802,15.0740723 5.61388006,14.9961701 C5.61388006,14.9961701 7.27992114,14.8590248 7.77999056,14.1140556 L7.99810139,14.1140556 L8.00195797,14.1140556 L8.2200688,14.1140556 C8.72013822,14.8590248 10.3861793,14.9961701 10.3861793,14.9961701 C12.7549743,15.0740723 12.7185511,13.937726 12.7185511,13.937726 C12.8106804,12.9184662 11.7188408,12.5261561 11.7188408,12.5261561 C12.3298939,11.6636338 12.662845,10.7031506 12.662845,10.7031506 C14.1433419,13.231941 13.995935,10.3504913 13.995935,10.3504913 Z" id="Path" fill="#B4B9BF" fill-rule="nonzero"></path>
    </g>
</svg>