<?xml version="1.0" encoding="UTF-8"?>
<svg width="48px" height="76px" viewBox="0 0 48 76" version="1.1" xmlns="http://www.w3.org/2000/svg" xmlns:xlink="http://www.w3.org/1999/xlink">
    <!-- Generator: Sketch 57.1 (83088) - https://sketch.com -->
    <title>Combined Shape</title>
    <desc>Created with Sketch.</desc>
    <g id="Page-1" stroke="none" stroke-width="1" fill="none" fill-rule="evenodd">
        <path d="M17.2672379,46.671025 L0.461642827,46.671025 C0.240728927,46.671025 0.0616428268,46.4919389 0.0616428268,46.271025 C0.0616428268,46.2288264 0.0683202705,46.1868936 0.0814274409,46.1467823 L15.070674,0.275757253 C15.1244227,0.111272229 15.2778454,-2.92593057e-16 15.4508894,0 L42.4866185,0 C42.7075324,5.17746699e-15 42.8866185,0.1790861 42.8866185,0.4 C42.8866185,0.45953924 42.8733271,0.518327558 42.8477139,0.57207592 L30.4114451,26.6691572 L30.4114451,26.6691572 L47.4601072,26.6691572 C47.6810211,26.6691572 47.8601072,26.8482433 47.8601072,27.0691572 C47.8601072,27.1475745 47.8370577,27.2242623 47.7938246,27.2896854 L16.0254782,75.3635594 C15.9036838,75.5478664 15.6555396,75.5985429 15.4712326,75.4767485 C15.34912,75.3960536 15.2808324,75.2551068 15.2931887,75.1092629 L17.6658099,47.1047932 C17.6844596,46.8846679 17.5211313,46.6911026 17.3010061,46.6724529 C17.2897751,46.6715014 17.278509,46.671025 17.2672379,46.671025 Z" id="Combined-Shape" fill="#FFD161" fill-rule="nonzero"></path>
    </g>
</svg>