<?xml version="1.0" encoding="UTF-8"?>
<svg width="134px" height="40px" viewBox="0 0 134 40" version="1.1" xmlns="http://www.w3.org/2000/svg" xmlns:xlink="http://www.w3.org/1999/xlink">
    <!-- Generator: Sketch 57.1 (83088) - https://sketch.com -->
    <title>Sparkch</title>
    <desc>Created with Sketch.</desc>
    <g id="homepage" stroke="none" stroke-width="1" fill="none" fill-rule="evenodd">
        <path d="M0,26.1870504 C0,25.5566943 0.239699126,24.9194962 0.719104569,24.2754368 C1.19851001,23.6313774 1.73954518,23.3093525 2.34222631,23.3093525 C2.69835607,23.3093525 3.10242031,23.4737908 3.55443116,23.8026721 C4.006442,24.1315535 4.44474898,24.494688 4.86936523,24.8920863 C5.29398148,25.2894847 5.90350211,25.6526191 6.69794542,25.9815005 C7.49238872,26.3103819 8.36900267,26.4748201 9.32781355,26.4748201 C10.6427542,26.4748201 11.7385216,26.1733501 12.6151487,25.5704008 C13.4917758,24.9674516 13.9300828,24.0767445 13.9300828,22.8982528 C13.9300828,22.0760493 13.6903837,21.3429289 13.2109782,20.6988695 C12.7315728,20.0548101 12.1015065,19.5203858 11.3207605,19.0955807 C10.5400145,18.6707755 9.68394619,18.25968 8.7525299,17.8622816 C7.82111361,17.4648832 6.88286274,17.0195297 5.93774916,16.5262076 C4.99263557,16.0328855 4.12971872,15.4779065 3.34897271,14.8612539 C2.5682267,14.2446012 1.93816043,13.4224101 1.45875498,12.3946557 C0.97934954,11.3669013 0.739650414,10.1952789 0.739650414,8.87975334 C0.739650414,7.42719383 1.03413791,6.14594594 1.62312174,5.03597122 C2.21210557,3.92599651 2.99968841,3.06269579 3.9858939,2.44604317 C4.97209938,1.82939054 6.02677554,1.37718541 7.149954,1.08941418 C8.27313247,0.80164296 9.46477955,0.657759507 10.724931,0.657759507 C11.4371905,0.657759507 12.1905306,0.705720658 12.9849739,0.801644399 C13.7794172,0.89756814 14.6217885,1.05515478 15.5121128,1.27440904 C16.4024372,1.49366331 17.1283832,1.83624296 17.6899724,2.30215827 C18.2515616,2.76807359 18.532352,3.31620103 18.532352,3.94655704 C18.532352,4.54950627 18.3405927,5.17300123 17.9570684,5.81706064 C17.573544,6.46112004 17.0530545,6.78314491 16.3955842,6.78314491 C16.1490328,6.78314491 15.4778753,6.52278438 14.3820914,6.0020555 C13.2863075,5.48132662 12.0672662,5.22096608 10.724931,5.22096608 C9.24563017,5.22096608 8.10191552,5.5018814 7.29377492,6.06372045 C6.48563431,6.62555951 6.08157007,7.39978952 6.08157007,8.38643371 C6.08157007,9.18123042 6.4103003,9.87324132 7.06777062,10.4624872 C7.72524094,11.051733 8.54021797,11.5313445 9.51272616,11.9013361 C10.4852343,12.2713276 11.5399105,12.737236 12.6767863,13.299075 C13.813662,13.8609141 14.8683382,14.4707059 15.8408464,15.1284687 C16.8133546,15.7862314 17.6283316,16.7386029 18.2858019,17.9856115 C18.9432722,19.2326201 19.2720025,20.6920095 19.2720025,22.3638232 C19.2720025,25.2141287 18.3748429,27.41349 16.5804968,28.9619733 C14.7861507,30.5104565 12.4234022,31.2846865 9.49218031,31.2846865 C6.88969362,31.2846865 4.65706748,30.7502623 2.7942349,29.6813977 C0.931402318,28.6125332 0,27.4477624 0,26.1870504 Z M22.5593376,38.3144913 L22.5593376,13.0318602 C22.5593376,12.5385381 22.7990368,12.1411457 23.2784422,11.8396711 C23.7578476,11.5381965 24.3536712,11.3874615 25.0659307,11.3874615 C25.7781902,11.3874615 26.3671652,11.5381965 26.8328734,11.8396711 C27.2985815,12.1411457 27.5314321,12.5385381 27.5314321,13.0318602 L27.5314321,14.2651593 C28.0519294,13.3881422 28.798421,12.6481702 29.7709292,12.045221 C30.7434373,11.4422717 31.8460533,11.1408016 33.0788102,11.1408016 C35.1334049,11.1408016 36.8729357,11.9561412 38.2974548,13.5868448 C39.7219738,15.2175484 40.4342226,17.1839556 40.4342226,19.4861254 L40.4342226,22.8571429 C40.4342226,25.0770923 39.7082767,27.0366479 38.2563631,28.7358684 C36.8044495,30.435089 35.1334041,31.2846865 33.2431769,31.2846865 C32.0652093,31.2846865 30.9762904,30.9626617 29.9763876,30.3186023 C28.9764848,29.6745429 28.2710845,28.914016 27.8601656,28.036999 L27.8601656,38.3144913 C27.8601656,38.7529998 27.5930723,39.1435406 27.0588776,39.4861254 C26.524683,39.8287102 25.8877682,40 25.1481141,40 C24.40846,40 23.7920908,39.8287102 23.298988,39.4861254 C22.8058853,39.1435406 22.5593376,38.7529998 22.5593376,38.3144913 Z M27.8601656,23.5971223 C27.8601656,24.145258 28.2299871,24.7893077 28.9696412,25.5292909 C29.7092953,26.269274 30.544818,26.63926 31.4762343,26.63926 C32.4350452,26.63926 33.2842649,26.2487192 34.023919,25.4676259 C34.7635732,24.6865326 35.1333947,23.8163803 35.1333947,22.8571429 L35.1333947,19.4861254 C35.1333947,18.526888 34.7635732,17.6704388 34.023919,16.9167523 C33.2842649,16.1630658 32.407651,15.7862282 31.3940509,15.7862282 C30.4626346,15.7862282 29.640809,16.1288078 28.9285495,16.8139774 C28.21629,17.499147 27.8601656,18.3898541 27.8601656,19.4861254 L27.8601656,23.5971223 Z M42.6942656,25.8170606 C42.6942656,23.5971112 43.5160911,22.034948 45.1597669,21.1305242 C46.8034345,20.2261003 49.1730398,19.7738952 52.2686293,19.7738952 L53.9533885,19.7738952 L53.9533885,19.2394656 C53.9533885,18.2254146 53.658901,17.3415591 53.0699172,16.5878726 C52.4809334,15.834186 51.5700767,15.4573484 50.3373198,15.4573484 C49.104563,15.4573484 48.0498868,15.6697478 47.1732597,16.0945529 C46.2966326,16.5193581 45.7898402,16.7317575 45.6528672,16.7317575 C45.1049753,16.7317575 44.6666683,16.4576937 44.3379331,15.9095581 C44.009198,15.3614224 43.8448329,14.7584822 43.8448329,14.1007194 C43.8448329,13.3059227 44.5502332,12.6139118 45.9610549,12.024666 C47.3718766,11.4354201 48.858019,11.1408016 50.4195032,11.1408016 C53.4055143,11.1408016 55.6244433,11.9013285 57.0763569,13.4224049 C58.5282706,14.9434814 59.2542165,16.8550758 59.2542165,19.1572456 L59.2542165,29.2291881 C59.2542165,29.6951034 59.0076688,30.0924958 58.5145661,30.4213772 C58.0214633,30.7502586 57.4050942,30.9146968 56.66544,30.9146968 C55.9805751,30.9146968 55.4121458,30.7502586 54.9601349,30.4213772 C54.5081241,30.0924958 54.282122,29.6951034 54.282122,29.2291881 L54.282122,28.036999 C52.3918949,30.2021348 50.3099367,31.2846865 48.0361852,31.2846865 C46.4746932,31.2846865 45.194015,30.8187782 44.1941122,29.8869476 C43.1942095,28.955117 42.6942656,27.5985015 42.6942656,25.8170606 Z M47.9950935,25.1181912 C47.9950935,25.8581743 48.1937014,26.4131533 48.590923,26.7831449 C48.9881447,27.1531365 49.5154828,27.3381295 50.1729531,27.3381295 C51.0495802,27.3381295 51.8987999,26.9270339 52.7206378,26.1048304 C53.5424757,25.2826269 53.9533885,24.3782166 53.9533885,23.3915725 L53.9533885,22.5282631 L53.3370132,22.5282631 C51.6659428,22.5282631 50.3578704,22.6995529 49.4127568,23.0421377 C48.4676432,23.3847225 47.9950935,24.0767334 47.9950935,25.1181912 Z M63.1990187,29.2291881 L63.1990187,13.0318602 C63.1990187,12.5385381 63.4387178,12.1411457 63.9181233,11.8396711 C64.3975287,11.5381965 65.0207464,11.3874615 65.7877952,11.3874615 C66.4726601,11.3874615 67.0410894,11.5381965 67.4931003,11.8396711 C67.9451111,12.1411457 68.1711132,12.5385381 68.1711132,13.0318602 L68.1711132,14.717369 C68.6094267,13.7581316 69.2942813,12.9222372 70.2256976,12.2096608 C71.1571139,11.4970845 72.1570017,11.1408016 73.225391,11.1408016 L74.4992334,11.1408016 C74.9923361,11.1408016 75.4374916,11.3737558 75.8347133,11.8396711 C76.2319349,12.3055864 76.4305428,12.8400107 76.4305428,13.4429599 C76.4305428,14.0733159 76.2319349,14.6214434 75.8347133,15.0873587 C75.4374916,15.553274 74.9923361,15.7862282 74.4992334,15.7862282 L73.225391,15.7862282 C71.9652395,15.7862282 70.8626236,16.3480588 69.91751,17.4717369 C68.9723964,18.595415 68.4998467,20.0616559 68.4998467,21.8705036 L68.4998467,29.2291881 C68.4998467,29.6402878 68.2259048,30.023979 67.6780129,30.3802672 C67.1301209,30.7365554 66.5000547,30.9146968 65.7877952,30.9146968 C65.048141,30.9146968 64.4317719,30.743407 63.9386691,30.4008222 C63.4455664,30.0582374 63.1990187,29.6676966 63.1990187,29.2291881 Z M78.7316774,29.2291881 L78.7316774,1.64439877 C78.7316774,1.15107667 78.9713765,0.753684275 79.450782,0.452209661 C79.9301874,0.150735046 80.5534051,0 81.3204538,0 C82.0875026,0 82.7312659,0.150735046 83.2517633,0.452209661 C83.7722606,0.753684275 84.0325054,1.15107667 84.0325054,1.64439877 L84.0325054,18.8694758 L91.757743,11.5930113 C92.0864765,11.3189435 92.4426026,11.1819116 92.826127,11.1819116 C93.4014135,11.1819116 93.9766914,11.4559753 94.5519779,12.004111 C95.1272645,12.5522467 95.4149034,13.1277805 95.4149034,13.7307297 C95.4149034,14.0870179 95.2642354,14.4158943 94.9628948,14.717369 L90.1140754,19.1161357 L96.1545538,27.7492292 C96.346316,28.023297 96.4421956,28.3110639 96.4421956,28.6125385 C96.4421956,29.2154878 96.1066169,29.8047276 95.4354492,30.3802672 C94.7642816,30.9558097 94.0999726,31.2435766 93.4425023,31.2435766 C92.8946104,31.2435766 92.4563034,31.0106224 92.1275682,30.5447071 L86.5801901,22.3638232 L84.0325054,24.7070915 L84.0325054,29.2291881 C84.0325054,29.6402898 83.7585635,30.023979 83.2106716,30.3802672 C82.6627796,30.7365554 82.0327134,30.9146968 81.3204538,30.9146968 C80.5807997,30.9146968 79.9644306,30.743407 79.4713278,30.4008222 C78.9782251,30.0582374 78.7316774,29.6676966 78.7316774,29.2291881 Z M97.9214965,22.8571429 L97.9214965,19.5683453 C97.9214965,17.0469213 98.6611395,15.0119982 100.140448,13.4635149 C101.619756,11.9150317 103.838685,11.1408016 106.797301,11.1408016 C108.660134,11.1408016 110.221603,11.4696781 111.481754,12.1274409 C112.741906,12.7852037 113.371972,13.5251757 113.371972,14.3473792 C113.371972,14.9229217 113.166515,15.4984555 112.755596,16.0739979 C112.344677,16.6495404 111.851582,16.9373073 111.276296,16.9373073 C111.111928,16.9373073 110.625681,16.7454627 109.817541,16.3617677 C109.0094,15.9780728 108.139635,15.7862282 107.208218,15.7862282 C104.550942,15.7862282 103.222324,17.0469213 103.222324,19.5683453 L103.222324,22.8571429 C103.222324,25.3785669 104.56464,26.63926 107.24931,26.63926 C108.180726,26.63926 109.043643,26.4337122 109.838086,26.0226105 C110.63253,25.6115087 111.139322,25.4059609 111.358479,25.4059609 C112.015949,25.4059609 112.556984,25.6800247 112.981601,26.2281603 C113.406217,26.776296 113.618522,27.3381266 113.618522,27.9136691 C113.618522,28.7632793 112.954213,29.5375094 111.625575,30.2363823 C110.296937,30.9352553 108.701226,31.2846865 106.838393,31.2846865 C103.852382,31.2846865 101.619756,30.5173081 100.140448,28.9825283 C98.6611395,27.4477484 97.9214965,25.4059737 97.9214965,22.8571429 Z M116.453849,29.2291881 L116.453849,1.64439877 C116.453849,1.15107667 116.693548,0.753684275 117.172953,0.452209661 C117.652359,0.150735046 118.289273,0 119.083717,0 C119.823371,0 120.453437,0.150735046 120.973934,0.452209661 C121.494432,0.753684275 121.754676,1.15107667 121.754676,1.64439877 L121.754676,14.2651593 C122.165595,13.3881422 122.823056,12.6481702 123.727078,12.045221 C124.631099,11.4422717 125.699479,11.1408016 126.932229,11.1408016 C128.822457,11.1408016 130.472956,11.9629928 131.883778,13.6073998 C133.2946,15.2518068 134,17.2113624 134,19.4861254 L134,29.2291881 C134,29.749917 133.732907,30.1610125 133.198712,30.4624872 C132.664517,30.7639618 132.0413,30.9146968 131.32904,30.9146968 C130.644175,30.9146968 130.034655,30.7639618 129.50046,30.4624872 C128.966265,30.1610125 128.699172,29.749917 128.699172,29.2291881 L128.699172,19.4861254 C128.699172,18.5542948 128.343048,17.7046972 127.630788,16.9373073 C126.918529,16.1699174 126.083006,15.7862282 125.124195,15.7862282 C124.220173,15.7862282 123.43259,16.1288078 122.761423,16.8139774 C122.090255,17.499147 121.754676,18.3898541 121.754676,19.4861254 L121.754676,29.2291881 C121.754676,29.6402898 121.487583,30.023979 120.953389,30.3802672 C120.419194,30.7365554 119.795976,30.9146968 119.083717,30.9146968 C118.344063,30.9146968 117.720845,30.743407 117.214045,30.4008222 C116.707245,30.0582374 116.453849,29.6676966 116.453849,29.2291881 Z" id="Sparkch" fill="#191A1E" fill-rule="nonzero"></path>
    </g>
</svg>