<?xml version="1.0" encoding="UTF-8"?>
<svg width="16px" height="16px" viewBox="0 0 16 16" version="1.1" xmlns="http://www.w3.org/2000/svg" xmlns:xlink="http://www.w3.org/1999/xlink">
    <!-- Generator: Sketch 57.1 (83088) - https://sketch.com -->
    <title>twitter</title>
    <desc>Created with Sketch.</desc>
    <g id="twitter" stroke="none" stroke-width="1" fill="none" fill-rule="evenodd">
        <path d="M14.9977262,3.42334235 C14.601321,4.03620364 14.1215419,4.55825585 13.5583888,4.98949897 C13.5644524,5.07670769 13.5674842,5.20792081 13.5674842,5.38313834 C13.5674842,6.19601962 13.4549294,7.00690071 13.2298197,7.81578159 C13.0047101,8.62466247 12.6628769,9.40114012 12.2043203,10.1452145 C11.7457636,10.8892889 11.1996644,11.5473548 10.5660224,12.1194119 C9.93238049,12.6914691 9.16837205,13.1479148 8.27399708,13.4887489 C7.37962212,13.829583 6.42347464,14 5.40555465,14 C3.80098532,14 2.3324671,13.5467547 1,12.640264 C1.20691895,12.6650665 1.43771317,12.6774678 1.69238265,12.6774678 C3.02484977,12.6774678 4.21217043,12.2462246 5.25434465,11.3837384 C4.63282984,11.3709371 4.07611932,11.1693169 3.58421309,10.7788779 C3.09230686,10.3884389 2.75464241,9.88998902 2.57121974,9.28352837 C2.76676952,9.31473149 2.94753938,9.33033304 3.11352931,9.33033304 C3.36819879,9.33033304 3.6198365,9.2959296 3.86844242,9.22712272 C3.20524064,9.08310832 2.65610957,8.73467348 2.2210492,8.18181818 C1.78598884,7.62896289 1.56845866,6.98689868 1.56845866,6.25562556 L1.56845866,6.21842184 C1.97092739,6.4560456 2.40333495,6.5840584 2.86568133,6.60246023 C2.47458177,6.32723271 2.16382437,5.96799679 1.93340912,5.52475246 C1.70299387,5.08150814 1.58740727,4.60026001 1.58664934,4.08100809 C1.58664934,3.53055304 1.71701586,3.02130212 1.9777489,2.55325532 C2.69400682,3.48454845 3.56602241,4.22982298 4.59379568,4.7890789 C5.62156894,5.34833483 6.72134697,5.65916591 7.89312976,5.72157215 C7.84613718,5.48394838 7.82264089,5.25272526 7.82264089,5.02790279 C7.82264089,4.19021903 8.10232256,3.47614762 8.66168589,2.88568857 C9.22104922,2.29522952 9.89751503,2 10.6910833,2 C11.520275,2 12.2191002,2.31883188 12.7875589,2.95649565 C13.4333279,2.82528252 14.0404418,2.58165816 14.6089005,2.22562256 C14.3898544,2.94409441 13.9695739,3.50055005 13.3480591,3.89498949 C13.8990851,3.83258325 14.449732,3.67616761 15,3.42574257 L14.9977262,3.42334235 Z" id="Shape-Copy-6" fill="#B4B9BF" fill-rule="nonzero"></path>
    </g>
</svg>