<?xml version="1.0" encoding="UTF-8"?>
<svg width="188px" height="54px" viewBox="0 0 188 54" version="1.1" xmlns="http://www.w3.org/2000/svg" xmlns:xlink="http://www.w3.org/1999/xlink">
    <!-- Generator: Sketch 57.1 (83088) - https://sketch.com -->
    <title>Combined Shape</title>
    <desc>Created with Sketch.</desc>
    <defs>
        <path d="M27,0 C41.9116883,0 54,12.0883117 54,27 C54,41.9116883 41.9116883,54 27,54 C12.0883117,54 0,41.9116883 0,27 C0,12.0883117 12.0883117,0 27,0 Z M176.02284,44.4736842 C177.110017,44.4736842 178.016746,44.8004353 178.743053,45.4539474 C179.46936,46.1074594 179.832509,47.0350817 179.832509,48.2368421 C179.832509,49.3464968 179.494484,50.2521895 178.818424,50.9539474 C178.142364,51.6513193 177.210512,52 176.02284,52 C174.931095,52 174.022082,51.6732489 173.295775,51.0197368 C172.574035,50.3618388 172.213171,49.4342165 172.213171,48.2368421 C172.213171,47.0833276 172.562615,46.168863 173.261515,45.4934211 C173.960415,44.8135931 174.880847,44.4736842 176.02284,44.4736842 Z M75.1693947,44.4736842 C76.0555811,44.4736842 76.7978653,44.6929803 77.3962695,45.1315789 C77.9992417,45.5657916 78.3623899,46.2587672 78.4857252,47.2105263 L76.4575561,47.2105263 C76.3890366,46.8903493 76.2588514,46.6228081 76.0669966,46.4078947 C75.8797098,46.1885954 75.5987838,46.0789474 75.2242101,46.0789474 C74.1827127,46.0789474 73.6619718,46.8267469 73.6619718,48.3223684 C73.6619718,49.7302702 74.1507374,50.4342105 75.1282832,50.4342105 C75.4937209,50.4342105 75.8066222,50.3114047 76.0669966,50.0657895 C76.3273709,49.8201742 76.4575561,49.5175457 76.4575561,49.1578947 L78.4857252,49.1578947 C78.3395501,50.061408 77.9809697,50.7609624 77.4099734,51.2565789 C76.838977,51.7521955 76.0555817,52 75.059764,52 C74.0228346,52 73.1914763,51.6973714 72.5656643,51.0921053 C71.9444202,50.4824531 71.6338028,49.5701815 71.6338028,48.3552632 C71.6338028,47.1929766 71.9284325,46.2565825 72.5177008,45.5460526 C73.1069691,44.8311368 73.9908582,44.4736842 75.1693947,44.4736842 Z M95.444233,44.4736842 C96.3304194,44.4736842 97.0727035,44.6929803 97.6711077,45.1315789 C98.2740799,45.5657916 98.6372282,46.2587672 98.7605634,47.2105263 L96.7323944,47.2105263 C96.6638748,46.8903493 96.5336896,46.6228081 96.3418348,46.4078947 C96.154548,46.1885954 95.873622,46.0789474 95.4990483,46.0789474 C94.4575509,46.0789474 93.93681,46.8267469 93.93681,48.3223684 C93.93681,49.7302702 94.4255756,50.4342105 95.4031214,50.4342105 C95.7685591,50.4342105 96.0814604,50.3114047 96.3418348,50.0657895 C96.6022091,49.8201742 96.7323944,49.5175457 96.7323944,49.1578947 L98.7605634,49.1578947 C98.6143883,50.061408 98.255808,50.7609624 97.6848116,51.2565789 C97.1138152,51.7521955 96.3304199,52 95.3346022,52 C94.2976728,52 93.4663145,51.6973714 92.8405025,51.0921053 C92.2192584,50.4824531 91.908641,49.5701815 91.908641,48.3552632 C91.908641,47.1929766 92.2032707,46.2565825 92.792539,45.5460526 C93.3818073,44.8311368 94.2656964,44.4736842 95.444233,44.4736842 Z M159.249334,44.4736842 C160.194904,44.4736842 160.941756,44.6447351 161.489912,44.9868421 C162.038069,45.3289491 162.312143,45.8421018 162.312143,46.5263158 L162.312143,50.3684211 C162.312143,51.0307051 162.456032,51.4166661 162.743814,51.5263158 L162.743814,51.8157895 L160.592311,51.8157895 C160.505519,51.5789462 160.443852,51.309212 160.407309,51.0065789 L160.407309,50.9473684 C159.786065,51.6491263 159.002669,52 158.057099,52 C157.399312,52 156.848879,51.8245632 156.405786,51.4736842 C155.962693,51.1184193 155.74115,50.5964947 155.74115,49.9078947 C155.74115,48.6008707 156.460594,47.8464922 157.899505,47.6447368 L159.660449,47.3881579 C160.117246,47.3223681 160.345641,47.1228087 160.345641,46.7894737 C160.345641,46.2456113 159.94595,45.9736842 159.146555,45.9736842 C158.703462,45.9736842 158.395128,46.0570167 158.221545,46.2236842 C158.047963,46.3903517 157.938333,46.6403492 157.892653,46.9736842 L155.987819,46.9736842 C156.147698,45.9780652 156.497142,45.3135982 157.036163,44.9802632 C157.575184,44.6425422 158.3129,44.4736842 159.249334,44.4736842 Z M103.522649,44.4736842 C104.609827,44.4736842 105.516555,44.8004353 106.242863,45.4539474 C106.96917,46.1074594 107.332318,47.0350817 107.332318,48.2368421 C107.332318,49.3464968 106.994293,50.2521895 106.318234,50.9539474 C105.642174,51.6513193 104.710322,52 103.522649,52 C102.430904,52 101.521892,51.6732489 100.795584,51.0197368 C100.073845,50.3618388 99.7129806,49.4342165 99.7129806,48.2368421 C99.7129806,47.0833276 100.062425,46.168863 100.761325,45.4934211 C101.460224,44.8135931 102.380657,44.4736842 103.522649,44.4736842 Z M133.136658,44.4736842 C134.223835,44.4736842 135.130564,44.8004353 135.856871,45.4539474 C136.583178,46.1074594 136.946327,47.0350817 136.946327,48.2368421 C136.946327,49.3464968 136.608302,50.2521895 135.932242,50.9539474 C135.256182,51.6513193 134.32433,52 133.136658,52 C132.044913,52 131.1359,51.6732489 130.409593,51.0197368 C129.687853,50.3618388 129.326989,49.4342165 129.326989,48.2368421 C129.326989,47.0833276 129.676434,46.168863 130.375333,45.4934211 C131.074233,44.8135931 131.994665,44.4736842 133.136658,44.4736842 Z M83.2478112,44.4736842 C84.3349883,44.4736842 85.241717,44.8004353 85.9680244,45.4539474 C86.6943318,46.1074594 87.05748,47.0350817 87.05748,48.2368421 C87.05748,49.3464968 86.7194552,50.2521895 86.0433955,50.9539474 C85.3673358,51.6513193 84.4354837,52 83.2478112,52 C82.1560661,52 81.2470535,51.6732489 80.5207461,51.0197368 C79.7990067,50.3618388 79.4381424,49.4342165 79.4381424,48.2368421 C79.4381424,47.0833276 79.7875869,46.168863 80.4864865,45.4934211 C81.1853861,44.8135931 82.1058184,44.4736842 83.2478112,44.4736842 Z M166.251998,42.7631579 L166.251998,44.6578947 L167.457937,44.6578947 L167.457937,45.9934211 L166.251998,45.9934211 L166.251998,49.9078947 C166.251998,50.1710539 166.304529,50.333333 166.409593,50.3947368 C166.519224,50.4561407 166.745335,50.4868421 167.087933,50.4868421 C167.2067,50.4868421 167.336885,50.4802632 167.478493,50.4671053 L167.478493,51.9078947 C167.099351,51.9210527 166.770462,51.9276316 166.491816,51.9276316 C165.614765,51.9276316 165.02779,51.8114047 164.730872,51.5789474 C164.433954,51.3464901 164.285497,50.9451783 164.285497,50.375 L164.285497,45.9934211 L163.271412,45.9934211 L163.271412,44.6578947 L164.285497,44.6578947 L164.285497,42.7631579 L166.251998,42.7631579 Z M185.389418,44.4736842 C186.129429,44.4736842 186.74838,44.6776295 187.246289,45.0855263 C187.748765,45.4934231 188,46.0833295 188,46.8552632 L188,51.8157895 L186.033498,51.8157895 L186.033498,47.4736842 C186.033498,46.530697 185.613251,46.0592105 184.772745,46.0592105 C184.283972,46.0592105 183.8957,46.2039459 183.607918,46.4934211 C183.320136,46.7828962 183.176247,47.1929798 183.176247,47.7236842 L183.176247,51.8157895 L181.209745,51.8157895 L181.209745,44.6578947 L183.087172,44.6578947 L183.087172,45.7368421 C183.589648,44.8947326 184.357056,44.4736842 185.389418,44.4736842 Z M64.2542825,42.1315789 L66.4468976,49.3947368 L68.5984012,42.1315789 L70.7910164,42.1315789 L67.3924629,51.8157895 L65.3985535,51.8157895 L62,42.1315789 L64.2542825,42.1315789 Z M151.958888,44.4736842 C152.708036,44.4736842 153.317851,44.6864014 153.788352,45.1118421 C154.258853,45.5372828 154.4941,46.1184174 154.4941,46.8552632 L154.4941,51.8157895 L152.527598,51.8157895 L152.527598,47.4736842 C152.527598,46.530697 152.150746,46.0592105 151.397031,46.0592105 C150.538252,46.0592105 150.108869,46.5460478 150.108869,47.5197368 L150.108869,51.8157895 L148.142368,51.8157895 L148.142368,47.5197368 C148.142368,46.9714885 148.05101,46.5921063 147.868291,46.3815789 C147.69014,46.1666656 147.390942,46.0592105 146.970689,46.0592105 C146.139318,46.0592105 145.723639,46.5241182 145.723639,47.4539474 L145.723639,51.8157895 L143.757137,51.8157895 L143.757137,44.6578947 L145.634564,44.6578947 L145.634564,45.7368421 C146.146177,44.8947326 146.883893,44.4736842 147.847735,44.4736842 C148.391324,44.4736842 148.820706,44.5833322 149.135896,44.8026316 C149.455654,45.0219309 149.709173,45.2982439 149.89646,45.6315789 C150.362393,44.8596453 151.049862,44.4736842 151.958888,44.4736842 Z M127.696231,42 C127.997718,42 128.278644,42.0087718 128.539018,42.0263158 L128.539018,43.5394737 L127.963456,43.5394737 C127.543203,43.5394737 127.33308,43.6995598 127.33308,44.0197368 L127.33308,44.6578947 L128.648649,44.6578947 L128.648649,45.9934211 L127.33308,45.9934211 L127.33308,51.8157895 L125.366578,51.8157895 L125.366578,45.9934211 L124.27027,45.9934211 L124.27027,44.6578947 L125.366578,44.6578947 L125.366578,44.0789474 C125.366578,43.3596455 125.551578,42.833335 125.921584,42.5 C126.296157,42.166665 126.887701,42 127.696231,42 Z M90.4628854,42.1315789 L90.4628854,51.8157895 L88.4963837,51.8157895 L88.4963837,42.1315789 L90.4628854,42.1315789 Z M120.686715,44.4736842 C121.426726,44.4736842 122.045677,44.6776295 122.543586,45.0855263 C123.046063,45.4934231 123.297297,46.0833295 123.297297,46.8552632 L123.297297,51.8157895 L121.330796,51.8157895 L121.330796,47.4736842 C121.330796,46.530697 120.910549,46.0592105 120.070042,46.0592105 C119.581269,46.0592105 119.192997,46.2039459 118.905215,46.4934211 C118.617433,46.7828962 118.473544,47.1929798 118.473544,47.7236842 L118.473544,51.8157895 L116.507042,51.8157895 L116.507042,44.6578947 L118.384469,44.6578947 L118.384469,45.7368421 C118.886946,44.8947326 119.654353,44.4736842 120.686715,44.4736842 Z M142.277122,44.4736842 C142.341074,44.4736842 142.473543,44.4802631 142.674534,44.4934211 L142.674534,46.4078947 C142.478111,46.3947368 142.309099,46.3881579 142.167491,46.3881579 C140.897595,46.3881579 140.262657,46.9539417 140.262657,48.0855263 L140.262657,51.8157895 L138.296155,51.8157895 L138.296155,44.6578947 L140.173582,44.6578947 L140.173582,45.9539474 C140.452228,45.410085 140.751426,45.0285099 141.071184,44.8092105 C141.390942,44.5855252 141.792917,44.4736842 142.277122,44.4736842 Z M114.636467,44.6578947 L114.636467,51.8157895 L112.669966,51.8157895 L112.669966,44.6578947 L114.636467,44.6578947 Z M170.767415,44.6578947 L170.767415,51.8157895 L168.800914,51.8157895 L168.800914,44.6578947 L170.767415,44.6578947 Z M160.345641,48.3486842 C160.21317,48.4407899 160.019034,48.5197365 159.763228,48.5855263 C159.51199,48.6513161 159.265323,48.7017542 159.02322,48.7368421 C158.625807,48.7894739 158.306054,48.8925431 158.063951,49.0460526 C157.826417,49.1951762 157.707651,49.4407878 157.707651,49.7828947 C157.707651,50.0855278 157.794441,50.3048239 157.968024,50.4407895 C158.141607,50.5767551 158.37457,50.6447368 158.66692,50.6447368 C159.123718,50.6447368 159.516557,50.5087733 159.845451,50.2368421 C160.178913,49.9649109 160.345641,49.6381598 160.345641,49.2565789 L160.345641,48.3486842 Z M133.136658,46.0789474 C131.948985,46.0789474 131.355158,46.8048173 131.355158,48.2565789 C131.355158,49.7083406 131.948985,50.4342105 133.136658,50.4342105 C134.32433,50.4342105 134.918158,49.7083406 134.918158,48.2565789 C134.918158,46.8048173 134.32433,46.0789474 133.136658,46.0789474 Z M176.02284,46.0789474 C174.835167,46.0789474 174.24134,46.8048173 174.24134,48.2565789 C174.24134,49.7083406 174.835167,50.4342105 176.02284,50.4342105 C177.210512,50.4342105 177.80434,49.7083406 177.80434,48.2565789 C177.80434,46.8048173 177.210512,46.0789474 176.02284,46.0789474 Z M103.522649,46.0789474 C102.334977,46.0789474 101.74115,46.8048173 101.74115,48.2565789 C101.74115,49.7083406 102.334977,50.4342105 103.522649,50.4342105 C104.710322,50.4342105 105.304149,49.7083406 105.304149,48.2565789 C105.304149,46.8048173 104.710322,46.0789474 103.522649,46.0789474 Z M83.2478112,46.0789474 C82.0601387,46.0789474 81.4663114,46.8048173 81.4663114,48.2565789 C81.4663114,49.7083406 82.0601387,50.4342105 83.2478112,50.4342105 C84.4354837,50.4342105 85.029311,49.7083406 85.029311,48.2565789 C85.029311,46.8048173 84.4354837,46.0789474 83.2478112,46.0789474 Z M24.1515362,27.7651387 L21.1795764,30.7370986 L34.0607537,43.6129064 C33.4298498,43.8491598 32.7882072,44.0531968 32.1358258,44.2169633 L32.1358258,44.2169633 L32.1492493,44.2330715 C30.6834046,44.6196679 29.1450731,44.8263895 27.5557324,44.8263895 C25.4242988,44.8263895 23.3791571,44.4550264 21.4818061,43.7742114 C21.6076477,43.7916733 21.421675,43.6745084 20.79298,43.4169235 L20.79298,43.4169235 L26.3986278,37.808591 L23.426668,34.8393158 L16.9216466,41.3470219 L16.9216466,41.3470219 L13.9845878,44.2813961 C17.8881376,47.3204734 22.6588446,48.9688774 27.6819131,48.9688774 C32.4499354,48.9688774 37.1427862,47.411753 40.9684796,44.5820821 L40.9684796,44.5820821 L24.1515362,27.7651387 Z M114.636467,42.0657895 L114.636467,43.8157895 L112.669966,43.8157895 L112.669966,42.0657895 L114.636467,42.0657895 Z M170.767415,42.0657895 L170.767415,43.8157895 L168.800914,43.8157895 L168.800914,42.0657895 L170.767415,42.0657895 Z M17.2992917,41.6165989 C17.5507823,41.7912251 17.8011954,41.9556443 18.0473395,42.1097153 L17.757,41.923 L17.6653626,41.8646868 L17.6653626,41.8646868 Z M16.9216466,41.3470219 L17.2992917,41.6165989 L17.2992917,41.6165989 L17.2900772,41.6104007 L17.2900772,41.6104007 L16.9216466,41.3470219 Z M9.53604456,13.3832156 C6.49428264,17.3028737 4.84587852,22.0977428 4.84587852,27.1476583 C4.84587852,31.9398428 6.40300284,36.6541712 9.2353584,40.4986577 L9.2353584,40.4986577 L12.244904,37.4756886 L26.0549866,23.6011733 L23.0830267,20.6131052 L10.2018494,33.5560307 C9.96559608,32.9224421 9.76424376,32.2781148 9.5977926,31.6230486 L9.5977926,31.6230486 L9.5816844,31.6364722 C9.19508796,30.1625734 8.991051,28.6161877 8.991051,27.0214776 C8.991051,24.879599 9.36127704,22.8254663 10.0411458,20.9196628 C10.0265047,21.0393863 10.1444146,20.8501112 10.400517,20.2238242 L10.400517,20.2238242 L16.0088496,25.856319 L18.9781247,22.8709357 L12.4704186,16.3336979 L12.4704186,16.3336979 Z M45.0250572,13.3832156 L42.0155116,16.4061847 L28.2027444,30.2807 L31.1747042,33.2687681 L44.0558815,20.3258426 C44.2948195,20.9594312 44.4961718,21.6037585 44.6599383,22.2588247 L44.6599383,22.2588247 L44.6760465,22.2454012 C45.0626429,23.7193 45.2693646,25.2656856 45.2693646,26.8603957 C45.2693646,29.0036494 44.8986631,31.0590444 44.2175471,32.9658809 C44.2351367,32.8387589 44.1177689,33.0255222 43.8598986,33.6580492 L43.8598986,33.6580492 L38.2515661,28.0255543 L35.2796063,31.0109376 L41.7873124,37.5481754 L41.7873124,37.5481754 L44.7243711,40.4986577 C47.766133,36.5789998 49.4118524,31.7841305 49.4118524,26.734215 C49.4118524,21.9420305 47.854728,17.2277021 45.0250572,13.3832156 L45.0250572,13.3832156 Z M42.305,36.8 L42.29979,36.8101585 L42.29979,36.8101585 L42.253,36.878 L42.305,36.8 Z M152.421552,22.5740181 L152.421552,34 L150.020703,34 L150.020703,32.1268882 L137.081068,32.1268882 L137.081068,34 L134.68022,34 L134.68022,22.5740181 L152.421552,22.5740181 Z M130.50212,3.18731118 L132.934148,3.87411883 C132.029928,6.67339433 131.042576,9.25410031 129.972063,11.6163142 L129.972063,34 L127.664754,34 L127.664754,16.1898288 C126.708568,17.8652316 125.700429,19.4001273 124.640309,20.7945619 C124.307723,19.9204387 123.964748,19.0671408 123.611374,18.2346425 C126.667015,13.6975268 128.963907,8.68179988 130.50212,3.18731118 Z M95.7365927,9.33736153 L95.7365927,33.8751259 L93.3669244,33.8751259 L93.3669244,9.33736153 L95.7365927,9.33736153 Z M121.272886,5.15407855 L121.272886,28.7865055 C121.272886,30.6388142 120.961091,31.9291672 120.337491,32.6576032 C119.776251,33.4068517 118.653779,33.7918764 116.970067,33.8126888 C116.097027,33.8126888 115.161636,33.8022827 114.163881,33.7814703 C114.059948,33.1154717 113.893657,32.3246102 113.665004,31.408862 C114.953777,31.5129243 115.920343,31.5649547 116.564729,31.5649547 C117.333836,31.5649547 117.915854,31.4088636 118.310801,31.0966767 C118.705747,30.6804276 118.903218,29.8999722 118.903218,28.755287 L118.903218,7.33937563 L103.188576,7.33937563 L103.188576,5.15407855 L121.272886,5.15407855 Z M88.5652282,4.9979859 L88.5652282,30.0352467 C88.5652282,32.2621796 87.3700128,33.3756294 84.979546,33.3756294 C83.6491993,33.3756294 82.0590431,33.3548173 80.2090297,33.3131923 C80.1050963,32.6471937 79.9595909,31.8355201 79.7725118,30.878147 C81.5185919,31.0238342 83.0048164,31.0966767 84.2312297,31.0966767 C85.5615765,31.0966767 86.2267398,30.5243427 86.2267398,29.3796576 L86.2267398,7.24572004 L64.3384884,7.24572004 L64.3384884,26.8821752 C66.1261418,24.2493994 67.7007083,21.6218661 69.062235,18.9994965 C67.6799216,16.5332203 66.2300733,14.051372 64.7126465,11.5538771 L66.5522574,10.5861027 C67.7890641,12.5528799 69.0206557,14.5612519 70.2470691,16.611279 C71.2552225,14.4363772 72.1230528,12.2719141 72.8505862,10.1178248 L74.9708157,10.898288 C73.9418756,13.6975635 72.8090192,16.356315 71.5722125,18.8746224 C72.7674459,20.9142432 73.9522682,23.0006607 75.1267149,25.1339376 L73.0064854,26.2578046 C72.1438387,24.6136205 71.255222,22.959055 70.3406086,21.2940584 C69.0622286,23.6978972 67.6851325,25.966421 66.2092791,28.0996979 L64.3384884,27.0226586 L64.3384884,33.5317221 L62,33.5317221 L62,4.9979859 L88.5652282,4.9979859 Z M165.330007,24.4471299 L165.330007,29.0362538 C165.330007,30.3266261 166.015957,30.9718026 167.387877,30.9718026 L174.309803,30.9718026 C175.972736,30.9718026 176.939302,30.3994686 177.209529,29.2547835 C177.417395,28.505535 177.625259,27.3712731 177.833125,25.8519637 C178.602232,26.1641506 179.4129,26.4659267 180.265153,26.7573011 C180.015713,28.1933607 179.766277,29.3484347 179.516837,30.2225579 C179.038744,32.1997413 177.49016,33.1883182 174.87104,33.1883182 L167.013719,33.1883182 C164.311452,33.1883182 162.960339,31.8979652 162.960339,29.3172205 L162.960339,24.4471299 L165.330007,24.4471299 Z M158.314542,24.1349446 L160.590671,24.9154079 C159.676058,27.4129027 158.719885,29.6918326 157.722125,31.7522659 C157.056952,31.4608915 156.287857,31.1591154 155.414817,30.8469285 C156.433363,29.0362447 157.399929,26.7989391 158.314542,24.1349446 Z M116.34647,9.24370594 L116.751808,11.3977845 L111.139436,11.897281 L111.139436,15.8932528 L117.624844,15.8932528 L117.624844,17.8912387 L111.139436,17.8912387 L111.139436,21.4813696 L115.909953,21.4813696 L115.909953,30.1289023 L106.057121,30.1289023 L106.057121,31.4712991 L103.936892,31.4712991 L103.936892,21.4813696 L108.956847,21.4813696 L108.956847,17.8912387 L102.440259,17.8912387 L102.440259,15.8932528 L108.956847,15.8932528 L108.956847,12.0533736 C107.12762,12.1990608 105.308814,12.3447458 103.500374,12.490433 L103.126216,10.367573 C108.073443,10.0970111 112.48015,9.72239246 116.34647,9.24370594 Z M99.696433,21.4501511 C100.299246,21.8039628 101.005982,22.1577693 101.816663,22.5115811 C100.881262,25.0298884 99.8523323,27.8811523 98.7298578,31.0654582 L96.3601896,30.0976838 C97.711323,27.329627 98.823393,24.4471449 99.696433,21.4501511 Z M182.478922,23.7291037 C183.954776,25.3316629 185.461787,27.0902892 187,29.0050352 L185.00449,30.5347432 C183.590997,28.6199971 182.146345,26.8197466 180.670491,25.1339376 L182.478922,23.7291037 Z M150.020703,24.6968781 L137.081068,24.6968781 L137.081068,30.0040282 L150.020703,30.0040282 L150.020703,24.6968781 Z M83.171115,10.305136 L85.2913445,11.1168177 C84.1168978,14.0825929 82.8333403,16.9130446 81.4406336,19.6082578 C82.7501936,21.8560032 84.1065033,24.2389938 85.5096034,26.7573011 L83.4205538,27.9436052 C82.3812204,25.9664218 81.3003299,23.9684559 80.1778498,21.9496475 C78.8890765,24.2598303 77.517177,26.4555116 76.0621103,28.5367573 L74.1601397,27.3192346 C75.9477931,24.7280837 77.5275561,22.178596 78.8994762,19.6706949 C77.6834561,17.4853869 76.4154884,15.2792995 75.095535,13.0523666 L76.9039661,11.9909366 C77.9432995,13.6767456 79.0189934,15.461387 80.1310801,17.3449144 C81.3263135,14.9618881 82.3396483,12.6153187 83.171115,10.305136 Z M170.100524,22.6676737 C171.368511,23.8331713 172.761196,25.227585 174.278623,26.8509567 L172.376653,28.4743202 C170.838439,26.6636455 169.518506,25.2067863 168.416812,24.1037261 L170.100524,22.6676737 Z M113.789723,23.4169184 L106.057121,23.4169184 L106.057121,28.1933535 L113.789723,28.1933535 L113.789723,23.4169184 Z M27.0026846,4.67674256 C22.2346625,4.67674256 17.5418117,6.23386696 13.7161181,9.06353784 L13.7161181,9.06353784 L16.7256637,12.0730835 L30.5330616,25.8804812 L33.5050213,22.9085214 L20.6265288,10.0300289 C21.2547479,9.79377552 21.8963905,9.5924232 22.548772,9.42597192 L22.548772,9.42597192 L22.5353485,9.41254848 C24.0038779,9.02595204 25.5422094,8.81923044 27.1288655,8.81923044 C29.2608296,8.81923044 31.3050358,9.18950784 33.2017124,9.86946684 C33.0804218,9.85394544 33.2683855,9.97179024 33.8943025,10.2286964 L33.8943025,10.2286964 L28.2886547,15.8343443 L31.2579298,18.8063041 L37.7656358,12.298598 L37.7656358,12.298598 L40.70001,9.36422388 C36.7991449,6.32246197 32.0284379,4.67674256 27.0026846,4.67674256 Z M168.416812,3 L170.84884,3.65558912 C170.50586,4.54011855 170.147295,5.3934165 169.773135,6.21550856 L182.198304,6.21550856 L182.198304,23.2608258 L179.797456,23.2608258 L179.797456,22.2930514 L162.087304,22.2930514 L162.087304,23.2608258 L159.686455,23.2608258 L159.686455,6.21550856 L167.309928,6.21550856 C167.756841,5.1020421 168.125799,4.03021663 168.416812,3 Z M179.797456,17.5478348 L162.087304,17.5478348 L162.087304,20.1701913 L179.797456,20.1701913 L179.797456,17.5478348 Z M97.8256423,14.3323263 C98.407669,14.9983249 99.5093458,16.3927386 101.130706,18.5156093 C100.444746,18.9942958 99.8003689,19.462569 99.1975555,19.9204431 C98.3245155,18.5260085 97.2851977,17.0899705 96.079571,15.612286 L97.8256423,14.3323263 Z M152.73335,17.5166163 L152.73335,19.6394763 L134.337241,19.6394763 L134.337241,17.5166163 L152.73335,17.5166163 Z M179.797456,12.9274924 L162.087304,12.9274924 L162.087304,15.5498489 L179.797456,15.5498489 L179.797456,12.9274924 Z M152.73335,12.490433 L152.73335,14.6132931 L134.337241,14.6132931 L134.337241,12.490433 L152.73335,12.490433 Z M99.6340733,9.05639476 C100.486327,9.95133042 101.619183,11.2729016 103.032676,13.021148 C102.305143,13.5414595 101.681552,14.0097327 101.161886,14.4259819 C100.205699,13.0731722 99.1352017,11.6995706 97.9503617,10.305136 L99.6340733,9.05639476 Z M37.037,11.791 L37.3961379,12.0345841 L37.3961379,12.0345841 L37.404,12.04 L37.037,11.791 Z M179.797456,8.33836858 L162.087304,8.33836858 L162.087304,10.9295065 L179.797456,10.9295065 L179.797456,8.33836858 Z M142.942879,3.12487412 C143.691199,4.24874681 144.429114,5.43503907 145.156648,6.68378651 L143.800324,7.40181269 L154.572961,7.40181269 L154.572961,9.58710977 L132.62235,9.58710977 L132.62235,7.40181269 L142.802569,7.40181269 C142.178969,6.32997114 141.529396,5.26855175 140.853829,4.21752266 L142.942879,3.12487412 Z M96.6408082,3.15609265 C98.5531816,4.96677642 99.9354742,6.29875371 100.787728,7.15206445 L98.9169369,8.80664653 C97.7113102,7.37058698 96.4017698,5.97617326 94.9882764,4.62336354 L96.6408082,3.15609265 Z M12.2136873,16.694348 L12.2192291,16.6861042 L12.2192291,16.6861042 L12.201,16.712 L12.2136873,16.694348 L12.2136873,16.694348 Z" id="path-1"></path>
    </defs>
    <g id="Page-1" stroke="none" stroke-width="1" fill="none" fill-rule="evenodd">
        <g id="Combined-Shape" fill-rule="nonzero">
            <use fill="#000000" xlink:href="#path-1"></use>
            <use fill="#818693" xlink:href="#path-1"></use>
        </g>
    </g>
</svg>