<?xml version="1.0" encoding="UTF-8"?>
<svg width="83px" height="17px" viewBox="0 0 83 17" version="1.1" xmlns="http://www.w3.org/2000/svg" xmlns:xlink="http://www.w3.org/1999/xlink">
    <!-- Generator: Sketch 57.1 (83088) - https://sketch.com -->
    <title>Vation</title>
    <desc>Created with Sketch.</desc>
    <g id="Page-1" stroke="none" stroke-width="1" fill="none" fill-rule="evenodd">
        <g id="Desktop-HD-Copy-4" transform="translate(-69.000000, -166.000000)" fill="#191A1E" fill-rule="nonzero">
            <path d="M128.090586,166.8 C130.38408,166.8 132.318935,167.593683 133.804128,169.149619 C135.253422,170.669781 135.992049,172.573197 135.992049,174.8 C135.992049,177.026803 135.253422,178.930219 133.804047,180.450466 C132.318935,182.006317 130.38408,182.8 128.090586,182.8 C125.797092,182.8 123.862237,182.006317 122.377044,180.450381 C120.92775,178.930219 120.189123,177.026803 120.189123,174.8 C120.189123,172.573197 120.92775,170.669781 122.377125,169.149534 C123.862237,167.593683 125.797092,166.8 128.090586,166.8 Z M77.6418986,166.8 C78.1469187,166.8 78.5613465,167.224489 78.5613465,167.74439 L78.5613465,169.26374 C78.5613465,169.783642 78.1469187,170.20813 77.6418986,170.20813 L74.4475211,170.20813 L77.3307318,177.496487 L81.3141033,167.382989 C81.4480795,167.033055 81.7923275,166.8 82.1791727,166.8 L83.9194971,166.8 C84.2340937,166.8 84.5232194,166.958461 84.6834012,167.221861 C84.8581483,167.476471 84.8916978,167.789113 84.7833262,168.088136 L79.1050367,182.182201 C78.9529121,182.538784 78.6177423,182.758374 78.2427248,182.758374 L76.4195279,182.758374 C76.0216661,182.758374 75.6827102,182.536304 75.5556988,182.178543 L69.8821485,168.095674 C69.7496594,167.802863 69.7782271,167.480004 69.9620025,167.216266 C70.1418915,166.958105 70.4280449,166.8 70.7220376,166.8 L77.6418986,166.8 Z M93.366972,166.8 C93.7401759,166.8 94.0779006,167.017881 94.2100771,167.35894 L99.9976738,181.089235 C100.080809,181.228427 100.128937,181.387288 100.128937,181.543415 C100.128937,182.053036 99.7249482,182.466992 99.2094894,182.466992 L97.4898832,182.466992 C97.1155006,182.466992 96.7768217,182.247733 96.6480218,181.911002 L95.1858376,178.450081 L89.5805702,178.450081 L88.1409063,181.904816 C88.0096165,182.247733 87.6709376,182.466992 87.296555,182.466992 L85.5769488,182.466992 C85.260006,182.466992 84.9689155,182.306159 84.8227175,182.058624 C84.6331221,181.813743 84.6020881,181.463012 84.7350643,181.196695 L90.5751149,167.362176 C90.7064047,167.019259 91.0450836,166.8 91.4194662,166.8 L93.366972,166.8 Z M112.220486,166.8 C112.719383,166.8 113.119215,167.218057 113.119215,167.723577 L113.119215,169.222114 C113.119215,169.727634 112.719383,170.145691 112.220486,170.145691 L108.333323,170.145691 L108.333323,181.543415 C108.333323,182.046607 107.914854,182.466992 107.413876,182.466992 L105.860014,182.466992 C105.344556,182.466992 104.940567,182.053036 104.940567,181.543415 L104.940567,170.145691 L101.053404,170.145691 C100.552426,170.145691 100.133957,169.725306 100.133957,169.222114 L100.133957,167.723577 C100.133957,167.220385 100.552426,166.8 101.053404,166.8 L112.220486,166.8 Z M117.172123,166.8 C117.673101,166.8 118.091571,167.220385 118.091571,167.723577 L118.091571,181.543415 C118.091571,182.046607 117.673101,182.466992 117.172123,182.466992 L115.618262,182.466992 C115.117283,182.466992 114.698814,182.046607 114.698814,181.543415 L114.698814,167.723577 C114.698814,167.220385 115.117283,166.8 115.618262,166.8 L117.172123,166.8 Z M140.811528,166.8 C141.109486,166.8 141.395022,166.939744 141.548175,167.170902 L148.407239,176.536396 L148.407239,167.723577 C148.407239,167.218057 148.80707,166.8 149.305968,166.8 L150.880547,166.8 C151.381526,166.8 151.799995,167.220385 151.799995,167.723577 L151.799995,181.543415 C151.799995,182.046607 151.381526,182.466992 150.880547,182.466992 L149.057351,182.466992 C148.768829,182.466992 148.505295,182.334622 148.320315,182.095557 L141.482358,172.692384 L141.482358,181.543415 C141.482358,182.046607 141.063889,182.466992 140.56291,182.466992 L139.009049,182.466992 C138.508071,182.466992 138.089601,182.046607 138.089601,181.543415 L138.089601,167.723577 C138.089601,167.220385 138.508071,166.8 139.009049,166.8 L140.811528,166.8 Z M128.090586,170.166504 C126.70222,170.166504 125.630637,170.5971 124.793562,171.478031 C123.976706,172.35867 123.581879,173.435948 123.581879,174.8 C123.581879,176.171551 123.98121,177.266071 124.791959,178.120261 C125.630637,179.0029 126.70222,179.433496 128.090586,179.433496 C129.478952,179.433496 130.550535,179.0029 131.389139,178.12034 C132.199962,177.266071 132.599293,176.171551 132.599293,174.8 C132.599293,173.435948 132.204466,172.35867 131.389213,171.479739 C130.550535,170.5971 129.478952,170.166504 128.090586,170.166504 Z M92.3932191,171.727224 L90.9651485,175.166829 L93.8212897,175.166829 L92.3932191,171.727224 Z" id="Vation"></path>
        </g>
    </g>
</svg>