<?xml version="1.0" encoding="UTF-8"?>
<svg width="18px" height="18px" viewBox="0 0 18 18" version="1.1" xmlns="http://www.w3.org/2000/svg" xmlns:xlink="http://www.w3.org/1999/xlink">
    <!-- Generator: Sketch 57.1 (83088) - https://sketch.com -->
    <title>wechat</title>
    <desc>Created with Sketch.</desc>
    <g id="wechat" stroke="none" stroke-width="1" fill="none" fill-rule="evenodd">
        <path d="M5.21169181,1.1235195 C-0.1008886,2.14405855 -1.87107897,8.60458969 2.35447194,11.5602611 C2.58554106,11.7202608 2.58554106,11.7029636 2.23793273,12.8186376 L1.94055682,13.7743119 L3.01151195,13.1580966 L4.08246708,12.5397191 L4.65109804,12.6889081 C5.24785915,12.8489078 6.0073733,12.9613401 6.51572536,12.9613401 L6.81912916,12.9613401 L6.71464573,12.5289083 C5.88078761,9.22729148 8.76010975,5.95594489 12.5054388,5.95594489 L13.0137908,5.95594489 L12.9093074,5.56459411 C12.0854957,2.47270672 8.61544039,0.470547476 5.21169181,1.1235195 L5.21169181,1.1235195 Z M4.74955358,4.01648826 C5.31215665,4.42513631 5.34631469,5.31162151 4.80380459,5.68999934 C3.92574194,6.30837681 2.90100064,5.22081083 3.49173386,4.29540677 C3.75093313,3.87811008 4.3738151,3.74189406 4.74955358,4.01648826 L4.74955358,4.01648826 Z M9.2724804,4.01648826 C10.1987662,4.68675755 9.50354952,6.23702557 8.46675243,5.80891808 C7.71728477,5.49972934 7.62887572,4.39054177 8.32811096,3.99270451 C8.6053939,3.83054258 9.03538339,3.84351554 9.2724804,4.01648826 L9.2724804,4.01648826 Z M11.3199537,6.4618901 C8.68777507,6.97864611 6.86132439,9.12783217 6.96781711,11.5970178 C7.10645858,14.9029589 10.7091275,17.1840367 14.1671271,16.1613354 L14.5750143,16.0424167 L15.4349933,16.5418754 C15.9091873,16.8207939 16.3070281,17.0218747 16.3170745,16.998091 C16.3291303,16.9678208 16.2346934,16.6110645 16.1121263,16.2024165 C15.8368526,15.2878232 15.8308248,15.352688 16.2005353,15.0694451 C20.3617888,11.858639 16.7088874,5.41108082 11.3199537,6.4618901 L11.3199537,6.4618901 Z M11.2154703,9.12783217 C11.4465394,9.29431841 11.5691065,9.70945294 11.4686417,10.0121552 C11.2596748,10.6586407 10.3595099,10.7062082 10.116385,10.0835065 C9.84111136,9.3635075 10.6026348,8.69972468 11.2154703,9.12783217 L11.2154703,9.12783217 Z M14.9005204,9.19918341 C15.2642031,9.57323692 15.2039242,10.2089117 14.7799626,10.4467492 C14.1289505,10.8035054 13.4457896,10.0899929 13.7813421,9.40891284 C14.0003555,8.96567024 14.5689864,8.85972445 14.9005204,9.19918341 L14.9005204,9.19918341 Z" id="Shape" fill="#575F64" fill-rule="nonzero"></path>
    </g>
</svg>