<?xml version="1.0" encoding="UTF-8"?>
<svg width="195px" height="72px" viewBox="0 0 195 72" version="1.1" xmlns="http://www.w3.org/2000/svg" xmlns:xlink="http://www.w3.org/1999/xlink">
    <!-- Generator: Sketch 57.1 (83088) - https://sketch.com -->
    <title>Combined Shape</title>
    <desc>Created with Sketch.</desc>
    <g id="Page-1" stroke="none" stroke-width="1" fill="none" fill-rule="evenodd">
        <path d="M36,0 C55.9518072,0 72,16.0481928 72,36 C72,55.9518072 55.9518072,72 36,72 C16.0481928,72 0,55.9518072 0,36 C0,16.0481928 16.0481928,0 36,0 Z M176.683861,17.2279215 L173.712601,36.803563 L193.238025,36.3586621 C193.238025,36.3586621 192.389094,39.9178696 190.691231,39.9178696 C188.993368,39.9178696 173.288136,40.3627706 173.288136,40.3627706 L168.194547,71.9507376 C168.194547,71.9507376 166.072218,72.8405395 166.496684,67.0568272 C166.92115,63.4976197 161.827561,62.6078178 161.827561,62.6078178 L165.647752,40.8076715 L165.435362,40.8079165 C163.887035,40.8106607 154.298513,40.8441388 150.791452,41.2525725 C146.97126,41.2525725 146.97126,37.6933649 146.97126,37.6933649 L166.496684,37.248464 C166.496684,37.248464 168.194547,24.3463366 169.043478,21.6769309 C169.467944,16.7830206 176.683861,17.2279215 176.683861,17.2279215 Z M130.089112,31.7725753 L129.678241,34.7692308 L98.4520254,58.3143813 L119.342,56.18 C119.372239,55.8113416 120.7824,52.8288092 121.871687,50.180602 C123.515172,46.3277592 130.499983,46.7558528 130.499983,46.7558528 L123.515172,67.3043478 C123.376045,67.2601625 121.819235,66.6758699 120.639073,62.1672241 C119.817331,59.5986622 116.119489,60.4548495 112.421648,60.8829431 C106.258579,61.3110368 94.3433129,63.0234114 86.9476303,63.8795987 C84.0715316,64.3076923 84.0715316,60.4548495 85.3041453,59.5986622 C86.1258878,58.7424749 116.530361,35.6254181 116.530361,35.6254181 L116.495337,35.6259793 C115.417161,35.6432533 89.7977793,36.0535117 88.5911153,36.0535117 C87.3585016,36.0535117 86.5367591,32.6287625 86.5367591,32.6287625 L130.089112,31.7725753 Z M161.403095,44.3668791 L152.91378,62.6078178 L144,62.6078178 C144,62.6078178 148.244657,53.264898 150.791452,48.3709876 C153.338246,43.4770772 161.403095,44.3668791 161.403095,44.3668791 Z M184.324245,43.9219781 L187.719971,62.1629168 L178.80619,62.1629168 L175.410464,43.9219781 L184.324245,43.9219781 Z M29.060241,10.4096386 C29.060241,10.4096386 26.4578313,7.37349398 19.5180723,9.10843373 C16.9156627,9.54216867 13.4457831,12.1445783 13.4457831,12.1445783 C13.8795181,10.8433735 15.1807229,10.4096386 15.1807229,10.4096386 C15.1807229,10.4096386 10.4096386,10.4096386 9.54216867,14.746988 C9.10843373,16.0481928 9.54216867,16.9156627 9.54216867,17.3493976 C9.54216867,18.6506024 7.80722892,20.3855422 6.93975904,21.253012 C6.07228916,22.1204819 4.77108434,24.2891566 4.77108434,25.1566265 C5.63855422,27.7590361 7.80722892,29.060241 8.24096386,28.626506 C9.10843373,28.1927711 10.4096386,26.8915663 11.7108434,26.4578313 C14.746988,25.5903614 15.6144578,26.0240964 15.6144578,26.0240964 C15.6144578,26.0240964 11.7108434,26.8915663 10.4096386,29.9277108 C9.54216867,31.6626506 10.8433735,33.8313253 12.1445783,35.5662651 C13.0120482,36 13.0120482,36.4337349 13.8795181,36 C15.1807229,35.1325301 16.0481928,33.3975904 15.1807229,32.5301205 C14.746988,32.0963855 13.4457831,32.0963855 13.8795181,31.6626506 C15.1807229,30.7951807 24.7228916,28.1927711 31.2289157,33.3975904 C30.7951807,33.3975904 29.060241,33.8313253 26.4578313,33.8313253 C22.1204819,33.8313253 21.686747,36 21.686747,36 C27.3253012,35.5662651 26.0240964,38.6024096 37.7349398,37.7349398 C47.2771084,37.3012048 35.5662651,41.6385542 37.7349398,41.6385542 C55.0843373,41.6385542 60.2891566,60.2891566 60.7228916,60.2891566 C61.5903614,60.2891566 59.4216867,54.2168675 56.8192771,48.5783133 C55.0843373,44.6746988 52.4819277,41.2048193 50.746988,39.9036145 C58.9879518,37.3012048 62.0240964,32.0963855 62.4578313,24.2891566 C62.4578313,19.5180723 61.5903614,16.9156627 58.9879518,13.8795181 C57.686747,16.9156627 58.5542169,18.2168675 61.1566265,19.5180723 C61.5903614,19.9518072 63.3253012,26.0240964 58.9879518,32.9638554 C55.9518072,37.3012048 51.6144578,38.1686747 46.8433735,37.3012048 C42.5060241,36.4337349 39.0361446,34.6987952 36,31.6626506 C35.1325301,30.7951807 34.2650602,29.060241 34.2650602,29.060241 C34.2650602,29.060241 38.6024096,31.2289157 39.4698795,32.0963855 L39.465,32.092 L39.226565,31.8271974 C34.7490951,26.8033485 33.8618672,21.8631558 33.8321145,21.6913619 C33.8313253,21.686747 35.1325301,23.4216867 36,24.2891566 C36.4337349,22.5542169 35.5662651,18.2168675 33.8313253,16.0481928 C32.0963855,13.8795181 29.060241,13.4457831 29.060241,13.4457831 C29.060241,13.4457831 29.060241,13.0120482 30.3614458,13.0120482 C30.7951807,13.0120482 31.6626506,13.4457831 31.6626506,13.4457831 C31.6626506,13.4457831 31.6626506,12.5783133 29.9277108,11.7108434 C28.626506,10.8433735 25.1566265,11.2771084 25.1566265,11.2771084 C25.1566265,11.2771084 25.1566265,10.8433735 26.0240964,10.4096386 C26.8915663,9.97590361 29.060241,10.4096386 29.060241,10.4096386 Z M119.406459,56.173913 L119.342,56.18 L119.343144,56.1968073 C119.346632,56.2143657 119.359004,56.2151087 119.381096,56.1975827 L119.406459,56.173913 Z M160.978629,24.7912376 C161.827561,28.3504451 163.525424,34.5790583 163.525424,34.5790583 L154.187178,34.5790583 L150.791452,20.7871291 C150.791452,20.3422281 159.280766,18.5626243 160.978629,24.7912376 Z M194.086957,19.4524262 L186.446573,33.6892564 L177.108327,33.6892564 C177.108327,33.6892564 181.77745,25.2361385 183.050847,22.5667328 C185.597642,17.2279215 194.086957,19.4524262 194.086957,19.4524262 Z M107.902064,17.2173913 L107.491193,21.0702341 L116.941232,21.0702341 L117.352103,17.2173913 L124.747786,17.2173913 L124.336914,21.0702341 L134.608696,21.0702341 L134.604287,21.1025046 C134.553689,21.4504512 134.033476,24.4949833 131.321726,24.4949833 L123.926043,24.4949833 L123.104301,29.2040134 L115.708618,29.2040134 L116.530361,24.4949833 L107.080322,24.4949833 L106.258579,29.2040134 L98.8628967,29.2040134 L99.6846392,24.4949833 L92.2889566,24.4949833 C88.5911153,24.4949833 87.7693728,21.0702341 87.7693728,21.0702341 L100.09551,21.0702341 L100.506382,17.2173913 L107.902064,17.2173913 Z M168.26087,4.69565217 L167.869565,6.69565217 L169.043478,6.69565217 L168.652174,8.02898551 L167.478261,8.02898551 L166.695652,10.3623188 L166.695652,11.3623188 L167.869565,11.3623188 L167.478261,12.6956522 L166.304348,12.6956522 C165.521739,12.6956522 165.130435,12.6956522 164.73913,12.3623188 C164.347826,12.0289855 164.347826,11.6956522 164.347826,11.3623188 L164.349638,11.194109 C164.358696,10.9086151 164.413043,10.5845411 164.73913,10.0289855 L165.130435,7.69565217 L164.837,7.695 L165.130435,6.69565217 L165.913043,6.69565217 L166.304348,5.69565217 L168.26087,4.69565217 Z M130.695652,4.69565217 L130.304348,6.69565217 L131.478261,6.69565217 L131.086957,8.02898551 L129.913043,8.02898551 L129.130435,10.3623188 L129.130435,11.3623188 L130.304348,11.3623188 L129.913043,12.6956522 L128.73913,12.6956522 C127.956522,12.6956522 127.565217,12.6956522 127.173913,12.3623188 C126.821739,12.0623188 126.786522,11.7623188 126.783,11.4623188 L126.782609,11.3623188 C126.782609,11.0289855 126.782609,10.6956522 127.173913,10.0289855 L127.565217,7.69565217 L127.271,7.695 L127.565217,6.69565217 L128.347826,6.69565217 L128.73913,5.69565217 L130.695652,4.69565217 Z M121.16624,5.10755149 C121.626598,5.5194508 122.086957,5.93135011 122.086957,6.34324943 L122.086207,7.3137657 C122.080585,7.68726691 122.032797,8.13622291 121.626598,9.22654462 C121.626598,10.0503432 121.16624,10.8741419 121.16624,10.8741419 L121.16624,12.1098398 L118.86445,12.1098398 L118.86445,11.2860412 C118.404092,11.6979405 117.943734,11.6979405 117.943734,12.1098398 C117.483376,12.1098398 117.023018,12.5217391 116.56266,12.5217391 C116.102302,12.5217391 115.181586,12.5217391 114.721228,12.1098398 C114.26087,11.6979405 114.26087,11.2860412 114.26087,10.4622426 C114.26087,9.63844394 114.721228,9.22654462 115.181586,8.81464531 C115.641944,8.402746 116.56266,7.99084668 117.943734,7.99084668 C118.86445,7.99084668 119.785166,7.99084668 120.245524,7.57894737 L120.245524,6.75514874 C120.245524,6.34324943 120.245524,6.34324943 119.785166,6.34324943 C119.785166,6.34324943 119.324808,5.93135011 118.86445,5.93135011 C118.404092,5.93135011 117.943734,5.93135011 117.943734,6.34324943 C117.943734,6.34324943 117.483376,6.34324943 117.483376,6.75514874 L115.181586,6.75514874 C115.641944,5.93135011 115.641944,5.5194508 116.56266,5.10755149 C116.987606,4.72733674 117.804809,4.69808945 118.652187,4.69583966 L118.86445,4.69565217 C119.785166,4.69565217 120.705882,4.69565217 121.16624,5.10755149 Z M159.652174,5.10755149 L158.608696,6.75514874 L158.086957,6.75514874 C157.565217,6.75514874 157.043478,6.75514874 156.521739,7.16704805 C156,7.57894737 155.478261,7.57894737 155.478261,7.99084668 C155.478261,8.402746 154.956522,9.22654462 154.956522,10.0503432 L154.434783,12.5217391 L151.826087,12.5217391 L154.434783,5.10755149 L156.521739,5.10755149 L156,6.34324943 C157.043478,5.10755149 157.565217,4.69565217 158.608696,4.69565217 C159.130435,4.69565217 159.130435,4.69565217 159.652174,5.10755149 Z M146.209719,5.10755149 C146.670077,5.5194508 147.130435,5.93135011 147.130435,6.34324943 L147.130435,7.16704805 C147.130435,7.57894737 147.130435,7.99084668 146.670077,9.22654462 C146.670077,10.0503432 146.209719,10.8741419 146.209719,10.8741419 L146.209719,12.1098398 L143.907928,12.1098398 L143.907928,11.2860412 C143.44757,11.6979405 142.987212,11.6979405 142.987212,12.1098398 C142.526854,12.1098398 142.066496,12.5217391 141.606138,12.5217391 C141.14578,12.5217391 140.225064,12.5217391 139.764706,12.1098398 C139.304348,11.6979405 139.304348,11.2860412 139.304348,10.4622426 C139.304348,9.63844394 139.764706,9.22654462 140.225064,8.81464531 C140.685422,8.402746 141.606138,7.99084668 142.987212,7.99084668 C143.907928,7.99084668 144.828645,7.99084668 145.289003,7.57894737 L145.289003,6.75514874 C145.289003,6.34324943 145.289003,6.34324943 144.828645,6.34324943 C144.828645,6.34324943 144.368286,5.93135011 143.907928,5.93135011 C143.44757,5.93135011 142.987212,5.93135011 142.987212,6.34324943 C142.987212,6.34324943 142.526854,6.34324943 142.526854,6.75514874 L140.225064,6.75514874 C140.685422,5.93135011 140.685422,5.5194508 141.606138,5.10755149 C142.031084,4.72733674 142.848288,4.69808945 143.695665,4.69583966 L143.907928,4.69565217 C144.828645,4.69565217 145.749361,4.69565217 146.209719,5.10755149 Z M119.785166,8.402746 L119.324808,8.402746 C118.404092,8.402746 117.483376,8.81464531 117.023018,8.81464531 C116.598072,8.81464531 116.565384,9.16561277 116.562869,9.54357773 L116.56266,9.63844394 C116.56266,10.0503432 116.56266,10.0503432 117.023018,10.0503432 C117.023018,10.0503432 117.483376,10.4622426 117.943734,10.4622426 C118.404092,10.4622426 118.404092,10.4622426 118.86445,10.0503432 C119.286445,10.0503432 119.321611,9.70423341 119.324542,9.64654844 C119.324808,9.63844394 119.324808,9.22654462 119.785166,8.402746 Z M144.828645,8.402746 L144.368286,8.402746 C143.44757,8.402746 142.526854,8.81464531 142.066496,8.81464531 C141.64155,8.81464531 141.608862,9.16561277 141.606348,9.54357773 L141.606138,9.63844394 C141.606138,10.0503432 141.606138,10.0503432 142.066496,10.0503432 C142.066496,10.0503432 142.526854,10.4622426 142.987212,10.4622426 C143.44757,10.4622426 143.44757,10.4622426 143.907928,10.0503432 C144.329923,10.0503432 144.36509,9.70423341 144.36802,9.64654844 C144.368286,9.63844394 144.368286,9.22654462 144.828645,8.402746 Z M127.271,7.695 L127.173913,8.02898551 L127.173913,7.69565217 L127.271,7.695 Z M164.837,7.695 L164.73913,8.02898551 L164.73913,7.69565217 L164.837,7.695 Z" id="Combined-Shape" fill="#FCDBBC" fill-rule="nonzero"></path>
    </g>
</svg>