<?xml version="1.0" encoding="UTF-8"?>
<svg width="100px" height="100px" viewBox="0 0 100 100" version="1.1" xmlns="http://www.w3.org/2000/svg" xmlns:xlink="http://www.w3.org/1999/xlink">
    <!-- Generator: Sketch 48.2 (47327) - http://www.bohemiancoding.com/sketch -->
    <title>Group 4</title>
    <desc>Created with Sketch.</desc>
    <defs></defs>
    <g id="概况-copy-2" stroke="none" stroke-width="1" fill="none" fill-rule="evenodd" transform="translate(-996.000000, -447.000000)">
        <g id="Group-4" transform="translate(996.000000, 447.000000)">
            <rect id="Rectangle-17" fill="#F6F8F9" x="0" y="0" width="100" height="100"></rect>
            <path d="M71.9945684,72.6925378 C71.9947995,72.7294837 71.9999999,72.7650333 71.9999999,72.8020373 L71.9835319,72.8020373 C71.8983023,74.0285839 70.8938071,75 69.6539627,75 C68.4141761,75 67.4096231,74.0285839 67.3243936,72.8020373 L67.2838879,72.8020373 C67.2844657,72.743273 67.2925553,72.686254 67.2925553,72.6272569 C67.2925553,67.8594868 65.4125937,63.5419333 62.3720657,60.3791874 L62.3763416,60.3747655 C61.9575323,59.9620184 61.6961809,59.3880474 61.6961809,58.751472 C61.6961809,57.495776 62.7071478,56.4776975 63.9542151,56.4776975 C64.6174454,56.4776975 65.2078695,56.7709376 65.6210161,57.229358 C69.4795745,61.1590665 71.8964533,66.5287352 71.9835319,72.4726659 C71.9873456,72.528172 72,72.5812345 72,72.6377298 C71.9999999,72.6565228 71.9950306,72.6738612 71.9945684,72.6925378 Z M50.0000866,55.3136389 C49.3651121,55.3136389 48.7434275,55.2612746 48.1290236,55.1843573 C39.4609185,56.1316858 32.7102183,63.5746902 32.7079069,72.6227187 C32.7079069,72.6278388 32.7094093,72.6326097 32.7094093,72.6377298 C32.7094093,72.6404062 32.7086003,72.6429663 32.7086003,72.6456427 C32.7099871,72.6981233 32.715881,72.7493822 32.7163432,72.8019792 L32.6929412,72.8019792 C32.6075961,74.0285258 31.6029853,74.9999419 30.3632565,74.9999419 C29.1233544,74.9999419 28.1189169,74.0285258 28.0336874,72.8019792 L28,72.8019792 C28.0001156,63.697979 33.4585626,55.8845263 41.2561706,52.4782281 C37.4417005,49.7285784 34.9473927,45.2404918 34.9473927,40.156674 C34.9473927,31.7858323 41.6867098,25 50.0000288,25 C58.3133478,25 65.0527228,31.7858323 65.0527228,40.156674 C65.0527228,48.5275157 58.3134057,55.3136389 50.0000866,55.3136389 Z M50.0000866,29.6427939 C44.2446364,29.6427939 39.5790264,34.3406868 39.5790264,40.135961 C39.5790264,45.9312352 44.2446364,50.6291281 50.0000866,50.6291281 C55.7555369,50.6291281 60.4212624,45.9312352 60.4212624,40.135961 C60.4212624,34.3406868 55.7555369,29.6427939 50.0000866,29.6427939 Z" id="Shape-Copy-2" fill="#6B7173" fill-rule="nonzero"></path>
        </g>
    </g>
</svg>