<?xml version="1.0" encoding="UTF-8"?>
<svg width="22px" height="24px" viewBox="0 0 22 24" version="1.1" xmlns="http://www.w3.org/2000/svg" xmlns:xlink="http://www.w3.org/1999/xlink">
    <!-- Generator: Sketch 47.1 (45422) - http://www.bohemiancoding.com/sketch -->
    <title>Shape</title>
    <desc>Created with Sketch.</desc>
    <defs></defs>
    <g id="后台" stroke="none" stroke-width="1" fill="none" fill-rule="evenodd">
        <g id="管理后台-我的资金-收入" transform="translate(-1331.000000, -712.000000)" fill-rule="nonzero" fill="#FFFFFF">
            <path d="M1350.98242,724.326769 L1342.74983,715.982154 C1342.56742,715.797538 1342.32908,715.708923 1342.09167,715.710769 C1342.05958,715.708 1342.03208,715.692308 1342,715.692308 C1341.86617,715.692308 1341.7415,715.723692 1341.62692,715.775385 C1341.51142,715.819692 1341.40142,715.887077 1341.30792,715.981231 L1333.87925,723.448923 C1333.52083,723.808923 1333.51992,724.393231 1333.87833,724.754154 C1334.05708,724.935077 1334.29175,725.025538 1334.52733,725.025538 C1334.762,725.025538 1334.99575,724.935077 1335.17542,724.756 L1341.08333,718.816 L1341.08333,735.076923 C1341.08333,735.587385 1341.494,736 1342,736 C1342.506,736 1342.91667,735.587385 1342.91667,735.076923 L1342.91667,718.770769 L1349.68258,725.628308 C1349.86133,725.809231 1350.09783,725.900615 1350.3325,725.900615 C1350.56717,725.900615 1350.8,725.811077 1350.97875,725.632 C1351.339,725.272923 1351.33992,724.687692 1350.98242,724.326769 Z M1352.08333,713.846154 L1331.91667,713.846154 C1331.41067,713.846154 1331,713.432615 1331,712.923077 C1331,712.413538 1331.41067,712 1331.91667,712 L1352.08333,712 C1352.59025,712 1353,712.413538 1353,712.923077 C1353,713.432615 1352.59025,713.846154 1352.08333,713.846154 Z" id="Shape"></path>
        </g>
    </g>
</svg>