<?xml version="1.0" encoding="UTF-8"?>
<svg width="32px" height="32px" viewBox="0 0 32 32" version="1.1" xmlns="http://www.w3.org/2000/svg" xmlns:xlink="http://www.w3.org/1999/xlink">
    <!-- Generator: Sketch 57.1 (83088) - https://sketch.com -->
    <title>Group</title>
    <desc>Created with Sketch.</desc>
    <g id="Page-1" stroke="none" stroke-width="1" fill="none" fill-rule="evenodd">
        <g id="favicon" fill-rule="nonzero">
            <g id="Group">
                <rect id="Rectangle" fill="#000000" x="0" y="0" width="32" height="32" rx="2"></rect>
                <path d="M25.8207809,6.42780749 C26.0186707,6.69518717 26.0469406,7.01604278 25.9338607,7.31016043 L18.1878897,25.4117647 C18.0182699,25.7860963 17.6507603,26 17.2549808,26 L14.7672236,26 C14.3431741,26 13.9756645,25.7860963 13.8343147,25.4117647 L6.08834365,7.31016043 C5.94699381,7.01604278 5.97526378,6.69518717 6.17315355,6.42780749 C6.37104332,6.16042781 6.68201296,6 6.9929826,6 L16.4351517,6 C16.9722811,6 17.4246006,6.42780749 17.4246006,6.96256684 L17.4246006,8.9144385 C17.4246006,9.44919786 16.9722811,9.87700535 16.4351517,9.87700535 L11.6857972,9.87700535 L16.0111022,20.171123 L21.6933656,6.58823529 C21.8347155,6.24064171 22.2022251,6 22.6262746,6 L25.0009518,6 C25.3401914,6 25.6511611,6.16042781 25.8207809,6.42780749 Z" id="V-2" fill="#FFFFFF"></path>
            </g>
        </g>
    </g>
</svg>