<?xml version="1.0" encoding="UTF-8"?>
<svg width="775px" height="62px" viewBox="0 0 775 62" version="1.1" xmlns="http://www.w3.org/2000/svg" xmlns:xlink="http://www.w3.org/1999/xlink">
    <!-- Generator: Sketch 57.1 (83088) - https://sketch.com -->
    <title>十年的专注，只为你我每一天的平安出行</title>
    <desc>Created with Sketch.</desc>
    <defs>
        <path d="M31.7734375,25.1015625 L31.7734375,15.3359375 L38.0234375,15.3359375 L38.0234375,25.1015625 L52.8671875,25.1015625 L52.8671875,29.0078125 L38.0234375,29.0078125 L38.0234375,42.09375 L31.7734375,42.09375 L31.7734375,29.0078125 L16.9296875,29.0078125 L16.9296875,25.1015625 L31.7734375,25.1015625 Z M59.703125,18.8515625 C60.6145879,18.9817715 61.265623,18.6562539 61.65625,17.875 L63.4140625,15.53125 L70.4453125,15.53125 L69.46875,16.703125 L94.46875,16.703125 L94.46875,20.0234375 L80.015625,20.0234375 L80.015625,24.90625 L94.2734375,24.90625 L94.2734375,28.6171875 L80.015625,28.6171875 L80.015625,36.4296875 L94.46875,36.4296875 L94.46875,39.75 L80.015625,39.75 L80.015625,42.09375 L73.765625,42.09375 L73.765625,39.75 L58.7265625,39.75 L58.7265625,36.4296875 L60.2890625,36.4296875 L60.2890625,24.90625 L73.765625,24.90625 L73.765625,20.0234375 L67.3203125,20.0234375 L65.953125,21.1953125 C64.9114531,22.2369844 63.8697969,22.692709 62.828125,22.5625 L58.7265625,22.5625 L58.7265625,18.8515625 L59.703125,18.8515625 Z M73.765625,28.6171875 L65.953125,28.6171875 L65.953125,36.4296875 L73.765625,36.4296875 L73.765625,28.6171875 Z M117.320312,17.875 L118.492188,17.875 C118.882814,17.875 119.53385,17.5494824 120.445312,16.8984375 L122.398438,15.3359375 L129.039062,15.3359375 L127.28125,17.09375 L134.3125,17.09375 L134.3125,37.796875 C134.572918,40.6614727 132.619812,42.0286465 128.453125,41.8984375 L119.664062,41.8984375 L119.664062,38.3828125 L127.671875,38.3828125 C128.32292,38.5130215 128.648438,38.2526074 128.648438,37.6015625 L128.648438,20.4140625 L124.546875,20.4140625 C123.505203,21.1953164 121.877615,21.5859375 119.664062,21.5859375 L117.320312,21.5859375 L117.320312,17.875 Z M98.765625,16.8984375 L100.132812,16.8984375 C100.914066,16.8984375 101.499998,16.703127 101.890625,16.3125 L102.867188,15.53125 L108.726562,15.53125 L107.75,17.09375 L116.539062,17.09375 L116.539062,38.578125 C116.408854,40.53125 114.976576,41.572916 112.242188,41.703125 L100.523438,41.703125 L100.523438,20.8046875 L98.765625,20.8046875 L98.765625,16.8984375 Z M110.679688,27.25 L110.679688,20.8046875 L106.1875,20.8046875 L106.1875,27.25 L110.679688,27.25 Z M117.710938,32.5234375 L119.273438,32.5234375 C120.054691,32.5234375 120.445312,32.328127 120.445312,31.9375 L122.203125,23.1484375 L127.476562,23.1484375 L125.523438,33.890625 C125.26302,35.7135508 123.570328,36.5598965 120.445312,36.4296875 L117.710938,36.4296875 L117.710938,32.5234375 Z M110.679688,30.9609375 L106.1875,30.9609375 L106.1875,38.578125 L109.898438,38.578125 C110.419273,38.578125 110.679688,38.3177109 110.679688,37.796875 L110.679688,30.9609375 Z M140.5625,16.8984375 L147.203125,16.8984375 L147.789062,15.53125 L153.453125,15.53125 L152.671875,16.8984375 L175.328125,16.8984375 L175.328125,20.4140625 L151.304688,20.4140625 L149.742188,23.9296875 L175.523438,23.9296875 L175.523438,27.25 L148.375,27.25 L146.421875,31.15625 L175.328125,31.15625 L175.328125,34.28125 L170.054688,39.1640625 L175.328125,39.1640625 L175.328125,42.09375 L153.648438,42.09375 C152.476557,42.09375 151.565107,41.8984395 150.914062,41.5078125 L140.757812,36.625 L149.15625,36.625 L153.84375,38.96875 C154.364586,39.229168 154.885414,39.2942715 155.40625,39.1640625 L163.609375,39.1640625 L168.296875,34.671875 L140.367188,34.671875 L140.367188,31.9375 L142.710938,27.25 L140.5625,27.25 L140.5625,23.734375 L144.273438,23.734375 L145.640625,20.4140625 L140.5625,20.4140625 L140.5625,16.8984375 Z M193.296875,16.8984375 L202.085938,16.8984375 L202.085938,15.921875 L207.75,15.921875 L207.75,16.8984375 L216.539062,16.8984375 L216.539062,20.4140625 L207.75,20.4140625 L207.75,27.8359375 L216.34375,27.8359375 L216.34375,31.3515625 L207.75,31.3515625 L207.75,38.578125 L217.125,38.578125 L217.125,42.09375 L192.710938,42.09375 L192.710938,38.578125 L202.085938,38.578125 L202.085938,31.3515625 L193.492188,31.3515625 L193.492188,27.8359375 L202.085938,27.8359375 L202.085938,20.4140625 L193.296875,20.4140625 L193.296875,16.8984375 Z M187.046875,23.734375 C184.442695,23.994793 183.010418,23.1484473 182.75,21.1953125 L181.382812,15.921875 L187.242188,15.921875 L188.21875,19.2421875 C188.21875,20.0234414 188.804682,20.348959 189.976562,20.21875 L192.320312,20.21875 L192.320312,23.734375 L187.046875,23.734375 Z M186.265625,32.1328125 C184.182281,32.3932305 183.010418,31.6119883 182.75,29.7890625 L180.992188,24.90625 L186.851562,24.90625 L188.023438,27.8359375 C188.153646,28.4869824 188.544268,28.7473965 189.195312,28.6171875 L192.515625,28.6171875 L192.515625,32.1328125 L186.265625,32.1328125 Z M182.945312,38.96875 C183.856775,39.098959 184.442707,38.7734414 184.703125,37.9921875 L186.460938,33.3046875 L192.710938,33.3046875 L190.5625,39.5546875 C190.041664,41.6380312 188.67449,42.5494805 186.460938,42.2890625 L181.1875,42.2890625 L181.1875,38.96875 L182.945312,38.96875 Z M233.921875,34.671875 L233.921875,39.5546875 C233.531248,42.0286582 231.70835,43.395832 228.453125,43.65625 L228.453125,41.703125 C229.755215,41.442707 230.40625,40.6614648 230.40625,39.359375 L228.0625,39.359375 L228.0625,34.671875 L233.921875,34.671875 Z M272.789062,15.53125 L305.210938,15.53125 L305.210938,28.421875 C305.080729,30.1145918 303.713555,30.9609375 301.109375,30.9609375 L272.789062,30.9609375 L272.789062,15.53125 Z M299.351562,19.046875 L278.84375,19.046875 L278.84375,27.4453125 L298.179688,27.4453125 C298.960941,27.4453125 299.351562,27.1848984 299.351562,26.6640625 L299.351562,19.046875 Z M271.03125,38.3828125 L273.179688,38.3828125 C273.570314,38.5130215 273.830729,38.3177109 273.960938,37.796875 L275.523438,32.1328125 L281.382812,32.1328125 L279.429688,39.75 C279.16927,41.3125078 277.867199,42.09375 275.523438,42.09375 L271.03125,42.09375 L271.03125,38.3828125 Z M302.085938,42.09375 C300.002594,41.963541 298.765627,41.1171953 298.375,39.5546875 L296.8125,32.1328125 L302.867188,32.1328125 L303.84375,37.9921875 C303.84375,38.3828145 304.234371,38.578125 305.015625,38.578125 L306.382812,38.578125 L306.382812,42.09375 L302.085938,42.09375 Z M313.21875,21.1953125 L313.21875,17.2890625 L315.171875,17.2890625 L314.195312,15.3359375 L319.859375,15.3359375 L320.835938,17.2890625 L323.179688,17.2890625 L323.765625,15.3359375 L329.039062,15.3359375 L328.648438,17.2890625 L348.179688,17.2890625 L348.179688,39.5546875 C348.440105,41.1171953 347.528656,41.7682305 345.445312,41.5078125 L334.703125,41.5078125 L334.703125,38.1875 L341.734375,38.1875 C342.38542,38.317709 342.710938,37.9921914 342.710938,37.2109375 L342.710938,21.1953125 L327.867188,21.1953125 L324.351562,39.5546875 C324.221354,41.1171953 323.04949,41.833334 320.835938,41.703125 L313.414062,41.703125 L313.414062,38.1875 L318.101562,38.1875 C318.882816,38.317709 319.338541,37.9921914 319.46875,37.2109375 L322.398438,21.1953125 L313.21875,21.1953125 Z M334.117188,34.8671875 C332.294262,34.9973965 331.252605,34.2812578 330.992188,32.71875 L328.84375,24.90625 L334.117188,24.90625 L335.679688,30.375 C335.679688,31.1562539 336.135412,31.4817715 337.046875,31.3515625 L339.585938,31.3515625 L339.585938,34.8671875 L334.117188,34.8671875 Z M362.632812,20.4140625 L363.414062,20.4140625 C364.065107,20.4140625 364.585936,20.1536484 364.976562,19.6328125 L367.320312,15.3359375 L373.375,15.3359375 L372.59375,16.5078125 L389.195312,16.5078125 L387.828125,24.125 L382.359375,24.125 L383.140625,20.0234375 L370.640625,20.0234375 L368.882812,22.5625 C368.361977,23.6041719 367.32032,24.0598965 365.757812,23.9296875 L362.632812,23.9296875 L362.632812,20.4140625 Z M373.179688,22.7578125 L378.648438,22.7578125 L378.648438,38.96875 C378.908855,41.1823027 377.216164,42.223959 373.570312,42.09375 L370.445312,42.09375 L370.445312,38.7734375 L372.398438,38.7734375 C372.919273,38.9036465 373.179688,38.5781289 373.179688,37.796875 L373.179688,22.7578125 Z M363.414062,39.1640625 C363.67448,39.1640625 363.934895,38.7734414 364.195312,37.9921875 L366.34375,25.6875 L371.617188,25.6875 L369.273438,39.1640625 C369.01302,41.3776152 367.580742,42.354168 364.976562,42.09375 L363.023438,42.09375 L363.023438,39.1640625 L363.414062,39.1640625 Z M381.773438,39.1640625 L380.601562,25.8828125 L386.070312,25.8828125 L387.4375,37.6015625 C387.307291,38.6432344 387.632809,39.1640625 388.414062,39.1640625 L389.195312,39.1640625 L389.195312,42.09375 L386.265625,42.09375 C383.270818,42.223959 381.773438,41.2474062 381.773438,39.1640625 Z M358.335938,15.53125 L364.585938,15.53125 L361.070312,21.5859375 L361.070312,42.09375 L355.601562,42.09375 L355.601562,24.515625 L353.453125,24.515625 L353.453125,21 L353.84375,21 C354.494795,21.130209 355.080727,20.7395879 355.601562,19.828125 L358.335938,15.53125 Z M394.273438,16.703125 L404.429688,16.703125 C405.080732,16.703125 405.40625,16.5078145 405.40625,16.1171875 L405.40625,15.53125 L410.875,15.53125 L410.875,16.8984375 C411.135418,19.2421992 410.028658,20.348959 407.554688,20.21875 L407.554688,22.171875 L413.804688,22.171875 L413.804688,15.53125 L419.859375,15.53125 L419.859375,22.171875 L429.429688,22.171875 L429.429688,25.6875 L419.859375,25.6875 L419.859375,33.109375 L423.179688,33.109375 C423.830732,33.239584 424.15625,33.0442734 424.15625,32.5234375 L424.15625,27.0546875 L429.234375,27.0546875 L429.234375,33.6953125 C429.364584,35.7786562 427.99741,36.755209 425.132812,36.625 L419.859375,36.625 L419.859375,37.9921875 C419.729166,38.6432324 420.119787,38.9036465 421.03125,38.7734375 L429.234375,38.7734375 L429.234375,41.8984375 L418.296875,41.8984375 C414.651023,42.2890645 413.153643,41.1823047 413.804688,38.578125 L413.804688,36.625 L411.265625,36.625 L411.265625,33.109375 L413.804688,33.109375 L413.804688,25.6875 L407.554688,25.6875 L407.554688,28.2265625 L411.265625,28.2265625 L411.265625,32.1328125 L407.554688,32.1328125 L407.554688,38.7734375 C407.945314,41.2474082 406.252623,42.354168 402.476562,42.09375 L395.054688,42.09375 L395.054688,38.7734375 L400.914062,38.7734375 C401.565107,38.7734375 401.890625,38.5130234 401.890625,37.9921875 L401.890625,34.28125 L399.546875,35.6484375 C399.286457,35.9088555 398.700525,36.0390625 397.789062,36.0390625 L393.492188,36.0390625 L393.492188,32.71875 L394.859375,32.71875 C395.119793,32.71875 395.575518,32.5234395 396.226562,32.1328125 L401.890625,28.8125 L401.890625,25.6875 L393.882812,25.6875 L393.882812,22.171875 L401.890625,22.171875 L401.890625,20.21875 L394.273438,20.21875 L394.273438,16.703125 Z M422.007812,17.875 L422.007812,15.7265625 L427.476562,15.7265625 L427.476562,16.703125 C427.346354,17.2239609 427.671871,17.4192715 428.453125,17.2890625 L429.429688,17.2890625 L429.429688,20.4140625 L425.328125,20.4140625 C422.723945,20.6744805 421.617186,19.8281348 422.007812,17.875 Z M434.898438,21.5859375 L434.898438,18.265625 L436.460938,18.265625 C437.111982,18.395834 437.697914,18.1354199 438.21875,17.484375 L439.78125,15.53125 L446.8125,15.53125 L446.03125,16.8984375 L470.835938,16.8984375 L470.835938,20.4140625 L443.296875,20.4140625 C442.124994,21.3255254 441.213545,21.7161465 440.5625,21.5859375 L434.898438,21.5859375 Z M436.460938,22.171875 L469.46875,22.171875 L469.46875,30.1796875 L471.03125,29.984375 L471.03125,33.3046875 L469.46875,33.3046875 L469.46875,39.1640625 C469.46875,40.9869883 468.231783,41.8984375 465.757812,41.8984375 L436.460938,41.8984375 L436.460938,33.6953125 L435.09375,33.5 L435.09375,30.1796875 L436.460938,30.1796875 L436.460938,22.171875 Z M464,25.4921875 L441.929688,25.4921875 L441.929688,30.1796875 L450.523438,30.1796875 L449.15625,26.6640625 L455.601562,26.6640625 L457.164062,30.1796875 L464,30.1796875 L464,25.4921875 Z M464,33.5 L441.929688,33.5 L441.929688,38.96875 L450.71875,38.96875 L448.765625,34.8671875 L455.40625,34.8671875 L457.75,38.96875 L462.632812,38.96875 C463.544275,38.96875 464,38.5781289 464,37.796875 L464,33.5 Z M476.109375,26.46875 L512.046875,26.46875 L512.046875,30.375 L476.109375,30.375 L476.109375,26.46875 Z M517.90625,15.53125 L552.476562,15.53125 L552.476562,19.046875 L538.21875,19.046875 L538.21875,25.296875 L552.28125,25.296875 L552.28125,29.0078125 L539.585938,29.0078125 L546.617188,36.625 C547.398441,37.9270898 548.765615,38.5130215 550.71875,38.3828125 L552.476562,38.3828125 L552.476562,41.8984375 L548.765625,41.8984375 C545.901027,42.0286465 544.078129,41.5729219 543.296875,40.53125 L535.289062,32.5234375 L526.890625,40.3359375 C525.848953,41.5078184 524.286469,42.0286465 522.203125,41.8984375 L517.515625,41.8984375 L517.515625,38.3828125 L519.859375,38.3828125 C520.770838,38.5130215 521.617184,38.1224004 522.398438,37.2109375 L530.40625,29.0078125 L517.515625,29.0078125 L517.515625,25.296875 L531.382812,25.296875 L531.382812,19.046875 L517.90625,19.046875 L517.90625,15.53125 Z M576.695312,17.875 L577.867188,17.875 C578.257814,17.875 578.90885,17.5494824 579.820312,16.8984375 L581.773438,15.3359375 L588.414062,15.3359375 L586.65625,17.09375 L593.6875,17.09375 L593.6875,37.796875 C593.947918,40.6614727 591.994812,42.0286465 587.828125,41.8984375 L579.039062,41.8984375 L579.039062,38.3828125 L587.046875,38.3828125 C587.69792,38.5130215 588.023438,38.2526074 588.023438,37.6015625 L588.023438,20.4140625 L583.921875,20.4140625 C582.880203,21.1953164 581.252615,21.5859375 579.039062,21.5859375 L576.695312,21.5859375 L576.695312,17.875 Z M558.140625,16.8984375 L559.507812,16.8984375 C560.289066,16.8984375 560.874998,16.703127 561.265625,16.3125 L562.242188,15.53125 L568.101562,15.53125 L567.125,17.09375 L575.914062,17.09375 L575.914062,38.578125 C575.783854,40.53125 574.351576,41.572916 571.617188,41.703125 L559.898438,41.703125 L559.898438,20.8046875 L558.140625,20.8046875 L558.140625,16.8984375 Z M570.054688,27.25 L570.054688,20.8046875 L565.5625,20.8046875 L565.5625,27.25 L570.054688,27.25 Z M577.085938,32.5234375 L578.648438,32.5234375 C579.429691,32.5234375 579.820312,32.328127 579.820312,31.9375 L581.578125,23.1484375 L586.851562,23.1484375 L584.898438,33.890625 C584.63802,35.7135508 582.945328,36.5598965 579.820312,36.4296875 L577.085938,36.4296875 L577.085938,32.5234375 Z M570.054688,30.9609375 L565.5625,30.9609375 L565.5625,38.578125 L569.273438,38.578125 C569.794273,38.578125 570.054688,38.3177109 570.054688,37.796875 L570.054688,30.9609375 Z M600.523438,15.7265625 L635.484375,15.7265625 L635.484375,19.2421875 L621.421875,19.2421875 L621.421875,35.2578125 L635.875,35.2578125 L635.875,38.96875 L621.421875,38.96875 L621.421875,41.8984375 L614.976562,41.8984375 L614.976562,38.96875 L600.328125,38.96875 L600.328125,35.2578125 L614.976562,35.2578125 L614.976562,19.2421875 L600.523438,19.2421875 L600.523438,15.7265625 Z M625.914062,30.1796875 C626.565107,30.1796875 626.890625,29.984377 626.890625,29.59375 L629.234375,20.8046875 L634.898438,20.8046875 L632.945312,31.3515625 C632.554686,33.0442793 631.382822,33.890625 629.429688,33.890625 L622.789062,33.890625 L622.789062,30.1796875 L625.914062,30.1796875 Z M603.453125,31.7421875 L601.109375,20.8046875 L607.359375,20.8046875 L609.3125,29.59375 C609.442709,30.1145859 609.768227,30.375 610.289062,30.375 L613.609375,30.375 L613.609375,33.890625 L606.773438,33.890625 C604.690094,33.890625 603.583334,33.1744863 603.453125,31.7421875 Z M655.40625,16.3125 L655.40625,15.140625 L661.265625,15.140625 L661.265625,16.3125 L676.695312,16.3125 L675.523438,21.78125 L669.664062,21.78125 L670.25,19.828125 L646.617188,19.828125 L646.617188,21.9765625 L640.5625,21.9765625 L640.5625,16.3125 L655.40625,16.3125 Z M649.742188,24.90625 L667.710938,24.90625 L667.710938,23.1484375 L673.570312,23.1484375 L673.570312,24.90625 L676.5,24.90625 L676.5,28.2265625 L673.570312,28.2265625 L673.570312,34.28125 C673.570312,35.1927129 672.984381,35.843748 671.8125,36.234375 L664.78125,38.1875 L666.734375,38.578125 C667.515629,38.968752 668.427078,39.098959 669.46875,38.96875 L676.5,38.96875 L676.5,42.09375 L666.929688,42.09375 C666.018225,42.09375 665.041672,41.963543 664,41.703125 L657.945312,39.9453125 L651.5,42.09375 C650.458328,42.223959 649.677086,42.2890625 649.15625,42.2890625 L640.757812,42.2890625 L640.757812,39.1640625 L646.617188,39.1640625 C647.52865,39.2942715 648.4401,39.1640645 649.351562,38.7734375 L651.304688,38.3828125 L645.054688,35.84375 C644.013016,35.583332 643.557291,35.0625039 643.6875,34.28125 L643.6875,28.2265625 L640.757812,28.2265625 L640.757812,24.90625 L643.6875,24.90625 L643.6875,23.34375 L649.742188,23.34375 L649.742188,24.90625 Z M667.710937,28.2265625 L649.742187,28.2265625 L649.742187,32.1328125 C649.611979,32.5234395 650.0026,32.9140605 650.914062,33.3046875 L657.75,36.0390625 L666.734375,33.109375 C667.38542,32.979166 667.710937,32.718752 667.710937,32.328125 L667.710937,28.2265625 Z M688.804688,26.46875 L696.8125,26.46875 L696.8125,15.140625 L702.671875,15.140625 L702.671875,26.46875 L709.3125,26.46875 C710.354172,26.598959 710.875,26.1432344 710.875,25.1015625 L710.875,16.3125 L716.929688,16.3125 L716.929688,26.2734375 C716.539061,28.4869902 714.911473,29.723957 712.046875,29.984375 L702.671875,29.984375 L702.671875,38.578125 L709.3125,38.578125 C710.484381,38.708334 711.005209,38.3177129 710.875,37.40625 L710.875,31.546875 L716.734375,31.546875 L716.734375,39.1640625 C716.473957,40.8567793 714.781266,41.7682285 711.65625,41.8984375 L682.75,41.8984375 L682.75,31.546875 L688.804688,31.546875 L688.804688,38.578125 L696.8125,38.578125 L696.8125,29.984375 L682.945312,29.984375 L682.945312,16.3125 L688.804688,16.3125 L688.804688,26.46875 Z M722.59375,18.65625 L725.523438,18.65625 C726.4349,18.786459 727.085936,18.3958379 727.476562,17.484375 L728.648438,15.53125 L735.484375,15.53125 L732.359375,20.4140625 C731.578121,21.5859434 729.950533,22.171875 727.476562,22.171875 L722.59375,22.171875 L722.59375,18.65625 Z M757.945312,19.4375 L736.070312,19.4375 L736.070312,16.1171875 L757.945312,16.1171875 L757.945312,19.4375 Z M735.484375,22.5625 L757.945312,22.5625 L757.945312,26.078125 L755.992188,26.078125 L755.992188,38.96875 C755.861979,41.0520937 754.03908,42.09375 750.523438,42.09375 L739.585938,42.09375 L739.585938,38.578125 L748.765625,38.578125 C749.546879,38.578125 749.9375,38.1875039 749.9375,37.40625 L749.9375,26.078125 L735.484375,26.078125 L735.484375,22.5625 Z M734.507812,22.3671875 L731.382812,27.4453125 L731.382812,42.09375 L725.328125,42.09375 L725.328125,29.203125 L722.789062,29.203125 L722.789062,25.4921875 L724.546875,25.4921875 C724.937502,25.4921875 725.26302,25.3619805 725.523438,25.1015625 C725.523438,24.9713535 725.588541,24.90625 725.71875,24.90625 L727.476562,22.3671875 L734.507812,22.3671875 Z" id="path-1"></path>
        <filter x="-3.8%" y="-91.2%" width="107.6%" height="296.4%" filterUnits="objectBoundingBox" id="filter-2">
            <feOffset dx="0" dy="2" in="SourceAlpha" result="shadowOffsetOuter1"></feOffset>
            <feGaussianBlur stdDeviation="9" in="shadowOffsetOuter1" result="shadowBlurOuter1"></feGaussianBlur>
            <feColorMatrix values="0 0 0 0 0   0 0 0 0 0   0 0 0 0 0  0 0 0 0.3 0" type="matrix" in="shadowBlurOuter1"></feColorMatrix>
        </filter>
    </defs>
    <g id="Page-1" stroke="none" stroke-width="1" fill="none" fill-rule="evenodd">
        <g id="十年的专注，只为你我每一天的平安出行" fill-rule="nonzero">
            <use fill="black" fill-opacity="1" filter="url(#filter-2)" xlink:href="#path-1"></use>
            <use fill="#FFFFFF" xlink:href="#path-1"></use>
        </g>
    </g>
</svg>