<?xml version="1.0" encoding="UTF-8"?>
<svg width="50px" height="50px" viewBox="0 0 50 50" version="1.1" xmlns="http://www.w3.org/2000/svg" xmlns:xlink="http://www.w3.org/1999/xlink">
    <!-- Generator: Sketch 56.3 (81716) - https://sketch.com -->
    <title>fax</title>
    <desc>Created with Sketch.</desc>
    <g id="fax" stroke="none" stroke-width="1" fill="none" fill-rule="evenodd">
        <path d="M18.7777778,24.1428572 L18.7777778,26.7142856 L32.1111112,26.7142856 L32.1111112,24.1428572 L18.7777778,24.1428572 Z M18.7777778,28.4285714 L18.7777778,31.0000001 L32.1111112,31.0000001 L32.1111112,28.4285714 L18.7777778,28.4285714 Z M5,31.4285714 L13.4444445,31.4285714 L13.4444445,34.1457143 L22.4844445,43 L37,43 L37,31.4285714 L45,31.4285714 L45,16.4285714 C45,15.0084106 43.8060927,13.8571429 42.3333333,13.8571429 L37,13.8571429 L37,7 L13.4444445,7 L13.4444445,13.8571429 L7.66666667,13.8571429 C6.19390733,13.8571429 5,15.0084106 5,16.4285714 L5,31.4285714 Z M34.7777778,13.8571429 L15.6666667,13.8571429 L15.6666667,9.14285714 L34.7777778,9.14285714 L34.7777778,13.8571429 Z M15.6666667,31.4114285 L15.6666667,24.1428571 L13,24.1428571 L13,28.4285714 L10.7777778,28.4285714 L10.7777778,21.1428571 L39.2222222,21.1428571 L39.2222222,28.4285714 L37,28.4285714 L37,24.1428571 L34.7777778,24.1428571 L34.7777778,40.8571429 L25.0977778,40.8571429 C24.5286323,40.7247872 24.0161488,40.4252839 23.6311112,40.0000001 C23.0355555,39.2971429 23.0355555,36.7085714 23.08,35.6542857 C23.1470972,34.7737707 23.2687963,33.8979186 23.4444445,33.0314285 C22.032855,33.3464192 20.596991,33.5499499 19.1511111,33.64 C18.106073,33.6460292 17.0835609,33.3472431 16.2177778,32.7828572 C15.8,32.4828571 15.6666667,31.4114285 15.6666667,31.4114285 Z M39.6666161,16.9771429 C39.6630725,16.3689034 40.0407477,15.8187845 40.6228195,15.5844175 C41.2048915,15.3500505 41.8761142,15.4778384 42.3221408,15.9079356 C42.7681677,16.3380328 42.9006883,16.9852832 42.6576412,17.5465669 C42.4145938,18.1078505 41.8441002,18.4720373 41.2133333,18.4686201 C40.359133,18.4686201 39.6666161,17.8008361 39.6666161,16.9771429 L39.6666161,16.9771429 Z" id="Shape" fill="#4DA6FF" fill-rule="nonzero"></path>
    </g>
</svg>