<?xml version="1.0" encoding="UTF-8"?>
<svg width="24px" height="32px" viewBox="0 0 24 32" version="1.1" xmlns="http://www.w3.org/2000/svg" xmlns:xlink="http://www.w3.org/1999/xlink">
    <!-- Generator: Sketch 52.5 (67469) - http://www.bohemiancoding.com/sketch -->
    <title>location</title>
    <desc>Created with Sketch.</desc>
    <g id="Page-1" stroke="none" stroke-width="1" fill="none" fill-rule="evenodd">
        <path d="M12.0003797,0 C5.38317292,0 4.70347141e-06,5.38316822 4.70347141e-06,12.000375 C-0.00222875825,14.5132064 0.791016973,16.9622563 2.26607554,18.9965937 L2.58008534,19.4376074 L11.2003547,31.5999875 C11.389215,31.8518012 11.6856126,32 12.0003797,32 C12.3151469,32 12.6115444,31.8518012 12.8004047,31.5999875 L21.3136708,19.5816119 L21.7336839,18.9995938 C23.2092676,16.9638894 24.0031542,14.5136219 24.0017548,11.999375 C24.0007547,5.38316822 18.6175865,0 12.0003797,0 Z M12.0003797,16.0005 C9.79431078,16.0005 8.00025471,14.206444 8.00025471,12.000375 C8.00025471,9.79430607 9.79431078,8.00025001 12.0003797,8.00025001 C14.2064487,8.00025001 16.0005047,9.79430607 16.0005047,12.000375 C16.0005047,14.206444 14.2064487,16.0005 12.0003797,16.0005 Z" id="location" fill="#3BA0FF" fill-rule="nonzero"></path>
    </g>
</svg>