<?xml version="1.0" encoding="UTF-8"?>
<svg width="168px" height="45px" viewBox="0 0 168 45" version="1.1" xmlns="http://www.w3.org/2000/svg" xmlns:xlink="http://www.w3.org/1999/xlink">
    <!-- Generator: Sketch 52.5 (67469) - http://www.bohemiancoding.com/sketch -->
    <title>logo_color</title>
    <desc>Created with Sketch.</desc>
    <g id="Page-1" stroke="none" stroke-width="1" fill="none" fill-rule="evenodd">
        <g id="logo_color" transform="translate(0.000000, -4.000000)">
            <text id="网阔信息" font-family="MicrosoftYaHei, Microsoft YaHei" font-size="29" font-weight="normal" fill="#89929B">
                <tspan x="52" y="31">网阔信息</tspan>
            </text>
            <text id="Vcolco-information" font-family="Helvetica-Bold, Helvetica" font-size="12" font-weight="bold" fill="#B0B6BC">
                <tspan x="55" y="48">Vcolco information</tspan>
            </text>
            <path d="M14.4467166,13.6255202 C14.145386,13.8148466 13.8365642,14.0227408 13.5286368,14.2488317 L18.9517252,19.6719201 L21.4261211,17.1952869 L16.7547479,12.5239137 C17.2763454,12.3098252 17.4329818,12.2116212 17.3319063,12.2245557 C18.9124702,11.6579232 20.6159753,11.3493587 22.3926121,11.3493587 C23.7148255,11.3493587 24.9967684,11.5216267 26.2205429,11.8437904 L26.2093567,11.8549766 C26.7530079,11.993686 27.2877101,12.1614796 27.811226,12.3583574 L17.0791489,23.0904345 L19.555782,25.5670677 L31.0619469,14.0609029 L33.5699016,11.5529482 C30.3818236,9.19488913 26.4711146,7.89728547 22.4977628,7.89728547 C18.3096351,7.89728547 14.3340459,9.26871831 11.083325,11.8035199 L13.5286368,14.2488317 C13.826513,14.0301208 14.1327262,13.8221611 14.4467166,13.6255202 Z M9.54794128,34.3593966 C9.73885384,34.6647847 9.94874136,34.9779211 10.1772397,35.2901462 L15.6003281,29.842448 L13.1236949,27.3546286 L8.45008452,32.0483743 C8.23519259,31.5212685 8.13738606,31.3656324 8.15204405,31.4715674 C7.58444741,29.882537 7.27552948,28.1697078 7.27552948,26.3836631 C7.27552948,25.054738 7.44779755,23.7660833 7.76996122,22.5378343 L7.78338471,22.5490206 C7.91985682,22.0031321 8.08765039,21.4661927 8.28676544,20.9382022 L19.0210798,31.7239734 L21.497713,29.2339167 L9.98707368,17.6718206 L7.47911902,15.1526797 C5.12105996,18.3564184 3.8234563,22.2850254 3.8234563,26.2785125 C3.8234563,30.4867754 5.19488913,34.4824998 7.72969076,37.7488814 L10.1772397,35.2901462 C9.95630359,34.9882542 9.74634444,34.6778101 9.54794128,34.3593966 Z M29.9605504,39.0914294 C30.2682305,38.8988407 30.5839151,38.6868491 30.8986278,38.4558516 L25.4777767,33.0327632 L23.0011435,35.5071592 L27.6725167,40.1807696 C27.1486042,40.3954237 26.9936269,40.4930611 27.0984949,40.4785095 C25.5173691,41.0458553 23.8130843,41.3553246 22.0368897,41.3553246 C20.7124391,41.3553246 19.4304962,41.1830566 18.2089589,40.8608929 L18.2201452,40.8474694 C17.676494,40.7109973 17.1417918,40.5409665 16.6160386,40.3440887 L27.350353,29.6142488 L24.8737198,27.1376156 L13.3675549,38.6437805 L10.8596003,41.1517351 C14.0476782,43.5097942 17.9583872,44.8073978 21.9317391,44.8073978 C26.1176295,44.8073978 30.0932187,43.4337278 33.3461768,40.9011634 L30.8986278,38.4558516 C30.5945041,38.6790768 30.281607,38.8911421 29.9605505,39.0914294 Z M36.6323785,21.4330523 C37.1989358,23.0212219 37.5074575,24.7329992 37.5074575,26.517898 C37.5074575,27.8468231 37.3374267,29.1354778 37.015263,30.3637268 L37.0018395,30.3525405 C36.8631302,30.898429 36.6953366,31.4353684 36.4984588,31.9633589 L25.7641444,21.1775877 L23.2875112,23.6676444 L34.7959133,35.2297405 L37.303868,37.7488814 C39.6641643,34.5451427 40.9617679,30.6165357 40.9617679,26.6230486 C40.9617679,22.4147857 39.5880978,18.4190614 37.0532962,15.1526797 L34.6079845,17.6114149 C34.820719,17.9024567 35.0232819,18.2014469 35.2151507,18.5078634 C35.0301686,18.213352 34.8276664,17.9119613 34.6079845,17.6114149 L29.1848961,23.0591131 L31.659292,25.5469325 L36.3329025,20.8531868 C36.5463212,21.3750927 36.6445794,21.5328219 36.6323785,21.4330523 Z M22.5,49 C10.0735931,49 0,38.9264069 0,26.5 C0,14.0735931 10.0735931,4 22.5,4 C34.9264069,4 45,14.0735931 45,26.5 C45,38.9264069 34.9264069,49 22.5,49 Z" id="Combined-Shape" fill="#2593FF" fill-rule="nonzero" transform="translate(22.500000, 26.500000) scale(-1, 1) translate(-22.500000, -26.500000) "></path>
        </g>
    </g>
</svg>