<?xml version="1.0" encoding="UTF-8"?>
<svg width="50px" height="50px" viewBox="0 0 50 50" version="1.1" xmlns="http://www.w3.org/2000/svg" xmlns:xlink="http://www.w3.org/1999/xlink">
    <!-- Generator: Sketch 56.3 (81716) - https://sketch.com -->
    <title>phone</title>
    <desc>Created with Sketch.</desc>
    <g id="phone" stroke="none" stroke-width="1" fill="none" fill-rule="evenodd">
        <path d="M29.7966006,33.1607688 C30.8824686,35.0236385 32.0200446,36.8300579 33.2868904,38.6203484 C34.5537364,40.410639 35.9153804,42.168672 37.4062942,43.8783188 L35.5189524,44.8460435 C32.3044386,46.4427892 29.6673306,46.3863385 27.6162468,44.6524985 L26.082243,43.1928473 C26.056389,43.1363967 26.004681,43.079946 26.004681,43.0154311 C18.2570994,34.8623512 12.5088937,25.685096 9.5615379,15.0562538 C9.39779592,14.451426 9.23405392,13.8304693 9.08754794,13.217577 L9.08754794,13.1127402 C8.6279213,10.5590225 9.97807454,8.43809265 13.1380077,6.7499508 L14.9736416,5.7499687 C15.7202543,7.84704002 16.5832261,9.90625103 17.5590414,11.9192132 C18.4897854,13.8277812 19.4980914,15.6933392 20.5839592,17.5158872 L17.7744914,18.9594098 C20.2172332,24.4802051 23.3223912,29.7234156 27.0302228,34.5881624 L29.7966006,33.1607688 Z M33.4937224,31.2575769 C34.5709724,31.5075724 39.698682,37.0961821 41,42.0073845 L38.9920062,43.0396243 C37.494483,41.3364765 36.0990954,39.5568917 34.8122764,37.7090744 C33.5540484,35.9510412 32.4164726,34.1607508 31.3650766,32.3543315 L33.4937224,31.2575769 Z M22.1524352,16.7013857 C21.1010392,14.9352882 20.1099692,13.1127402 19.1706074,11.2256772 C18.1846411,9.17274818 17.3215071,7.07007356 16.5852075,4.92740276 L18.3863694,4 C20.8683532,5.84674116 24.350025,13.975628 23.988069,15.7578542 L22.1524352,16.7013857 Z" id="Shape" fill="#4DA6FF" fill-rule="nonzero"></path>
    </g>
</svg>