<?xml version="1.0" encoding="UTF-8"?>
<svg width="40px" height="32px" viewBox="0 0 40 32" version="1.1" xmlns="http://www.w3.org/2000/svg" xmlns:xlink="http://www.w3.org/1999/xlink">
    <!-- Generator: Sketch 52.5 (67469) - http://www.bohemiancoding.com/sketch -->
    <title>printer</title>
    <desc>Created with Sketch.</desc>
    <g id="Page-1" stroke="none" stroke-width="1" fill="none" fill-rule="evenodd">
        <path d="M31.9999998,27 L31.9999998,21.133 C31.9999998,19.9549766 31.0232914,19 29.8184606,19 L10.1815394,19 C9.60278203,18.9999999 9.04774394,19.2248633 8.63859657,19.6250947 C8.22944919,20.0253262 7.99972891,20.56812 8.00000024,21.134 L8.00000024,27 L2.66625,27 C1.19372079,27 0,26.0052327 0,24.778125 L0,9.221875 C0,7.99476732 1.19372079,7 2.66625,7 L9,7 L31,7 L37.33375,7 C38.8062792,7 40,7.99476732 40,9.221875 L40,24.778125 C40,26.0052327 38.8062792,27 37.33375,27 L31.9999998,27 Z M9,5 L9,2.28540816 C9,1.67928023 9.2574987,1.09797772 9.71584933,0.669380551 C10.1742,0.240783382 10.7958568,0 11.4440625,0 L28.5559375,0 C29.9057559,3.80656391e-15 31,1.02321208 31,2.28540816 L31,5 L9,5 Z M34.4999788,11 C33.6721124,10.9999996 33.0007765,11.6707064 33.0000007,12.4985724 C32.999432,13.1053845 33.3645291,13.6527623 33.9249873,13.8853734 C34.4854454,14.1179845 35.1308432,13.99 35.5601255,13.56112 C35.9894078,13.1322401 36.1179974,12.4869626 35.8859119,11.9262865 C35.6538264,11.3656105 35.1067912,11.0000003 34.4999788,11 Z M28.5,11 C27.6715729,11 27,11.6715729 27,12.5 C27,13.3284271 27.6715729,14 28.5,14 C29.3284271,14 30,13.3284271 30,12.5 C30,11.6715729 29.3284271,11 28.5,11 Z M12,22 L28,22 C28.5522847,22 29,22.4477153 29,23 L29,31 C29,31.5522847 28.5522847,32 28,32 L12,32 C11.4477153,32 11,31.5522847 11,31 L11,23 C11,22.4477153 11.4477153,22 12,22 Z" id="printer" fill="#3BA0FF"></path>
    </g>
</svg>