<?xml version="1.0" encoding="UTF-8"?>
<svg width="75px" height="75px" viewBox="0 0 75 75" version="1.1" xmlns="http://www.w3.org/2000/svg" xmlns:xlink="http://www.w3.org/1999/xlink">
    <!-- Generator: Sketch 51.2 (57519) - http://www.bohemiancoding.com/sketch -->
    <title>Group 6</title>
    <desc>Created with Sketch.</desc>
    <defs></defs>
    <g id="app" stroke="none" stroke-width="1" fill="none" fill-rule="evenodd">
        <g id="home" transform="translate(-15.000000, -507.000000)">
            <g id="Group-6" transform="translate(15.000000, 507.000000)">
                <rect id="Rectangle-7-Copy" fill="#FAF6F3" x="0" y="0" width="75" height="75" rx="2"></rect>
                <g id="vip-2" transform="translate(19.000000, 15.000000)" fill-rule="nonzero">
                    <path d="M5.32907052e-15,22.5 C-1.19782618e-07,30.5384759 4.28847563,37.9663339 11.2499999,41.9855719 C18.2115242,46.0048098 26.7884758,46.0048098 33.7500001,41.9855719 C40.7115244,37.9663339 45.0000001,30.5384759 45,22.5 C45,10.0735931 34.9264069,6.66133815e-16 22.5,0 C10.0735931,-6.66133815e-16 1.49880108e-15,10.0735931 5.32907052e-15,22.5 Z" id="Shape" fill="#FFFFFF"></path>
                    <path d="M22.5,2 C11.1385542,2 2,11.1385542 2,22.5 C2,33.8614458 11.1385542,43 22.5,43 C33.8614458,43 43,33.8614458 43,22.5 C43,11.1385542 33.8614458,2 22.5,2 Z" id="Shape-Copy-23" fill="#F4D7BB"></path>
                    <path d="M2.53486257,26.9679669 C4.57305983,36.1156023 12.7379749,42.9542239 22.497979,42.9542239 C33.7949677,42.9542239 42.9527082,33.7964834 42.9527082,22.5 C42.9527082,12.7379749 36.1140865,4.57305983 26.9664511,2.53486257 C27.0001347,3.04921181 27.0169766,3.56777149 27.0169766,4.09054162 C27.0169766,16.7542441 16.7512126,27.0200081 4.08751009,27.0200081 C3.56676098,27.0200081 3.04921181,27.002661 2.53486257,26.9679669 Z" id="Shape" opacity="0.200000003"></path>
                </g>
                <g id="Group-7" transform="translate(26.000000, 27.000000)" fill="#C58142" fill-rule="nonzero">
                    <path d="M9.83201002,4 L12.0468629,4 L11.9238155,5.15384615 L15,5.15384615 C15,5.15384615 14.8769526,6.17948718 14.015621,6.17948718 C13.1542893,6.17948718 11.8007681,6.17948718 11.8007681,6.17948718 L11.5546733,7.58974359 L9.3398205,7.58974359 L9.58591526,6.17948718 L6.75582551,6.17948718 L6.50973075,7.58974359 L4.29487791,7.58974359 L4.54097267,6.17948718 C4.54097267,6.17948718 3.43354624,6.17948718 2.32611982,6.17948718 C1.2186934,6.17948718 0.972598635,5.15384615 0.972598635,5.15384615 L4.66402005,5.15384615 L4.78706743,4 L7.00192027,4 L6.87887289,5.15384615 L9.70896264,5.15384615 L9.83201002,4 Z M11.1855312,13.8717949 C11.6777207,12.7179487 13.7695262,12.8461538 13.7695262,12.8461538 L11.6777207,19 C11.6777207,19 11.1855312,18.8717949 10.8163891,17.4615385 C10.5702943,16.6923077 9.46286788,16.9487179 8.35544146,17.0769231 C6.50973075,17.2051282 2.94135672,17.7179487 0.726503874,17.974359 C-0.134827789,18.1025641 -0.134827789,16.9487179 0.234314352,16.6923077 C0.480409113,16.4358974 9.58591526,9.51282051 9.58591526,9.51282051 C9.58591526,9.51282051 1.58783554,9.64102564 1.2186934,9.64102564 C0.849551254,9.64102564 0.603456493,8.61538462 0.603456493,8.61538462 L13.6464788,8.35897436 L13.5234314,9.25641026 L4.17183052,16.3076923 L10.4472469,15.6666667 C10.3241995,15.7948718 10.8163891,14.7692308 11.1855312,13.8717949 Z" id="Shape-Copy-25"></path>
                    <path d="M28.7118644,8.51015355 L25.9152542,8.51015355 C25.9152542,8.51015355 27.3135593,6.19560935 27.6949153,5.46470066 C28.4576271,4.00288327 31,4.61197385 31,4.61197385 L28.7118644,8.51015355 Z M28.0762712,11.3119702 L29.0932203,16.3065129 L26.4237288,16.3065129 L25.4067797,11.3119702 L28.0762712,11.3119702 Z M21.0847458,6.07379123 C21.3389831,7.04833616 21.8474576,8.75378978 21.8474576,8.75378978 L19.0508475,8.75378978 L18.0338983,4.97742819 C18.0338983,4.85561008 20.5762712,4.36833762 21.0847458,6.07379123 Z M25.7881356,4.00288327 L24.8983051,9.36288036 L30.7457627,9.24106224 C30.7457627,9.24106224 30.4915254,10.2156072 29.9830508,10.2156072 C29.4745763,10.2156072 24.7711864,10.3374253 24.7711864,10.3374253 L23.2457627,18.9865115 C23.2457627,18.9865115 22.6101695,19.2301477 22.7372881,17.6465122 C22.8644068,16.6719673 21.3389831,16.4283311 21.3389831,16.4283311 L22.4830508,10.4592434 C22.4830508,10.4592434 19.1779661,10.4592434 18.0338983,10.5810615 C16.8898305,10.5810615 16.8898305,9.60651659 16.8898305,9.60651659 L22.7372881,9.48469847 C22.7372881,9.48469847 23.2457627,5.95197312 23.5,5.22106443 C23.6271186,3.88106515 25.7881356,4.00288327 25.7881356,4.00288327 Z M18.6694915,16.4283311 L16,16.4283311 C16,16.4283311 17.2711864,13.8701506 18.0338983,12.5301514 C18.7966102,11.1901521 21.2118644,11.4337883 21.2118644,11.4337883 L18.6694915,16.4283311 Z" id="Shape-Copy-24"></path>
                    <path d="M9.41176471,1.94736842 C9.41176471,1.94736842 9.29411765,1.94736842 9.29411765,1.94736842 C9.05882353,1.94736842 8.82352941,2.05263158 8.70588235,2.05263158 C8.58823529,2.05263158 8.58823529,2.15789474 8.58823529,2.26315789 C8.58823529,2.36842105 8.58823529,2.36842105 8.70588235,2.36842105 C8.70588235,2.36842105 8.82352941,2.47368421 8.94117647,2.47368421 C9.05882353,2.47368421 9.05882353,2.47368421 9.17647059,2.36842105 C9.29411765,2.36842105 9.29411765,2.26315789 9.29411765,2.26315789 C9.29411765,2.26315789 9.29411765,2.15789474 9.41176471,1.94736842 Z M8.82352941,1.52631579 L8.23529412,1.52631579 C8.35294118,1.31578947 8.35294118,1.21052632 8.58823529,1.10526316 C8.70588235,1 8.94117647,1 9.17647059,1 C9.41176471,1 9.64705882,1 9.76470588,1.10526316 C9.88235294,1.21052632 10,1.31578947 10,1.42105263 C10,1.52631579 10,1.52631579 10,1.63157895 C10,1.73684211 10,1.84210526 9.88235294,2.15789474 C9.88235294,2.36842105 9.76470588,2.57894737 9.76470588,2.57894737 C9.76470588,2.68421053 9.76470588,2.78947368 9.76470588,2.89473684 L9.17647059,2.89473684 C9.17647059,2.78947368 9.17647059,2.78947368 9.17647059,2.68421053 C9.05882353,2.78947368 8.94117647,2.78947368 8.94117647,2.89473684 C8.82352941,2.89473684 8.70588235,3 8.58823529,3 C8.47058824,3 8.23529412,3 8.11764706,2.89473684 C8,2.78947368 8,2.68421053 8,2.47368421 C8,2.26315789 8.11764706,2.15789474 8.23529412,2.05263158 C8.35294118,1.94736842 8.58823529,1.84210526 8.94117647,1.84210526 C9.17647059,1.84210526 9.41176471,1.84210526 9.52941176,1.73684211 C9.52941176,1.63157895 9.52941176,1.63157895 9.52941176,1.52631579 C9.52941176,1.42105263 9.52941176,1.42105263 9.41176471,1.42105263 C9.41176471,1.42105263 9.29411765,1.31578947 9.17647059,1.31578947 C9.05882353,1.31578947 8.94117647,1.31578947 8.94117647,1.42105263 C8.94117647,1.42105263 8.82352941,1.42105263 8.82352941,1.52631579 Z" id="Shape-Copy-22"></path>
                    <path d="M12.0833333,1.25 L12.1666667,0.75 L12.3333333,0.75 L12.4166667,0.375 L12.8333333,0 L12.75,0.75 L13,0.75 L12.9166667,1.25 L12.6666667,1.25 L12.5,2.125 C12.5,2.25 12.5,2.375 12.5,2.375 C12.5,2.375 12.5,2.5 12.5,2.5 C12.5,2.5 12.5833333,2.5 12.5833333,2.5 C12.5833333,2.5 12.6666667,2.5 12.75,2.5 L12.6666667,3 C12.5833333,3 12.5,3 12.4166667,3 C12.25,3 12.1666667,3 12.0833333,2.875 C12,2.75 12,2.625 12,2.5 C12,2.375 12,2.25 12.0833333,2 L12.1666667,1.125 L12.0833333,1.125 L12.0833333,1.25 Z" id="Shape-Copy-21"></path>
                    <path d="M16.4117647,1.94736842 C16.4117647,1.94736842 16.2941176,1.94736842 16.2941176,1.94736842 C16.0588235,1.94736842 15.8235294,2.05263158 15.7058824,2.05263158 C15.5882353,2.05263158 15.5882353,2.15789474 15.5882353,2.26315789 C15.5882353,2.36842105 15.5882353,2.36842105 15.7058824,2.36842105 C15.7058824,2.36842105 15.8235294,2.47368421 15.9411765,2.47368421 C16.0588235,2.47368421 16.0588235,2.47368421 16.1764706,2.36842105 C16.2941176,2.36842105 16.2941176,2.26315789 16.2941176,2.26315789 C16.2941176,2.26315789 16.2941176,2.15789474 16.4117647,1.94736842 Z M15.8235294,1.52631579 L15.2352941,1.52631579 C15.3529412,1.31578947 15.3529412,1.21052632 15.5882353,1.10526316 C15.7058824,1 15.9411765,1 16.1764706,1 C16.4117647,1 16.6470588,1 16.7647059,1.10526316 C16.8823529,1.21052632 17,1.31578947 17,1.42105263 C17,1.52631579 17,1.52631579 17,1.63157895 C17,1.73684211 17,1.84210526 16.8823529,2.15789474 C16.8823529,2.36842105 16.7647059,2.57894737 16.7647059,2.57894737 C16.7647059,2.68421053 16.7647059,2.78947368 16.7647059,2.89473684 L16.1764706,2.89473684 C16.1764706,2.78947368 16.1764706,2.78947368 16.1764706,2.68421053 C16.0588235,2.78947368 15.9411765,2.78947368 15.9411765,2.89473684 C15.8235294,2.89473684 15.7058824,3 15.5882353,3 C15.4705882,3 15.2352941,3 15.1176471,2.89473684 C15,2.78947368 15,2.68421053 15,2.47368421 C15,2.26315789 15.1176471,2.15789474 15.2352941,2.05263158 C15.3529412,1.94736842 15.5882353,1.84210526 15.9411765,1.84210526 C16.1764706,1.84210526 16.4117647,1.84210526 16.5294118,1.73684211 C16.5294118,1.63157895 16.5294118,1.63157895 16.5294118,1.52631579 C16.5294118,1.42105263 16.5294118,1.42105263 16.4117647,1.42105263 C16.4117647,1.42105263 16.2941176,1.31578947 16.1764706,1.31578947 C16.0588235,1.31578947 15.9411765,1.31578947 15.9411765,1.42105263 C15.9411765,1.42105263 15.8235294,1.42105263 15.8235294,1.52631579 Z" id="Shape-Copy-20"></path>
                    <path d="M19.6666667,1.10526316 L20.2,1.10526316 L20.0666667,1.42105263 C20.3333333,1.10526316 20.4666667,1 20.7333333,1 C20.8666667,1 20.8666667,1 21,1.10526316 L20.7333333,1.52631579 C20.7333333,1.52631579 20.6,1.52631579 20.6,1.52631579 C20.4666667,1.52631579 20.3333333,1.52631579 20.2,1.63157895 C20.0666667,1.73684211 19.9333333,1.73684211 19.9333333,1.84210526 C19.9333333,1.94736842 19.8,2.15789474 19.8,2.36842105 L19.6666667,3 L19,3 L19.6666667,1.10526316 Z" id="Shape-Copy-19"></path>
                    <path d="M22.0833333,1.25 L22.1666667,0.75 L22.3333333,0.75 L22.4166667,0.375 L22.8333333,0 L22.75,0.75 L23,0.75 L22.9166667,1.25 L22.6666667,1.25 L22.5,2.125 C22.5,2.25 22.5,2.375 22.5,2.375 C22.5,2.375 22.5,2.5 22.5,2.5 C22.5,2.5 22.5833333,2.5 22.5833333,2.5 C22.5833333,2.5 22.6666667,2.5 22.75,2.5 L22.6666667,3 C22.5833333,3 22.5,3 22.4166667,3 C22.25,3 22.1666667,3 22.0833333,2.875 C22,2.75 22,2.625 22,2.5 C22,2.375 22,2.25 22.0833333,2 L22.1666667,1.125 L22.0833333,1.125 L22.0833333,1.25 Z" id="Shape-Copy-18"></path>
                </g>
            </g>
        </g>
    </g>
</svg>