<?xml version="1.0" encoding="UTF-8"?>
<svg width="45px" height="40px" viewBox="0 0 45 40" version="1.1" xmlns="http://www.w3.org/2000/svg" xmlns:xlink="http://www.w3.org/1999/xlink">
    <!-- Generator: Sketch 46.2 (44496) - http://www.bohemiancoding.com/sketch -->
    <title>Shape</title>
    <desc>Created with Sketch.</desc>
    <defs></defs>
    <g id="Page-1" stroke="none" stroke-width="1" fill="none" fill-rule="evenodd">
        <path d="M44.9651233,11.9567613 C44.9309966,11.8795363 38.6145557,1.56963453 38.6145557,1.56963453 L33.7340617,11.9567613 L44.9651233,11.9567613 M14.1187059,11.9567613 L30.7710386,11.9567613 L22.4448722,0.509247876 L14.1187059,11.9567613 M20.7344117,0 L8.9783239,0 C8.51930095,0 8.02502625,0.161006825 7.60425521,0.4225519 L12.6366318,11.1327851 L20.7344117,0 M37.3473674,0.290322301 C36.9843492,0.107823599 36.5853293,0 36.2099355,0 L24.1553328,0 L32.2527377,11.1331494 L37.3473674,0.290322301 M13.6454323,13.6076278 C13.6454323,13.6076278 22.4621231,39.9981786 22.4827492,40 L31.2450623,13.6076278 L13.6454323,13.6076278 M6.40457024,1.84538609 L0.203260178,11.9567613 L11.1556828,11.9567613 L6.40457024,1.84538609 M0,13.6076278 L19.8062403,37.5011156 L11.859218,13.6076278 L0,13.6076278 M45,13.6076278 L33.0309015,13.6076278 L24.8854943,38.1407717 C24.8854943,38.141136 44.9223711,13.8159896 45,13.6076278" id="Shape" fill="#DADCE0" fill-rule="nonzero"></path>
    </g>
</svg>