<?xml version="1.0" encoding="UTF-8"?>
<svg width="26px" height="25px" viewBox="0 0 26 25" version="1.1" xmlns="http://www.w3.org/2000/svg" xmlns:xlink="http://www.w3.org/1999/xlink">
    <!-- Generator: Sketch 46.2 (44496) - http://www.bohemiancoding.com/sketch -->
    <title>效率-2</title>
    <desc>Created with Sketch.</desc>
    <defs></defs>
    <g id="Page-1" stroke="none" stroke-width="1" fill="none" fill-rule="evenodd">
        <g id="效率-2" fill-rule="nonzero" fill="#E4E7EA">
            <path d="M15.12112,22.8253551 C14.9137379,22.8770824 14.7023926,22.9228945 14.4923486,22.961579 C13.9436968,23.0636435 13.5810146,23.5912673 13.6825467,24.1404219 C13.7326177,24.4105333 13.8859953,24.6356311 14.0942944,24.7825317 C14.3090704,24.9335433 14.5823464,25.0018327 14.8606501,24.950076 C15.1105912,24.9036723 15.3626321,24.8490171 15.6097339,24.7873229 C16.1514947,24.6525186 16.4815258,24.1036598 16.3463961,23.5622243 C16.2115918,23.0202861 15.6631174,22.6903733 15.12112,22.8253551 L15.12112,22.8253551 Z" id="Shape"></path>
            <path d="M22.5979393,9.27314327 C22.6687722,9.48664751 22.8040497,9.66081662 22.9747881,9.78124731 C23.2280711,9.95964566 23.5594331,10.0197132 23.875682,9.91510523 C24.4058492,9.73901376 24.6931144,9.16735231 24.5176144,8.63748084 C24.4376723,8.3959096 24.3491238,8.15368769 24.254601,7.91767662 C24.0472189,7.39925078 23.4591431,7.14688454 22.940392,7.35426671 C22.4221436,7.56144185 22.1695407,8.14981332 22.3771299,8.66847578 C22.456658,8.8666896 22.5309512,9.07016783 22.5979393,9.27314327 L22.5979393,9.27314327 Z" id="Shape"></path>
            <path d="M18.4066427,21.3818131 C18.2282148,21.4996116 18.0442267,21.6135062 17.8586415,21.7203027 C17.3748188,21.9994346 17.2090787,22.6178546 17.4881514,23.1014703 C17.563953,23.232903 17.6647457,23.3404389 17.7809471,23.4226879 C18.0929372,23.6420185 18.5163967,23.6749062 18.8691712,23.4717238 C19.0894778,23.344609 19.3088084,23.2092724 19.5211592,23.0688783 C19.9869705,22.7612062 20.1150908,22.1338249 19.8072117,21.6679248 C19.4994805,21.2018768 18.8725132,21.0739932 18.4066427,21.3818131 L18.4066427,21.3818131 Z" id="Shape"></path>
            <path d="M25.1462971,12.0970839 C25.1243522,11.5391158 24.6542524,11.1047431 24.0960773,11.1264809 C23.5386416,11.148485 23.1038548,11.6187622 23.1258588,12.1764936 C23.1341103,12.38985 23.1363285,12.6062527 23.1314486,12.8193725 C23.1235224,13.1693077 23.2947339,13.4811795 23.5608231,13.6687166 C23.7192581,13.7803339 23.9115568,13.8477952 24.1199742,13.8525568 C24.6781492,13.865008 25.1406777,13.4223246 25.1529811,12.8640016 C25.1584821,12.6095355 25.1563231,12.3515796 25.1462971,12.0970839 L25.1462971,12.0970839 Z" id="Shape"></path>
            <path d="M22.4330864,18.7220747 C21.9854639,18.3862173 21.3524928,18.4774572 21.0173453,18.9241629 C20.8888701,19.0951378 20.7536517,19.2640721 20.6152392,19.4267364 C20.253533,19.8517338 20.3046983,20.4900284 20.729607,20.8520008 C20.7538587,20.8725852 20.7782879,20.8913951 20.803841,20.9091403 C21.2262654,21.207023 21.8133947,21.1384674 22.1550784,20.7376034 C22.3202862,20.5435597 22.481383,20.3416194 22.6348789,20.1374314 C22.9699673,19.6907553 22.8793189,19.0572518 22.4330864,18.7220747 L22.4330864,18.7220747 Z" id="Shape"></path>
            <path d="M23.9193647,15.0670971 C23.3864174,14.8999373 22.8190148,15.196637 22.6520621,15.729466 C22.5881203,15.9329442 22.5172282,16.1375463 22.4407464,16.3378304 C22.272936,16.7787985 22.4337666,17.2640113 22.8025709,17.5238896 C22.8700914,17.5715651 22.9446212,17.6118171 23.0255984,17.6423388 C23.5472184,17.8414695 24.1313902,17.5798166 24.3302547,17.0578712 C24.4209918,16.8197603 24.5053406,16.5763554 24.5814083,16.3343701 C24.7482428,15.8013045 24.4520163,15.2342272 23.9193647,15.0670971 L23.9193647,15.0670971 Z" id="Shape"></path>
            <path d="M10.7099309,22.9707178 C9.80599072,22.8083197 8.93884225,22.5320862 8.11655951,22.1464832 C8.10674049,22.1413962 8.09813408,22.1355994 8.08793061,22.1310744 C7.89409393,22.0398049 7.7005826,21.9421177 7.51307503,21.8400236 C7.51251309,21.8392547 7.51127092,21.8387815 7.51023581,21.8384266 C7.16612691,21.6489966 6.83047656,21.4393667 6.50426075,21.209596 C1.74816422,17.8593921 0.604663902,11.2641245 3.95525234,6.50808711 C4.68372214,5.47422251 5.56536254,4.61171737 6.54847587,3.92805416 C6.56060176,3.91965477 6.57266847,3.91137367 6.58464647,3.90279685 C10.0484492,1.51624569 14.7515468,1.35547422 18.4295636,3.80786006 L17.6396954,4.94914223 C17.4199508,5.26686991 17.5551396,5.49832642 17.9396779,5.46387116 L21.3709478,5.15670185 C21.7558411,5.12203957 21.9860258,4.78899185 21.8825122,4.41731876 L20.9611817,1.09748867 C20.858023,0.725283208 20.5938562,0.680654046 20.3739932,0.998381763 L19.5822618,2.14244402 C16.8830995,0.330600549 13.645755,-0.360456474 10.4326031,0.196860925 C10.1089308,0.252935751 9.7899313,0.321432197 9.47519072,0.401255983 C9.47273598,0.401581301 9.47078399,0.401906647 9.46889118,0.402291127 C9.45676529,0.405307803 9.44425494,0.409330058 9.43251353,0.412524191 C6.66180847,1.12404734 4.24420324,2.74013173 2.51913376,5.04582396 C2.50476014,5.06306639 2.48979503,5.07992431 2.47595379,5.09876379 C2.41863682,5.17607367 2.36173387,5.25512853 2.30601399,5.33403549 C2.21474454,5.46354584 2.12498344,5.59639818 2.03900798,5.72930968 C2.02815384,5.74528035 2.0200502,5.7614285 2.0105565,5.77763575 C0.587125751,7.98351127 -0.0995245376,10.5337914 0.0182443931,13.1300316 C0.0183922832,13.1386381 0.0178894798,13.1471853 0.0182443931,13.1560284 C0.0296604624,13.4095776 0.049682948,13.6667055 0.0769514162,13.9197519 C0.0785189017,13.9361071 0.0819792197,13.9515454 0.0848480347,13.9679301 C0.113092457,14.2226033 0.148434971,14.4775721 0.192886705,14.7327184 C0.643999104,17.3352286 1.87170038,19.6771506 3.71137425,21.499375 C3.71560353,21.5037226 3.7199511,21.5083068 3.7243578,21.5126839 C3.72574783,21.514488 3.72749277,21.5153161 3.72897156,21.5168836 C4.22329353,22.0043737 4.76088419,22.4553974 5.3397324,22.8630932 C6.85463962,23.9305554 8.54149777,24.6360747 10.3530455,24.9612258 C10.9027916,25.0599778 11.4277832,24.6939536 11.5263873,24.144592 C11.6249914,23.5946388 11.2594404,23.0691149 10.7099309,22.9707178 L10.7099309,22.9707178 Z" id="Shape"></path>
            <path d="M11.960139,4.41557382 C11.5079619,4.41557382 11.1417602,4.78218954 11.1417602,5.23365685 L11.1417602,13.3836992 L18.5957177,17.2369203 C18.7155274,17.2989101 18.8440026,17.328308 18.9705554,17.328308 C19.2665452,17.328308 19.5523612,17.1670042 19.6979309,16.885802 C19.9053131,16.4842283 19.7483568,15.9911189 19.3468423,15.7837663 L12.7776305,12.3874544 L12.7776305,5.23362725 C12.7775122,4.78215994 12.4117838,4.41557382 11.960139,4.41557382 L11.960139,4.41557382 Z" id="Shape"></path>
        </g>
    </g>
</svg>