<?xml version="1.0" encoding="UTF-8"?>
<svg width="33px" height="25px" viewBox="0 0 33 25" version="1.1" xmlns="http://www.w3.org/2000/svg" xmlns:xlink="http://www.w3.org/1999/xlink">
    <!-- Generator: Sketch 46.2 (44496) - http://www.bohemiancoding.com/sketch -->
    <title>Shape</title>
    <desc>Created with Sketch.</desc>
    <defs></defs>
    <g id="Page-1" stroke="none" stroke-width="1" fill="none" fill-rule="evenodd">
        <path d="M2.11588057,22.854667 L2.11588057,0 L0,0 L0,24.9994864 L1.05796332,24.9994864 L1.05796332,25 L33,25 L33,22.8548537 L2.11588057,22.8548537 L2.11588057,22.854667 Z M22.6646292,8.33350452 L18.3106909,8.33350452 L18.3106909,20.6682939 L22.6646292,20.6682939 L22.6646292,8.33350452 L22.6646292,8.33350452 Z M28.7682389,2.14551978 L24.4143005,2.14551978 L24.4143005,20.6682939 L28.7682389,20.6682939 L28.7682389,2.14551978 L28.7682389,2.14551978 Z M16.5610656,4.29071272 L12.2071272,4.29071272 L12.2071272,20.6682473 L16.5610656,20.6682473 L16.5610656,4.29071272 L16.5610656,4.29071272 Z M10.3760351,12.2527094 L6.02228103,12.2527094 L6.02228103,20.668294 L10.3760351,20.668294 L10.3760351,12.2527094 L10.3760351,12.2527094 Z" id="Shape" fill="#E4E7EA" fill-rule="nonzero"></path>
    </g>
</svg>