<?xml version="1.0" encoding="UTF-8"?>
<svg width="45px" height="41px" viewBox="0 0 45 41" version="1.1" xmlns="http://www.w3.org/2000/svg" xmlns:xlink="http://www.w3.org/1999/xlink">
    <!-- Generator: Sketch 46.2 (44496) - http://www.bohemiancoding.com/sketch -->
    <title>Shape</title>
    <desc>Created with Sketch.</desc>
    <defs></defs>
    <g id="Page-1" stroke="none" stroke-width="1" fill="none" fill-rule="evenodd">
        <path d="M42.197593,0.00432432432 C40.6387151,0.00432432432 39.3916127,1.13465881 39.3916127,2.49567381 L39.3916127,37.4899068 C39.3916127,38.8739898 40.6646964,39.9812563 42.197593,39.9812563 C43.7304896,39.9812563 45.0035732,38.8509218 45.0035732,37.4899068 L45.0035732,2.51874186 C45.0295545,1.13465881 43.7564709,0.00432432432 42.197593,0.00432432432 Z M32.3506808,0.00432432432 L22.5037686,0.00432432432 C20.9448907,0.00432432432 19.6977883,1.13465881 19.6977883,2.49567381 L19.6977883,33.7298145 L15.4628367,33.7298145 L15.4628367,2.51874186 C15.4628367,1.13465881 14.189753,0.0273923751 12.6568564,0.0273923751 L2.80994422,0.0273923751 C1.2510663,0.0273923751 0.00396396396,1.15772686 0.00396396396,2.51874186 L0.00396396396,37.5129748 C0.00396396396,38.8970579 1.2770476,40.0043243 2.80994422,40.0043243 L12.6568564,40.0043243 C14.2157343,40.0043243 15.4628367,38.8739898 15.4628367,37.5129748 L15.4628367,36.2673001 L19.6977883,36.2673001 L19.6977883,37.5129748 C19.6977883,38.8970579 20.970872,40.0043243 22.5037686,40.0043243 L32.3506808,40.0043243 C33.9095587,40.0043243 35.156661,38.8739898 35.156661,37.5129748 L35.156661,2.51874186 C35.1826423,1.13465881 33.9095587,0.00432432432 32.3506808,0.00432432432 Z M7.0189146,36.2442321 L4.21293435,36.2442321 L4.21293435,33.7528826 L7.0189146,33.7528826 L7.0189146,36.2442321 Z M11.2538663,6.25576608 L4.21293435,6.25576608 L4.21293435,3.7644166 L11.2538663,3.7644166 L11.2538663,6.25576608 Z M26.7387203,36.2442321 L23.93274,36.2442321 L23.93274,33.7528826 L26.7387203,33.7528826 L26.7387203,36.2442321 Z M30.9476907,6.25576608 L23.9067587,6.25576608 L23.9067587,3.7644166 L30.9476907,3.7644166 L30.9476907,6.25576608 Z" id="Shape" fill="#DADCE0" fill-rule="nonzero"></path>
    </g>
</svg>