<?xml version="1.0" encoding="UTF-8"?>
<svg width="27px" height="25px" viewBox="0 0 27 25" version="1.1" xmlns="http://www.w3.org/2000/svg" xmlns:xlink="http://www.w3.org/1999/xlink">
    <!-- Generator: Sketch 46.2 (44496) - http://www.bohemiancoding.com/sketch -->
    <title>效率</title>
    <desc>Created with Sketch.</desc>
    <defs></defs>
    <g id="Page-1" stroke="none" stroke-width="1" fill="none" fill-rule="evenodd">
        <g id="效率" fill-rule="nonzero" fill="#E4E7EA">
            <path d="M13.6431954,24.6116906 L17.5628297,21.3884892 C17.8651679,21.1398082 18.0658273,20.7904976 18.1285372,20.4041667 L18.8867806,15.6949341 C19.3320144,15.3381295 19.7604017,14.98756 20.1630096,14.6561151 C24.0582434,11.4532074 26.3993705,6.90608513 26.755006,1.85251799 C26.8239508,0.964478417 26.191217,0.251378897 25.3532974,0.146013189 C20.3248201,-0.480755396 15.4111211,0.9375 11.5159173,4.13968825 C11.0361211,4.53477218 10.5682854,4.91984412 10.0979616,5.31843525 L5.59631295,5.16133094 C5.20371703,5.14820144 4.82170264,5.2779976 4.52005396,5.52628897 L0.600419664,8.74985012 C0.227877698,9.05593525 0.0146582734,9.50809353 0.0146582734,9.99034772 C0.0146582734,10.0678357 0.020293765,10.1455336 0.0315947242,10.2234113 C0.11498801,10.778717 0.485611511,11.2556954 0.999910072,11.4713729 L4.16891487,12.7943645 C3.6552458,14.5967326 3.95941247,16.291307 5.05695444,17.7836331 C5.12904676,17.8814448 5.20557554,17.9805456 5.28582134,18.0780875 C6.20458633,19.1950839 7.80827338,20.4195144 10.3356715,20.1869005 L11.051289,23.6922962 C11.1616906,24.2398381 11.5586031,24.6969424 12.0873201,24.8845024 C12.6147782,25.0717326 13.211211,24.9673261 13.6433153,24.6117806 L13.6431954,24.6116906 Z M14.858693,8.28938849 C14.8389688,7.05869305 15.8207434,6.04490408 17.0514089,6.02517986 C18.2822542,6.00539568 19.2958933,6.98714029 19.3157074,8.21792566 C19.3354317,9.44868106 18.353747,10.4624101 17.1229017,10.4821343 C15.8921763,10.5019185 14.8784472,9.52014388 14.8586631,8.28938849 L14.858693,8.28938849 Z" id="Shape"></path>
            <path d="M5.86666667,22.1696643 C6.0603717,22.1245204 6.21492806,21.9791966 6.27254197,21.788789 C6.33132494,21.5966727 6.28231415,21.3904376 6.14631295,21.246283 L2.52778777,17.3861511 C2.39067746,17.2408873 2.1882494,17.1793765 1.99454436,17.2245504 C1.79973022,17.2696643 1.64523381,17.415018 1.5875,17.6054257 L0.0530275779,22.6697242 C0.0367206235,22.7230516 0.0290767386,22.777458 0.0290767386,22.8313249 C0.0290767386,22.8351319 0.0290767386,22.8389688 0.0290767386,22.8427158 C0.0410371703,23.1811751 0.275029976,23.4108213 0.586270983,23.4108213 C0.685311751,23.4108213 0.777817746,23.3852518 0.858363309,23.3400779 L5.86660671,22.1696643 L5.86666667,22.1696643 Z" id="Shape"></path>
        </g>
    </g>
</svg>