<?xml version="1.0" encoding="UTF-8"?>
<svg width="84px" height="28px" viewBox="0 0 84 28" version="1.1" xmlns="http://www.w3.org/2000/svg" xmlns:xlink="http://www.w3.org/1999/xlink">
    <!-- Generator: Sketch 49.2 (51160) - http://www.bohemiancoding.com/sketch -->
    <title>Artboard 6</title>
    <desc>Created with Sketch.</desc>
    <defs></defs>
    <g id="Artboard-6" stroke="none" stroke-width="1" fill="none" fill-rule="evenodd">
        <path d="M26.6037333,25.2 L26.6037333,13.0368 L15.4037333,7.4368 L15.4037333,0 L1.40373333,7.00373333 L1.40373333,25.2 L0,25.2 L0,28 L28,28 L28,25.2 L26.6037333,25.2 Z M9.80373333,23.8037333 L7.00373333,23.8037333 L7.00373333,21.0037333 L9.80373333,21.0037333 L9.80373333,23.8037333 Z M9.80373333,18.2037333 L7.00373333,18.2037333 L7.00373333,15.4037333 L9.80373333,15.4037333 L9.80373333,18.2037333 Z M9.80373333,12.6037333 L7.00373333,12.6037333 L7.00373333,9.80373333 L9.80373333,9.80373333 L9.80373333,12.6037333 Z M21.0037333,23.8037333 L18.2037333,23.8037333 L18.2037333,21.0037333 L21.0037333,21.0037333 L21.0037333,23.8037333 Z M21.0037333,18.2037333 L18.2037333,18.2037333 L18.2037333,15.4037333 L21.0037333,15.4037333 L21.0037333,18.2037333 Z" id="Shape-Copy-2" fill="#00AE66" fill-rule="nonzero"></path>
        <path d="M39.1738231,8.78085106 L41.8101397,8.78085106 L41.8101397,7.44680851 L38.8189343,7.44680851 L38.8189343,5.34042553 L41.8101397,5.34042553 L41.8101397,3.25744681 L44.0662183,3.25744681 L44.0662183,5.34042553 L46.7785825,5.34042553 L46.7785825,7.04893617 C47.9192964,5.97234043 48.7051216,4.63829787 49.1360579,3 L51.4174858,3.37446809 C51.2653906,3.8893617 51.1132954,4.35744681 50.9612002,4.80212766 L54.7128815,4.80212766 L54.7128815,6.37021277 C54.3072944,7.25957447 53.9017072,8.03191489 53.49612,8.66382979 L55.2959131,8.66382979 L55.2959131,19.8744681 L53.2172788,19.8744681 L53.2172788,10.6765957 L49.6430419,10.6765957 L49.6430419,19.9212766 L47.5390585,19.9212766 L47.5390585,19.8510638 L46.4490429,21.3723404 C45.5364718,20.1319149 44.7759959,19.1255319 44.1422659,18.3765957 L44.1422659,24.6957447 L41.9115365,24.6957447 L41.9115365,18.7276596 C41.0496637,20.3659574 40.0103466,21.7234043 38.8442835,22.8 L37.4500776,20.7404255 C39.2245215,19.593617 40.6440766,18.0723404 41.7087429,16.2 L39.1738231,16.2 L39.1738231,12.2914894 L37.9317124,12.5723404 C37.6782204,11.0744681 37.3486808,9.64680851 36.9684428,8.2893617 L36.9684428,24.6957447 L34.5856182,24.6957447 L34.5856182,3.28085106 L36.9684428,3.28085106 L36.9684428,7.77446809 L38.1091568,7.44680851 C38.5147439,8.66382979 38.8696327,10.0680851 39.1738231,11.6361702 L39.1738231,8.78085106 Z M46.4236937,7.44680851 L44.0662183,7.44680851 L44.0662183,8.78085106 L46.6771857,8.78085106 L46.6771857,16.2 L44.1422659,16.2 L44.1422659,16.7382979 C45.2829798,17.487234 46.4236937,18.306383 47.5390585,19.1957447 L47.5390585,8.73404255 L46.4236937,7.44680851 Z M50.935851,8.66382979 C51.3414382,8.0787234 51.7723745,7.42340426 52.2286601,6.67446809 L50.0739783,6.67446809 C49.6176927,7.42340426 49.0600103,8.10212766 48.4516296,8.66382979 L50.935851,8.66382979 Z M44.8266943,14.187234 L44.8266943,10.793617 L43.8380755,10.793617 L43.8380755,14.187234 L44.8266943,14.187234 Z M42.1143301,14.187234 L42.1143301,10.793617 L41.0243145,10.793617 L41.0243145,14.187234 L42.1143301,14.187234 Z M53.2679772,20.0851064 C54.4086912,21.4425532 55.2959131,22.6361702 55.9042938,23.6425532 L53.9524056,24.906383 C53.3440248,23.806383 52.5835489,22.612766 51.6456286,21.3255319 C50.9865494,22.8468085 49.8965339,24.0638298 48.4009312,25 L46.4490429,23.3851064 C49.1107087,22.1446809 50.4542162,20.1553191 50.5049146,17.393617 L50.5049146,11.9638298 L52.4314537,11.9638298 L52.4314537,17.393617 C52.4061045,18.7042553 52.2033109,19.8978723 51.7977237,20.9510638 L53.2679772,20.0851064 Z M32.5830316,7.84468085 L34.1293326,7.96170213 C34.0786342,10.2553191 33.9011899,12.4085106 33.5463011,14.4680851 L32,14.093617 C32.3548888,12.1276596 32.5323332,10.0446809 32.5830316,7.84468085 Z M79.0988101,3.91276596 L79.0988101,21.7234043 L81,21.7234043 L81,24.0638298 L66.5509571,24.0638298 L66.5509571,21.7234043 L68.6802897,21.7234043 L68.6802897,3.91276596 L79.0988101,3.91276596 Z M71.2405587,21.7234043 L76.4624935,21.7234043 L76.4624935,18.0021277 L71.2405587,18.0021277 L71.2405587,21.7234043 Z M71.2405587,15.7085106 L76.4624935,15.7085106 L76.4624935,12.0106383 L71.2405587,12.0106383 L71.2405587,15.7085106 Z M71.2405587,9.71702128 L76.4624935,9.71702128 L76.4624935,6.20638298 L71.2405587,6.20638298 L71.2405587,9.71702128 Z M58.0589757,9.24893617 L61.7599586,9.24893617 L61.7599586,6.53404255 C60.7459907,6.65106383 59.7320228,6.76808511 58.6927056,6.86170213 L58.1603725,4.66170213 C61.3290222,4.42765957 64.1681324,3.93617021 66.6523539,3.23404255 L67.564925,5.48085106 C66.5509571,5.71489362 65.5116399,5.94893617 64.3962752,6.15957447 L64.3962752,9.24893617 L67.6156234,9.24893617 L67.6156234,11.5659574 L64.3962752,11.5659574 L64.3962752,12.5021277 C65.5623383,13.4148936 66.7284014,14.4212766 67.9198138,15.5446809 L66.4495603,17.6042553 C65.6383859,16.5276596 64.9539576,15.6617021 64.3962752,14.9595745 L64.3962752,24.7659574 L61.7599586,24.7659574 L61.7599586,15.1468085 C60.8727367,17.0659574 59.757372,18.7978723 58.4392137,20.3893617 L57.3238489,17.8382979 C59.1996896,15.9893617 60.5938955,13.906383 61.4811174,11.5659574 L58.0589757,11.5659574 L58.0589757,9.24893617 Z" id="懒租" fill="#FFFFFF"></path>
    </g>
</svg>