<?xml version="1.0" encoding="UTF-8"?>
<svg width="28px" height="25px" viewBox="0 0 28 25" version="1.1" xmlns="http://www.w3.org/2000/svg" xmlns:xlink="http://www.w3.org/1999/xlink">
    <!-- Generator: Sketch 46.2 (44496) - http://www.bohemiancoding.com/sketch -->
    <title>Combined Shape</title>
    <desc>Created with Sketch.</desc>
    <defs></defs>
    <g id="Page-1" stroke="none" stroke-width="1" fill="none" fill-rule="evenodd">
        <path d="M24.8250647,1.98811362 L22.8808407,3.31837215 C22.6021035,2.54940233 21.8652116,2 21,2 L4,2 C2.8954305,2 2,2.8954305 2,4 L2,21 C2,22.1045695 2.8954305,23 4,23 L21,23 C22.1045695,23 23,22.1045695 23,21 L23,12.2000122 L25,10 L25,22 C25,23.6568542 23.6568542,25 22,25 L3,25 C1.34314575,25 0,23.6568542 0,22 L0,3 C0,1.34314575 1.34314575,0 3,0 L22,0 C23.3017729,0 24.409891,0.829134436 24.8250647,1.98811362 Z M13.0498052,13.2628522 C15.3349992,10.7952367 20.4119092,5.89311647 27.4116551,2 L28,3.23380773 C21.57691,8.5942492 16.3110283,16.1399942 14.6453498,20 L5,11.0897473 L7.47416568,9.28957305 L13.0498052,13.2628522 Z" id="Combined-Shape" fill="#E4E7EA"></path>
    </g>
</svg>