<?xml version="1.0" encoding="UTF-8"?>
<svg width="45px" height="44px" viewBox="0 0 45 44" version="1.1" xmlns="http://www.w3.org/2000/svg" xmlns:xlink="http://www.w3.org/1999/xlink">
    <!-- Generator: Sketch 46.2 (44496) - http://www.bohemiancoding.com/sketch -->
    <title>Shape</title>
    <desc>Created with Sketch.</desc>
    <defs></defs>
    <g id="Page-1" stroke="none" stroke-width="1" fill="none" fill-rule="evenodd">
        <path d="M44.5322408,35.2189062 C44.6911166,35.6548795 44.8129071,36.2192679 44.8877227,36.9032321 C44.9625384,37.5872455 45,37.0400446 45,37.724058 C45,38.4082187 44.9439957,39.0579554 44.8408554,39.6735625 C44.7285782,40.2891205 44.5602967,40.7509732 44.3450941,41.0673705 C44.1859495,41.2725402 43.727381,41.4863036 42.9787405,41.7257009 C42.2299388,41.9650491 34.416054,44 23.4295975,44 C13.3880114,44 4.74121101,42.51225 3.36550549,42.2300804 C1.98979998,41.9478616 1.1663438,41.7085134 0.876271813,41.5118884 C0.520574864,41.2724911 0.258558752,40.5626964 0.0900084902,39.3743527 C-0.078273037,38.1771696 -0.0128630662,37.8780089 0.305426044,36.0140982 C0.501978438,34.9366875 0.979143369,34.1159598 1.73718957,33.5685134 C2.50458773,33.0129643 3.41237279,32.5767946 4.44178706,32.2603973 C5.48039205,31.9356027 10.2905241,30.4220223 11.3948078,30.1570893 C12.4990915,29.892058 13.4631496,29.5158973 14.286552,29.0199152 C14.9603231,28.6437054 15.4748959,28.2758929 15.8399985,27.925317 C16.2048862,27.5749375 16.4669023,27.2243125 16.6074504,26.8737857 C16.7477836,26.5231607 16.8225992,26.1639911 16.8225992,25.7791875 C16.8225992,25.4029777 16.8037878,24.9925893 16.7757319,24.5480223 C16.710322,23.8468214 16.4668485,23.3082634 16.0365509,22.9320536 C15.6059845,22.5558437 15.1287659,22.1624955 14.5765703,21.752058 C14.3145541,21.5468884 14.0994053,21.2646696 13.9028529,20.8968571 C13.7063005,20.5292902 13.5379653,20.1617232 13.3788207,19.7855134 C13.2196762,19.3493437 13.0605316,18.8961339 12.9014408,18.4345759 C12.6768863,18.374567 12.452278,18.2805759 12.2277235,18.1265268 C12.0311173,17.9813661 11.8253742,17.7761473 11.6008197,17.5109687 C11.3762652,17.2460357 11.1890647,16.8698259 11.0205682,16.3738437 C10.8614237,15.8864062 10.8054194,15.4332455 10.8614237,15.0400937 C10.9082909,14.6466473 10.9925123,14.3046652 11.1234398,14.0139018 C11.2451227,13.6891071 11.4417289,13.38975 11.7036912,13.0905402 C11.6756354,11.9875446 11.7316934,10.8760045 11.9002974,9.76441518 C12.0219804,8.83241071 12.2557256,7.84064286 12.5926111,6.78886607 C12.9297117,5.73708929 13.416336,4.78814286 14.0525918,3.95017857 C14.6608991,3.16358036 15.3346165,2.51359821 16.0832032,2.000625 C16.8320049,1.48765179 17.5900511,1.08585714 18.3572343,0.79509375 C19.1246862,0.50428125 19.8921381,0.30765625 20.6781327,0.179535714 C21.4549903,0.0683571429 22.2129291,0 22.9521638,0 C23.8693009,0 24.7675727,0.102584821 25.609894,0.307754464 C26.4522154,0.512973214 27.2382637,0.769558036 27.9774448,1.09435268 C28.7074351,1.41934375 29.3720154,1.76991964 29.9334017,2.16331696 C30.5136532,2.55651786 30.9720067,2.95850893 31.3277574,3.36889732 C32.1232115,4.30085268 32.7221131,5.32684821 33.1246236,6.44698214 C33.5269729,7.56696875 33.8078541,8.61874554 33.9574855,9.61051339 C34.1540379,10.7734688 34.2289611,11.9448705 34.2006902,13.1075804 C34.4252447,13.2187589 34.6032544,13.3983929 34.7247224,13.6377411 C34.8464591,13.8429107 34.9587364,14.0995446 35.0336058,14.4243393 C35.1084752,14.7492812 35.1179347,15.1341339 35.0524172,15.6042857 C34.9587901,16.2200893 34.7996456,16.6988839 34.6033082,17.0664509 C34.3878906,17.434067 34.1632824,17.7162366 33.9107257,17.9214063 C33.6207075,18.1608036 33.3210148,18.3148036 33.0029406,18.4003973 C32.8812577,18.8620045 32.7315188,19.3237589 32.5723743,19.7513348 C32.4132297,20.1275446 32.226083,20.5037054 32.0297456,20.8627277 C31.8143818,21.2304911 31.5897735,21.5126607 31.3372169,21.7179286 C31.0469837,21.9573259 30.7849675,22.145308 30.5230052,22.3079018 C30.2609891,22.4616562 30.0457865,22.6326964 29.8492341,22.8036384 C29.6526817,22.9832723 29.4935372,23.1884911 29.3720692,23.4364821 C29.2503325,23.6844732 29.1474609,23.9836339 29.0817822,24.3342589 C28.9883163,24.7704286 28.9603142,25.2149955 28.9883163,25.6682054 C29.0163722,26.1127723 29.1474609,26.5743795 29.3720692,27.0191429 C29.5966237,27.4637098 29.9615114,27.899683 30.4763529,28.3100714 C30.9815199,28.7204598 31.6741024,29.0796295 32.5349664,29.4046696 C33.3304205,29.6952366 34.2101496,29.9518214 35.1458831,30.1656339 C36.0910222,30.3878437 39.8811457,31.8755938 40.7514692,32.1833482 C41.6217389,32.4913973 42.4080023,32.8759554 43.091179,33.3377098 C43.7553832,33.8507321 44.2420075,34.4578929 44.5322408,35.2189062 L44.5322408,35.2189062 Z M23.270453,41.1613125 C23.4295975,41.1613125 23.6727485,41.0673214 24.009634,40.8790938 C24.3464658,40.6825179 24.6741606,40.4687054 24.9922347,40.2037232 C25.3105238,39.938692 25.5910826,39.6734643 25.8250966,39.417125 C26.0684625,39.1518973 26.1807398,38.9553214 26.1807398,38.8013214 C26.1807398,38.621933 26.1338725,38.3225268 26.0404604,37.8779598 C25.9467796,37.4419866 25.8250429,36.9545491 25.7033061,36.441625 C25.5818382,35.9113661 25.44129,35.398442 25.3198221,34.8852232 C25.1981391,34.37225 25.0764024,33.9618616 24.9829365,33.637067 C25.3010106,33.3974732 25.5724325,33.1496295 25.796987,32.8758571 C26.0215415,32.5938839 26.1338188,32.3116652 26.1338188,32.0209018 C26.1338188,31.7815045 26.0495974,31.5507009 25.8718027,31.3027098 C25.7032524,31.0547188 25.4975093,30.8495 25.2729548,30.6699643 C25.0109386,30.4647455 24.7489225,30.2595759 24.4586356,30.0543571 L22.0723272,30.0543571 C21.7542531,30.2595268 21.4828312,30.4646964 21.2582767,30.6699643 C21.0617243,30.8495 20.8931741,31.046125 20.7342445,31.2854732 C20.5750999,31.5248705 20.4908248,31.7472768 20.4908248,31.9866741 C20.4908248,32.166308 20.6031021,32.3970625 20.8465218,32.687875 C21.0897265,32.9786875 21.3799597,33.2606607 21.7260359,33.5172455 C21.5924122,33.8946517 21.4645717,34.2737468 21.3425518,34.6544196 C21.1834073,35.141808 21.0336684,35.663375 20.8931203,36.2105759 C20.7527872,36.7493304 20.6219672,37.2623527 20.5096362,37.7411473 C20.3973052,38.219942 20.3504917,38.5705179 20.3504917,38.8098661 C20.3504917,38.9552723 20.4627689,39.1604911 20.7059199,39.4254241 C20.9493396,39.6906518 21.2301671,39.9555848 21.5670526,40.2122188 C21.9038844,40.4771518 22.2313642,40.6996071 22.5496534,40.8875893 C22.8772944,41.0586786 23.1207141,41.1613125 23.270453,41.1613125 L23.270453,41.1613125 Z" id="Shape" fill="#DADCE0" fill-rule="nonzero"></path>
    </g>
</svg>