<?xml version="1.0" encoding="UTF-8"?>
<svg width="23px" height="25px" viewBox="0 0 23 25" version="1.1" xmlns="http://www.w3.org/2000/svg" xmlns:xlink="http://www.w3.org/1999/xlink">
    <!-- Generator: Sketch 46.2 (44496) - http://www.bohemiancoding.com/sketch -->
    <title>简单</title>
    <desc>Created with Sketch.</desc>
    <defs></defs>
    <g id="Page-1" stroke="none" stroke-width="1" fill="none" fill-rule="evenodd">
        <g id="简单" fill-rule="nonzero" fill="#E4E7EA">
            <path d="M22.311435,5.29641256 C22.2540359,5.267713 22.1966368,5.25336323 22.1392377,5.23901345 C18.1786996,4.46412556 14.95,2.56995516 11.7643498,0.144843049 C11.5634529,-0.0130044843 11.1616592,-0.0130044843 10.9607623,0.144843049 C9.51143498,1.26412556 8.00470852,2.35470852 6.41188341,3.25874439 C4.66121076,4.24887892 2.52309417,4.70807175 0.585874439,5.22466368 C0.0692825112,5.35381166 -0.0598654709,5.84170404 0.0692825112,6.24349776 C0.227130045,9.91704036 0.829820628,13.7627803 2.36524664,17.106278 C3.9867713,20.6363229 7.78946188,23.2766816 11.1903587,24.8838565 C11.305157,24.9412556 11.4199552,24.9699552 11.5347534,24.9699552 C11.6782511,24.9843049 11.8360987,24.9699552 11.9939462,24.8838565 C15.394843,23.2049327 18.8961883,20.5789238 20.6181614,17.106278 C22.2540359,13.8058296 22.7706278,9.7161435 22.9141256,6.0426009 C22.9141256,5.61210762 22.6414798,5.35381166 22.311435,5.29641256 Z M19.240583,16.3026906 C17.8199552,19.4165919 14.5912556,21.7699552 11.5778027,23.3197309 C8.56434978,21.8273543 5.49349776,19.6174888 3.88632287,16.6327354 C2.30784753,13.7053812 1.81995516,9.93139013 1.66210762,6.58789238 C3.36973094,6.12869955 5.07735426,5.64080717 6.69887892,4.92331839 C8.36345291,4.17713004 9.9132287,3.01479821 11.3769058,1.88116592 C14.4334081,4.09103139 17.5616592,5.88475336 21.2926009,6.70269058 C21.1204036,9.94573991 20.5751121,13.3609865 19.240583,16.3026906 Z" id="Shape"></path>
            <path d="M8.10515695,14.42287 L10.2863229,14.42287 L8.20560538,17.1493274 C8.00470852,17.4506726 7.717713,17.5941704 7.31591928,17.5941704 L5.47914798,17.5941704 L5.47914798,16.2596413 L6.46928251,16.2596413 C6.67017937,16.2883408 6.79932735,16.2452915 6.87107623,16.1161435 L8.10515695,14.42287 L8.10515695,14.42287 Z M5.98139013,6.41569507 L16.6289238,6.41569507 L16.6289238,10.7780269 C16.7006726,11.6964126 16.1840807,12.1269058 15.0934978,12.0695067 L8.90874439,12.0695067 L8.6073991,12.5573991 L16.7293722,12.5573991 L16.7293722,16.4748879 C16.7580717,17.364574 16.3132287,17.7807175 15.394843,17.7089686 L13.3141256,17.7089686 L13.3141256,16.3744395 L14.6486547,16.3744395 C14.8495516,16.3744395 14.9356502,16.2883408 14.8926009,16.1304933 L14.8926009,13.9349776 L7.91860987,13.9349776 L7.51681614,14.42287 C7.38766816,14.6524664 7.07197309,14.7529148 6.56973094,14.7242152 L5.53654709,14.7242152 L5.53654709,13.1887892 L5.83789238,13.1887892 C5.99573991,13.2174888 6.12488789,13.1744395 6.182287,13.0452915 L6.82802691,12.0121076 L5.98139013,12.0121076 L5.98139013,6.41569507 L5.98139013,6.41569507 Z M14.5912556,7.85067265 L7.80381166,7.85067265 L7.80381166,8.59686099 L14.5912556,8.59686099 L14.5912556,7.85067265 Z M7.81816143,10.7206278 L14.4477578,10.7206278 C14.6056054,10.7493274 14.6773543,10.6919283 14.6486547,10.5197309 L14.6486547,9.93139013 L7.81816143,9.93139013 L7.81816143,10.7206278 Z M11.620852,14.5233184 L13.8450673,14.5233184 L11.8217489,17.1923767 C11.620852,17.493722 11.3338565,17.6372197 10.9320628,17.6372197 L9.25313901,17.6372197 L9.25313901,16.3026906 L9.84147982,16.3026906 C10.0997758,16.3026906 10.2719731,16.2309417 10.3293722,16.1017937 L11.620852,14.5233184 L11.620852,14.5233184 Z" id="Shape"></path>
        </g>
    </g>
</svg>