<?xml version="1.0" encoding="UTF-8"?>
<svg width="45px" height="40px" viewBox="0 0 45 40" version="1.1" xmlns="http://www.w3.org/2000/svg" xmlns:xlink="http://www.w3.org/1999/xlink">
    <!-- Generator: Sketch 46.2 (44496) - http://www.bohemiancoding.com/sketch -->
    <title>电脑</title>
    <desc>Created with Sketch.</desc>
    <defs></defs>
    <g id="Page-1" stroke="none" stroke-width="1" fill="none" fill-rule="evenodd">
        <g id="电脑" fill-rule="nonzero" fill="#DADCE0">
            <path d="M28.3099164,38.6384401 C27.5303177,38.0018942 27.4474415,37.0458496 27.4474415,37.0458496 L27.1553177,34.9704735 L17.8386622,34.9704735 L17.5455351,37.0447354 C17.5455351,37.0447354 17.4637625,38.0019499 16.6846154,38.6384401 C15.9055184,39.2749304 15.2905686,39.8212813 15.9055184,39.9139833 C16.4979431,40.0023955 22.0849164,39.9212256 22.497291,39.9139833 C22.9101672,39.9212256 28.496087,40.0023955 29.0884615,39.9139833 C29.7029097,39.8218384 29.0879599,39.2762117 28.3099164,38.6383844 L28.3099164,38.6384401 Z M10.2410368,16.7375487 L13.8389298,16.7375487 L13.8389298,24.2299164 L10.2410368,24.2299164 L10.2410368,16.7375487 Z M17.8870234,13.2412256 L21.4854181,13.2412256 L21.4854181,24.2299164 L17.8870234,24.2299164 L17.8870234,13.2411699 L17.8870234,13.2412256 Z M25.0838629,16.7375487 L28.6823077,16.7375487 L28.6823077,24.2299164 L25.0838127,24.2299164 L25.0838127,16.7375487 L25.0838629,16.7375487 Z M31.8304515,13.2412256 L35.4288462,13.2412256 L35.4288462,24.2299164 L31.8304515,24.2299164 L31.8304515,13.2411699 L31.8304515,13.2412256 Z" id="Shape"></path>
            <polygon id="Shape" points="20.0898161 9.02562674 27.3634615 14.1996657 37.4174749 6.12100279 36.3622074 4.50289694 27.3020067 11.7832869 20.1820234 6.71810585 7.57605351 13.9164345 8.40832776 15.687688"></polygon>
            <path d="M43.186204,0.0077994429 L1.80727425,0.0077994429 C0.813461538,0.0077994429 0.00807692308,0.902228412 0.00807692308,2.00551532 L0.00807692308,30.974429 C0.00807692308,32.0780501 0.813461538,32.9730362 1.80727425,32.9730362 L43.186204,32.9730362 C44.1800167,32.9730362 44.9854013,32.0779944 44.9854013,30.974429 L44.9854013,2.00551532 C44.9854515,0.902284123 44.1799666,0.0077994429 43.186204,0.0077994429 Z M42.2874582,26.9790529 L2.70712375,26.9790529 L2.70712375,3.00445682 L42.2874582,3.00445682 L42.2874582,26.9789972 L42.2874582,26.9790529 Z" id="Shape"></path>
        </g>
    </g>
</svg>