<?xml version="1.0" encoding="UTF-8"?>
<svg width="28px" height="25px" viewBox="0 0 28 25" version="1.1" xmlns="http://www.w3.org/2000/svg" xmlns:xlink="http://www.w3.org/1999/xlink">
    <!-- Generator: Sketch 46.2 (44496) - http://www.bohemiancoding.com/sketch -->
    <title>Shape</title>
    <desc>Created with Sketch.</desc>
    <defs></defs>
    <g id="Page-1" stroke="none" stroke-width="1" fill="none" fill-rule="evenodd">
        <path d="M27.083308,18.2291868 L27.083308,23.4375259 C27.083308,23.871628 26.9311813,24.2405843 26.6275368,24.5443118 C26.3236709,24.8482054 25.9546315,25 25.5208062,25 L1.56247406,25 C1.128372,25 0.759360343,24.8481777 0.455688159,24.5443118 C0.15179458,24.2406397 0,23.8716557 0,23.4375259 L0,18.2291868 C0,17.7953615 0.151822254,17.4263222 0.455688159,17.122401 C0.759332668,16.8187564 1.12834432,16.6667128 1.56247406,16.6667128 L9.13081067,16.6667128 L11.3281099,18.8803123 C11.9572617,19.4880994 12.6953404,19.7917439 13.5415986,19.7917439 C14.3879952,19.7917439 15.1256865,19.4880994 15.7551981,18.8803123 L17.9687976,16.6667128 L25.5208339,16.6667128 C25.9546315,16.6667128 26.3237262,16.8187841 26.6275645,17.122401 C26.931209,17.4263499 27.0833356,17.7953339 27.0833356,18.2291868 L27.083308,18.2291868 Z M21.7936612,8.96814002 C21.9780563,9.4131735 21.9020068,9.79289518 21.5658171,10.1074988 L14.2741701,17.3991459 C14.0788158,17.6054315 13.8346992,17.708436 13.5417093,17.708436 C13.2487749,17.708436 13.0046305,17.6054038 12.8093039,17.3991459 L5.5176292,10.1074711 C5.18119042,9.79286751 5.1051686,9.41322885 5.28978512,8.96811235 C5.47418025,8.54496939 5.79434643,8.33337023 6.25000692,8.33337023 L10.4166782,8.33337023 L10.4166782,1.04172317 C10.4166782,0.759692437 10.5197103,0.515520408 10.7259683,0.309290105 C10.9319495,0.103308873 11.1761492,0 11.4584014,0 L15.6250726,0 C15.9070757,0 16.1512477,0.103253524 16.357478,0.309290105 C16.5634869,0.515548082 16.6667128,0.759664762 16.6667128,1.04172317 L16.6667128,8.33337023 L20.8334671,8.33337023 C21.2892383,8.33337023 21.6091277,8.54502474 21.7937442,8.96814002 L21.7936612,8.96814002 Z M20.5240663,22.607485 C20.7300752,22.4015037 20.8333841,22.157304 20.8333841,21.8750519 C20.8333841,21.5930488 20.7301305,21.3488768 20.5240663,21.1426465 C20.3178083,20.9366653 20.0736916,20.8333564 19.7916609,20.8333564 C19.5093811,20.8333564 19.2652091,20.9366099 19.0592002,21.1426465 C18.8529422,21.3489045 18.7499654,21.5930212 18.7499654,21.8750519 C18.7499654,22.1573317 18.8529975,22.4015037 19.0592002,22.607485 C19.2652091,22.8137429 19.5094088,22.9167751 19.7916609,22.9167751 C20.0736916,22.9168027 20.3178637,22.8137429 20.5240663,22.607485 Z M24.6907376,22.607485 C24.8967465,22.4015037 25.0000553,22.157304 25.0000553,21.8750519 C25.0000553,21.5930488 24.8968018,21.3488768 24.6907376,21.1426465 C24.4844796,20.9366653 24.2403629,20.8333564 23.9583322,20.8333564 C23.6760524,20.8333564 23.4318803,20.9366099 23.2259268,21.1426465 C23.0196135,21.3489045 22.916609,21.5930212 22.916609,21.8750519 C22.916609,22.1573317 23.0196411,22.4015037 23.2259268,22.607485 C23.4318527,22.8137429 23.6760801,22.9167751 23.9583322,22.9167751 C24.2403629,22.9168027 24.4845349,22.8137429 24.6907376,22.607485 Z" id="Shape" fill="#E4E7EA" fill-rule="nonzero"></path>
    </g>
</svg>