<?xml version="1.0" encoding="UTF-8"?>
<svg width="18px" height="17px" viewBox="0 0 18 17" version="1.1" xmlns="http://www.w3.org/2000/svg" xmlns:xlink="http://www.w3.org/1999/xlink">
    <!-- Generator: Sketch 47.1 (45422) - http://www.bohemiancoding.com/sketch -->
    <title>Shape</title>
    <desc>Created with Sketch.</desc>
    <defs></defs>
    <g id="管理后台" stroke="none" stroke-width="1" fill="none" fill-rule="evenodd" opacity="0.2">
        <g id="管理后台-我的账号" transform="translate(-89.000000, -262.000000)" fill-rule="nonzero" fill="#202020">
            <path d="M100.226161,273.937765 C99.7820108,273.868269 99.7716705,272.672348 99.7716705,272.672348 C99.7716705,272.672348 101.076795,271.406932 101.361516,269.704968 C102.126457,269.704968 102.599525,267.89605 101.833957,267.258988 C101.866282,266.590005 102.817662,262 98.0000242,262 C93.1823861,262 94.1337421,266.590005 94.1654878,267.25965 C93.4004988,267.896641 93.8729152,269.70563 94.6378559,269.70563 C94.9219243,271.407571 96.2277739,272.673011 96.2277739,272.673011 C96.2277739,272.673011 96.2174336,273.868931 95.7732113,273.93838 C94.3427949,274.161588 89,276.469238 89,279 L98,279 L107,279 C107.000024,276.469214 101.657229,274.161564 100.226161,273.937765 Z" id="Shape"></path>
        </g>
    </g>
</svg>