<?xml version="1.0" encoding="UTF-8"?>
<svg width="34px" height="34px" viewBox="0 0 34 34" version="1.1" xmlns="http://www.w3.org/2000/svg" xmlns:xlink="http://www.w3.org/1999/xlink">
    <!-- Generator: Sketch 46.2 (44496) - http://www.bohemiancoding.com/sketch -->
    <title>Shape@2x</title>
    <desc>Created with Sketch.</desc>
    <defs></defs>
    <g id="管理后台" stroke="none" stroke-width="1" fill="none" fill-rule="evenodd">
        <g id="管理后台-作品管理-发布作品" transform="translate(-1119.000000, -278.000000)" fill-rule="nonzero" fill="#202020">
            <g id="Group" transform="translate(552.000000, 277.000000)">
                <path d="M578.295209,21.5198497 L572.696465,21.5198497 C572.371887,21.5198497 572.106276,21.7815175 572.106276,22.1015667 L572.106276,34.4179893 C572.106276,34.7379966 572.371887,35 572.696465,35 L578.295209,35 C578.619956,35 578.885608,34.7380386 578.885608,34.4179893 L578.885608,22.1015667 C578.885566,21.7815594 578.619956,21.5198497 578.295209,21.5198497 Z M595.312845,21.5198497 L589.714143,21.5198497 C589.389439,21.5198497 589.123829,21.7815175 589.123829,22.1015667 L589.123829,34.4179893 C589.123829,34.7379966 589.389439,35 589.714143,35 L595.312887,35 C595.637466,35 595.903076,34.7380386 595.903076,34.4179893 L595.903076,22.1015667 C595.903076,21.7815594 595.637424,21.5198497 595.312845,21.5198497 Z M600.987963,17.161585 C600.670472,8.18305252 593.186831,1 583.999853,1 C574.813001,1 567.32936,8.18305252 567.011701,17.161585 L567,17.161585 L567,28.2600926 L570.403611,28.2600926 L570.403611,17.8977277 C570.403611,10.6115011 576.247666,4.54889359 583.637486,4.35927981 C591.312125,4.16262002 597.596263,10.2358385 597.596263,17.7552972 L597.596263,28.2600507 L600.999874,28.2600507 L600.999874,17.161585 L600.987963,17.161585 Z" id="Shape"></path>
            </g>
        </g>
    </g>
</svg>