<?xml version="1.0" encoding="UTF-8"?>
<svg width="28px" height="28px" viewBox="0 0 28 28" version="1.1" xmlns="http://www.w3.org/2000/svg" xmlns:xlink="http://www.w3.org/1999/xlink">
    <!-- Generator: Sketch 46.2 (44496) - http://www.bohemiancoding.com/sketch -->
    <title>Shape@2x</title>
    <desc>Created with Sketch.</desc>
    <defs></defs>
    <g id="星球" stroke="none" stroke-width="1" fill="none" fill-rule="evenodd">
        <g id="星球主页-发布作品入口" transform="translate(-1115.000000, -814.000000)" fill-rule="nonzero" fill="#202020">
            <g id="Group-3" transform="translate(699.000000, 814.000000)">
                <path d="M425.301937,16.8986997 L420.691207,16.8986997 C420.423907,16.8986997 420.205169,17.1141909 420.205169,17.3777608 L420.205169,27.5206971 C420.205169,27.7842325 420.423907,28 420.691207,28 L425.301937,28 C425.569375,28 425.788148,27.7842671 425.788148,27.5206971 L425.788148,17.3777608 C425.788113,17.1142254 425.569375,16.8986997 425.301937,16.8986997 Z M439.316461,16.8986997 L434.705765,16.8986997 C434.438361,16.8986997 434.219624,17.1141909 434.219624,17.3777608 L434.219624,27.5206971 C434.219624,27.7842325 434.438361,28 434.705765,28 L439.316495,28 C439.583796,28 439.802533,27.7842671 439.802533,27.5206971 L439.802533,17.3777608 C439.802533,17.1142254 439.583761,16.8986997 439.316461,16.8986997 Z M443.990087,13.3095406 C443.728624,5.91545502 437.565625,0 429.999879,0 C422.434236,0 416.271238,5.91545502 416.009636,13.3095406 L416,13.3095406 L416,22.449488 L418.802974,22.449488 L418.802974,13.9157757 C418.802974,7.91535387 423.615725,2.92261825 429.701459,2.76646572 C436.02175,2.60451061 441.196923,7.60598469 441.196923,13.79848 L441.196923,22.4494535 L443.999896,22.4494535 L443.999896,13.3095406 L443.990087,13.3095406 Z" id="Shape"></path>
            </g>
        </g>
    </g>
</svg>