<?xml version="1.0" encoding="UTF-8"?>
<svg width="16px" height="17px" viewBox="0 0 16 17" version="1.1" xmlns="http://www.w3.org/2000/svg" xmlns:xlink="http://www.w3.org/1999/xlink">
    <!-- Generator: Sketch 47.1 (45422) - http://www.bohemiancoding.com/sketch -->
    <title>Shape</title>
    <desc>Created with Sketch.</desc>
    <defs></defs>
    <g id="管理后台" stroke="none" stroke-width="1" fill="none" fill-rule="evenodd">
        <g id="管理后台-我的星球设置" transform="translate(-91.000000, -409.000000)" fill-rule="nonzero" fill="#D3D3D3">
            <path d="M105.117647,409 L92.882353,409 C91.8470588,409 91,409.805263 91,410.789474 L91,424.210526 C91,425.194737 91.8470588,426 92.882353,426 L105.117647,426 C106.152941,426 107,425.194737 107,424.210526 L107,410.789474 C107,409.805263 106.152941,409 105.117647,409 Z M94.2470588,413.339474 L99.1411765,413.339474 C99.4235294,413.339474 99.6117647,413.518421 99.6117647,413.786842 C99.6117647,414.055263 99.4235294,414.234211 99.1411765,414.234211 L94.2470588,414.234211 C93.9647059,414.234211 93.7764706,414.055263 93.7764706,413.786842 C93.7764706,413.518421 93.9647059,413.339474 94.2470588,413.339474 Z M103.611765,421.213158 L94.2470588,421.213158 C93.9647059,421.213158 93.7764706,421.034211 93.7764706,420.765789 C93.7764706,420.497368 93.9647059,420.318421 94.2470588,420.318421 L103.611765,420.318421 C103.894118,420.318421 104.082353,420.497368 104.082353,420.765789 C104.082353,421.034211 103.894118,421.213158 103.611765,421.213158 L103.611765,421.213158 Z M103.752941,417.723684 L94.2470588,417.723684 C93.9647059,417.723684 93.7764706,417.544737 93.7764706,417.276316 C93.7764706,417.007895 93.9647059,416.828947 94.2470588,416.828947 L103.8,416.828947 C104.082353,416.828947 104.270588,417.007895 104.270588,417.276316 C104.270588,417.544737 104.035294,417.723684 103.752941,417.723684 L103.752941,417.723684 Z" id="Shape"></path>
        </g>
    </g>
</svg>