<?xml version="1.0" encoding="UTF-8"?>
<svg width="92px" height="80px" viewBox="0 0 92 80" version="1.1" xmlns="http://www.w3.org/2000/svg" xmlns:xlink="http://www.w3.org/1999/xlink">
    <!-- Generator: Sketch 46.2 (44496) - http://www.bohemiancoding.com/sketch -->
    <title>empty_home@2x</title>
    <desc>Created with Sketch.</desc>
    <defs></defs>
    <g id="管理后台" stroke="none" stroke-width="1" fill="none" fill-rule="evenodd">
        <g id="empty_home" fill-rule="nonzero">
            <path d="M0.689894539,75.7168573 C0.689894539,78.0813455 20.8822331,79.9981418 45.7907451,79.9981418 C70.699257,79.9981418 90.8915956,78.0813455 90.8915956,75.7168573 C90.8915956,73.3523692 70.699257,71.4355728 45.7907451,71.4355728 C20.8822331,71.4355728 0.689894539,73.3523692 0.689894539,75.7168573 Z" id="Shape" fill="#DDDDDD"></path>
            <polygon id="Shape" fill="#F8F8F8" points="0.0325736554 12.6849331 51.2421904 0.0266019348 67.0284477 62.7997463 15.818831 75.4580775"></polygon>
            <path d="M0.0325736554,12.6849331 L3.19826952,11.9028851 L3.59266205,13.4726894 L0.426966185,14.2547374 L0.0325736554,12.6849331 Z M18.5891747,73.1062252 L21.7558302,72.3241772 L22.1492631,73.8939815 L18.9845268,74.6760295 L18.5891747,73.1062252 L18.5891747,73.1062252 Z M6.36396539,11.1198857 L9.52966125,10.3378378 L9.92405386,11.9076421 L6.75835792,12.68969 L6.36396539,11.1198857 L6.36396539,11.1198857 Z M25.0136469,71.5183443 L28.1803024,70.7362964 L28.5737353,72.3061007 L25.4089991,73.0881486 L25.0136469,71.5183443 Z M12.7884376,9.5320049 L15.9550931,8.74900549 L16.348526,10.3188098 L13.1828301,11.1018092 L12.7893972,9.5320049 L12.7884376,9.5320049 Z M31.4390787,69.9304635 L34.6047745,69.1474642 L34.9982076,70.7172685 L31.8334713,71.4993164 L31.4390787,69.9295121 L31.4390787,69.9304635 Z M19.2138694,7.94412407 L22.3786057,7.16112466 L22.7729982,8.73092896 L19.6073024,9.51297698 L19.2138694,7.94317268 L19.2138694,7.94412407 Z M37.7704705,68.3654162 L40.9361663,67.5824168 L41.3295993,69.1522211 L38.164863,69.9342691 L37.7704705,68.3644648 L37.7704705,68.3654162 Z M25.6373821,6.35624316 L28.8040375,5.57324383 L29.1974705,7.14304813 L26.0317746,7.92509607 L25.6383417,6.35529177 L25.6373821,6.35624316 Z M44.1949426,66.7775353 L47.3606385,65.994536 L47.7540715,67.5643403 L44.5893352,68.3463882 L44.1949426,66.7765839 L44.1949426,66.7775353 Z M31.9697334,4.7902445 L35.1344697,4.00819649 L35.5288622,5.57800079 L32.3631663,6.36004881 L31.9697334,4.7902445 Z M50.6194149,65.1887031 L53.7851107,64.4066552 L54.1785437,65.9764595 L51.0138074,66.7585074 L50.6194149,65.1887031 Z M38.3942056,3.20236359 L41.5589419,2.42031566 L41.9533344,3.99011996 L38.7876386,4.7721679 L38.3942056,3.20236359 L38.3942056,3.20236359 Z M57.0438871,63.6008223 L60.209583,62.8187743 L60.6030159,64.3876272 L57.4382796,65.1706266 L57.0438871,63.6008223 L57.0438871,63.6008223 Z M44.8186779,1.61448276 L47.9834141,0.831483435 L48.3787663,2.40128774 L45.2121108,3.18333568 L44.8186779,1.61353137 L44.8186779,1.61448276 Z M63.3752788,62.0357749 L66.5409747,61.2527756 L66.9344076,62.8225799 L63.7696714,63.6046278 L63.3752788,62.0357749 L63.3752788,62.0357749 Z M2.40468652,15.4325663 L3.19443117,18.5721749 L1.61110344,18.9622475 L0.822318383,15.8235903 L2.40468652,15.4335177 L2.40468652,15.4325663 Z M3.98321623,21.7098808 L4.77296096,24.8494894 L3.18963323,25.2395619 L2.40084809,22.1009047 L3.98417582,21.7108321 L3.98321623,21.7098808 Z M5.56174602,27.9871952 L6.35149074,31.1268038 L4.76816294,31.5168764 L3.97937788,28.3782192 L5.5627056,27.9881466 L5.56174602,27.9871952 Z M7.1402758,34.2645096 L7.93002045,37.4041182 L6.34669272,37.7941908 L5.55790766,34.6555336 L7.14123539,34.265461 L7.1402758,34.2645096 Z M8.71880559,40.541824 L9.50855024,43.6814327 L7.92522251,44.0715052 L7.13643745,40.932848 L8.71976518,40.5427754 L8.71880559,40.541824 Z M10.2973353,46.8191385 L11.08708,49.9587471 L9.5037523,50.3488197 L8.71496716,47.2101624 L10.2982949,46.8200899 L10.2973353,46.8191385 Z M11.8758651,53.0964529 L12.6656098,56.2360615 L11.0822821,56.6261342 L10.2934969,53.4874769 L11.8768247,53.0974043 L11.8758651,53.0964529 Z M15.0329247,65.6510819 L15.8226693,68.7906905 L14.2393416,69.180763 L13.4505565,66.0421058 L15.0338842,65.6520332 L15.0329247,65.6510819 Z M13.4553545,59.3737673 L14.2441395,62.513376 L12.6608118,62.9034486 L11.8720267,59.7647914 L13.4553545,59.3747187 L13.4553545,59.3737673 Z M16.612414,71.9283963 L17.4011991,75.0680049 L15.8178714,75.4580775 L15.0290862,72.3194203 L16.612414,71.9293477 L16.612414,71.9283963 Z M51.2421904,0.0266019348 L52.0319352,3.16525915 L50.4486074,3.55533173 L49.6598223,0.417625903 L51.24315,0.0266019348 L51.2421904,0.0266019348 Z M52.8207202,6.30391637 L53.6104649,9.44257358 L52.0271371,9.83264616 L51.2383521,6.69494034 L52.8216798,6.30391637 L52.8207202,6.30391637 Z M54.39925,12.5812308 L55.1889946,15.719888 L53.6056669,16.1099606 L52.8168819,12.9722548 L54.4002096,12.5812308 L54.39925,12.5812308 Z M55.9777798,18.8585452 L56.7675244,21.9972024 L55.1841967,22.3882265 L54.3954117,19.2495693 L55.9787394,18.8585452 L55.9777798,18.8585452 Z M57.5572691,25.1358597 L58.3460542,28.274517 L56.7627265,28.6655409 L55.9739414,25.5268837 L57.5572691,25.1358597 Z M59.1357989,31.4131742 L59.924584,34.5518314 L58.3412563,34.9428554 L57.5524711,31.8041981 L59.1357989,31.4131742 Z M60.7143287,37.6904886 L61.5031137,40.8291458 L59.919786,41.2201698 L59.1310009,38.0815126 L60.7143287,37.6904886 L60.7143287,37.6904886 Z M63.8713882,50.2451175 L64.6601733,53.3837747 L63.0768456,53.7747987 L62.2880604,50.6361414 L63.8713882,50.2451175 Z M62.2928584,43.967803 L63.0816435,47.1064603 L61.4983158,47.4974842 L60.7095307,44.358827 L62.2928584,43.967803 Z M65.4499179,56.5224319 L66.2387031,59.6610891 L64.6553754,60.0521131 L63.8665902,56.9134559 L65.4499179,56.5224319 Z" id="Shape" fill="#BBBBBB"></path>
            <polygon id="Shape" fill="#F8F8F8" points="76.2021526 75.5113557 24.9915763 62.8520731 40.7778336 0.0789287266 91.9874503 12.7382113"></polygon>
            <path d="M91.9874503,12.7382113 L88.8217545,11.9552119 L88.4283215,13.5250162 L91.5930578,14.3070642 L91.9874503,12.7372599 L91.9874503,12.7382113 Z M73.3377689,73.1366699 L70.172073,72.3536705 L69.7776805,73.9234748 L72.9433763,74.7055228 L73.3377689,73.1357185 L73.3377689,73.1366699 Z M85.5629781,11.1503304 L82.3972822,10.367331 L82.0038493,11.9371353 L85.1685856,12.7191833 L85.5629781,11.149379 L85.5629781,11.1503304 Z M66.9132966,71.548789 L63.7466412,70.7657897 L63.3532082,72.335594 L66.5189041,73.1176419 L66.912337,71.5478376 L66.9132966,71.548789 Z M79.1385059,9.5614982 L75.97281,8.77945019 L75.5793771,10.3492545 L78.7441133,11.1313025 L79.1385059,9.5614982 Z M60.5819049,69.9827903 L57.4152494,69.2007423 L57.0218165,70.7705467 L60.1875124,71.5525946 L60.5809453,69.9827903 L60.5819049,69.9827903 Z M72.7140337,7.9736173 L69.5483378,7.19156936 L69.1539452,8.76137366 L72.3196411,9.5434216 L72.7140337,7.9736173 Z M54.1574327,68.3949095 L50.9907772,67.6128615 L50.5973443,69.1826658 L53.7630401,69.9647138 L54.1564731,68.3949095 L54.1574327,68.3949095 Z M66.3826419,6.40857003 L63.216946,5.62557062 L62.8225535,7.19537493 L65.9882494,7.97837433 L66.3826419,6.40857003 Z M47.7329604,66.8070286 L44.566305,66.0240293 L44.172872,67.5938336 L47.3385679,68.3758815 L47.7320008,66.8060772 L47.7329604,66.8070286 Z M59.9581697,4.82068912 L56.7924739,4.03768979 L56.3980813,5.6074941 L59.5637771,6.38954203 L59.9581697,4.81973773 L59.9581697,4.82068912 Z M41.3084882,65.2191478 L38.1418327,64.4361484 L37.7483998,66.0059527 L40.9140957,66.7880007 L41.3075286,65.2181964 L41.3084882,65.2191478 Z M53.5336975,3.23280829 L50.3680016,2.44980896 L49.9736091,4.01961327 L53.139305,4.8016612 L53.5336975,3.2318569 L53.5336975,3.23280829 Z M34.9770965,63.6541005 L31.810441,62.8711011 L31.4170081,64.4409054 L34.5827039,65.2229534 L34.9761369,63.6531491 L34.9770965,63.6541005 Z M47.1092253,1.64397607 L43.9435294,0.861928134 L43.5491369,2.43173244 L46.7148328,3.21378038 L47.1092253,1.64397607 Z M28.5526242,62.0652682 L25.3859688,61.2832202 L24.9925358,62.8530246 L28.1572721,63.6350725 L28.5526242,62.0652682 Z M89.6153375,15.4848931 L88.8265524,18.6245017 L90.4098801,19.0145743 L91.1986653,15.8768685 L89.6153375,15.4858445 L89.6153375,15.4848931 Z M88.0368078,21.7631589 L87.2480227,24.9018162 L88.8313504,25.2918887 L89.6201355,22.1541829 L88.0368078,21.7631589 Z M86.458278,28.0404734 L85.6694929,31.1791306 L87.2528206,31.5692032 L88.0416057,28.4314973 L86.458278,28.0404734 Z M84.8797482,34.3177878 L84.0909631,37.456445 L85.6742908,37.8465176 L86.4630759,34.7088118 L84.8797482,34.3177878 Z M83.3012185,40.5951022 L82.5124333,43.7337594 L84.0957611,44.1238321 L84.8845462,40.9861263 L83.3012185,40.5951022 L83.3012185,40.5951022 Z M81.7226887,46.8724167 L80.9339035,50.011074 L82.5162717,50.4020979 L83.3060164,47.2624893 L81.7226887,46.8724167 L81.7226887,46.8724167 Z M80.1441589,53.1497312 L79.3544142,56.2883884 L80.937742,56.6794124 L81.726527,53.5407551 L80.1441589,53.1497312 Z M76.9870994,65.70436 L76.1973547,68.8430173 L77.7806824,69.2340412 L78.5694675,66.095384 L76.9861397,65.70436 L76.9870994,65.70436 Z M78.5656291,59.4270456 L77.7758845,62.5657028 L79.3592122,62.9567268 L80.1479972,59.8180696 L78.5646695,59.4270456 L78.5656291,59.4270456 Z M75.4085696,71.9816745 L74.6188249,75.1203317 L76.2021526,75.5113557 L76.9909378,72.3726984 L75.40761,71.9816745 L75.4085696,71.9816745 Z M40.7778336,0.0789287266 L39.9890485,3.21853733 L41.5723762,3.60860999 L42.3611613,0.469952695 L40.7778336,0.0798801185 L40.7778336,0.0789287266 Z M39.1993038,6.35624316 L38.4105187,9.49585185 L39.9938464,9.88592442 L40.7826315,6.74726721 L39.1993038,6.35719455 L39.1993038,6.35624316 Z M37.620774,12.6335577 L36.8310293,15.7731663 L38.4143571,16.1632389 L39.2041017,13.0245816 L37.620774,12.6345091 L37.620774,12.6335577 Z M36.0422443,18.9108721 L35.2524995,22.0504807 L36.8358273,22.4405533 L37.6246124,19.3018961 L36.0422443,18.9118235 L36.0422443,18.9108721 Z M34.4637145,25.1881865 L33.6739698,28.3277951 L35.2572975,28.7178677 L36.0460826,25.5792105 L34.4627549,25.1891379 L34.4637145,25.1881865 Z M32.8851847,31.465501 L32.09544,34.6051096 L33.6787678,34.9951822 L34.4675528,31.8574763 L32.8842251,31.465501 L32.8851847,31.465501 Z M31.3066549,37.7428154 L30.5169103,40.882424 L32.100238,41.2724966 L32.889023,38.1347908 L31.3056953,37.7428154 L31.3066549,37.7428154 Z M28.1495954,50.2974443 L27.3598507,53.4370529 L28.9431784,53.8271254 L29.7319636,50.6894196 L28.1486358,50.2974443 L28.1495954,50.2974443 Z M29.7281252,44.0201298 L28.9383805,47.1597384 L30.5217082,47.549811 L31.3104933,44.4121052 L29.7271655,44.0201298 L29.7281252,44.0201298 Z M26.5710656,56.5747587 L25.781321,59.7143673 L27.3646487,60.10444 L28.1534338,56.9667341 L26.570106,56.5747587 L26.5710656,56.5747587 Z" id="Shape" fill="#BBBBBB"></path>
            <polygon id="Shape" fill="#FFFFFF" points="15.0837831 0.0808315104 76.4977072 0.0808315104 76.4977072 76.1925556 15.0837831 76.1925556"></polygon>
            <path d="M15.0837831,0.0808315104 L18.9221533,0.0808315104 L18.9221533,1.98362464 L15.0837831,1.98362464 L15.0837831,0.0808315104 Z M18.9221533,74.2897625 L22.7605235,74.2897625 L22.7605235,76.1925556 L18.9221533,76.1925556 L18.9221533,74.2897625 L18.9221533,74.2897625 Z M22.7605235,0.0808315104 L26.5988938,0.0808315104 L26.5988938,1.98362464 L22.7605235,1.98362464 L22.7605235,0.0808315104 Z M26.5988938,74.2897625 L30.4372641,74.2897625 L30.4372641,76.1925556 L26.5988938,76.1925556 L26.5988938,74.2897625 Z M30.4372641,0.0808315104 L34.2756343,0.0808315104 L34.2756343,1.98362464 L30.4372641,1.98362464 L30.4372641,0.0808315104 Z M34.2756343,74.2897625 L38.1140046,74.2897625 L38.1140046,76.1925556 L34.2756343,76.1925556 L34.2756343,74.2897625 Z M38.1140046,0.0808315104 L41.9523749,0.0808315104 L41.9523749,1.98362464 L38.1140046,1.98362464 L38.1140046,0.0808315104 Z M41.9523749,74.2897625 L45.7907451,74.2897625 L45.7907451,76.1925556 L41.9523749,76.1925556 L41.9523749,74.2897625 Z M45.7907451,0.0808315104 L49.6291153,0.0808315104 L49.6291153,1.98362464 L45.7907451,1.98362464 L45.7907451,0.0808315104 Z M49.6291153,74.2897625 L53.4674856,74.2897625 L53.4674856,76.1925556 L49.6291153,76.1925556 L49.6291153,74.2897625 Z M53.4674856,0.0808315104 L57.3058559,0.0808315104 L57.3058559,1.98362464 L53.4674856,1.98362464 L53.4674856,0.0808315104 Z M57.3058559,74.2897625 L61.1442261,74.2897625 L61.1442261,76.1925556 L57.3058559,76.1925556 L57.3058559,74.2897625 Z M61.1442261,0.0808315104 L64.9825964,0.0808315104 L64.9825964,1.98362464 L61.1442261,1.98362464 L61.1442261,0.0808315104 Z M64.9825964,74.2897625 L68.8209666,74.2897625 L68.8209666,76.1925556 L64.9825964,76.1925556 L64.9825964,74.2897625 Z M68.8209666,0.0808315104 L72.6593369,0.0808315104 L72.6593369,1.98362464 L68.8209666,1.98362464 L68.8209666,0.0808315104 Z M72.6593369,74.2897625 L76.4977072,74.2897625 L76.4977072,76.1925556 L72.6593369,76.1925556 L72.6593369,74.2897625 Z M17.0029681,3.88641777 L17.0029681,7.69200395 L15.0837831,7.69200395 L15.0837831,3.88641777 L17.0029681,3.88641777 Z M17.0029681,11.4975901 L17.0029681,15.3031764 L15.0837831,15.3031764 L15.0837831,11.4975901 L17.0029681,11.4975901 Z M17.0029681,19.1087626 L17.0029681,22.9143487 L15.0837831,22.9143487 L15.0837831,19.1087626 L17.0029681,19.1087626 L17.0029681,19.1087626 Z M17.0029681,26.7199349 L17.0029681,30.5255212 L15.0837831,30.5255212 L15.0837831,26.7199349 L17.0029681,26.7199349 Z M17.0029681,34.3311074 L17.0029681,38.1366935 L15.0837831,38.1366935 L15.0837831,34.3311074 L17.0029681,34.3311074 Z M17.0029681,41.9422798 L17.0029681,45.747866 L15.0837831,45.747866 L15.0837831,41.9422798 L17.0029681,41.9422798 Z M17.0029681,49.5534522 L17.0029681,53.3590384 L15.0837831,53.3590384 L15.0837831,49.5534522 L17.0029681,49.5534522 Z M17.0029681,64.775797 L17.0029681,68.5813832 L15.0837831,68.5813832 L15.0837831,64.775797 L17.0029681,64.775797 Z M17.0029681,57.1646246 L17.0029681,60.9702108 L15.0837831,60.9702108 L15.0837831,57.1646246 L17.0029681,57.1646246 Z M17.0029681,72.3869694 L17.0029681,76.1925556 L15.0837831,76.1925556 L15.0837831,72.3869694 L17.0029681,72.3869694 Z M76.4977072,0.0808315104 L76.4977072,3.88641777 L74.578522,3.88641777 L74.578522,0.0808315104 L76.4977072,0.0808315104 Z M76.4977072,7.69200395 L76.4977072,11.4975901 L74.578522,11.4975901 L74.578522,7.69200395 L76.4977072,7.69200395 L76.4977072,7.69200395 Z M76.4977072,15.3031764 L76.4977072,19.1087626 L74.578522,19.1087626 L74.578522,15.3031764 L76.4977072,15.3031764 Z M76.4977072,22.9143487 L76.4977072,26.7199349 L74.578522,26.7199349 L74.578522,22.9143487 L76.4977072,22.9143487 Z M76.4977072,30.5255212 L76.4977072,34.3311074 L74.578522,34.3311074 L74.578522,30.5255212 L76.4977072,30.5255212 Z M76.4977072,38.1366935 L76.4977072,41.9422798 L74.578522,41.9422798 L74.578522,38.1366935 L76.4977072,38.1366935 L76.4977072,38.1366935 Z M76.4977072,45.747866 L76.4977072,49.5534522 L74.578522,49.5534522 L74.578522,45.747866 L76.4977072,45.747866 Z M76.4977072,60.9702108 L76.4977072,64.775797 L74.578522,64.775797 L74.578522,60.9702108 L76.4977072,60.9702108 Z M76.4977072,53.3590384 L76.4977072,57.1646246 L74.578522,57.1646246 L74.578522,53.3590384 L76.4977072,53.3590384 Z M76.4977072,68.5813832 L76.4977072,72.3869694 L74.578522,72.3869694 L74.578522,68.5813832 L76.4977072,68.5813832 Z" id="Shape" fill="#BBBBBB"></path>
            <polygon id="Shape" fill="#EEEEEE" points="40.0331897 13.4003833 51.5483005 13.4003833 49.6291153 47.6506591 41.9523749 47.6506591"></polygon>
            <path d="M40.0331897,57.1646246 C40.0331896,59.2040321 41.1305735,61.0885224 42.9119673,62.1082262 C44.6933612,63.12793 46.888129,63.12793 48.6695228,62.1082262 C50.4509167,61.0885224 51.5483005,59.2040321 51.5483005,57.1646246 C51.5483005,54.0119738 48.9705551,51.4562453 45.7907451,51.4562453 C42.610935,51.4562453 40.0331897,54.0119738 40.0331897,57.1646246 L40.0331897,57.1646246 Z" id="Shape" fill="#EEEEEE"></path>
            <path d="M43.7756007,45.747866 L47.8058895,45.747866 L49.5331561,15.3031764 L42.0483341,15.3031764 L43.7756007,45.747866 Z M40.0331897,13.4003833 L51.5483005,13.4003833 L49.6291153,47.6506591 L41.9523749,47.6506591 L40.0331897,13.4003833 Z M45.7907451,60.9702108 C47.9018487,60.9702108 49.6291153,59.257697 49.6291153,57.1646246 C49.6291153,55.0715522 47.9018487,53.3590384 45.7907451,53.3590384 C43.6796415,53.3590384 41.9523749,55.0715522 41.9523749,57.1646246 C41.9523749,59.257697 43.6796415,60.9702108 45.7907451,60.9702108 Z M45.7907451,62.8730039 C42.6240896,62.8730039 40.0331897,60.3042332 40.0331897,57.1646246 C40.0331897,54.025016 42.6240896,51.4562453 45.7907451,51.4562453 C48.9574005,51.4562453 51.5483005,54.025016 51.5483005,57.1646246 C51.5483005,60.3042332 49.0533598,62.8730039 45.7907451,62.8730039 L45.7907451,62.8730039 Z" id="Shape" fill="#BBBBBB"></path>
        </g>
    </g>
</svg>