<?xml version="1.0" encoding="UTF-8"?>
<svg width="38px" height="34px" viewBox="0 0 38 34" version="1.1" xmlns="http://www.w3.org/2000/svg" xmlns:xlink="http://www.w3.org/1999/xlink">
    <!-- Generator: Sketch 46.2 (44496) - http://www.bohemiancoding.com/sketch -->
    <title>Shape@2x</title>
    <desc>Created with Sketch.</desc>
    <defs></defs>
    <g id="管理后台" stroke="none" stroke-width="1" fill="none" fill-rule="evenodd">
        <g id="管理后台-作品管理-发布作品" transform="translate(-749.000000, -278.000000)" fill-rule="nonzero" fill="#202020">
            <g id="Group" transform="translate(552.000000, 277.000000)">
                <path d="M231.2,35 L200.8,35 C198.701213,35 197,33.3087361 197,31.2222222 L197,8.55555557 C197,6.46904167 198.701213,4.77777781 200.8,4.77777781 L231.2,4.77777781 C233.298787,4.77777781 235,6.46904167 235,8.55555557 L235,31.2222222 C235,33.3087361 233.298787,35 231.2,35 Z M216,10.4444445 C210.753387,10.4444445 206.5,14.6729583 206.5,19.8888889 C206.5,25.1048195 210.753387,29.3333333 216,29.3333333 C221.246613,29.3333333 225.5,25.1048195 225.5,19.8888889 C225.5,14.6729583 221.246613,10.4444445 216,10.4444445 Z M216,25.5555556 C212.851938,25.5555556 210.3,23.0185417 210.3,19.8888889 C210.3,16.7592361 212.851938,14.2222222 216,14.2222222 C219.148062,14.2222222 221.7,16.7592361 221.7,19.8888889 C221.7,23.0185417 219.148062,25.5555556 216,25.5555556 Z M210.3,1 L221.7,1 L225.5,4.77777781 L206.5,4.77777781 L210.3,1 Z" id="Shape"></path>
            </g>
        </g>
    </g>
</svg>