<?xml version="1.0" encoding="UTF-8"?>
<svg width="32px" height="28px" viewBox="0 0 32 28" version="1.1" xmlns="http://www.w3.org/2000/svg" xmlns:xlink="http://www.w3.org/1999/xlink">
    <!-- Generator: Sketch 46.2 (44496) - http://www.bohemiancoding.com/sketch -->
    <title>Shape@2x</title>
    <desc>Created with Sketch.</desc>
    <defs></defs>
    <g id="星球" stroke="none" stroke-width="1" fill="none" fill-rule="evenodd">
        <g id="星球主页-发布作品入口" transform="translate(-845.000000, -814.000000)" fill-rule="nonzero" fill="#202020">
            <g id="Group-3" transform="translate(699.000000, 814.000000)">
                <path d="M174.8,28 L149.2,28 C147.4326,28 146,26.6071945 146,24.8888889 L146,6.22222223 C146,4.50391667 147.4326,3.11111114 149.2,3.11111114 L174.8,3.11111114 C176.5674,3.11111114 178,4.50391667 178,6.22222223 L178,24.8888889 C178,26.6071945 176.5674,28 174.8,28 Z M162,7.7777778 C157.5818,7.7777778 154,11.2600833 154,15.5555556 C154,19.8510278 157.5818,23.3333333 162,23.3333333 C166.4182,23.3333333 170,19.8510278 170,15.5555556 C170,11.2600833 166.4182,7.7777778 162,7.7777778 Z M162,20.2222222 C159.349,20.2222222 157.2,18.1329167 157.2,15.5555556 C157.2,12.9781945 159.349,10.8888889 162,10.8888889 C164.651,10.8888889 166.8,12.9781945 166.8,15.5555556 C166.8,18.1329167 164.651,20.2222222 162,20.2222222 Z M157.2,0 L166.8,0 L170,3.11111114 L154,3.11111114 L157.2,0 Z" id="Shape"></path>
            </g>
        </g>
    </g>
</svg>