<?xml version="1.0" encoding="UTF-8"?>
<svg width="18px" height="18px" viewBox="0 0 18 18" version="1.1" xmlns="http://www.w3.org/2000/svg" xmlns:xlink="http://www.w3.org/1999/xlink">
    <!-- Generator: Sketch 46.2 (44496) - http://www.bohemiancoding.com/sketch -->
    <title>Group 11@2x</title>
    <desc>Created with Sketch.</desc>
    <defs></defs>
    <g id="星球" stroke="none" stroke-width="1" fill="none" fill-rule="evenodd">
        <g id="星球主页-已加入" transform="translate(-1189.000000, -670.000000)">
            <g id="Group-11" transform="translate(1189.000000, 670.000000)">
                <circle id="Oval-3" fill="#5075FC" cx="9" cy="9" r="9"></circle>
                <path d="M12.5808929,5.45207007 L12.5477616,5.41898612 C11.7840231,4.65520976 10.5345539,4.65520976 9.77078701,5.41898612 L8.00145018,7.18883516 C7.2376833,7.95257359 7.2376833,9.20204283 8.00145018,9.96633138 L8.03405988,9.99837197 C8.0976668,10.0619884 8.16547562,10.1192972 8.23485896,10.1728974 L8.88245262,9.52480103 C8.80674274,9.48064799 8.73527268,9.42649769 8.67062239,9.3618474 L8.6380127,9.32975938 C8.22325872,8.91505283 8.22325872,8.2401137 8.6380127,7.82535973 L10.4083834,6.05602288 C10.8220561,5.64132582 11.4964925,5.64132582 11.9112275,6.05602288 L11.9443115,6.08863258 C12.3590654,6.50339604 12.3590654,7.17828775 11.9443115,7.59252953 L11.1442831,8.39307006 C11.2830308,8.73632552 11.3487719,9.10219341 11.3424833,9.46644884 L12.5803618,8.22909205 C13.3446598,7.46530619 13.3446598,6.21584644 12.5808929,5.45207007 L12.5808929,5.45207007 L12.5808929,5.45207007 Z M9.9658097,8.00197187 C9.90220277,7.93837443 9.83439396,7.88110353 9.76447945,7.82800607 L9.11740747,8.47559973 C9.19308891,8.52027444 9.26458742,8.5738841 9.3292377,8.63854387 L9.36235959,8.67167525 C9.77707563,9.0858696 9.77707563,9.76080874 9.36235959,10.1755532 L7.59251056,11.9448331 C7.17775659,12.3590749 6.50337707,12.3590749 6.08862309,11.9448331 L6.0555012,11.9117587 C5.64078517,11.4970047 5.64078517,10.8220656 6.0555012,10.4084024 L6.85607967,9.60784287 C6.71728453,9.26460638 6.65107869,8.89821681 6.65737678,8.53396139 L5.41898612,9.77078703 C4.65520976,10.5350851 4.65520976,11.7850665 5.41898612,12.5483117 L5.45207007,12.5814051 C6.21583695,13.3446598 7.46530619,13.3446598 8.22908256,12.5814051 L9.99837197,10.8115656 C10.761105,10.0478272 10.761105,8.79783625 9.99837197,8.03458156 L9.9658097,8.00197187 L9.9658097,8.00197187 L9.9658097,8.00197187 Z" id="Shape" fill="#FFFFFF" fill-rule="nonzero"></path>
            </g>
        </g>
    </g>
</svg>