<?xml version="1.0" encoding="UTF-8"?>
<svg width="26px" height="30px" viewBox="0 0 26 30" version="1.1" xmlns="http://www.w3.org/2000/svg" xmlns:xlink="http://www.w3.org/1999/xlink">
    <!-- Generator: Sketch 46.2 (44496) - http://www.bohemiancoding.com/sketch -->
    <title>Shape@2x</title>
    <desc>Created with Sketch.</desc>
    <defs></defs>
    <g id="星球" stroke="none" stroke-width="1" fill="none" fill-rule="evenodd">
        <g id="星球主页-未加入-copy" transform="translate(-912.000000, -3508.000000)" fill-rule="nonzero" fill="#CECECE">
            <g id="Group-19" transform="translate(236.000000, 661.000000)">
                <g id="Group-18" transform="translate(410.000000, 0.000000)">
                    <g id="Group-17" transform="translate(0.000000, 2745.000000)">
                        <path d="M267.516667,132 L290.483333,132 C291.316146,132 292,131.337054 292,130.520089 L292,116.330357 C292,115.513393 291.322917,114.857143 290.483333,114.857143 L289.020833,114.857143 L289.020833,112.787946 C289.020833,110.008929 287.923958,106.921875 286.136458,105.060268 C284.355729,103.198661 281.803125,102 279.006771,102 C279,102 279,102 279,102 C279,102 278.993229,102 278.993229,102 C276.196875,102 273.644271,103.198661 271.863542,105.053571 C270.076042,106.915179 268.979167,110.002232 268.979167,112.78125 L268.979167,114.857143 L267.692708,114.857143 L267.516667,114.857143 C266.677083,114.857143 266,115.520089 266,116.330357 L266,130.520089 C266,131.337054 266.677083,132 267.516667,132 Z M272.567708,112.787946 C272.567708,110.959821 273.238021,108.696429 274.470312,107.410714 L274.470312,107.410714 L274.470312,107.390625 C275.661979,106.145089 277.307292,105.415179 278.993229,105.415179 L279,105.415179 L279.006771,105.415179 C280.692708,105.415179 282.338021,106.145089 283.529688,107.390625 L283.529688,107.404018 L283.522917,107.410714 C284.761979,108.696429 285.425521,110.959821 285.425521,112.787946 L285.425521,114.857143 L284.240625,114.857143 L273.745833,114.857143 L272.567708,114.857143 L272.567708,112.787946 Z" id="Shape"></path>
                    </g>
                </g>
            </g>
        </g>
    </g>
</svg>