<?xml version="1.0" encoding="UTF-8"?>
<svg width="145px" height="33px" viewBox="0 0 145 33" version="1.1" xmlns="http://www.w3.org/2000/svg" xmlns:xlink="http://www.w3.org/1999/xlink">
    <!-- Generator: Sketch 52.5 (67469) - http://www.bohemiancoding.com/sketch -->
    <title>logo</title>
    <desc>Created with Sketch.</desc>
    <g id="首页" stroke="none" stroke-width="1" fill="none" fill-rule="evenodd">
        <g transform="translate(-927.000000, -139.000000)" fill="#FFFFFF" id="logo">
            <path d="M950.366217,171.83153 L948.839715,168.292027 L953.746328,168.292027 L953.746328,140.048235 L960.179443,140.048235 L960.179443,171.83153 L950.366217,171.83153 Z M948.367227,165.294284 L948.367227,153.483901 L946.87707,153.483901 L946.87707,165.836045 L938.226893,165.836045 L936.409629,162.332659 L940.734718,162.332659 L940.734718,155.578709 L935.500997,155.578709 L935.500997,168.328144 L948.149155,168.328144 L946.549963,171.83153 L929.104228,171.83153 L929.104228,153.483901 L927.396,153.483901 L931.648398,140.409409 L944.332901,140.409409 L948.367227,152.147558 L948.367227,142.757038 L952.437898,142.757038 L952.437898,165.294284 L948.367227,165.294284 Z M938.808418,143.985029 L937.245571,143.985029 L934.737747,151.858619 L941.388933,151.858619 L938.808418,143.985029 Z M988.019927,148.210763 L988.019927,152.978257 L996.524723,152.978257 L996.524723,156.553878 L988.019927,156.553878 L988.019927,161.285255 L996.488378,161.285255 L996.488378,164.860876 L988.019927,164.860876 L988.019927,171.976 L981.150669,171.976 L981.150669,149.944397 L979.805894,153.556135 L973.808923,153.556135 L973.808923,171.976 L967.012355,171.976 L967.012355,154.350718 L964.722603,154.350718 L969.810942,140.156587 L977.152689,140.156587 L972.609529,152.617084 L974.06334,152.617084 L978.6065,140.156587 L984.748852,140.156587 L983.076969,144.635142 L997.287974,144.635142 L997.287974,148.210763 L988.019927,148.210763 Z M1003.57571,153.77284 L1003.57571,140.409409 L1032.39751,140.409409 L1032.39751,153.77284 L1003.57571,153.77284 Z M1002.19459,171.795413 L1002.19459,168.617084 L1014.47929,168.617084 L1014.47929,166.124984 L1003.86647,166.124984 L1003.86647,162.946655 L1014.47929,162.946655 L1014.47929,160.129499 L1009.13654,160.129499 L1008.59136,161.899251 L1001.86748,161.899251 L1003.97551,154.928596 L1010.73573,154.928596 L1010.11786,156.951169 L1014.47929,156.951169 L1014.47929,154.711892 L1021.53028,154.711892 L1021.53028,156.951169 L1033.23346,156.951169 L1033.23346,160.129499 L1021.53028,160.129499 L1021.53028,162.946655 L1032.1431,162.946655 L1032.1431,166.124984 L1021.53028,166.124984 L1021.53028,168.617084 L1033.92402,168.617084 L1033.92402,171.795413 L1002.19459,171.795413 Z M1025.31018,143.659973 L1010.59035,143.659973 L1010.59035,145.465842 L1025.31018,145.465842 L1025.31018,143.659973 Z M1025.31018,148.644172 L1010.59035,148.644172 L1010.59035,150.486158 L1025.31018,150.486158 L1025.31018,148.644172 Z M1069.8695,157.023404 L1064.27233,157.023404 L1065.39903,149.619341 L1070.9962,149.619341 L1069.8695,157.023404 Z M1063.79984,148.355233 L1063.83618,171.903765 L1055.22235,171.903765 L1054.64083,170.3146 L1049.66152,170.3146 L1051.22437,158.504217 L1056.7852,158.504217 L1055.51311,168.508731 L1057.29403,168.508731 L1057.29403,148.355233 L1049.55249,148.355233 L1049.55249,144.887964 L1057.29403,144.887964 L1057.29403,139.976 L1063.76349,139.976 L1063.76349,144.887964 L1065.10827,144.887964 L1064.63578,140.878935 L1069.54239,140.878935 L1070.05122,144.887964 L1071.396,144.887964 L1071.396,148.355233 L1063.79984,148.355233 Z M1065.76248,170.3146 L1064.27233,158.504217 L1069.83315,158.504217 L1071.28696,170.3146 L1065.76248,170.3146 Z M1051.18802,157.023404 L1049.98863,149.619341 L1055.54946,149.619341 L1056.67616,157.023404 L1051.18802,157.023404 Z M1047.48081,144.237851 L1047.48081,153.736722 L1049.37076,153.736722 L1049.37076,157.059521 L1047.48081,157.059521 L1047.48081,166.811214 L1049.33441,166.522275 L1049.33441,169.989544 L1038.61256,171.83153 L1038.61256,168.364262 L1040.975,167.930853 L1040.975,157.059521 L1038.97601,157.059521 L1038.97601,153.736722 L1040.975,153.736722 L1040.975,144.237851 L1038.50352,144.237851 L1038.50352,140.770582 L1049.69787,140.770582 L1049.69787,144.237851 L1047.48081,144.237851 Z"></path>
        </g>
    </g>
</svg>