<?xml version="1.0" encoding="UTF-8"?>
<svg width="18px" height="18px" viewBox="0 0 18 18" version="1.1" xmlns="http://www.w3.org/2000/svg" xmlns:xlink="http://www.w3.org/1999/xlink">
    <!-- Generator: Sketch 46.2 (44496) - http://www.bohemiancoding.com/sketch -->
    <title>朋友圈@2x</title>
    <desc>Created with Sketch.</desc>
    <defs></defs>
    <g id="星球" stroke="none" stroke-width="1" fill="none" fill-rule="evenodd">
        <g id="星球主页-已加入" transform="translate(-1112.000000, -670.000000)" fill-rule="nonzero">
            <g id="朋友圈" transform="translate(1112.000000, 670.000000)">
                <path d="M9.0129469,0.182690118 C8.67586478,0.182690118 8.34525614,0.203035268 8.01973375,0.241413652 C7.23659899,0.330449041 6.46914009,0.525191339 5.7383028,0.820325566 C5.7383028,0.820325566 11.6652144,6.68620175 11.8242765,6.9044497 L11.8242765,0.648778989 C10.9190454,0.340384189 9.96926829,0.182921133 9.0129469,0.182690118 L9.0129469,0.182690118 Z" id="Shape" fill="#FA5452"></path>
                <path d="M15.2048079,2.73091996 C14.9696133,2.49683645 14.7213766,2.27623303 14.4612852,2.07016505 C13.844538,1.57975807 13.1643799,1.17489833 12.4392549,0.866564552 C12.4392549,0.866564552 12.4836443,9.20345149 12.4392549,9.46932557 L16.8633999,5.04564299 C16.7800115,4.87742401 16.6911859,4.71195553 16.5970634,4.5494988 C16.2145208,3.8850179 15.7464401,3.273606 15.2048079,2.73091996 L15.2048079,2.73091996 Z" id="Shape" fill="#6467F0"></path>
                <path d="M17.1468447,5.74061476 C17.1468447,5.74061476 11.2818933,11.6666016 11.063183,11.8256637 L17.3188537,11.8256637 C17.3794268,11.6467188 17.4339888,11.467774 17.4825397,11.2855925 C17.6836034,10.5454113 17.7854494,9.78180026 17.785405,9.01479646 C17.785405,8.67863913 17.7645974,8.3471057 17.7257567,8.02158331 C17.6377161,7.23841654 17.4429393,6.47097723 17.1468447,5.74061476 Z" id="Shape" fill="#5283F0"></path>
                <path d="M8.44698188,12.4841067 L12.8715892,16.9073269 C13.0394367,16.8236343 13.205897,16.7357803 13.3681958,16.6409904 C14.0334458,16.258578 14.6455049,15.7903225 15.1886242,15.2482725 C15.4258302,15.0110666 15.6436157,14.7618385 15.8484544,14.5056746 C16.3387588,13.8887715 16.7437527,13.2086493 17.0525172,12.4836443 C17.0515925,12.4836443 8.71378074,12.5271089 8.44698188,12.4841067 L8.44698188,12.4841067 Z" id="Shape" fill="#00B1FE"></path>
                <path d="M6.17664828,11.0941631 L6.17664828,17.3498338 C7.39859374,17.7661416 8.69783805,17.9054479 9.98026625,17.7576616 C10.763529,17.6679739 11.5310948,17.4729329 12.2621596,17.1778249 C12.2621596,17.1787497 6.33432317,11.3137983 6.17664828,11.0941631 L6.17664828,11.0941631 Z" id="Shape" fill="#66D020"></path>
                <path d="M5.55427168,8.48536023 L1.13151388,12.9090428 C1.21428165,13.0773527 1.30352285,13.2433506 1.39738796,13.4061118 C1.94399537,14.3624885 2.66939844,15.2048414 3.53409094,15.8872951 C4.15069077,16.3782783 4.83125718,16.7830403 5.55704602,17.0904332 C5.55658363,17.0895084 5.51126943,8.75215908 5.55427168,8.48536023 L5.55427168,8.48536023 Z" id="Shape" fill="#9AD122"></path>
                <path d="M0.515610757,6.71718188 C0.316034151,7.4580926 0.214826728,8.2220454 0.214595033,8.98936505 C0.214595033,9.32506 0.235402573,9.65705582 0.273780919,9.98165342 C0.361808059,10.7650213 0.556745428,11.5326358 0.853155263,12.2630844 C0.853155263,12.2630844 6.71718188,6.33571034 6.93635462,6.17849784 L0.679759084,6.17849784 C0.619648417,6.35420593 0.565548829,6.53546271 0.515610757,6.71718188 L0.515610757,6.71718188 Z" id="Shape" fill="#FFC817"></path>
                <path d="M4.58926432,1.39183931 C3.92413695,1.77364743 3.31234639,2.24162445 2.76976069,2.78363241 C1.97814704,3.57930223 1.34513334,4.51830916 0.904480507,5.55057256 C0.904480507,5.55057256 9.24275462,5.50618313 9.50909108,5.54918542 L5.0858709,1.1259652 C4.9180234,1.21012014 4.75202551,1.29797416 4.58926432,1.39183931 L4.58926432,1.39183931 Z" id="Shape" fill="#FF7612"></path>
            </g>
        </g>
    </g>
</svg>