<?xml version="1.0" encoding="UTF-8"?>
<svg width="5px" height="9px" viewBox="0 0 5 9" version="1.1" xmlns="http://www.w3.org/2000/svg" xmlns:xlink="http://www.w3.org/1999/xlink">
    <!-- Generator: Sketch 46.2 (44496) - http://www.bohemiancoding.com/sketch -->
    <title>Shape Copy@2x</title>
    <desc>Created with Sketch.</desc>
    <defs></defs>
    <g id="首页" stroke="none" stroke-width="1" fill="none" fill-rule="evenodd">
        <g id="Group-14-Copy" transform="translate(-84.000000, -5.000000)" fill-rule="nonzero" fill="#828282">
            <path d="M84.2155172,6.05191257 L87.4913793,9.16666667 L84.1724138,12.3224044 L84.1724138,12.3224044 C84.0574713,12.431694 84,12.568306 84,12.7322404 C84,13.0601093 84.2873563,13.3333333 84.6321839,13.3333333 C84.8045977,13.3333333 84.9482759,13.2650273 85.0632184,13.1693989 L85.0632184,13.1693989 L88.8132184,9.60382514 L88.8132184,9.60382514 C88.9281609,9.49453552 89,9.3442623 89,9.18032787 C89,9.18032787 89,9.18032787 89,9.18032787 C89,9.18032787 89,9.18032787 89,9.18032787 C89,9.01639344 88.9281609,8.86612022 88.8132184,8.7568306 L88.8132184,8.7568306 L85.0632184,5.16393443 L85.0632184,5.16393443 C84.9482759,5.05464481 84.8045977,5 84.6321839,5 C84.2873563,5 84,5.27322404 84,5.6010929 C84,5.77868852 84.0862069,5.94262295 84.2155172,6.05191257 Z" id="Shape-Copy"></path>
        </g>
    </g>
</svg>