<?xml version="1.0" encoding="UTF-8"?>
<svg width="30px" height="30px" viewBox="0 0 30 30" version="1.1" xmlns="http://www.w3.org/2000/svg" xmlns:xlink="http://www.w3.org/1999/xlink">
    <!-- Generator: Sketch 46.2 (44496) - http://www.bohemiancoding.com/sketch -->
    <title>播放@2x</title>
    <desc>Created with Sketch.</desc>
    <defs></defs>
    <g id="星球主页-绘画/文章/音乐/视频/漫画" stroke="none" stroke-width="1" fill="none" fill-rule="evenodd">
        <g id="星球详情页-音乐" transform="translate(-27.000000, -740.000000)" fill-rule="nonzero" fill="#FFFFFF">
            <g id="播放" transform="translate(27.000000, 740.000000)">
                <path d="M15.1238724,0.000512809152 C6.83996456,-0.0672651607 0.0682824462,6.59219827 0.000504514736,14.8761108 C-0.0667178653,23.1605788 6.59218621,29.9300425 14.876094,29.9994872 C23.1605574,30.0672652 29.9300173,23.4078017 29.9994619,15.1238892 C30.0689065,6.83942117 23.4083357,0.0699574656 15.1238724,0.000512809152 L15.1238724,0.000512809152 Z M14.8850267,28.9995068 C7.15342936,28.9358519 0.936268652,22.6156583 1.00049314,14.8835859 C1.06643794,7.15380745 7.38394943,0.936264737 15.1155467,1.00049317 C22.8465706,1.06414814 29.0637313,7.38434168 28.9995069,15.1164141 C28.9358558,22.8461925 22.6160505,29.0637353 14.8850267,28.9995068 L14.8850267,28.9995068 Z" id="Shape"></path>
                <path d="M12.4165981,21.8380731 L20.5759732,15.3077852 C20.8676922,15.0727408 20.8715234,14.6284029 20.5830883,14.3900712 L12.5326289,7.72828991 C12.1500556,7.40996645 11.5693542,7.68007569 11.5660703,8.17975037 L11.4571546,21.3734634 C11.4533233,21.8693028 12.0285516,22.1487262 12.4165981,21.8380731 L12.4165981,21.8380731 Z" id="Shape"></path>
            </g>
        </g>
    </g>
</svg>