<?xml version="1.0" encoding="UTF-8"?>
<svg width="26px" height="30px" viewBox="0 0 26 30" version="1.1" xmlns="http://www.w3.org/2000/svg" xmlns:xlink="http://www.w3.org/1999/xlink">
    <!-- Generator: Sketch 46.2 (44496) - http://www.bohemiancoding.com/sketch -->
    <title>Path@2x</title>
    <desc>Created with Sketch.</desc>
    <defs></defs>
    <g id="星球" stroke="none" stroke-width="1" fill="none" fill-rule="evenodd">
        <g id="星球主页-未加入-copy" transform="translate(-697.000000, -2204.000000)" fill="#FFFFFF">
            <path d="M721.618214,2220.35861 C713.797435,2219.87084 707.108889,2217.16248 702.30471,2212.62172 C703.367376,2217.59594 703.050794,2222.14072 702.339998,2225.70997 C705.838529,2222.11759 709.414693,2220.13132 709.613313,2220.0217 C710.241435,2219.67674 711.028856,2219.90403 711.374677,2220.52757 C711.721505,2221.15111 711.493647,2221.93556 710.866533,2222.27951 C710.807048,2222.31169 704.823249,2225.65063 701.110975,2231.31577 L699.795245,2233.39457 L699.785163,2233.38954 C699.755924,2233.44887 699.73576,2233.48005 699.731727,2233.48608 C699.479671,2233.82098 699.092514,2234 698.699307,2234 C698.445235,2234 698.187131,2233.92558 697.964313,2233.7717 C697.401725,2233.38451 697.238394,2232.63123 697.587238,2232.04994 C697.789891,2231.67079 704.142699,2219.36497 697.144629,2205.88349 C696.827039,2205.27202 697.048848,2204.51875 697.649748,2204.17379 C698.250649,2203.82783 699.016897,2204.01389 699.390948,2204.59418 L701.228937,2207.44334 C705.504807,2213.53591 712.81341,2217.22282 721.783562,2217.783 C722.4994,2217.82826 723.041824,2218.43973 722.997462,2219.15176 C722.948059,2219.8628 722.325986,2220.40588 721.618214,2220.35861 Z" id="Path"></path>
        </g>
    </g>
</svg>