<?xml version="1.0" encoding="UTF-8"?>
<svg width="23px" height="17px" viewBox="0 0 23 17" version="1.1" xmlns="http://www.w3.org/2000/svg" xmlns:xlink="http://www.w3.org/1999/xlink">
    <!-- Generator: Sketch 46.2 (44496) - http://www.bohemiancoding.com/sketch -->
    <title>我的星球选中@2x</title>
    <desc>Created with Sketch.</desc>
    <defs></defs>
    <g id="管理后台" stroke="none" stroke-width="1" fill="none" fill-rule="evenodd" opacity="0.2">
        <g id="管理后台-我的账号" transform="translate(-88.000000, -531.000000)" fill-rule="nonzero" fill="#202020">
            <g id="我的星球选中" transform="translate(88.000000, 531.000000)">
                <path d="M22.9620946,6.88780498 C22.8379545,6.22838753 22.2920556,5.7122721 21.3399845,5.35356069 C21.0487663,5.24375666 20.7218393,5.38813116 20.6107072,5.67569357 C20.4994369,5.96341572 20.645495,6.28575398 20.9371507,6.39562646 C21.4727813,6.59743586 21.8058323,6.85113519 21.8512107,7.09180498 C22.0452948,8.12289492 18.2924269,10.3608251 11.9699825,11.5200426 C9.10518168,12.0454224 6.35984735,12.2251204 4.24055506,12.026711 C2.20852002,11.8362882 1.21758609,11.3184385 1.13682132,10.8898788 C1.08918669,10.6363164 1.33028379,10.2617916 1.7985951,9.86241706 C2.03471922,9.66101841 2.06062012,9.30853653 1.856498,9.07571639 C1.65237588,8.8425768 1.29574925,8.81704257 1.05953304,9.01860096 C0.245369872,9.7133419 -0.10239289,10.4113231 0.025983486,11.0935137 C0.233812315,12.1980573 1.65414865,12.904801 4.13370521,13.1372104 C4.23242793,13.1465661 4.33425876,13.1537768 4.43544495,13.1613298 C5.97414265,15.4611218 8.61361712,16.9800546 11.614507,16.9800546 C15.7828714,16.9800546 19.2568153,14.0519929 20.0453308,10.1660667 C21.9837082,9.18168686 23.1796852,8.04410163 22.9620946,6.88780498 L22.9620946,6.88780498 Z" id="Shape"></path>
                <path d="M4.32441441,11.1515436 C4.85486486,11.200855 5.4364034,11.2262752 6.05282182,11.2262752 C7.78477477,11.2262752 9.77697998,11.0288698 11.8135506,10.6552805 C15.0478939,10.0625168 17.2411131,9.25562148 18.5112703,8.68341745 C19.2587127,8.34686309 19.8000531,8.03985906 20.1847678,7.78351275 C19.8206587,3.42535168 16.1249109,0 11.6163584,0 C6.86652452,0 3.01601602,3.80106309 3.01601602,8.48995973 C3.01601602,9.37567114 3.15652553,10.2282953 3.41203504,11.0304215 C3.67583283,11.0771772 3.97817117,11.1190953 4.32441441,11.1515436 Z M14.8872623,4.27733691 C15.0983834,4.05088322 15.4557467,4.03639329 15.6856086,4.24516242 C16.2952813,4.79968188 16.7755185,5.45798121 17.113036,6.20173691 C17.2803267,6.57080017 17.4091714,6.95582427 17.4975666,7.35082282 C17.5647247,7.65136913 17.3723213,7.94913154 17.0675656,8.0156255 C17.0273992,8.02438643 16.9863947,8.02881621 16.9452673,8.02883758 C16.685959,8.02883758 16.4523904,7.85148993 16.3940501,7.5909906 C16.3222349,7.2701885 16.217535,6.95749885 16.0815816,6.65779329 C15.8071471,6.05282148 15.4164234,5.51719597 14.9197938,5.06574899 C14.6904615,4.85684295 14.6757958,4.5039047 14.8872623,4.27733691 L14.8872623,4.27733691 Z M11.7817097,3.19670738 C11.8244865,2.89159732 12.1086827,2.67760268 12.4187798,2.72082148 C12.9418928,2.79209566 13.4533186,2.93104462 13.93998,3.13411544 C14.2273994,3.25423356 14.3616927,3.58163758 14.2401081,3.86536644 C14.1488909,4.07796913 13.9396116,4.20591409 13.7196496,4.20591409 C13.6460681,4.20591409 13.5715656,4.19160671 13.4996877,4.16141745 C13.1043331,3.99651218 12.6888734,3.88368564 12.2639269,3.82582148 C11.9547508,3.78342416 11.7387948,3.50188591 11.7817097,3.19670738 L11.7817097,3.19670738 Z" id="Shape"></path>
            </g>
        </g>
    </g>
</svg>