<?xml version="1.0" encoding="UTF-8"?>
<svg width="16px" height="18px" viewBox="0 0 16 18" version="1.1" xmlns="http://www.w3.org/2000/svg" xmlns:xlink="http://www.w3.org/1999/xlink">
    <!-- Generator: Sketch 46.2 (44496) - http://www.bohemiancoding.com/sketch -->
    <title>Group 17@2x</title>
    <desc>Created with Sketch.</desc>
    <defs></defs>
    <g id="星球" stroke="none" stroke-width="1" fill="none" fill-rule="evenodd">
        <g id="星球主页-已加入" transform="translate(-1152.000000, -670.000000)" fill-rule="nonzero">
            <g id="Group-17" transform="translate(1152.000000, 670.000000)">
                <path d="M7.87450324,16.4168183 C7.87450324,17.29082 6.53168792,17.9993134 4.87526026,17.9993134 C3.21883261,17.9993134 1.87601729,17.2907995 1.87601731,16.4168183 C1.87601733,15.5428371 3.21883263,14.8343232 4.87526026,14.8343232 C6.53168789,14.8343232 7.87450324,15.5428371 7.87450324,16.4168183 Z M11.1121901,14.8343232 C9.45574083,14.8343232 8.11294708,15.5428371 8.11294708,16.4168183 C8.11294708,17.2907995 9.45576241,17.9993134 11.1121901,17.9993134 C12.7686177,17.9993134 14.111433,17.2907995 14.111433,16.4168183 C14.111433,15.5428371 12.7686177,14.8343232 11.1121901,14.8343232 Z" id="Shape" fill="#FFC817"></path>
                <path d="M14.6259481,8.82678721 C14.6259481,8.82678721 14.398974,8.60532135 14.1553461,8.40046596 L14.1553461,5.87078452 C14.1553461,2.63536441 11.3994934,0.0125369799 7.99997841,0.0125369799 C4.60046341,0.0125369799 1.84463232,2.63536441 1.84463232,5.87078452 L1.84463232,8.40046596 C1.60102605,8.60532135 1.37403027,8.82678721 1.37403027,8.82678721 C0.972462227,9.40007395 0.0187300686,10.8810561 0.0187300475,12.278431 C0.0187300264,13.6758058 0.42029809,13.9146839 0.570894206,13.9266278 C0.710560654,13.9377083 1.22801338,13.8048247 1.84292591,12.9090114 C2.67513575,15.5427138 5.11407132,17.449935 7.99371436,17.449935 C10.877915,17.449935 13.3200906,15.536711 14.1485204,12.8965331 C14.7671914,13.8035912 15.2887913,13.9377494 15.4291058,13.9266278 C15.5797019,13.9146839 15.9812699,13.6758059 15.98127,12.278431 C15.98127,10.8810561 15.0275162,9.40007395 14.6259481,8.82678721 Z" id="Shape" fill="#37474F"></path>
                <path d="M3.47133817,9.83003386 C3.42234393,10.1704228 3.39784992,10.5136005 3.39802734,10.8571683 C3.39802734,14.0563044 5.49194402,16.6497141 8.07490926,16.6497141 C10.6578745,16.6497141 12.7517912,14.0563044 12.7517912,10.8571683 C12.7519578,10.5136008 12.7274639,10.1704238 12.6784803,9.83003386 L3.47133817,9.83003386 L3.47133817,9.83003386 Z M6.3811566,2.69981215 C5.69500684,2.69981215 5.13878187,3.41767971 5.13878187,4.30321418 C5.13878187,5.18874865 5.69500684,5.90661621 6.3811566,5.90661623 C7.06730636,5.90661625 7.62353134,5.18874867 7.62353131,4.30321418 C7.62353131,3.41767971 7.06728475,2.69981215 6.3811566,2.69981215 Z M6.58821545,4.96308907 C6.33871234,4.96308907 6.13644872,4.66899362 6.13644872,4.30619502 C6.13644872,3.94339643 6.33871234,3.64930098 6.58821545,3.64930098 C6.83771856,3.64930098 7.03998218,3.94339643 7.03998218,4.30619502 C7.03998218,4.66899362 6.83771856,4.96308907 6.58821545,4.96308907 Z M9.65649243,2.69981215 C8.97034267,2.69981215 8.4141177,3.41767971 8.4141177,4.30321418 C8.4141177,5.18874865 8.97034267,5.90661621 9.65649243,5.90661623 C10.3426422,5.90661625 10.8988672,5.18874867 10.8988672,4.30321418 C10.8988456,3.41767971 10.3426206,2.69981215 9.65649243,2.69981215 Z M9.8661433,4.36295425 L9.8654953,4.36305704 C9.8655169,4.36348874 9.86599211,4.36373544 9.86599211,4.36416714 C9.86599211,4.3821755 9.85065602,4.39677133 9.83173429,4.39677133 C9.816139,4.39677133 9.80514453,4.38583474 9.80101891,4.37228735 L9.7997013,4.37247237 L9.7997013,4.37547377 C9.72058001,4.18801002 9.58052477,4.06137588 9.41807018,4.06137586 C9.2556804,4.06137586 9.11568996,4.1878661 9.03654708,4.37518595 L9.03529427,4.37444588 L9.03412787,4.37419921 C9.02855504,4.38540304 9.01887818,4.39434554 9.00498928,4.39434554 C8.99575857,4.394351 8.98690427,4.39086353 8.98037717,4.38465149 C8.97385008,4.37843945 8.97018573,4.37001256 8.97019147,4.36122741 C8.97019147,4.36089849 8.97055867,4.36071347 8.97055867,4.36040512 L8.96980268,4.36024067 C8.96857148,4.34225286 8.96628186,4.32471733 8.96628186,4.30623613 C8.96628186,3.94343753 9.16854548,3.64934208 9.41804859,3.64934208 C9.6675517,3.64934208 9.86981532,3.94343753 9.86981532,4.30623613 C9.86981532,4.3256424 9.86748251,4.34408247 9.8661433,4.36295425 L9.8661433,4.36295425 Z" id="Shape" fill="#FFFFFF"></path>
                <path d="M3.12798248,9.50756906 C3.0150354,10.0450241 2.77661315,12.4575895 2.88953864,12.9950446 C3.00246413,13.5324996 3.4775158,13.4427456 4.15701273,13.4488923 C4.81583831,13.454854 5.587611,13.6280508 5.60016065,12.8397738 C5.61271033,12.0515174 5.61271033,10.4988718 5.80095548,9.92558507 C5.98917902,9.35229833 3.1279825,9.50756906 3.12798248,9.50756906 L3.12798248,9.50756906 Z" id="Shape" fill="#FF3B30"></path>
                <path d="M2.97775358,10.659138 L5.62763603,11.4744686 C5.65064017,10.8552976 5.69718845,10.2416154 5.80095548,9.92556452 C5.98920063,9.35227778 3.1279825,9.50754851 3.12798248,9.50754851 C3.08685583,9.7032147 3.02911869,10.147421 2.97775358,10.659138 Z" id="Shape" fill="#DD2C00"></path>
                <path d="M8.01254968,8.13406144 C10.077911,8.13406144 11.7522019,7.41744787 11.7522019,6.97554406 C11.7522019,6.64113536 10.077911,6.2947622 8.01254968,6.2947622 C5.94720996,6.2947622 4.27289744,6.60530365 4.27289741,6.97554406 C4.27289741,7.39358064 5.94718835,8.13406144 8.01254968,8.13406144 Z" id="Shape" fill="#FFC817"></path>
                <path d="M8.05019871,8.56404191 C8.05019871,8.56404191 10.4219795,8.58792972 12.3169158,7.82354055 C14.2118304,7.05917194 14.1930167,6.97258378 14.4000756,6.97258378 C14.6071344,6.97258378 14.8518423,7.25631826 14.9553717,7.76834369 C15.0589012,8.2803691 15.1812659,8.68346038 14.7388952,8.93428232 C14.2965461,9.18508371 11.397679,10.8064119 8.1317608,10.8064119 L7.96861501,10.8064119 C4.70269682,10.8064119 1.80382966,9.18508371 1.36148059,8.93428232 C0.919131525,8.68348093 1.04147466,8.28038965 1.14500407,7.76834369 C1.24853351,7.25631828 1.49324139,6.97258378 1.70030024,6.97258378 C1.90735909,6.97258378 1.88854539,7.05917194 3.78346005,7.82354055 C5.67837471,8.58790917 8.05019869,8.56404193 8.05019871,8.56404191 L8.05019871,8.56404191 Z" id="Shape" fill="#FF3B30"></path>
            </g>
        </g>
    </g>
</svg>