<?xml version="1.0" encoding="UTF-8"?>
<svg width="15px" height="16px" viewBox="0 0 15 16" version="1.1" xmlns="http://www.w3.org/2000/svg" xmlns:xlink="http://www.w3.org/1999/xlink">
    <!-- Generator: Sketch 46.2 (44496) - http://www.bohemiancoding.com/sketch -->
    <title>Shape@2x</title>
    <desc>Created with Sketch.</desc>
    <defs></defs>
    <g id="星球" stroke="none" stroke-width="1" fill="none" fill-rule="evenodd">
        <g id="星球主页-已加入" transform="translate(-730.000000, -2155.000000)" fill-rule="nonzero" fill="#464646">
            <g id="Group-13" transform="translate(679.000000, 2154.000000)">
                <path d="M59.7294,14.1988333 L59.8683167,14.17035 C62.8466667,13.56235 64.9009,11.1615667 64.9009,8.1243 C64.9009,4.5684 62.0841167,1.93268333 58.41465,1.93268333 C54.7451833,1.93268333 51.9284,4.56838333 51.9284,8.1243 C51.9284,11.1615667 53.98265,13.56235 56.9609833,14.17035 L57.0999,14.1988333 L58.4146333,15.64235 L59.7293667,14.1988333 L59.7294,14.1988333 Z M51.0000333,8.11883333 C51.0000333,4.0361 54.2445167,1 58.4146667,1 C62.5848167,1 65.8293,4.0361 65.8293,8.11883333 C65.8293,11.55845 63.52295,14.3018667 60.1965167,15.0437 L58.41465,17 L56.6327833,15.0437 C53.30635,14.3018333 51,11.5584333 51,8.11883333 L51.0000333,8.11883333 Z M55.2927167,8.98908333 C55.29275,8.98908333 55.2928,8.98908333 55.2928333,8.98908333 C55.7238833,8.98908333 56.0733167,8.63965 56.0733167,8.2086 C56.0733167,7.77755 55.7238833,7.42811667 55.2928333,7.42811667 C55.2928,7.42811667 55.29275,7.42811667 55.2927167,7.42811667 C54.8617167,7.42818333 54.5123333,7.77758333 54.5123333,8.2086 C54.5123333,8.63961667 54.8617167,8.98901667 55.2927167,8.98908333 Z M58.4146667,8.94926667 C58.4147,8.94926667 58.41475,8.94926667 58.4147833,8.94926667 C58.8458333,8.94926667 59.1952667,8.59983333 59.1952667,8.16878333 C59.1952667,7.73773333 58.8458333,7.3883 58.4147833,7.3883 C58.41475,7.3883 58.4147,7.3883 58.4146667,7.3883 C57.9836667,7.38836667 57.6342833,7.73776667 57.6342833,8.16878333 C57.6342833,8.5998 57.9836667,8.9492 58.4146667,8.94926667 L58.4146667,8.94926667 Z M61.5366167,8.98946667 C61.53665,8.98946667 61.5367,8.98946667 61.5367333,8.98946667 C61.9677833,8.98946667 62.3172167,8.64003333 62.3172167,8.20898333 C62.3172167,7.77793333 61.9677833,7.4285 61.5367333,7.4285 C61.5367,7.4285 61.53665,7.4285 61.5366167,7.4285 C61.1056167,7.42856667 60.7562333,7.77796667 60.7562333,8.20898333 C60.7562333,8.64 61.1056167,8.9894 61.5366167,8.98946667 Z" id="Shape"></path>
            </g>
        </g>
    </g>
</svg>