<?xml version="1.0" encoding="UTF-8"?>
<svg width="21px" height="21px" viewBox="0 0 21 21" version="1.1" xmlns="http://www.w3.org/2000/svg" xmlns:xlink="http://www.w3.org/1999/xlink">
    <!-- Generator: Sketch 46.2 (44496) - http://www.bohemiancoding.com/sketch -->
    <title>Shape Copy 7@2x</title>
    <desc>Created with Sketch.</desc>
    <defs></defs>
    <g id="首页" stroke="none" stroke-width="1" fill="none" fill-rule="evenodd">
        <g id="Group-5" transform="translate(-137.000000, 1.000000)" stroke="#202020" stroke-width="0.5" fill="#464646" fill-rule="nonzero">
            <path d="M149.18452,16.4985417 L149.362506,16.4629375 C153.178509,15.7029375 155.81049,12.7019583 155.81049,8.905375 C155.81049,4.4605 152.201494,1.16585417 147.5,1.16585417 C142.798506,1.16585417 139.18951,4.46047917 139.18951,8.905375 C139.18951,12.7019583 141.821512,15.7029375 145.637494,16.4629375 L145.81548,16.4985417 L147.499979,18.3029375 L149.184477,16.4985417 L149.18452,16.4985417 Z M138.000043,8.89854167 C138.000043,3.795125 142.157028,0 147.500021,0 C152.843015,0 157,3.795125 157,8.89854167 C157,13.1980625 154.044995,16.6273333 149.783012,17.554625 L147.5,20 L145.216988,17.554625 C140.955005,16.6272917 138,13.1980417 138,8.89854167 L138.000043,8.89854167 Z M143.500031,9.98635417 C143.500074,9.98635417 143.500138,9.98635417 143.500181,9.98635417 C144.052463,9.98635417 144.500173,9.5495625 144.500173,9.01075 C144.500173,8.4719375 144.052463,8.03514583 143.500181,8.03514583 C143.500138,8.03514583 143.500074,8.03514583 143.500031,8.03514583 C142.947814,8.03522917 142.500167,8.47197917 142.500167,9.01075 C142.500167,9.54952083 142.947814,9.98627083 143.500031,9.98635417 Z M147.500021,9.93658333 C147.500064,9.93658333 147.500128,9.93658333 147.500171,9.93658333 C148.052452,9.93658333 148.500163,9.49979167 148.500163,8.96097917 C148.500163,8.42216667 148.052452,7.985375 147.500171,7.985375 C147.500128,7.985375 147.500064,7.985375 147.500021,7.985375 C146.947804,7.98545833 146.500157,8.42220833 146.500157,8.96097917 C146.500157,9.49975 146.947804,9.9365 147.500021,9.93658333 L147.500021,9.93658333 Z M151.500011,9.98683333 C151.500054,9.98683333 151.500118,9.98683333 151.500161,9.98683333 C152.052442,9.98683333 152.500153,9.55004167 152.500153,9.01122917 C152.500153,8.47241667 152.052442,8.035625 151.500161,8.035625 C151.500118,8.035625 151.500054,8.035625 151.500011,8.035625 C150.947794,8.03570833 150.500147,8.47245833 150.500147,9.01122917 C150.500147,9.55 150.947794,9.98675 151.500011,9.98683333 Z" id="Shape-Copy-7"></path>
        </g>
    </g>
</svg>