<?xml version="1.0" encoding="UTF-8"?>
<svg width="20px" height="20px" viewBox="0 0 20 20" version="1.1" xmlns="http://www.w3.org/2000/svg" xmlns:xlink="http://www.w3.org/1999/xlink">
    <!-- Generator: Sketch 46.2 (44496) - http://www.bohemiancoding.com/sketch -->
    <title>Shape Copy 8@2x</title>
    <desc>Created with Sketch.</desc>
    <defs></defs>
    <g id="首页" stroke="none" stroke-width="1" fill="none" fill-rule="evenodd">
        <g id="Group-5" transform="translate(-274.000000, 0.000000)" stroke="#282D34" stroke-width="0.5" fill="#282D34" fill-rule="nonzero">
            <path d="M292.377297,10.1047388 C292.040162,10.1047388 291.767243,10.3766952 291.767243,10.7123838 L291.767243,16.4507127 C291.764829,17.1895428 291.164805,17.7869783 290.426,17.7861695 L277.560378,17.7861695 C276.821573,17.7869783 276.221549,17.1895428 276.219135,16.4507127 L276.219135,4.39997869 C276.221549,3.6611486 276.821573,3.06371311 277.560378,3.06452189 L281.753892,3.06452189 C281.915341,3.06503875 282.070368,3.00132974 282.184804,2.88743738 C282.299239,2.77354502 282.363688,2.61881896 282.363946,2.45736339 C282.363688,2.29599236 282.299306,2.14134026 282.184975,2.02746191 C282.070645,1.91358357 281.915743,1.8498174 281.754378,1.85020489 L277.560865,1.85020489 C276.148108,1.85069139 275,2.99397863 275,4.39997869 L275,16.4507127 C275,17.8567128 276.148595,19 277.560378,19 L290.426486,19 C291.83827,19 292.986865,17.8567128 292.986865,16.4507127 L292.986865,10.7123838 C292.986736,10.5509284 292.922411,10.3961513 292.808066,10.2821677 C292.693722,10.1681841 292.538746,10.1043512 292.377297,10.1047388 Z M279.582703,13.6620648 C279.550462,13.8397394 279.598911,14.0225499 279.714915,14.1609328 C279.830919,14.2993158 280.002459,14.3789336 280.183027,14.3782005 C280.472,14.3782005 280.727892,14.1733818 280.782378,13.8805057 C280.787243,13.8552074 281.270324,11.3020281 282.954054,8.76393041 C283.933838,7.2873871 285.121351,6.11247703 286.482541,5.27374203 C287.782432,4.47198144 289.251622,3.97331361 290.864324,3.78309008 L288.879459,5.8215469 C288.766894,5.93696178 288.70503,6.09252099 288.707587,6.2537225 C288.710144,6.41492401 288.776912,6.56844251 288.893081,6.6802286 C289.011297,6.79455733 289.164541,6.85099193 289.317297,6.85099193 C289.476865,6.85099193 289.635946,6.78969228 289.755135,6.66660646 L292.82827,3.51016066 L292.834595,3.50286308 L292.844324,3.49313299 L292.854054,3.48194336 C292.854054,3.48194336 292.854541,3.48048384 292.855514,3.48048384 C292.861962,3.47293089 292.868129,3.46514146 292.874,3.4571316 L292.882757,3.44545546 L292.892486,3.43183332 L292.899297,3.42210322 C292.901448,3.41898729 292.903398,3.41573732 292.905135,3.41237311 L292.907568,3.40945408 L292.909027,3.40653505 L292.914865,3.39729145 L292.924108,3.38075027 L292.928973,3.37199318 L292.930919,3.36810114 L292.93773,3.35496551 L292.943081,3.34426239 C292.945456,3.33911948 292.947727,3.33392903 292.949892,3.32869422 L292.954757,3.31653158 L292.961081,3.30193643 L292.965946,3.28734128 C292.967575,3.28312785 292.969197,3.27891146 292.970811,3.27469214 L292.975676,3.25863747 L292.978595,3.24598833 C292.980541,3.24112327 292.981514,3.23528521 292.982973,3.22944715 L292.985405,3.21971706 L292.985892,3.21679803 L292.989297,3.20122985 C292.989297,3.19782431 292.99027,3.19490528 292.990757,3.19198625 L292.992216,3.18468867 L292.993676,3.17203955 C292.994285,3.16946934 292.994772,3.16687174 292.995135,3.16425546 L292.996595,3.15257934 C292.996723,3.15030669 292.996885,3.14803607 292.997081,3.14576826 L292.997568,3.13944369 L292.998054,3.13603816 L292.999027,3.11998348 L292.999027,3.11706445 L292.999514,3.10733435 L293,3.08787415 C293,3.07717103 293,3.06744093 292.999027,3.05771082 L292.999027,3.05527828 L292.999027,3.04944022 C292.998522,3.04245433 292.997874,3.03547961 292.997081,3.0285205 L292.996108,3.02268244 L292.996108,3.0192769 C292.995385,3.01277945 292.994575,3.00629211 292.993676,2.99981669 L292.992216,2.99203262 L292.992216,2.98911359 L292.988811,2.97354542 C292.988093,2.97031635 292.987444,2.96707223 292.986865,2.96381531 L292.986865,2.9618693 C292.986594,2.96071959 292.986269,2.95958317 292.985892,2.95846376 L292.982973,2.94678763 L292.978108,2.92732743 L292.976162,2.92051634 C292.974004,2.9131845 292.971733,2.90588607 292.969351,2.89862362 L292.967892,2.89375856 L292.963027,2.8786769 L292.962054,2.87721738 L292.959135,2.86991981 C292.955594,2.86053233 292.9517,2.85128211 292.947459,2.842189 L292.940162,2.82564782 C292.934238,2.81360004 292.92791,2.80175504 292.921189,2.79013295 L292.906595,2.76580769 C292.906007,2.76506205 292.905516,2.76424464 292.905135,2.76337517 L292.896378,2.74975302 L292.895892,2.74878001 C292.894108,2.74645946 292.892483,2.74402142 292.891027,2.74148244 L292.886162,2.73467136 L292.88227,2.7298063 C292.880811,2.72786027 292.879838,2.72591427 292.878378,2.72494126 C292.877405,2.72250874 292.875946,2.72104923 292.874486,2.7191032 L292.864757,2.70694057 L292.859405,2.700616 C292.852809,2.69372668 292.84648,2.68658599 292.840432,2.67920976 L292.822432,2.65974956 C292.815615,2.65244132 292.808301,2.64561392 292.800541,2.63931634 L292.800541,2.63882983 C292.793188,2.63203334 292.78556,2.62554115 292.777676,2.61936962 C292.770878,2.61363827 292.763901,2.60812183 292.756757,2.60282845 C292.755784,2.60282845 292.754811,2.60136893 292.753838,2.60088242 C292.74582,2.59469419 292.737543,2.58885082 292.729027,2.58336824 L292.718811,2.57655717 L292.710541,2.57169212 C292.707721,2.569898 292.704797,2.56827344 292.701784,2.56682706 C292.699351,2.56488104 292.696919,2.56293503 292.694,2.56196201 C292.691029,2.56043619 292.688108,2.55881365 292.685243,2.55709697 L292.674541,2.55125889 C292.66545,2.54673762 292.656369,2.5421969 292.647297,2.53763674 L292.632703,2.53131219 C292.628263,2.52928112 292.623716,2.52749459 292.619081,2.52596062 C292.605574,2.520628 292.591949,2.51559951 292.578216,2.51087896 L292.570432,2.50844644 L288.094757,1.03093012 C287.77577,0.925636417 287.431648,1.09781302 287.324649,1.41624224 C287.218595,1.73441665 287.391784,2.07788933 287.711405,2.18297445 L289.511405,2.77748382 C288.212962,3.05197006 286.97126,3.54728751 285.840378,4.24186449 C284.327892,5.17449497 283.013892,6.47103136 281.936324,8.09498575 C280.117351,10.8383886 279.603622,13.5487091 279.582703,13.6625514 L279.582703,13.6620648 Z" id="Shape-Copy-8"></path>
        </g>
    </g>
</svg>