<?xml version="1.0" encoding="UTF-8"?>
<svg width="14px" height="14px" viewBox="0 0 14 14" version="1.1" xmlns="http://www.w3.org/2000/svg" xmlns:xlink="http://www.w3.org/1999/xlink">
    <!-- Generator: Sketch 46.2 (44496) - http://www.bohemiancoding.com/sketch -->
    <title>Shape@2x</title>
    <desc>Created with Sketch.</desc>
    <defs></defs>
    <g id="星球" stroke="none" stroke-width="1" fill="none" fill-rule="evenodd">
        <g id="星球主页-已加入" transform="translate(-782.000000, -2156.000000)" fill-rule="nonzero" fill="#282D34">
            <g id="Group-13" transform="translate(679.000000, 2154.000000)">
                <path d="M116.515676,9.08146348 C116.253459,9.08146348 116.041189,9.29298514 116.041189,9.55407627 L116.041189,14.017221 C116.039312,14.5918666 115.572626,15.0565387 114.998,15.0559096 L104.991405,15.0559096 C104.416779,15.0565387 103.950094,14.5918666 103.948216,14.017221 L103.948216,4.64442787 C103.950094,4.06978224 104.416779,3.6051102 104.991405,3.60573924 L108.253027,3.60573924 C108.378598,3.60614125 108.499175,3.5565898 108.588181,3.46800685 C108.677186,3.3794239 108.727313,3.25908141 108.727514,3.13350486 C108.727313,3.00799406 108.677238,2.88770909 108.588314,2.79913704 C108.499391,2.710565 108.378911,2.66096909 108.253405,2.66127047 L104.991784,2.66127047 C103.892973,2.66164886 103,3.55087227 103,4.64442787 L103,14.017221 C103,15.1107766 103.893351,16 104.991405,16 L114.998378,16 C116.096432,16 116.989784,15.1107766 116.989784,14.017221 L116.989784,9.55407627 C116.989684,9.42849986 116.939653,9.30811764 116.850718,9.21946376 C116.761784,9.13080987 116.641247,9.08116206 116.515676,9.08146348 Z M106.564324,11.8482727 C106.539248,11.986464 106.576931,12.1286499 106.667156,12.2362811 C106.757382,12.3439123 106.890802,12.4058373 107.031243,12.4052671 C107.256,12.4052671 107.455027,12.2459636 107.497405,12.0181711 C107.501189,11.9984947 107.876919,10.0126885 109.186486,8.03861254 C109.948541,6.89018997 110.872162,5.97637103 111.930865,5.32402158 C112.941892,4.70043001 114.084595,4.31257725 115.338919,4.16462562 L113.795135,5.75009204 C113.707585,5.83985917 113.659468,5.96084966 113.661457,6.08622861 C113.663446,6.21160756 113.715376,6.33101084 113.80573,6.41795558 C113.897676,6.50687792 114.016865,6.5507715 114.135676,6.5507715 C114.259784,6.5507715 114.383514,6.50309399 114.476216,6.40736058 L116.866432,3.95234718 L116.871351,3.94667129 L116.878919,3.93910343 L116.886486,3.93040039 C116.886486,3.93040039 116.886865,3.92926521 116.887622,3.92926521 C116.892637,3.92339069 116.897433,3.91733224 116.902,3.91110236 L116.908811,3.90202092 L116.916378,3.89142591 L116.921676,3.88385806 C116.923349,3.88143456 116.924865,3.8789068 116.926216,3.8762902 L116.928108,3.87401984 L116.929243,3.87174948 L116.933784,3.86456001 L116.940973,3.85169465 L116.944757,3.84488358 L116.94627,3.84185644 L116.951568,3.83163984 L116.95573,3.82331519 C116.957577,3.81931515 116.959343,3.81527813 116.961027,3.81120661 L116.964811,3.80174679 L116.96973,3.790395 L116.973514,3.77904322 C116.974781,3.7757661 116.976042,3.77248669 116.977297,3.769205 L116.981081,3.75671803 L116.983351,3.74687981 C116.984865,3.74309588 116.985622,3.73855516 116.986757,3.73401445 L116.988649,3.7264466 L116.989027,3.72417624 L116.991676,3.71206766 C116.991676,3.70941891 116.992432,3.70714855 116.992811,3.70487819 L116.993946,3.6992023 L116.995081,3.68936409 C116.995555,3.68736504 116.995934,3.68534469 116.996216,3.6833098 L116.997351,3.67422838 C116.997451,3.67246076 116.997577,3.67069472 116.99773,3.66893087 L116.998108,3.66401176 L116.998486,3.66136302 L116.999243,3.64887604 L116.999243,3.64660568 L116.999622,3.63903783 L117,3.62390211 C117,3.61557747 117,3.60800962 116.999243,3.60044175 L116.999243,3.59854978 L116.999243,3.59400906 C116.998851,3.58857559 116.998346,3.58315081 116.99773,3.57773817 L116.996973,3.57319745 L116.996973,3.5705487 C116.996411,3.56549513 116.99578,3.56044942 116.995081,3.55541298 L116.993946,3.54935871 L116.993946,3.54708835 L116.991297,3.53497977 C116.990739,3.53246827 116.990234,3.52994507 116.989784,3.5274119 L116.989784,3.52589834 C116.989573,3.52500413 116.98932,3.52412025 116.989027,3.52324959 L116.986757,3.51416816 L116.982973,3.49903244 L116.981459,3.49373493 C116.979781,3.48803239 116.978015,3.48235583 116.976162,3.47670726 L116.975027,3.47292333 L116.971243,3.46119314 L116.970486,3.46005796 L116.968216,3.45438207 C116.965462,3.4470807 116.962433,3.43988609 116.959135,3.43281367 L116.953459,3.41994831 C116.948852,3.41057781 116.94393,3.40136503 116.938703,3.39232563 L116.927351,3.37340598 C116.926894,3.37282604 116.926513,3.37219028 116.926216,3.37151402 L116.919405,3.36091901 L116.919027,3.36016223 C116.91764,3.35835736 116.916376,3.3564611 116.915243,3.35448634 L116.911459,3.34918883 L116.908432,3.3454049 C116.907297,3.34389132 116.906541,3.34237776 116.905405,3.34162098 C116.904649,3.33972902 116.903514,3.33859384 116.902378,3.33708027 L116.894811,3.32762044 L116.890649,3.32270133 C116.885518,3.31734298 116.880595,3.3117891 116.875892,3.30605204 L116.861892,3.29091632 C116.85659,3.28523214 116.850901,3.27992194 116.844865,3.27502382 L116.844865,3.27464543 C116.839146,3.26935926 116.833213,3.26430978 116.827081,3.25950971 C116.821794,3.25505199 116.816368,3.25076142 116.810811,3.24664435 C116.810054,3.24664435 116.809297,3.24550917 116.808541,3.24513077 C116.802305,3.24031771 116.795866,3.23577286 116.789243,3.23150863 L116.781297,3.22621114 L116.774865,3.2224272 C116.772672,3.22103178 116.770397,3.21976823 116.768054,3.21864327 C116.766162,3.21712969 116.76427,3.21561613 116.762,3.21485934 C116.759689,3.21367259 116.757418,3.21241061 116.755189,3.21107542 L116.746865,3.20653469 C116.739794,3.20301815 116.732731,3.19948648 116.725676,3.19593969 L116.714324,3.19102059 C116.710871,3.18944087 116.707335,3.18805135 116.70373,3.18685826 C116.693224,3.18271067 116.682627,3.17879962 116.671946,3.17512808 L116.665892,3.17323612 L113.184811,2.02405676 C112.93671,1.94216166 112.669059,2.07607679 112.585838,2.32374397 C112.503351,2.57121295 112.638054,2.83835837 112.886649,2.92009124 L114.286649,3.38248742 C113.276748,3.59597671 112.31098,3.98122362 111.431405,4.52145016 C110.255027,5.24682942 109.233027,6.25524661 108.394919,7.51832225 C106.980162,9.65208004 106.580595,11.7601071 106.564324,11.8486511 L106.564324,11.8482727 Z" id="Shape"></path>
            </g>
        </g>
    </g>
</svg>