<?xml version="1.0" encoding="UTF-8"?>
<svg width="35px" height="22px" viewBox="0 0 35 22" version="1.1" xmlns="http://www.w3.org/2000/svg" xmlns:xlink="http://www.w3.org/1999/xlink">
    <!-- Generator: Sketch 46.2 (44496) - http://www.bohemiancoding.com/sketch -->
    <title>Aa Copy@2x</title>
    <desc>Created with Sketch.</desc>
    <defs></defs>
    <g id="星球" stroke="none" stroke-width="1" fill="none" fill-rule="evenodd">
        <path d="M20.1113281,21 L15.7089844,21 L13.9589844,16.4472656 L5.94726562,16.4472656 L4.29296875,21 L0,21 L7.80664063,0.95703125 L12.0859375,0.95703125 L20.1113281,21 Z M12.6601562,13.0703125 L9.8984375,5.6328125 L7.19140625,13.0703125 L12.6601562,13.0703125 Z M25.1015625,10.9101562 L21.6152344,10.28125 C22.0071634,8.87759715 22.6816358,7.83854504 23.6386719,7.1640625 C24.5957079,6.48957996 26.0175687,6.15234375 27.9042969,6.15234375 C29.6178471,6.15234375 30.893876,6.3551412 31.7324219,6.76074219 C32.5709677,7.16634317 33.1611311,7.68131198 33.5029297,8.30566406 C33.8447283,8.93001614 34.015625,10.0761635 34.015625,11.7441406 L33.9746094,16.2285156 C33.9746094,17.5045637 34.0361322,18.445635 34.1591797,19.0517578 C34.2822272,19.6578806 34.5123681,20.3072882 34.8496094,21 L31.0488281,21 C30.9485672,20.7447904 30.8255216,20.366539 30.6796875,19.8652344 C30.6158851,19.6373687 30.5703126,19.4869795 30.5429688,19.4140625 C29.8867155,20.0520865 29.1848996,20.5305974 28.4375,20.8496094 C27.6901004,21.1686214 26.8925824,21.328125 26.0449219,21.328125 C24.5501227,21.328125 23.3720746,20.9225301 22.5107422,20.1113281 C21.6494098,19.3001262 21.21875,18.2747458 21.21875,17.0351562 C21.21875,16.2148396 21.4147116,15.4834017 21.8066406,14.8408203 C22.1985697,14.198239 22.7477178,13.7060564 23.4541016,13.3642578 C24.1604853,13.0224592 25.1790298,12.7239596 26.5097656,12.46875 C28.3053475,12.1315087 29.5494757,11.8170588 30.2421875,11.5253906 L30.2421875,11.1425781 C30.2421875,10.4042932 30.0598977,9.87793126 29.6953125,9.56347656 C29.3307273,9.24902187 28.6425832,9.09179688 27.6308594,9.09179688 C26.9472622,9.09179688 26.4140644,9.22623563 26.03125,9.49511719 C25.6484356,9.76399874 25.3385429,10.2356737 25.1015625,10.9101562 Z M30.2421875,14.0273438 C29.7499975,14.1914071 28.9707085,14.3873687 27.9042969,14.6152344 C26.8378853,14.8431001 26.1406266,15.0664052 25.8125,15.2851562 C25.3111954,15.6406268 25.0605469,16.0917941 25.0605469,16.6386719 C25.0605469,17.176435 25.2610657,17.6412741 25.6621094,18.0332031 C26.063153,18.4251322 26.5735646,18.6210938 27.1933594,18.6210938 C27.8860712,18.6210938 28.5468719,18.3932314 29.1757812,17.9375 C29.6406273,17.5911441 29.9459628,17.1673202 30.0917969,16.6660156 C30.1920578,16.337889 30.2421875,15.7135463 30.2421875,14.7929688 L30.2421875,14.0273438 Z" id="Aa-Copy" fill="#202020"></path>
    </g>
</svg>