<?xml version="1.0" encoding="UTF-8"?>
<svg width="16px" height="16px" viewBox="0 0 16 16" version="1.1" xmlns="http://www.w3.org/2000/svg" xmlns:xlink="http://www.w3.org/1999/xlink">
    <!-- Generator: Sketch 46.2 (44496) - http://www.bohemiancoding.com/sketch -->
    <title>Shape Copy 5@2x</title>
    <desc>Created with Sketch.</desc>
    <defs></defs>
    <g id="星球" stroke="none" stroke-width="1" fill="none" fill-rule="evenodd">
        <g id="星球主页-已加入" transform="translate(-679.000000, -2154.000000)" fill-rule="nonzero" fill="#202020">
            <g id="Group-13" transform="translate(679.000000, 2154.000000)">
                <path d="M15.7209093,6.13639433 C15.4940356,5.75467027 15.101508,5.53679946 14.6477605,5.53679946 L9.24960612,5.53679946 C9.30542426,5.36394328 9.38825118,5.15327481 9.45487283,4.97861805 C9.71235652,4.3160027 10.0328607,3.49133468 10.0328607,2.59644384 C10.0328607,0.99212244 8.77425163,0 7.60927301,0 C6.710781,0 6.05716858,0.599594868 6.05716858,1.42426289 C6.05716858,1.67454423 6.06257034,1.89601621 6.06617151,2.09768175 C6.08057619,2.75129417 6.08957911,3.11321179 5.91132118,3.68039613 C5.42336259,5.23069998 4.40423138,6.39027684 3.81904119,6.39027684 L1.58271438,6.39027684 C0.71123115,6.39027684 0,7.08890389 0,7.94778303 L0,14.4424938 C0,15.3013729 0.709430565,16 1.58271438,16 L11.6659914,16 C12.0783255,16 12.6437092,16 14.3398605,12.2781904 C14.8224173,11.2176457 15.947783,8.59059194 15.947783,7.0997074 C15.947783,6.70537925 15.873959,6.39207743 15.7209093,6.13639433 Z M0.821066847,14.4424938 L0.821066847,7.94778303 C0.821066847,7.53364844 1.16137745,7.19873959 1.58271438,7.19873959 L3.14562233,7.19873959 L3.14562233,15.1915372 L1.58271438,15.1915372 C1.16137745,15.1915372 0.821066847,14.8566284 0.821066847,14.4424938 L0.821066847,14.4424938 Z M11.6659914,15.1915372 L3.96488859,15.1915372 L3.96488859,7.1735314 C5.06504614,7.04749043 6.19221247,5.52059419 6.69637632,3.91987396 C6.97726761,3.02858429 6.88003601,2.52261985 6.88003601,1.42606347 C6.88003601,1.01733063 7.20414135,0.810263336 7.6110736,0.810263336 C8.29529597,0.810263336 9.21359442,1.39725411 9.21359442,2.59824443 C9.21359442,4.51406707 7.33198289,6.34526221 9.17038037,6.34526221 L14.6477605,6.34526221 C16.529372,6.34526221 12.2997974,15.1915372 11.6659914,15.1915372 Z" id="Shape-Copy-5"></path>
            </g>
        </g>
    </g>
</svg>