<?xml version="1.0" encoding="UTF-8"?>
<svg width="22px" height="22px" viewBox="0 0 22 22" version="1.1" xmlns="http://www.w3.org/2000/svg" xmlns:xlink="http://www.w3.org/1999/xlink">
    <!-- Generator: Sketch 46.2 (44496) - http://www.bohemiancoding.com/sketch -->
    <title>Shape Copy 15@2x</title>
    <desc>Created with Sketch.</desc>
    <defs></defs>
    <g id="首页" stroke="none" stroke-width="1" fill="none" fill-rule="evenodd">
        <path d="M20.7154793,8.67049291 C20.4309586,8.19333783 19.9386926,7.92099932 19.3696511,7.92099932 L12.5998645,7.92099932 C12.6698656,7.7049291 12.7737383,7.44159352 12.857288,7.22327256 C13.1801965,6.39500338 13.5821384,5.36416835 13.5821384,4.24555481 C13.5821384,2.24015305 12.0037259,1 10.5427346,1 C9.41594219,1 8.59625155,1.74949359 8.59625155,2.78032861 C8.59625155,3.09318028 8.60302586,3.37002026 8.60754206,3.62210218 C8.62560686,4.43911771 8.63689737,4.89151474 8.41334538,5.60049516 C7.80140002,7.53837497 6.52331489,8.98784605 5.78943209,8.98784605 L2.98487072,8.98784605 C1.89194987,8.98784605 1,9.86112987 1,10.9347288 L1,19.0531173 C1,20.1267162 1.88969177,21 2.98487072,21 L15.630236,21 C16.1473411,21 16.8563848,21 18.9835159,16.347738 C19.5886869,15.0220572 21,11.7382399 21,9.87463426 C21,9.38172406 20.9074179,8.99009678 20.7154793,8.67049291 Z M2.02969403,19.0531173 L2.02969403,10.9347288 C2.02969403,10.4170605 2.4564751,9.99842449 2.98487072,9.99842449 L4.94490234,9.99842449 L4.94490234,19.9894216 L2.98487072,19.9894216 C2.4564751,19.9894216 2.02969403,19.5707855 2.02969403,19.0531173 L2.02969403,19.0531173 Z M15.630236,19.9894216 L5.97233826,19.9894216 L5.97233826,9.96691425 C7.35203794,9.80936304 8.76560912,7.90074274 9.39787739,5.89984245 C9.75014113,4.78573036 9.62820368,4.15327481 9.62820368,2.78257934 C9.62820368,2.27166329 10.0346618,2.01282917 10.5449927,2.01282917 C11.403071,2.01282917 12.5547025,2.74656763 12.5547025,4.24780554 C12.5547025,6.64258384 10.194987,8.93157776 12.5005081,8.93157776 L19.3696511,8.93157776 C21.7293666,8.93157776 16.4250875,19.9894216 15.630236,19.9894216 Z" id="Shape-Copy-15" stroke="#202020" stroke-width="0.5" fill="#202020" fill-rule="nonzero"></path>
    </g>
</svg>