<?xml version="1.0" encoding="UTF-8"?>
<svg width="100px" height="100px" viewBox="0 0 100 100" version="1.1" xmlns="http://www.w3.org/2000/svg" xmlns:xlink="http://www.w3.org/1999/xlink">
    <!-- Generator: Sketch 46.2 (44496) - http://www.bohemiancoding.com/sketch -->
    <title>userimg_default@2x</title>
    <desc>Created with Sketch.</desc>
    <defs></defs>
    <g id="管理后台" stroke="none" stroke-width="1" fill="none" fill-rule="evenodd">
        <g id="管理后台-我的账号" transform="translate(-777.000000, -136.000000)">
            <g id="userimg_default" transform="translate(777.000000, 136.000000)">
                <circle id="Oval" fill="#EBEBEB" cx="50" cy="50" r="50"></circle>
                <path d="M50,25.000001 C46.0090222,24.9985311 42.1809249,26.5944084 39.3578459,29.4365581 C36.534767,32.2787077 34.9479584,36.1343155 34.9465,40.1551917 C34.9465,45.2309338 37.427,49.7248496 41.233,52.476057 C33.198614,55.9906979 28.0004151,63.9737466 28,72.7984196 L28.022,72.7984196 C28.1063996,74.037959 29.1290361,75 30.36225,75 C31.5954639,75 32.6181004,74.037959 32.7025,72.7984196 L32.708,72.7984196 L32.708,72.6765132 L32.708,72.6349541 L32.708,72.5850833 C32.72725,63.575087 39.4345,56.1637277 48.0585,55.1857053 C52.3520126,55.7501317 56.6787845,54.4238989 59.9328021,51.5460198 C63.1868197,48.6681407 65.0527055,44.5175376 65.0535,40.1551917 C65.0535,31.7852043 58.31325,25.000001 50,25.000001 Z M50,50.6280657 C46.2385191,50.6896451 42.7363139,48.7031432 40.8377078,45.4310799 C38.9391017,42.1590166 38.9391017,38.1098078 40.8377078,34.8377445 C42.7363139,31.5656811 46.2385191,29.5791793 50,29.6407587 C53.7614809,29.5791793 57.2636861,31.5656811 59.1622922,34.8377445 C61.0608983,38.1098078 61.0608983,42.1590166 59.1622922,45.4310799 C57.2636861,48.7031432 53.7614809,50.6896451 50,50.6280657 L50,50.6280657 Z M72,72.6349541 L72,72.5795421 C71.9499583,66.7868962 69.6417222,61.2462282 65.57325,57.1528324 L65.56775,57.1583737 C64.9900515,56.5921848 64.156424,56.3795121 63.3808869,56.6004672 C62.6053498,56.8214224 62.0057256,57.442437 61.8078869,58.229581 C61.6100482,59.0167249 61.8440515,59.8504123 62.42175,60.4166011 C65.5544912,63.695756 67.3006741,68.0725595 67.292,72.6238717 L67.292,72.7984196 L67.314,72.7984196 C67.3983996,74.037959 68.421036,75 69.65425,75 C70.8874639,75 71.9101004,74.037959 71.9945,72.7984196 L72,72.7984196 L72,72.6654308 L72,72.6349541 L72,72.6349541 Z" fill="#6F6F6F" fill-rule="nonzero"></path>
            </g>
        </g>
    </g>
</svg>