<?xml version="1.0" encoding="UTF-8"?>
<svg width="89px" height="89px" viewBox="0 0 89 89" version="1.1" xmlns="http://www.w3.org/2000/svg" xmlns:xlink="http://www.w3.org/1999/xlink">
    <!-- Generator: Sketch 46.2 (44496) - http://www.bohemiancoding.com/sketch -->
    <title>Group 21@2x</title>
    <desc>Created with Sketch.</desc>
    <defs></defs>
    <g id="星球" stroke="none" stroke-width="1" fill="none" fill-rule="evenodd">
        <g id="星球主页-未加入-copy" transform="translate(-880.000000, -3518.000000)" fill-rule="nonzero" fill="#FFFFFF">
            <g id="Group-21" transform="translate(880.000000, 3518.000000)">
                <path d="M44.8394246,0.0305372384 C20.3146976,-0.170121225 0.266954481,19.5453955 0.0662961315,44.0701365 C-0.132717494,68.5965222 19.5811433,88.6376976 44.1058703,88.8432903 C68.6322421,89.0439488 88.6734063,69.3284321 88.8789988,44.8036911 C89.0845914,20.2773054 69.3657964,0.236129971 44.8394246,0.0305372384 L44.8394246,0.0305372384 Z M44.1274531,86.4749066 C20.9108615,86.2837622 2.24184982,67.3053615 2.43470436,44.0873434 C2.63272471,20.8762134 21.6030717,2.20605461 44.8196633,2.39892101 C68.0345329,2.5900654 86.7035447,21.5684661 86.5106901,44.7864842 C86.3195574,67.9976142 67.3423227,86.667773 44.1274531,86.4749066 L44.1274531,86.4749066 Z" id="Shape"></path>
                <path d="M37.2497943,65.5142194 L61.7279197,45.9233555 C62.6030767,45.2182224 62.6145703,43.8852087 61.749265,43.1702137 L37.5978868,23.1848697 C36.4501668,22.2298994 34.7080625,23.0402271 34.6982109,24.5392511 L34.3714637,64.1203901 C34.35997,65.6079085 36.0856548,66.4461785 37.2497943,65.5142194 L37.2497943,65.5142194 Z" id="Shape"></path>
            </g>
        </g>
    </g>
</svg>