<?xml version="1.0" encoding="UTF-8"?>
<svg width="30px" height="28px" viewBox="0 0 30 28" version="1.1" xmlns="http://www.w3.org/2000/svg" xmlns:xlink="http://www.w3.org/1999/xlink">
    <!-- Generator: Sketch 46.2 (44496) - http://www.bohemiancoding.com/sketch -->
    <title>Shape@2x</title>
    <desc>Created with Sketch.</desc>
    <defs></defs>
    <g id="星球" stroke="none" stroke-width="1" fill="none" fill-rule="evenodd">
        <g id="星球主页-发布作品入口" transform="translate(-980.000000, -814.000000)" fill-rule="nonzero" fill="#202020">
            <g id="Group-3" transform="translate(699.000000, 814.000000)">
                <path d="M309.846044,2.1047794e-16 L308.692838,2.1047794e-16 L308.692838,2.33397791 L305.231121,2.33397791 L305.231121,2.1047794e-16 L286.769029,2.1047794e-16 L286.769029,2.33397791 L283.307462,2.33397791 L283.307462,2.1047794e-16 L282.153206,2.1047794e-16 C281.517203,2.1047794e-16 281,0.524003748 281,1.16706479 L281,26.8339969 C281.000414,27.4777893 281.516479,27.9995817 282.153206,28 L283.307462,28 L283.307462,26.8339969 L286.769029,26.8339969 L286.769029,28 L305.231121,28 L305.231121,26.8339969 L308.692688,26.8339969 L308.692688,28 L309.845894,28 C310.481297,28 311,27.4776646 311,26.8339969 L311,1.16706479 C311.00015,0.524003748 310.481447,0 309.846044,0 L309.846044,2.1047794e-16 Z M286.769029,23.3340158 L283.307462,23.3340158 L283.307462,19.8340348 L286.769029,19.8340348 L286.769029,23.3340158 Z M286.769029,16.3340537 L283.307462,16.3340537 L283.307462,12.8340727 L286.769029,12.8340727 L286.769029,16.3340537 Z M286.769029,9.33409166 L283.307462,9.33409166 L283.307462,5.83411062 L286.769029,5.83411062 L286.769029,9.33409166 L286.769029,9.33409166 Z M301.293901,14.7662891 L293.789814,19.1905187 C293.669099,19.2514406 293.535928,19.282869 293.401012,19.2822763 C293.240843,19.2820042 293.083697,19.2381565 292.94606,19.1553324 C292.693593,19.0002367 292.539012,18.7236011 292.537908,18.4249121 L292.537908,9.57630121 C292.538582,9.27761752 292.693295,9.00092025 292.94606,8.84633593 C293.202522,8.68965298 293.520398,8.67638035 293.788764,8.81114957 L301.292401,13.2349242 C301.584453,13.3809779 301.769554,13.6758153 301.769554,14.0000758 C301.769554,14.3252463 301.584453,14.6202354 301.293901,14.7662891 L301.293901,14.7662891 Z M308.692688,23.3340158 L305.231121,23.3340158 L305.231121,19.8340348 L308.692688,19.8340348 L308.692688,23.3340158 L308.692688,23.3340158 Z M308.692688,16.3340537 L305.231121,16.3340537 L305.231121,12.8340727 L308.692688,12.8340727 L308.692688,16.3340537 L308.692688,16.3340537 Z M308.692688,9.33409166 L305.231121,9.33409166 L305.231121,5.83411062 L308.692688,5.83411062 L308.692688,9.33409166 L308.692688,9.33409166 Z" id="Shape"></path>
            </g>
        </g>
    </g>
</svg>