<?xml version="1.0" encoding="UTF-8"?>
<svg width="36px" height="34px" viewBox="0 0 36 34" version="1.1" xmlns="http://www.w3.org/2000/svg" xmlns:xlink="http://www.w3.org/1999/xlink">
    <!-- Generator: Sketch 46.2 (44496) - http://www.bohemiancoding.com/sketch -->
    <title>Shape@2x</title>
    <desc>Created with Sketch.</desc>
    <defs></defs>
    <g id="管理后台" stroke="none" stroke-width="1" fill="none" fill-rule="evenodd">
        <g id="管理后台-作品管理-发布作品" transform="translate(-934.000000, -278.000000)" fill-rule="nonzero" fill="#202020">
            <g id="Group" transform="translate(552.000000, 277.000000)">
                <path d="M416.615253,1 L415.231406,1 L415.231406,3.83411603 L411.077345,3.83411603 L411.077345,1 L388.922835,1 L388.922835,3.83411603 L384.768954,3.83411603 L384.768954,1 L383.383847,1 C382.620643,1 382,1.63629027 382,2.4171501 L382,33.5841391 C382.000496,34.365887 382.619775,34.9994921 383.383847,35 L384.768954,35 L384.768954,33.5841391 L388.922835,33.5841391 L388.922835,35 L411.077345,35 L411.077345,33.5841391 L415.231226,33.5841391 L415.231226,35 L416.615073,35 C417.377557,35 418,34.3657355 418,33.5841391 L418,2.4171501 C418.00018,1.63629027 417.377737,1 416.615253,1 L416.615253,1 Z M388.922835,29.3341621 L384.768954,29.3341621 L384.768954,25.0841851 L388.922835,25.0841851 L388.922835,29.3341621 Z M388.922835,20.8342081 L384.768954,20.8342081 L384.768954,16.5842311 L388.922835,16.5842311 L388.922835,20.8342081 Z M388.922835,12.3342542 L384.768954,12.3342542 L384.768954,8.08427718 L388.922835,8.08427718 L388.922835,12.3342542 L388.922835,12.3342542 Z M406.352682,18.9304939 L397.347777,24.3027728 C397.202918,24.3767494 397.043113,24.4149124 396.881214,24.4141926 C396.689011,24.4138623 396.500437,24.3606186 396.335272,24.2600465 C396.032312,24.071716 395.846814,23.7358014 395.845489,23.3731076 L395.845489,12.6283658 C395.846299,12.2656784 396.031953,11.9296889 396.335272,11.7419793 C396.643026,11.5517215 397.024478,11.5356047 397.346517,11.699253 L406.350882,17.0709794 C406.701343,17.2483303 406.923465,17.6063472 406.923465,18.0000921 C406.923465,18.394942 406.701343,18.753143 406.352682,18.9304939 L406.352682,18.9304939 Z M415.231226,29.3341621 L411.077345,29.3341621 L411.077345,25.0841851 L415.231226,25.0841851 L415.231226,29.3341621 L415.231226,29.3341621 Z M415.231226,20.8342081 L411.077345,20.8342081 L411.077345,16.5842311 L415.231226,16.5842311 L415.231226,20.8342081 L415.231226,20.8342081 Z M415.231226,12.3342542 L411.077345,12.3342542 L411.077345,8.08427718 L415.231226,8.08427718 L415.231226,12.3342542 L415.231226,12.3342542 Z" id="Shape"></path>
            </g>
        </g>
    </g>
</svg>