<?xml version="1.0" encoding="UTF-8"?>
<svg width="22px" height="18px" viewBox="0 0 22 18" version="1.1" xmlns="http://www.w3.org/2000/svg" xmlns:xlink="http://www.w3.org/1999/xlink">
    <!-- Generator: Sketch 46.2 (44496) - http://www.bohemiancoding.com/sketch -->
    <title>Shape@2x</title>
    <desc>Created with Sketch.</desc>
    <defs></defs>
    <g id="星球" stroke="none" stroke-width="1" fill="none" fill-rule="evenodd">
        <g id="星球主页-已加入" transform="translate(-1068.000000, -670.000000)" fill-rule="nonzero" fill="#18CA69">
            <path d="M1082.89136,675.44531 C1083.1438,675.44531 1083.39355,675.464189 1083.64331,675.49116 C1082.96924,672.341025 1079.61499,670 1075.7854,670 C1071.50464,670 1068,672.928978 1068,676.650884 C1068,678.797723 1069.16553,680.561582 1071.11523,681.931675 L1070.33643,684.283488 L1073.05957,682.913395 C1074.03442,683.104885 1074.81323,683.304465 1075.7854,683.304465 C1076.02979,683.304465 1076.27148,683.293677 1076.5105,683.274798 C1076.36011,682.751573 1076.2688,682.204076 1076.2688,681.635001 C1076.27417,678.21786 1079.19336,675.44531 1082.89136,675.44531 Z M1078.70459,673.325442 C1079.29272,673.325442 1079.67944,673.713815 1079.67944,674.301768 C1079.67944,674.887024 1079.29272,675.280791 1078.70459,675.280791 C1078.12183,675.280791 1077.53638,674.889721 1077.53638,674.301768 C1077.53906,673.711118 1078.12183,673.325442 1078.70459,673.325442 L1078.70459,673.325442 Z M1073.25562,675.278094 C1072.67017,675.278094 1072.08203,674.887024 1072.08203,674.299071 C1072.08203,673.711118 1072.67017,673.322745 1073.25562,673.322745 C1073.84106,673.322745 1074.22778,673.708421 1074.22778,674.299071 C1074.22778,674.887024 1073.84106,675.278094 1073.25562,675.278094 Z M1090,681.540605 C1090,678.414744 1086.88477,675.866047 1083.3855,675.866047 C1079.67944,675.866047 1076.76294,678.414744 1076.76294,681.540605 C1076.76294,684.674558 1079.67944,687.215163 1083.3855,687.215163 C1084.16162,687.215163 1084.94312,687.020977 1085.72192,686.824094 L1087.85693,688 L1087.27148,686.044651 C1088.83447,684.866047 1090,683.304465 1090,681.540605 L1090,681.540605 Z M1081.23706,680.561582 C1080.85034,680.561582 1080.45825,680.175907 1080.45825,679.779443 C1080.45825,679.39107 1080.85034,678.997303 1081.23706,678.997303 C1081.82788,678.997303 1082.21191,679.388373 1082.21191,679.779443 C1082.21191,680.175907 1081.82788,680.561582 1081.23706,680.561582 Z M1085.52051,680.561582 C1085.13647,680.561582 1084.74707,680.175907 1084.74707,679.779443 C1084.74707,679.39107 1085.13647,678.997303 1085.52051,678.997303 C1086.10596,678.997303 1086.49536,679.388373 1086.49536,679.779443 C1086.49536,680.175907 1086.10596,680.561582 1085.52051,680.561582 L1085.52051,680.561582 Z" id="Shape"></path>
        </g>
    </g>
</svg>