<?xml version="1.0" encoding="UTF-8"?>
<svg width="16px" height="16px" viewBox="0 0 16 16" version="1.1" xmlns="http://www.w3.org/2000/svg" xmlns:xlink="http://www.w3.org/1999/xlink">
    <!-- Generator: Sketch 47.1 (45422) - http://www.bohemiancoding.com/sketch -->
    <title>Shape</title>
    <desc>Created with Sketch.</desc>
    <defs></defs>
    <g id="管理后台" stroke="none" stroke-width="1" fill="none" fill-rule="evenodd" opacity="0.5">
        <path d="M1.60264488,4.04283541 C1.86430226,4.04283541 2.07692883,4.25057217 2.07692883,4.50848349 L2.07692883,14.4319535 C2.07692883,14.7825735 2.36980795,15.0687172 2.73100581,15.0687172 L13.2653834,15.0687172 C13.6265813,15.0687172 13.9194604,14.7825735 13.9194604,14.4319535 L13.9194604,4.50848349 C13.9194604,4.25057217 14.132087,4.04283541 14.3937444,4.04283541 C14.6549018,4.04283541 14.8675361,4.2498918 14.8698337,4.50848349 L14.8698337,14.4319535 C14.8698337,15.2980979 14.1502047,16.0000134 13.2653834,16.0000134 L2.73100581,16.0000134 C1.84498484,16.0000134 1.12655555,15.2986875 1.12655555,14.4319535 L1.12655555,4.4097074 C1.19846314,4.18637535 1.38575133,4.04283541 1.60264488,4.04283541 Z M5.46381699,12.962659 C5.46381699,13.2200382 5.24993757,13.4283071 4.98953304,13.4283071 C4.72787566,13.4283071 4.51524909,13.2205704 4.51524909,12.962659 L4.51524909,4.87713 C4.51524909,4.61921867 4.72787566,4.41148192 4.98953304,4.41148192 C5.25119042,4.41148192 5.46381699,4.61921867 5.46381699,4.87713 L5.46381699,12.962659 Z M11.4829455,12.962659 C11.4829455,13.2200382 11.2690661,13.4283071 11.0086616,13.4283071 C10.7470042,13.4283071 10.5343776,13.2205704 10.5343776,12.962659 L10.5343776,4.87713 C10.5343776,4.61921867 10.7470042,4.41148192 11.0086616,4.41148192 C11.270319,4.41148192 11.4829455,4.61921867 11.4829455,4.87713 L11.4829455,12.962659 Z M15.5239107,1.46936533 C15.7855681,1.46936533 16,1.67886594 16,1.93677726 C16,2.19468858 15.7873734,2.40242534 15.5257161,2.40242534 L10.9956824,2.40237122 C10.8595504,2.40687974 10.7295979,2.35782544 10.6309214,2.26141824 L9.31160674,0.933130901 L6.75741392,0.905010773 L5.36828098,2.26218884 C5.27046779,2.35562897 5.13996193,2.40466919 5.00758682,2.40242534 L0.474283949,2.40242534 C0.212626571,2.40242534 0,2.19468858 0,1.93677726 C0,1.67886594 0.212626571,1.47112919 0.474283949,1.47112919 L4.73816926,1.49924931 L6.12650454,0.142841843 C6.22344784,0.0481279688 6.35122871,-0.00215572231 6.48258022,7.0888983e-05 L9.5156144,7.0888983e-05 C9.64978551,7.0888983e-05 9.77790737,0.0494520157 9.87349546,0.142841843 L11.1910047,1.46936533 L15.5239107,1.46936533 Z M8.47338126,12.962659 C8.47338126,13.2200382 8.25950184,13.4283071 7.99909731,13.4283071 C7.73743993,13.4283071 7.52481336,13.2205704 7.52481336,12.962659 L7.52481336,4.87713 C7.52481336,4.61921867 7.73743993,4.41148192 7.99909731,4.41148192 C8.26075469,4.41148192 8.47338126,4.61921867 8.47338126,4.87713 L8.47338126,12.962659 Z" id="Shape" fill="#202020" fill-rule="nonzero"></path>
    </g>
</svg>