<?xml version="1.0" encoding="UTF-8"?>
<svg width="16px" height="16px" viewBox="0 0 16 16" version="1.1" xmlns="http://www.w3.org/2000/svg" xmlns:xlink="http://www.w3.org/1999/xlink">
    <!-- Generator: Sketch 47.1 (45422) - http://www.bohemiancoding.com/sketch -->
    <title>Shape Copy</title>
    <desc>Created with Sketch.</desc>
    <defs></defs>
    <g id="管理后台" stroke="none" stroke-width="1" fill="none" fill-rule="evenodd" opacity="0.5">
        <path d="M12.8786434,16 L1.83988747,16 C0.823787763,16 0,15.230571 0,14.2816221 L0,2.82792907 C0,1.87899791 0.823787763,1.11008221 1.83988747,1.11008221 L10.4256181,1.11008221 C11.2114973,1.11008221 11.2114973,2.25513645 10.4256181,2.25513645 L1.83988747,2.25513645 C1.51382378,2.25513645 1.22621869,2.52358432 1.22621869,2.82792907 L1.22621869,14.2816398 C1.22621869,14.5859668 1.51384276,14.8544324 1.83988747,14.8544324 L12.8786434,14.8544324 C13.2046502,14.8544324 13.4922743,14.5859668 13.4922743,14.2816398 L13.4922743,5.11856856 C13.4922743,4.38450543 14.718455,4.38450543 14.718455,5.11856856 L14.718455,14.2816221 C14.718455,15.230571 13.8947241,16 12.8786434,16 L12.8786434,16 L12.8786434,16 Z M8.83485819,6.67567592 C8.60524443,6.42491098 8.60524443,6.10286559 8.83485819,5.85263168 L14.9291809,0.161151034 C15.1788962,-0.0537170113 15.5618134,-0.0537170113 15.8109409,0.161151034 C16.0216099,0.376019079 16.0601064,0.608552345 15.906822,0.85931728 L15.8109409,0.984690882 L9.71663726,6.67567592 C9.46747181,6.89052627 9.08402364,6.89052627 8.83485819,6.67567592 L8.83485819,6.67567592 L8.83485819,6.67567592 Z M6.74586216,6.83692873 L3.06608721,6.83692873 C2.28020811,6.83692873 2.28020811,5.69134349 3.06608721,5.69134349 L6.74586215,5.69134349 C7.53176021,5.69134349 7.53176021,6.83692873 6.74586216,6.83692873 L6.74586216,6.83692873 L6.74586216,6.83692873 Z M10.4255991,10.2726401 L3.06608721,10.2726401 C2.28020811,10.2726401 2.28020811,9.12758591 3.06608721,9.12758591 L10.4256181,9.12758591 C11.2114973,9.12758591 11.2114973,10.2726401 10.4255991,10.2726401 L10.4255991,10.2726401 Z" id="Shape-Copy" fill="#202020" fill-rule="nonzero"></path>
    </g>
</svg>