<?xml version="1.0" encoding="UTF-8"?>
<svg width="18px" height="18px" viewBox="0 0 18 18" version="1.1" xmlns="http://www.w3.org/2000/svg" xmlns:xlink="http://www.w3.org/1999/xlink">
    <!-- Generator: Sketch 46.2 (44496) - http://www.bohemiancoding.com/sketch -->
    <title>Shape Copy 5@2x</title>
    <desc>Created with Sketch.</desc>
    <defs></defs>
    <g id="星球" stroke="none" stroke-width="1" fill="none" fill-rule="evenodd">
        <path d="M15.6666667,17 C15.6666667,17 2.33333333,17 2.33333333,17 C1.50464719,17 1,16.4953326 1,15.6666667 C1,15.6666667 1,6.33333333 1,6.33333333 C1,5.50464719 1.50466742,5 2.33333333,5 C2.33333333,5 15.6666667,5 15.6666667,5 C16.4953528,5 17,5.50466742 17,6.33333333 C17,6.33333333 17,15.6666667 17,15.6666667 C17,16.4953528 16.4953326,17 15.6666667,17 Z M16.3333333,6.33333333 C16.3333333,5.78066689 16.2186656,5.66666667 15.6666667,5.66666667 C15.6666667,5.66666667 2.33333333,5.66666667 2.33333333,5.66666667 C1.78133439,5.66666667 1.66666667,5.78064666 1.66666667,6.33333333 C1.66666667,6.33333333 1.66666667,15.6666667 1.66666667,15.6666667 C1.66666667,16.2186656 1.78133439,16.3333333 2.33333333,16.3333333 C2.33333333,16.3333333 15.6666667,16.3333333 15.6666667,16.3333333 C16.2186656,16.3333333 16.3333333,16.2186656 16.3333333,15.6666667 C16.3333333,15.6666667 16.3333333,6.33333333 16.3333333,6.33333333 Z M7,13 C7,13 14.3333333,13 14.3333333,13 C14.3333333,13 14.3333333,13.6666667 14.3333333,13.6666667 C14.3333333,13.6666667 7,13.6666667 7,13.6666667 C7,13.6666667 7,13 7,13 L7,13 Z M7,8.33333333 C7,8.33333333 14.3333333,8.33333333 14.3333333,8.33333333 C14.3333333,8.33333333 14.3333333,9 14.3333333,9 C14.3333333,9 7,9 7,9 C7,9 7,8.33333333 7,8.33333333 Z M5,14.3333333 C5,14.3333333 4.33333333,14.3333333 4.33333333,14.3333333 C3.96534078,14.3333333 3.66666667,14.0346592 3.66666667,13.6666667 C3.66666667,13.6666667 3.66666667,13 3.66666667,13 C3.66666667,12.6320074 3.96534078,12.3333333 4.33333333,12.3333333 C4.33333333,12.3333333 5,12.3333333 5,12.3333333 C5.36799256,12.3333333 5.66666667,12.6320074 5.66666667,13 C5.66666667,13.3679926 5.66666667,13.6666667 5.66666667,13.6666667 C5.66666667,14.0346592 5.36799256,14.3333333 5,14.3333333 Z M5,9.66666667 C5,9.66666667 4.33333333,9.66666667 4.33333333,9.66666667 C3.96534078,9.66666667 3.66666667,9.36799256 3.66666667,9 C3.66666667,9 3.66666667,8.33333333 3.66666667,8.33333333 C3.66666667,7.96534078 3.96534078,7.66666667 4.33333333,7.66666667 C4.33333333,7.66666667 5,7.66666667 5,7.66666667 C5.36799256,7.66666667 5.66666667,7.96534078 5.66666667,8.33333333 C5.66666667,8.70132589 5.66666667,9 5.66666667,9 C5.66666667,9.36799256 5.36799256,9.66666667 5,9.66666667 Z M3,3 C3,3 15,3 15,3 C15,3 15,3.66666667 15,3.66666667 C15,3.66666667 3,3.66666667 3,3.66666667 C3,3.66666667 3,3 3,3 Z M5,1 C5,1 13,1 13,1 C13,1 13,1.66666667 13,1.66666667 C13,1.66666667 5,1.66666667 5,1.66666667 C5,1.66666667 5,1 5,1 L5,1 Z" id="Shape-Copy-5" stroke="#5B5B5B" stroke-width="0.3" fill="#5D5D5D" fill-rule="nonzero"></path>
    </g>
</svg>