<?xml version="1.0" encoding="UTF-8"?>
<svg width="16px" height="16px" viewBox="0 0 16 16" version="1.1" xmlns="http://www.w3.org/2000/svg" xmlns:xlink="http://www.w3.org/1999/xlink">
    <!-- Generator: Sketch 47.1 (45422) - http://www.bohemiancoding.com/sketch -->
    <title>Shape Copy</title>
    <desc>Created with Sketch.</desc>
    <defs></defs>
    <g id="管理后台" stroke="none" stroke-width="1" fill="none" fill-rule="evenodd" opacity="0.5">
        <path d="M15.4464865,8.09310113 C15.1468108,8.09310113 14.9042162,8.33484016 14.9042162,8.63323002 L14.9042162,13.7339668 C14.9020705,14.3907047 14.3687157,14.9217585 13.712,14.9210396 L2.27589189,14.9210396 C1.61917619,14.9217585 1.08582141,14.3907047 1.08367567,13.7339668 L1.08367567,3.02220328 C1.08582141,2.36546542 1.61917619,1.83441166 2.27589189,1.83513057 L6.00345945,1.83513057 C6.14696944,1.83559 6.2847716,1.77895977 6.38649207,1.67772212 C6.48821253,1.57648446 6.54550085,1.43895018 6.54572973,1.29543412 C6.54550065,1.15199321 6.4882717,1.01452467 6.38664486,0.913299477 C6.28501803,0.812074281 6.14732706,0.755393242 6.00389189,0.755737683 L2.27632433,0.755737683 C1.02054055,0.756170122 0,1.77242545 0,3.02220328 L0,13.7339668 C0,14.9837447 1.02097297,16 2.27589189,16 L13.7124324,16 C14.9673514,16 15.9883243,14.9837447 15.9883243,13.7339668 L15.9883243,8.63323002 C15.9882099,8.48971412 15.9310316,8.35213445 15.8293923,8.25081572 C15.727753,8.149497 15.5899965,8.09275664 15.4464865,8.09310113 Z M4.07351352,11.2551687 C4.04485497,11.4131017 4.08792107,11.5755999 4.19103579,11.6986069 C4.29415052,11.821614 4.44663033,11.8923854 4.60713514,11.8917338 C4.864,11.8917338 5.09145947,11.7096727 5.13989189,11.4493384 C5.14421622,11.426851 5.57362162,9.1573583 7.07027027,6.90127148 C7.94118919,5.58878853 8.99675675,4.54442403 10.2067027,3.79888181 C11.3621622,3.08620573 12.6681081,2.64294543 14.1016216,2.47385785 L12.3372973,4.28581947 C12.2372395,4.38841047 12.1822488,4.52668532 12.1845219,4.66997555 C12.1867949,4.81326578 12.2461438,4.94972667 12.3494054,5.04909209 C12.4544865,5.15071763 12.5907027,5.20088171 12.7264865,5.20088171 C12.8683243,5.20088171 13.0097297,5.14639313 13.1156757,5.03698352 L15.8473513,2.23125392 L15.852973,2.22476718 L15.8616216,2.21611821 L15.8702703,2.20617188 C15.8702703,2.20617188 15.8707027,2.20487453 15.8715676,2.20487453 C15.8772997,2.19816079 15.8827809,2.19123685 15.888,2.18411698 L15.8957838,2.17373819 L15.9044324,2.16162961 L15.9104865,2.15298064 C15.9123984,2.15021092 15.9141316,2.14732206 15.9156757,2.14433165 L15.9178378,2.14173696 L15.9191351,2.13914226 L15.9243243,2.13092573 L15.9325405,2.11622246 L15.9368649,2.10843838 L15.9385946,2.10497879 L15.9446487,2.09330267 L15.9494054,2.08378879 C15.9515166,2.07921731 15.953535,2.07460358 15.9554595,2.06995041 L15.9597838,2.05913919 L15.9654054,2.04616572 L15.9697297,2.03319225 C15.971178,2.02944698 15.9726194,2.02569908 15.974054,2.02194857 L15.9783784,2.00767775 L15.980973,1.99643407 C15.9827027,1.99210958 15.9835676,1.98692019 15.9848649,1.9817308 L15.987027,1.97308183 L15.9874595,1.97048713 L15.9904865,1.95664876 C15.9904865,1.95362161 15.9913513,1.95102692 15.9917838,1.94843222 L15.9930811,1.94194549 L15.9943784,1.93070182 C15.9949198,1.92841719 15.9953527,1.92610821 15.9956757,1.92378263 L15.996973,1.91340386 C15.997087,1.91138372 15.9972311,1.9093654 15.9974054,1.90734956 L15.9978378,1.90172772 L15.9982703,1.89870059 L15.9991351,1.88442976 L15.9991351,1.88183507 L15.9995676,1.87318609 L16,1.85588813 C16,1.84637425 16,1.83772527 15.9991351,1.82907629 L15.9991351,1.82691403 L15.9991351,1.82172464 C15.9986866,1.81551496 15.9981099,1.80931521 15.9974054,1.80312933 L15.9965405,1.79793995 L15.9965405,1.7949128 C15.9958982,1.78913729 15.9951774,1.78337077 15.9943784,1.77761484 L15.9930811,1.77069566 L15.9930811,1.76810097 L15.990054,1.75426259 C15.9894156,1.75139231 15.9888389,1.74850865 15.9883243,1.7456136 L15.9883243,1.74388382 C15.9880833,1.74286186 15.9877947,1.74185171 15.9874595,1.74085667 L15.9848649,1.7304779 L15.9805405,1.71317993 L15.9788108,1.70712564 C15.976892,1.70060844 15.9748738,1.69412095 15.9727568,1.68766544 L15.9714595,1.68334094 L15.9671351,1.66993502 L15.9662703,1.66863767 L15.9636757,1.66215094 C15.9605282,1.65380651 15.9570662,1.6455841 15.9532973,1.63750134 L15.9468108,1.62279807 C15.9415449,1.61208892 15.9359201,1.60156004 15.929946,1.59122929 L15.916973,1.56960683 C15.9164506,1.56894404 15.9160146,1.56821746 15.9156757,1.56744459 L15.9078919,1.55533602 L15.9074595,1.55447112 C15.905874,1.55240841 15.9044293,1.55024126 15.9031351,1.54798439 L15.8988108,1.54193009 L15.8953513,1.5376056 C15.894054,1.5358758 15.8931892,1.53414601 15.8918919,1.53328112 C15.891027,1.53111888 15.8897297,1.52982154 15.8884324,1.52809173 L15.8797838,1.51728051 L15.875027,1.51165866 C15.8691633,1.50553483 15.8635376,1.49918754 15.8581622,1.4926309 L15.8421622,1.47533294 C15.8361027,1.46883673 15.8296006,1.46276793 15.8227027,1.45717008 L15.8227027,1.45673763 C15.8161672,1.4506963 15.8093867,1.44492547 15.8023784,1.43943967 C15.7963356,1.43434513 15.7901344,1.42944162 15.7837838,1.4247364 C15.7829189,1.4247364 15.782054,1.42343905 15.7811892,1.4230066 C15.7740626,1.41750595 15.7667045,1.41231184 15.7591351,1.40743843 L15.750054,1.40138415 L15.7427027,1.39705966 C15.7401963,1.39546489 15.7375971,1.39402083 15.7349189,1.39273517 C15.7327568,1.39100536 15.7305946,1.38927558 15.728,1.38841067 C15.725359,1.38705439 15.722763,1.38561213 15.7202162,1.38408619 L15.7107027,1.37889679 C15.702622,1.37487789 15.6945499,1.37084169 15.6864865,1.36678821 L15.6735135,1.36116639 C15.6695673,1.35936099 15.6655252,1.35777297 15.6614054,1.35640944 C15.6493992,1.35166933 15.637288,1.34719956 15.6250811,1.34300352 L15.6181622,1.34084128 L11.6397838,0.0274934397 C11.3562404,-0.0661009623 11.0503536,0.0869449023 10.9552433,0.369993105 C10.860973,0.652814801 11.0149189,0.958123847 11.299027,1.05153285 L12.899027,1.57998562 C11.7448547,1.82397339 10.64112,2.26425557 9.63589189,2.88165732 C8.29145945,3.71066219 7.12345945,4.86313898 6.16562163,6.306654 C4.54875677,8.74523433 4.09210811,11.1544081 4.07351352,11.2556012 L4.07351352,11.2551687 Z" id="Shape-Copy" fill="#202020" fill-rule="nonzero"></path>
    </g>
</svg>