<?xml version="1.0" encoding="UTF-8"?>
<svg width="19px" height="17px" viewBox="0 0 19 17" version="1.1" xmlns="http://www.w3.org/2000/svg" xmlns:xlink="http://www.w3.org/1999/xlink">
    <!-- Generator: Sketch 47.1 (45422) - http://www.bohemiancoding.com/sketch -->
    <title>Shape</title>
    <desc>Created with Sketch.</desc>
    <defs></defs>
    <g id="管理后台" stroke="none" stroke-width="1" fill="none" fill-rule="evenodd" opacity="0.5">
        <path d="M15.7914309,0.9 L15.8788131,0.952405113 L18.9116219,6.63696173 L18.8987093,6.7487673 L9.99594313,16.8997714 L9.84720493,16.9 L0.924872722,6.78959891 L0.911621881,6.67782268 L3.9444112,0.952663095 L4.03193057,0.9 L15.7914309,0.9 Z M7.67207014,7.18635132 L9.91169084,14.6020702 L12.1513299,7.18635132 L7.67207014,7.18635132 Z M11.9692027,6.26191236 L9.91169046,2.56426217 L7.85417821,6.26191238 L11.9692027,6.26191236 Z M12.7379277,5.78312317 L14.9406878,1.82443894 L10.5351496,1.82443894 L12.7379277,5.78312317 Z M9.28821308,1.82443894 L4.89020002,1.82443894 L7.08920655,5.77640151 L9.28821308,1.82443894 Z M4.18838134,2.42343477 L2.15501077,6.26191238 L6.32425437,6.26191238 L4.18838134,2.42343477 Z M2.48844877,7.18635132 L8.9399307,14.4969124 L6.73208496,7.18635132 L2.48844877,7.18635132 Z M10.8782618,14.5140232 L17.3048654,7.18635132 L13.0912957,7.18635132 L10.8782618,14.5140232 Z M17.686783,6.26191238 L15.6406783,2.42678999 L13.5066541,6.26191238 L17.686783,6.26191238 Z" id="Shape" fill="#202020" fill-rule="nonzero"></path>
    </g>
</svg>