<?xml version="1.0" encoding="UTF-8"?>
<svg width="20px" height="20px" viewBox="0 0 20 20" version="1.1" xmlns="http://www.w3.org/2000/svg" xmlns:xlink="http://www.w3.org/1999/xlink">
    <!-- Generator: Sketch 55.2 (78181) - https://sketchapp.com -->
    <title>Googleiconlogo</title>
    <desc>Created with Sketch.</desc>
    <g id="Page-1" stroke="none" stroke-width="1" fill="none" fill-rule="evenodd">
        <g id="Artboard" transform="translate(-875.000000, -465.000000)">
            <g id="Googleiconlogo" transform="translate(875.000000, 465.000000)">
                <rect id="Rectangle" fill="#FFFFFF" x="0" y="0" width="20" height="20" rx="10"></rect>
                <g id="Group" transform="translate(2.000000, 2.000000)" fill-rule="nonzero">
                    <path d="M15.6261374,8.14967939 C15.6261374,7.49416794 15.5729466,7.0158168 15.4578321,6.51975572 L7.97251908,6.51975572 L7.97251908,9.47841222 L12.366229,9.47841222 C12.2776794,10.2136794 11.7993282,11.3209771 10.7363053,12.0650382 L10.7214046,12.1640916 L13.0881221,13.9975572 L13.2520916,14.0139237 C14.7579847,12.623145 15.6261374,10.576855 15.6261374,8.14967939" id="Path" fill="#4285F4"></path>
                    <path d="M7.97251908,15.9450382 C10.1250687,15.9450382 11.9321527,15.2363359 13.2520916,14.0139237 L10.7363053,12.0650382 C10.063084,12.5345344 9.15951145,12.8622901 7.97251908,12.8622901 C5.86424427,12.8622901 4.07487022,11.4715725 3.43700762,9.54931298 L3.34351145,9.55725191 L0.882564891,11.4618015 L0.850381672,11.5512672 C2.16140458,14.155603 4.85435114,15.9450382 7.97251908,15.9450382" id="Path" fill="#34A853"></path>
                    <path d="M3.43700763,9.54931298 C3.26870228,9.05325192 3.1712977,8.52170994 3.1712977,7.97251908 C3.1712977,7.42326717 3.26870228,6.89178625 3.42815267,6.39572519 L3.42369466,6.29007633 L0.931908391,4.3549313 L0.850381672,4.39370992 C0.310045797,5.47444275 7.14983628e-14,6.68806106 7.14983628e-14,7.97251908 C7.14983628e-14,9.25697709 0.310045797,10.4705343 0.850381672,11.5512672 L3.43700763,9.54931298" id="Path" fill="#FBBC05"></path>
                    <path d="M7.97251908,3.08268702 C9.46955725,3.08268702 10.4793893,3.7293435 11.0552061,4.26974045 L13.3052214,2.07285497 C11.9233588,0.788396953 10.1250687,7.10542736e-15 7.97251908,7.10542736e-15 C4.85435114,7.10542736e-15 2.16140458,1.78937405 0.850381672,4.39370992 L3.42815267,6.39572519 C4.07487023,4.47346564 5.86424428,3.08268702 7.97251908,3.08268702" id="Path" fill="#EB4335"></path>
                </g>
            </g>
        </g>
    </g>
</svg>