<?xml version="1.0" encoding="UTF-8"?>
<svg width="24px" height="24px" viewBox="0 0 24 24" version="1.1" xmlns="http://www.w3.org/2000/svg" xmlns:xlink="http://www.w3.org/1999/xlink">
    <!-- Generator: Sketch 53.2 (72643) - https://sketchapp.com -->
    <title>logo</title>
    <desc>Created with Sketch.</desc>
    <defs>
        <linearGradient x1="78.8736979%" y1="24.226888%" x2="33.6588542%" y2="69.7509766%" id="linearGradient-1">
            <stop stop-color="#25FF26" offset="0%"></stop>
            <stop stop-color="#06DEBC" offset="100%"></stop>
        </linearGradient>
    </defs>
    <g id="design" stroke="none" stroke-width="1" fill="none" fill-rule="evenodd">
        <g id="logo">
            <path d="M12,24 C22.5,24 24,18 24,12 C24,6 22.5,0 12,0 C1.5,1.28587914e-15 0,6 0,12 C3.6739404e-16,18 1.5,24 12,24 Z" id="Path-Copy-5" fill="#292C34" fill-rule="nonzero"></path>
            <path d="M12,18 C8.6862915,18 6,15.3137085 6,12 C6,8.6862915 8.6862915,6 12,6 C15.3137085,6 18,8.6862915 18,12 C18,15.3137085 15.3137085,18 12,18 Z M12,15.6 C13.9882251,15.6 15.6,13.9882251 15.6,12 C15.6,10.0117749 13.9882251,8.4 12,8.4 C10.0117749,8.4 8.4,10.0117749 8.4,12 C8.4,13.9882251 10.0117749,15.6 12,15.6 Z" id="Combined-Shape-Copy-8" fill="url(#linearGradient-1)"></path>
        </g>
    </g>
</svg>